<?xml version="1.0" encoding="UTF-8" standalone="no"?>
<!-- Created with Inkscape (http://www.inkscape.org/) -->

<svg
   xmlns:dc="http://purl.org/dc/elements/1.1/"
   xmlns:cc="http://creativecommons.org/ns#"
   xmlns:rdf="http://www.w3.org/1999/02/22-rdf-syntax-ns#"
   xmlns:svg="http://www.w3.org/2000/svg"
   xmlns="http://www.w3.org/2000/svg"
   xmlns:sodipodi="http://sodipodi.sourceforge.net/DTD/sodipodi-0.dtd"
   xmlns:inkscape="http://www.inkscape.org/namespaces/inkscape"
   width="210mm"
   height="297mm"
   viewBox="0 0 210 297"
   version="1.1"
   id="svg244"
   inkscape:version="0.92.2 (5c3e80d, 2017-08-06)"
   sodipodi:docname="basketball_shooting.svg">
  <defs
     id="defs238">
    <clipPath
       clipPathUnits="userSpaceOnUse"
       id="clipPath2378">
      <rect
         style="opacity:1;fill:#aaffee;fill-opacity:1;stroke-width:8.8148241;stroke-miterlimit:4;stroke-dasharray:none"
         id="rect2380"
         width="85.550301"
         height="150.83965"
         x="153.48204"
         y="-207.40446"
         transform="scale(1,-1)" />
    </clipPath>
    <clipPath
       clipPathUnits="userSpaceOnUse"
       id="clipPath2378-6">
      <rect
         style="opacity:1;fill:#aaffee;fill-opacity:1;stroke-width:8.8148241;stroke-miterlimit:4;stroke-dasharray:none"
         id="rect2380-5"
         width="85.550301"
         height="150.83965"
         x="153.48204"
         y="-207.40446"
         transform="scale(1,-1)" />
    </clipPath>
  </defs>
  <sodipodi:namedview
     id="base"
     pagecolor="#ffffff"
     bordercolor="#666666"
     borderopacity="1.0"
     inkscape:pageopacity="0.0"
     inkscape:pageshadow="2"
     inkscape:zoom="0.24748737"
     inkscape:cx="1234.7303"
     inkscape:cy="371.89882"
     inkscape:document-units="mm"
     inkscape:current-layer="layer1"
     showgrid="false"
     inkscape:window-width="1440"
     inkscape:window-height="838"
     inkscape:window-x="-8"
     inkscape:window-y="-8"
     inkscape:window-maximized="1"
     inkscape:snap-global="false" />
  <metadata
     id="metadata241">
    <rdf:RDF>
      <cc:Work
         rdf:about="">
        <dc:format>image/svg+xml</dc:format>
        <dc:type
           rdf:resource="http://purl.org/dc/dcmitype/StillImage" />
        <dc:title />
      </cc:Work>
    </rdf:RDF>
  </metadata>
  <g
     inkscape:label="Layer 1"
     inkscape:groupmode="layer"
     id="layer1">
    <g
       id="g155"
       transform="matrix(0.61440223,0.76076775,-0.76076337,0.61440576,135.93209,-33.510261)">
      <g
         id="g1500"
         transform="matrix(1.3871404,0,0,1,2.3506179,-43.080506)">
        <rect
           transform="rotate(90)"
           ry="11.756954"
           y="-60.82214"
           x="145.4538"
           height="91.406181"
           width="25.657877"
           id="rect1382-6"
           style="opacity:1;fill:#000000;fill-opacity:1;stroke-width:0.17123693" />
        <rect
           transform="rotate(90)"
           ry="11.835518"
           y="-56.299839"
           x="148.08618"
           height="85.541962"
           width="20.847025"
           id="rect1382-9-6"
           style="opacity:1;fill:#aaffee;fill-opacity:1;stroke-width:0.14931756" />
      </g>
      <rect
         style="opacity:1;fill:#ffcc00;fill-opacity:1;stroke-width:2.46431327;stroke-miterlimit:4;stroke-dasharray:none"
         id="rect2426-1"
         width="20.867985"
         height="35.647381"
         x="-97.669647"
         y="34.275188"
         transform="rotate(-90,15.751416,12.404066)" />
      <rect
         style="opacity:1;fill:#000000;fill-opacity:1;stroke-width:2.64662242;stroke-miterlimit:4;stroke-dasharray:none"
         id="rect2481"
         width="2.4434147"
         height="22.773064"
         x="33.307987"
         y="75.99086"
         transform="translate(3.3473496,28.155482)" />
      <path
         inkscape:connector-curvature="0"
         id="path2430"
         d="m 82.645538,105.30083 c 0.004,-1.06018 0.009,-1.92943 0.0118,-1.93167 0.002,-0.002 0.16348,-0.009 0.35777,-0.0162 l 0.35324,-0.0121 -0.0322,0.11464 c -0.0609,0.21681 -0.19649,0.76657 -0.26316,1.06678 -0.17485,0.78744 -0.28555,1.46786 -0.41854,2.57247 -0.0107,0.0889 -0.0137,-0.51179 -0.009,-1.79398 z"
         style="opacity:1;fill:#ffcc00;fill-opacity:1;stroke-width:0.25664186;stroke-miterlimit:4;stroke-dasharray:none" />
    </g>
    <rect
       style="opacity:1;fill:#000000;fill-opacity:1;stroke-width:0.30987185"
       id="rect10-5"
       width="73.031471"
       height="171.61952"
       x="70.470993"
       y="62.298134"
       ry="23.522333" />
    <rect
       style="opacity:1;fill:#aaffee;fill-opacity:1;stroke-width:0.25873172"
       id="rect10"
       width="67.953011"
       height="128.58876"
       x="73.198372"
       y="64.083893"
       ry="20.386023" />
    <path
       style="opacity:1;fill:#0000ff;fill-opacity:1;stroke-width:0.00577525"
       d="m 113.89154,67.565008 c 1.17443,-0.119135 2.08973,-0.234193 3.12531,-0.392674 0.13396,-0.02015 0.24544,-0.03718 0.24741,-0.03718 0,0 0,0.02531 0,0.05621 v 0.05621 l -0.14768,0.01791 c -1.0385,0.127645 -2.02519,0.223042 -3.12628,0.302427 -0.30802,0.0224 -0.33933,0.0224 -0.0988,-0.0022 z"
       id="path1680"
       inkscape:connector-curvature="0" />
    <path
       style="opacity:1;fill:#ffcc00;fill-opacity:1;stroke-width:2.77006507;stroke-miterlimit:4;stroke-dasharray:none"
       d="m 89.485589,191.51743 c -5.95725,-0.98375 -11.871474,-5.61653 -14.875523,-11.65171 l -1.550919,-3.1139 -0.159399,-47.10689 C 72.721785,77.232046 72.633766,78.71805 76.23628,73.360843 c 2.158182,-3.208665 6.139137,-6.443886 9.471753,-7.696347 2.343002,-0.880879 2.483817,-0.873489 6.474549,0.340632 3.765819,1.145843 4.949056,1.241061 15.416288,1.240926 10.18464,-1.33e-4 11.78739,-0.121149 15.7654,-1.191144 l 4.42882,-1.190966 2.94733,1.419292 c 3.82156,1.840115 7.37713,5.377989 9.32116,9.273334 l 1.54995,3.107287 v 49.303473 49.30347 l -1.41792,2.97678 c -2.77816,5.83406 -8.72761,10.22652 -15.2657,11.27068 -3.8998,0.62278 -31.669658,0.62211 -35.442323,-9.7e-4 z m 21.540761,-23.3828 c 2.80163,-0.69436 6.25745,-3.49356 7.66464,-6.20893 1.00036,-1.92983 1.03654,-3.2303 1.03654,-37.32014 V 89.28489 l -13.0508,0.138841 -13.051771,0.138841 -0.147665,33.733988 c -0.101688,23.07951 0.02933,34.47154 0.427336,36.06936 1.767029,7.17168 8.87524,10.81224 17.12172,8.76878 z"
       id="path2195"
       inkscape:connector-curvature="0" />
    <path
       style="fill:none;stroke:#000000;stroke-width:4.00799942;stroke-linecap:butt;stroke-linejoin:miter;stroke-miterlimit:4;stroke-dasharray:none;stroke-opacity:1"
       d="m 72.43917,181.17105 c 22.681947,-0.31727 47.19058,-0.0735 68.93179,-0.40776"
       id="path2203"
       inkscape:connector-curvature="0" />
    <rect
       style="opacity:1;fill:#000000;fill-opacity:1;stroke-width:3.14025259;stroke-miterlimit:4;stroke-dasharray:none"
       id="rect2235"
       width="73.000488"
       height="27.37738"
       x="70.501549"
       y="206.88412"
       ry="0" />
    <rect
       style="opacity:1;fill:#000080;fill-opacity:1;stroke-width:1.37001526;stroke-miterlimit:4;stroke-dasharray:none"
       id="rect2199"
       width="68.563713"
       height="52.670536"
       x="72.480232"
       y="179.07825"
       ry="0" />
    <path
       style="opacity:1;fill:#000000;fill-opacity:1;stroke-width:3.12328362;stroke-miterlimit:4;stroke-dasharray:none"
       id="path2244"
       sodipodi:type="arc"
       sodipodi:cx="84.466927"
       sodipodi:cy="259.75177"
       sodipodi:rx="48.416527"
       sodipodi:ry="17.249712"
       sodipodi:start="0"
       sodipodi:end="6.2763219"
       d="M 132.88345,259.75177 A 48.416527,17.249712 0 0 1 84.550002,277.00146 48.416527,17.249712 0 0 1 36.050685,259.81097 48.416527,17.249712 0 0 1 84.217701,242.50229 48.416527,17.249712 0 0 1 132.88231,259.63338"
       sodipodi:open="true" />
    <rect
       style="opacity:1;fill:#000000;fill-opacity:1;stroke-width:1.99138153;stroke-miterlimit:4;stroke-dasharray:none"
       id="rect2276"
       width="49.105526"
       height="43.982021"
       x="84.199524"
       y="232.98407" />
    <path
       style="opacity:1;fill:#800000;fill-opacity:1;stroke-width:2.62273383;stroke-miterlimit:4;stroke-dasharray:none"
       id="path2244-9"
       sodipodi:type="arc"
       sodipodi:cx="81.624962"
       sodipodi:cy="259.9873"
       sodipodi:rx="42.435028"
       sodipodi:ry="13.87831"
       sodipodi:start="0"
       sodipodi:end="6.2763219"
       d="m 124.05999,259.9873 a 42.435028,13.87831 0 0 1 -42.362216,13.87829 42.435028,13.87831 0 0 1 -42.50759,-13.83066 42.435028,13.87831 0 0 1 42.216342,-13.92575 42.435028,13.87831 0 0 1 42.652464,13.78287"
       sodipodi:open="true" />
    <rect
       style="opacity:1;fill:#800000;fill-opacity:1;stroke-width:1.77149761;stroke-miterlimit:4;stroke-dasharray:none"
       id="rect2276-5"
       width="42.799141"
       height="39.934002"
       x="88.065208"
       y="233.94467" />
    <rect
       style="opacity:1;fill:#000000;fill-opacity:1;stroke-width:4.65406895;stroke-miterlimit:4;stroke-dasharray:none"
       id="rect2300"
       width="69.626343"
       height="1.7556847"
       x="71.968361"
       y="177.57074" />
    <path
       style="fill:none;stroke:#000000;stroke-width:1.31664157;stroke-linecap:butt;stroke-linejoin:miter;stroke-miterlimit:4;stroke-dasharray:none;stroke-opacity:1"
       d="m 87.273621,63.584232 c 7.690057,6.227338 31.495579,6.320137 39.872119,0.15698"
       id="path1670"
       inkscape:connector-curvature="0"
       sodipodi:nodetypes="cc" />
    <path
       style="opacity:1;fill:#aaffee;fill-opacity:1;stroke-width:0.70983875;stroke-miterlimit:4;stroke-dasharray:none"
       d="m 104.95957,67.591747 c -1.32306,-0.05307 -3.87925,-0.245973 -4.46304,-0.336556 -0.0391,-0.0067 2.97765,-0.01115 6.69653,-0.01115 7.10722,0 7.0867,-7.62e-4 4.89722,0.180268 -2.11027,0.174447 -5.1593,0.245705 -7.13071,0.166611 z"
       id="path2307"
       inkscape:connector-curvature="0" />
    <path
       style="opacity:1;fill:#ffcc00;fill-opacity:1;stroke-width:0.04436491;stroke-miterlimit:4;stroke-dasharray:none"
       d="m 125.65837,65.435164 c 0,-7.85e-4 0.0294,-0.01344 0.0586,-0.02979 0.2562,-0.135035 0.55054,-0.301353 0.78817,-0.444605 l 0.0684,-0.04254 0.0586,0.01791 c 0.14766,0.04389 0.40289,0.123614 0.4068,0.126749 9.8e-4,0.0011 -0.30608,0.08488 -0.68355,0.186092 -0.73634,0.198185 -0.70016,0.188331 -0.69722,0.186093 z"
       id="path2409"
       inkscape:connector-curvature="0" />
    <rect
       style="opacity:1;fill:#ffcc00;fill-opacity:1;stroke-width:3.70815063;stroke-miterlimit:4;stroke-dasharray:none"
       id="rect2413"
       width="1.2130431"
       height="0.52677453"
       x="126.72181"
       y="64.536049"
       transform="matrix(0.99999571,0.00292903,-0.00215044,0.99999769,0,0)" />
    <path
       style="opacity:1;fill:#ffcc00;fill-opacity:1;stroke-width:0.08872985;stroke-miterlimit:4;stroke-dasharray:none"
       d="m 85.625893,65.687585 c 0,-0.0013 0.05867,-0.02486 0.124195,-0.05263 0.618999,-0.257371 1.293738,-0.497005 1.957718,-0.69528 0.088,-0.02553 0.172119,-0.05106 0.192655,-0.05621 l 0.03913,-0.0089 0.133982,0.08308 0.132996,0.08308 -0.1594,0.0045 c -0.502628,0.01115 -0.936807,0.11018 -1.724979,0.391733 -0.143745,0.05152 -0.574016,0.210724 -0.64247,0.237688 -0.03913,0.01567 -0.05867,0.02015 -0.04888,0.01343 z"
       id="path2415"
       inkscape:connector-curvature="0" />
    <g
       id="g2312"
       transform="matrix(0.97788087,0,0,1.3058773,-9.3928339,-7.7379427)">
      <rect
         ry="11.860085"
         y="66.587494"
         x="105.2422"
         height="92.207985"
         width="26.834801"
         id="rect1382"
         style="opacity:1;fill:#000000;fill-opacity:1;stroke-width:0.1758866" />
      <rect
         ry="10.423512"
         y="81.721619"
         x="108.15637"
         height="75.336601"
         width="20.847025"
         id="rect1382-9"
         style="opacity:1;fill:#aaffee;fill-opacity:1;stroke-width:0.14012781" />
      <rect
         ry="0"
         y="79.391205"
         x="108.23467"
         height="62.507664"
         width="20.833235"
         id="rect1382-9-47"
         style="opacity:1;fill:#aaffee;fill-opacity:1;stroke-width:0.12759812" />
    </g>
    <rect
       style="opacity:1;fill:#ffcc00;fill-opacity:1;stroke-width:2.42069936;stroke-miterlimit:4;stroke-dasharray:none"
       id="rect2426"
       width="20.591209"
       height="34.859093"
       x="96.392487"
       y="76.792213" />
    <path
       style="opacity:1;fill:#ffcc00;fill-opacity:1;stroke-width:0.25096589;stroke-miterlimit:4;stroke-dasharray:none"
       d="m 119.70211,93.870275 c -0.0684,-0.921838 -0.2298,-2.072764 -0.4381,-3.046488 -0.0684,-0.324283 -0.2562,-1.075145 -0.33736,-1.355783 l -0.0489,-0.163251 0.41658,-0.0045 c 0.22883,-0.002 0.41952,-0.002 0.42245,9.63e-4 0,0.0022 0,1.074697 0,2.381103 0,1.383238 -0.009,2.29688 -0.0195,2.187466 z"
       id="path2428"
       inkscape:connector-curvature="0" />
    <rect
       style="opacity:1;fill:#000000;fill-opacity:1;stroke-width:3.97509742;stroke-miterlimit:4;stroke-dasharray:none"
       id="rect2432"
       width="22.269344"
       height="1.7094823"
       x="95.766037"
       y="110.53128" />
    <path
       style="opacity:1;fill:#000000;fill-opacity:1;stroke-width:1.93705773;stroke-miterlimit:4;stroke-dasharray:none;paint-order:stroke fill markers"
       d="m 100.11424,46.816814 -2.93242,17.034397 h 19.59649 l -2.93239,-17.034397 z m -3.193957,17.012409 v 0.02195 h 0.121598 z"
       id="rect3947"
       inkscape:connector-curvature="0" />
    <path
       style="opacity:1;fill:#aaffee;fill-opacity:1;stroke-width:1.91708982;stroke-miterlimit:4;stroke-dasharray:none;paint-order:stroke fill markers"
       d="m 100.64192,47.705661 -2.74115,17.849077 h 18.31845 l -2.74117,-17.849077 z m -2.985645,17.826038 v 0.02309 h 0.113538 z"
       id="rect3947-7"
       inkscape:connector-curvature="0" />
  </g>
</svg>
