<?xml version="1.0" encoding="UTF-8" standalone="no"?>
<!-- Created with Inkscape (http://www.inkscape.org/) -->

<svg
   xmlns:dc="http://purl.org/dc/elements/1.1/"
   xmlns:cc="http://creativecommons.org/ns#"
   xmlns:rdf="http://www.w3.org/1999/02/22-rdf-syntax-ns#"
   xmlns:svg="http://www.w3.org/2000/svg"
   xmlns="http://www.w3.org/2000/svg"
   xmlns:sodipodi="http://sodipodi.sourceforge.net/DTD/sodipodi-0.dtd"
   xmlns:inkscape="http://www.inkscape.org/namespaces/inkscape"
   width="210mm"
   height="297mm"
   viewBox="0 0 210 297"
   version="1.1"
   id="svg2528"
   sodipodi:docname="basketball_dribbling_2.svg"
   inkscape:version="0.92.2 (5c3e80d, 2017-08-06)">
  <defs
     id="defs2522">
    <clipPath
       clipPathUnits="userSpaceOnUse"
       id="clipPath2378">
      <rect
         style="opacity:1;fill:#aaffee;fill-opacity:1;stroke-width:8.8148241;stroke-miterlimit:4;stroke-dasharray:none"
         id="rect2380"
         width="85.550301"
         height="150.83965"
         x="153.48204"
         y="-207.40446"
         transform="scale(1,-1)" />
    </clipPath>
    <clipPath
       clipPathUnits="userSpaceOnUse"
       id="clipPath2378-6">
      <rect
         style="opacity:1;fill:#aaffee;fill-opacity:1;stroke-width:8.8148241;stroke-miterlimit:4;stroke-dasharray:none"
         id="rect2380-5"
         width="85.550301"
         height="150.83965"
         x="153.48204"
         y="-207.40446"
         transform="scale(1,-1)" />
    </clipPath>
  </defs>
  <sodipodi:namedview
     id="base"
     pagecolor="#ffffff"
     bordercolor="#666666"
     borderopacity="1.0"
     inkscape:pageopacity="0.0"
     inkscape:pageshadow="2"
     inkscape:zoom="0.4892327"
     inkscape:cx="615.51223"
     inkscape:cy="408.52364"
     inkscape:document-units="mm"
     inkscape:current-layer="layer1"
     showgrid="false"
     inkscape:window-width="1440"
     inkscape:window-height="838"
     inkscape:window-x="-8"
     inkscape:window-y="-8"
     inkscape:window-maximized="1"
     inkscape:snap-global="false" />
  <metadata
     id="metadata2525">
    <rdf:RDF>
      <cc:Work
         rdf:about="">
        <dc:format>image/svg+xml</dc:format>
        <dc:type
           rdf:resource="http://purl.org/dc/dcmitype/StillImage" />
      </cc:Work>
    </rdf:RDF>
  </metadata>
  <g
     inkscape:label="Layer 1"
     inkscape:groupmode="layer"
     id="layer1">
    <g
       transform="matrix(0.71215001,-0.78288248,0.78135262,0.71354437,-59.905018,117.83819)"
       id="g2488">
      <g
         transform="matrix(1.3871404,0,0,1,64.07701,-69.264054)"
         id="g1500">
        <rect
           style="opacity:1;fill:#000000;fill-opacity:1;stroke-width:0.17123693"
           id="rect1382-6"
           width="25.657877"
           height="91.406181"
           x="145.4538"
           y="-60.82214"
           ry="11.756954"
           transform="rotate(90)" />
        <rect
           style="opacity:1;fill:#aaffee;fill-opacity:1;stroke-width:0.14931756"
           id="rect1382-9-6"
           width="20.847025"
           height="85.541962"
           x="148.08618"
           y="-56.299839"
           ry="11.835518"
           transform="rotate(90)" />
      </g>
      <rect
         transform="rotate(-90)"
         y="99.34893"
         x="-99.641579"
         height="35.647381"
         width="20.867985"
         id="rect2426-1"
         style="opacity:1;fill:#ffcc00;fill-opacity:1;stroke-width:2.46431327;stroke-miterlimit:4;stroke-dasharray:none" />
      <rect
         y="77.962791"
         x="98.381729"
         height="22.773064"
         width="2.4434147"
         id="rect2481"
         style="opacity:1;fill:#000000;fill-opacity:1;stroke-width:2.64662242;stroke-miterlimit:4;stroke-dasharray:none" />
    </g>
    <rect
       style="opacity:1;fill:#000000;fill-opacity:1;stroke-width:0.33533305"
       id="rect10-5"
       width="78.955215"
       height="185.90218"
       x="78.012444"
       y="44.449642"
       ry="25.479925" />
    <rect
       style="opacity:1;fill:#aaffee;fill-opacity:1;stroke-width:0.27999088"
       id="rect10"
       width="73.464828"
       height="139.29027"
       x="80.957283"
       y="46.38401"
       ry="22.082605" />
    <path
       style="opacity:1;fill:#0000ff;fill-opacity:1;stroke-width:0.00624982"
       d="m 124.95403,50.154848 c 1.27005,-0.129047 2.25935,-0.253682 3.37887,-0.425375 0.14479,-0.02268 0.265,-0.04033 0.26713,-0.04033 0.002,0 0.003,0.02748 0.002,0.06099 l -0.002,0.06074 -0.15922,0.02016 c -1.12334,0.138121 -2.19019,0.241712 -3.3798,0.327608 -0.33347,0.02521 -0.36695,0.02269 -0.10728,-0.0025 z"
       id="path1680"
       inkscape:connector-curvature="0" />
    <path
       style="opacity:1;fill:#ffcc00;fill-opacity:1;stroke-width:2.9976728;stroke-miterlimit:4;stroke-dasharray:none"
       d="M 98.568291,184.42291 C 92.128239,183.35729 85.733696,178.33897 82.485769,171.8015 L 80.80996,168.42848 80.637034,117.40123 C 80.444623,60.626361 80.34939,62.236042 84.244376,56.432997 c 2.332888,-3.475692 6.63721,-6.980143 10.239689,-8.336848 2.533714,-0.954215 2.68591,-0.946173 7.000025,0.368968 4.07156,1.241218 5.35049,1.344355 16.66695,1.344204 11.01076,-1.52e-4 12.74375,-0.131316 17.04441,-1.29024 l 4.78742,-1.290115 3.1866,1.53742 c 4.13144,1.993242 7.9758,5.825552 10.07668,10.045079 l 1.67586,3.365876 v 53.406649 53.40665 l -1.53251,3.2245 c -3.00348,6.31959 -9.43556,11.07761 -16.50415,12.20868 -4.21604,0.6746 -34.23869,0.67389 -38.317061,-9.9e-4 z m 23.287589,-25.3288 c 3.02911,-0.75215 6.76507,-3.78429 8.28676,-6.72566 1.08148,-2.09043 1.12053,-3.49913 1.12053,-40.42603 V 73.682311 l -14.1098,0.15047 -14.10979,0.150471 -0.16009,36.541418 c -0.10954,25.00026 0.0363,37.34035 0.46211,39.07112 1.91067,7.76857 9.59568,11.7121 18.51028,9.49854 z"
       id="path2195"
       inkscape:connector-curvature="0" />
    <path
       style="fill:none;stroke:#000000;stroke-width:4.33732462;stroke-linecap:butt;stroke-linejoin:miter;stroke-miterlimit:4;stroke-dasharray:none;stroke-opacity:1"
       d="m 80.139276,173.21549 c 24.521744,-0.34369 51.018144,-0.0794 74.522874,-0.44172"
       id="path2203"
       inkscape:connector-curvature="0" />
    <rect
       style="opacity:1;fill:#000000;fill-opacity:1;stroke-width:3.39827776;stroke-miterlimit:4;stroke-dasharray:none"
       id="rect2235"
       width="78.921715"
       height="29.655802"
       x="78.043442"
       y="201.06834"
       ry="0" />
    <rect
       style="opacity:1;fill:#000080;fill-opacity:1;stroke-width:1.48258495;stroke-miterlimit:4;stroke-dasharray:none"
       id="rect2199"
       width="74.125061"
       height="57.053921"
       x="80.179802"
       y="170.94846"
       ry="0" />
    <path
       style="opacity:1;fill:#000000;fill-opacity:1;stroke-width:3.37991428;stroke-miterlimit:4;stroke-dasharray:none"
       id="path2244"
       sodipodi:type="arc"
       sodipodi:cx="93.140877"
       sodipodi:cy="258.33597"
       sodipodi:rx="52.343697"
       sodipodi:ry="18.685278"
       sodipodi:start="0"
       sodipodi:end="6.2763219"
       d="M 145.48457,258.33597 A 52.343697,18.685278 0 0 1 93.230691,277.02122 52.343697,18.685278 0 0 1 40.797488,258.40009 52.343697,18.685278 0 0 1 92.871436,239.65094 52.343697,18.685278 0 0 1 145.48334,258.20772"
       sodipodi:open="true" />
    <rect
       style="opacity:1;fill:#000000;fill-opacity:1;stroke-width:2.15500736;stroke-miterlimit:4;stroke-dasharray:none"
       id="rect2276"
       width="53.088577"
       height="47.642323"
       x="92.850418"
       y="229.3405" />
    <path
       style="opacity:1;fill:#800000;fill-opacity:1;stroke-width:2.83823538;stroke-miterlimit:4;stroke-dasharray:none"
       id="path2244-9"
       sodipodi:type="arc"
       sodipodi:cx="90.067261"
       sodipodi:cy="258.59106"
       sodipodi:rx="45.877026"
       sodipodi:ry="15.0333"
       sodipodi:start="0"
       sodipodi:end="6.2763219"
       d="M 135.94429,258.59106 A 45.877026,15.0333 0 0 1 90.145979,273.62434 45.877026,15.0333 0 0 1 44.190505,258.64265 45.877026,15.0333 0 0 1 89.831107,243.55796 45.877026,15.0333 0 0 1 135.94321,258.48789"
       sodipodi:open="true" />
    <rect
       style="opacity:1;fill:#800000;fill-opacity:1;stroke-width:1.91705596;stroke-miterlimit:4;stroke-dasharray:none"
       id="rect2276-5"
       width="46.270676"
       height="43.25742"
       x="97.032784"
       y="230.3811" />
    <rect
       style="opacity:1;fill:#000000;fill-opacity:1;stroke-width:5.03647804;stroke-miterlimit:4;stroke-dasharray:none"
       id="rect2300"
       width="75.273888"
       height="1.9017975"
       x="79.630379"
       y="169.31554" />
    <path
       style="fill:none;stroke:#000000;stroke-width:1.42482615;stroke-linecap:butt;stroke-linejoin:miter;stroke-miterlimit:4;stroke-dasharray:none;stroke-opacity:1"
       d="m 96.177396,45.842771 c 8.313674,6.745591 34.049924,6.846132 43.105904,0.170382"
       id="path1670"
       inkscape:connector-curvature="0"
       sodipodi:nodetypes="cc" />
    <path
       style="opacity:1;fill:#aaffee;fill-opacity:1;stroke-width:0.76816404;stroke-miterlimit:4;stroke-dasharray:none"
       d="m 115.29785,50.183809 c -1.43049,-0.05747 -4.19481,-0.266437 -4.82527,-0.364583 -0.0393,-0.0075 3.21868,-0.01008 7.23994,-0.01008 7.68342,0 7.6611,-8.32e-4 5.29392,0.195334 -2.28171,0.189285 -5.57771,0.266158 -7.70859,0.180463 z"
       id="path2307"
       inkscape:connector-curvature="0" />
    <path
       style="opacity:1;fill:#ffcc00;fill-opacity:1;stroke-width:0.04801024;stroke-miterlimit:4;stroke-dasharray:none"
       d="m 137.67476,47.847735 c 8.3e-4,-8.32e-4 0.0276,-0.01512 0.0593,-0.03201 0.27683,-0.14669 0.59536,-0.326422 0.85211,-0.481606 l 0.0764,-0.04612 0.0658,0.02016 c 0.15941,0.04738 0.43568,0.133835 0.43949,0.137363 9.9e-4,0.0011 -0.331,0.09175 -0.73832,0.201637 -0.79704,0.214742 -0.75692,0.204156 -0.75464,0.201635 z"
       id="path2409"
       inkscape:connector-curvature="0" />
    <rect
       style="opacity:1;fill:#ffcc00;fill-opacity:1;stroke-width:4.01283789;stroke-miterlimit:4;stroke-dasharray:none"
       id="rect2413"
       width="1.3114358"
       height="0.57061416"
       x="138.77573"
       y="46.868576"
       transform="matrix(0.99999569,0.00293475,-0.00214625,0.9999977,0,0)" />
    <path
       style="opacity:1;fill:#ffcc00;fill-opacity:1;stroke-width:0.09602049;stroke-miterlimit:4;stroke-dasharray:none"
       d="m 94.395644,48.121152 c 0.0011,-0.0011 0.06162,-0.02672 0.133708,-0.05696 0.67,-0.278811 1.399544,-0.538392 2.116609,-0.75316 0.09273,-0.02773 0.18684,-0.0552 0.209172,-0.06099 l 0.04061,-0.01009 0.144447,0.08998 0.144447,0.08998 -0.17255,0.0051 c -0.543424,0.0126 -1.01302,0.119218 -1.864595,0.424317 -0.155813,0.0557 -0.621251,0.228352 -0.69477,0.257489 -0.04018,0.01512 -0.06469,0.02268 -0.05709,0.01512 z"
       id="path2415"
       inkscape:connector-curvature="0" />
    <g
       id="g2312"
       transform="matrix(1.057199,0,0,1.4145559,-8.3307259,-31.415064)">
      <rect
         ry="11.860085"
         y="66.587494"
         x="105.2422"
         height="92.207985"
         width="26.834801"
         id="rect1382"
         style="opacity:1;fill:#000000;fill-opacity:1;stroke-width:0.1758866" />
      <rect
         ry="10.423512"
         y="81.721619"
         x="108.15637"
         height="75.336601"
         width="20.847025"
         id="rect1382-9"
         style="opacity:1;fill:#aaffee;fill-opacity:1;stroke-width:0.14012781" />
      <rect
         ry="0"
         y="79.391205"
         x="108.23467"
         height="62.507664"
         width="20.833235"
         id="rect1382-9-47"
         style="opacity:1;fill:#aaffee;fill-opacity:1;stroke-width:0.12759812" />
    </g>
    <rect
       style="opacity:1;fill:#ffcc00;fill-opacity:1;stroke-width:2.6196003;stroke-miterlimit:4;stroke-dasharray:none"
       id="rect2426"
       width="22.261408"
       height="37.760159"
       x="106.03422"
       y="60.149918" />
    <path
       style="opacity:1;fill:#ffcc00;fill-opacity:1;stroke-width:0.27158698;stroke-miterlimit:4;stroke-dasharray:none"
       d="m 131.23581,78.6493 c -0.0696,-0.998549 -0.24871,-2.245237 -0.47388,-3.300018 -0.075,-0.351299 -0.27711,-1.164646 -0.3649,-1.468637 l -0.0511,-0.177188 0.45026,-0.0051 c 0.24766,-0.0021 0.45308,-0.0021 0.45651,0.0011 0.003,0.0025 0.004,1.164118 0.002,2.579297 -0.002,1.498353 -0.0106,2.488005 -0.0186,2.369493 z"
       id="path2428"
       inkscape:connector-curvature="0" />
    <path
       style="opacity:1;fill:#ffcc00;fill-opacity:1;stroke-width:0.27158698;stroke-miterlimit:4;stroke-dasharray:none"
       d="m 103.04579,76.049109 c 0.004,-1.123034 0.01,-2.043778 0.0126,-2.046147 0.002,-0.0021 0.17285,-0.01009 0.37823,-0.01764 l 0.37346,-0.0126 -0.034,0.121233 c -0.0643,0.229612 -0.20773,0.812011 -0.2782,1.129991 -0.18488,0.834116 -0.30189,1.554861 -0.44247,2.724953 -0.0113,0.09401 -0.0144,-0.542123 -0.01,-1.900314 z"
       id="path2430"
       inkscape:connector-curvature="0" />
    <rect
       style="opacity:1;fill:#000000;fill-opacity:1;stroke-width:4.30171871;stroke-miterlimit:4;stroke-dasharray:none"
       id="rect2432"
       width="24.075657"
       height="1.85175"
       x="105.35929"
       y="96.696815" />
    <path
       style="opacity:1;fill:#000000;fill-opacity:1;stroke-width:2.18018413;stroke-miterlimit:4;stroke-dasharray:none;paint-order:stroke fill markers"
       d="m 109.69053,26.672922 -3.30047,19.17244 h 22.05613 l -3.30048,-19.17244 z m -3.59483,19.147692 v 0.0247 h 0.13685 z"
       id="rect3947"
       inkscape:connector-curvature="0" />
    <path
       style="opacity:1;fill:#aaffee;fill-opacity:1;stroke-width:2.15770984;stroke-miterlimit:4;stroke-dasharray:none;paint-order:stroke fill markers"
       d="m 110.28448,27.673331 -3.08524,20.089374 h 20.61767 l -3.0852,-20.089374 z m -3.36039,20.063443 v 0.02599 h 0.12778 z"
       id="rect3947-7"
       inkscape:connector-curvature="0" />
  </g>
</svg>
