<?xml version="1.0" encoding="UTF-8" standalone="no"?>
<!-- Created with Inkscape (http://www.inkscape.org/) -->

<svg
   xmlns:dc="http://purl.org/dc/elements/1.1/"
   xmlns:cc="http://creativecommons.org/ns#"
   xmlns:rdf="http://www.w3.org/1999/02/22-rdf-syntax-ns#"
   xmlns:svg="http://www.w3.org/2000/svg"
   xmlns="http://www.w3.org/2000/svg"
   xmlns:sodipodi="http://sodipodi.sourceforge.net/DTD/sodipodi-0.dtd"
   xmlns:inkscape="http://www.inkscape.org/namespaces/inkscape"
   width="210mm"
   height="297mm"
   viewBox="0 0 210 297"
   version="1.1"
   id="svg154"
   inkscape:version="0.92.2 (5c3e80d, 2017-08-06)"
   sodipodi:docname="basketball_net.svg">
  <defs
     id="defs148">
    <clipPath
       clipPathUnits="userSpaceOnUse"
       id="clipPath1890-6">
      <rect
         style="opacity:1;fill:#800000;fill-opacity:1;stroke-width:5.24789238;stroke-miterlimit:4;stroke-dasharray:none"
         id="rect1892-1"
         width="29.293156"
         height="20.505209"
         x="48.286461"
         y="88.451637" />
    </clipPath>
    <clipPath
       clipPathUnits="userSpaceOnUse"
       id="clipPath1918-5">
      <rect
         style="opacity:1;fill:#0000ff;fill-opacity:1;stroke-width:4.06500006;stroke-miterlimit:4;stroke-dasharray:none"
         id="rect1920-9"
         width="18.804316"
         height="17.434153"
         x="-82.351562"
         y="91.191956"
         transform="scale(-1,1)" />
    </clipPath>
    <clipPath
       clipPathUnits="userSpaceOnUse"
       id="clipPath1890-2-9">
      <rect
         style="opacity:1;fill:#800000;fill-opacity:1;stroke-width:5.24789238;stroke-miterlimit:4;stroke-dasharray:none"
         id="rect1892-2-1"
         width="29.293156"
         height="20.505209"
         x="48.286461"
         y="88.451637" />
    </clipPath>
    <clipPath
       clipPathUnits="userSpaceOnUse"
       id="clipPath2134">
      <rect
         style="opacity:1;fill:#000000;fill-opacity:1;stroke-width:5.02080584;stroke-miterlimit:4;stroke-dasharray:none"
         id="rect2136"
         width="78.997017"
         height="155.34822"
         x="-210.91071"
         y="72.860123" />
    </clipPath>
    <clipPath
       clipPathUnits="userSpaceOnUse"
       id="clipPath259">
      <rect
         style="opacity:1;fill:#b3b3b3;fill-opacity:1;stroke-width:0.86500001;stroke-miterlimit:4;stroke-dasharray:none;paint-order:stroke fill markers"
         id="rect261"
         width="99.958801"
         height="45.168549"
         x="-222.01904"
         y="92.94854" />
    </clipPath>
    <clipPath
       clipPathUnits="userSpaceOnUse"
       id="clipPath269">
      <rect
         style="opacity:1;fill:#b3b3b3;fill-opacity:1;stroke-width:1.39477062;stroke-miterlimit:4;stroke-dasharray:none;paint-order:stroke fill markers"
         id="rect271"
         width="69.490074"
         height="55.859333"
         x="-204.19551"
         y="92.130013" />
    </clipPath>
    <clipPath
       clipPathUnits="userSpaceOnUse"
       id="clipPath278">
      <rect
         style="opacity:1;fill:#b3b3b3;fill-opacity:1;stroke-width:2.45186591;stroke-miterlimit:4;stroke-dasharray:none;paint-order:stroke fill markers"
         id="rect280"
         width="64.633926"
         height="41.388393"
         x="-1.8898809"
         y="80.703125" />
    </clipPath>
    <clipPath
       clipPathUnits="userSpaceOnUse"
       id="clipPath282">
      <rect
         style="opacity:1;fill:#b3b3b3;fill-opacity:1;stroke-width:2.45186591;stroke-miterlimit:4;stroke-dasharray:none;paint-order:stroke fill markers"
         id="rect284"
         width="64.633926"
         height="41.388393"
         x="-196.19643"
         y="100.87408" />
    </clipPath>
    <clipPath
       clipPathUnits="userSpaceOnUse"
       id="clipPath104">
      <rect
         style="opacity:1;fill:#0000ff;fill-opacity:1;stroke-width:2.45949292;stroke-miterlimit:4;stroke-dasharray:none;paint-order:stroke fill markers"
         id="rect106"
         width="64.212952"
         height="42.747868"
         x="-193.07498"
         y="103.38886" />
    </clipPath>
  </defs>
  <sodipodi:namedview
     id="base"
     pagecolor="#ffffff"
     bordercolor="#666666"
     borderopacity="1.0"
     inkscape:pageopacity="0.0"
     inkscape:pageshadow="2"
     inkscape:zoom="0.49497475"
     inkscape:cx="441.96331"
     inkscape:cy="561.09838"
     inkscape:document-units="mm"
     inkscape:current-layer="layer1"
     showgrid="false"
     inkscape:snap-global="false"
     inkscape:window-width="1440"
     inkscape:window-height="838"
     inkscape:window-x="-8"
     inkscape:window-y="-8"
     inkscape:window-maximized="1" />
  <metadata
     id="metadata151">
    <rdf:RDF>
      <cc:Work
         rdf:about="">
        <dc:format>image/svg+xml</dc:format>
        <dc:type
           rdf:resource="http://purl.org/dc/dcmitype/StillImage" />
        <dc:title />
      </cc:Work>
    </rdf:RDF>
  </metadata>
  <g
     inkscape:label="Layer 1"
     inkscape:groupmode="layer"
     id="layer1">
    <path
       style="opacity:1;fill:#000000;fill-opacity:1;stroke-width:5.88101959;stroke-miterlimit:4;stroke-dasharray:none"
       d="m -149.51584,107.04135 a 45.372444,32.293634 0 0 0 -4.52059,0.25422 45.372444,32.293634 0 0 0 -39.37907,34.79475 45.372444,32.293634 0 0 0 47.15172,29.49506 45.372444,32.293634 0 0 0 43.42594,-32.26342 l -0.6676,-5.51761 a 45.372444,32.293634 0 0 0 -46.0104,-26.763 z m 4.92765,8.26558 a 38.474564,27.384098 0 0 1 39.0159,22.69424 l 0.56585,4.67853 a 38.474564,27.384098 0 0 1 -36.8236,27.35873 38.474564,27.384098 0 0 1 -39.9844,-25.01088 38.474564,27.384098 0 0 1 33.39257,-29.50525 38.474564,27.384098 0 0 1 3.83368,-0.21537 z"
       id="path1813-0"
       inkscape:connector-curvature="0"
       clip-path="url(#clipPath104)"
       transform="matrix(1.722052,0,0,1.722052,334.11882,-156.26028)" />
    <path
       style="opacity:1;fill:#333333;fill-opacity:1;stroke-width:7.95036888;stroke-miterlimit:4;stroke-dasharray:none"
       d="m 62.843112,35.694157 a 59.368567,45.104696 0 0 0 -1.655202,0.01868 59.368567,45.104696 0 0 0 -5.914249,0.35507 A 59.368567,45.104696 0 0 0 3.6250479,83.122895 H 18.900986 a 50.342884,38.247521 0 0 1 43.718759,-35.564659 50.342884,38.247521 0 0 1 5.016338,-0.300788 50.342884,38.247521 0 0 1 4.550918,0.07298 v -11.02491 a 59.368567,45.104696 0 0 0 -9.343889,-0.611356 z"
       id="path1813"
       inkscape:connector-curvature="0" />
    <rect
       style="opacity:1;fill:#000000;fill-opacity:1;stroke-width:7.87561798;stroke-miterlimit:4;stroke-dasharray:none"
       id="rect1811-2"
       width="19.657745"
       height="215.18419"
       x="1.6135122"
       y="80.923805" />
    <rect
       style="opacity:1;fill:#333333;fill-opacity:1;stroke-width:7.00014162;stroke-miterlimit:4;stroke-dasharray:none"
       id="rect1811"
       width="15.648569"
       height="213.55695"
       x="3.5270667"
       y="80.338562" />
    <rect
       style="opacity:1;fill:#000000;fill-opacity:1;stroke-width:8.16550827;stroke-miterlimit:4;stroke-dasharray:none"
       id="rect1865-8"
       width="77.757881"
       height="85.132401"
       x="35.152905"
       y="1.618916" />
    <rect
       style="opacity:1;fill:#0000ff;fill-opacity:1;stroke-width:7.77920961;stroke-miterlimit:4;stroke-dasharray:none"
       id="rect1865"
       width="73.551094"
       height="81.687279"
       x="37.588989"
       y="3.8245332" />
    <rect
       style="opacity:1;fill:#800000;fill-opacity:1;stroke-width:7.00014162;stroke-miterlimit:4;stroke-dasharray:none"
       id="rect1867"
       width="66.065804"
       height="73.551094"
       x="40.843433"
       y="8.3807735" />
    <path
       style="opacity:1;fill:#000000;fill-opacity:1;stroke-width:8.08849716;stroke-miterlimit:4;stroke-dasharray:none"
       d="m 100.46471,34.010386 a 42.882767,9.7692015 0 0 0 -4.273268,0.07653 42.882767,9.7692015 0 0 0 -37.21809,10.526565 42.882767,9.7692015 0 0 0 44.564178,8.922082 42.882767,9.7692015 0 0 0 41.04283,-9.760362 l -0.63003,-1.668553 a 42.882767,9.7692015 0 0 0 -43.48562,-8.096264 z m 0.28032,2.157996 a 39.915761,7.653794 0 0 1 40.47688,6.343168 l 0.58733,1.307257 a 39.915761,7.653794 0 0 1 -38.20319,7.646865 39.915761,7.653794 0 0 1 -41.481567,-6.99101 39.915761,7.653794 0 0 1 34.643605,-8.246657 39.915761,7.653794 0 0 1 3.976942,-0.05962 z"
       id="path1871"
       inkscape:connector-curvature="0" />
  </g>
</svg>
