<?xml version="1.0" encoding="UTF-8" standalone="no"?>
<!-- Created with Inkscape (http://www.inkscape.org/) -->

<svg
   xmlns:dc="http://purl.org/dc/elements/1.1/"
   xmlns:cc="http://creativecommons.org/ns#"
   xmlns:rdf="http://www.w3.org/1999/02/22-rdf-syntax-ns#"
   xmlns:svg="http://www.w3.org/2000/svg"
   xmlns="http://www.w3.org/2000/svg"
   xmlns:sodipodi="http://sodipodi.sourceforge.net/DTD/sodipodi-0.dtd"
   xmlns:inkscape="http://www.inkscape.org/namespaces/inkscape"
   width="210mm"
   height="297mm"
   viewBox="0 0 210 297"
   version="1.1"
   id="svg8"
   inkscape:version="0.92.2 (5c3e80d, 2017-08-06)"
   sodipodi:docname="basketball_dribbling_1.svg">
  <defs
     id="defs2">
    <clipPath
       clipPathUnits="userSpaceOnUse"
       id="clipPath1516">
      <rect
         style="opacity:1;fill:#000000;fill-opacity:1;stroke-width:0.26458332"
         id="rect1518"
         width="105.03693"
         height="21.381561"
         x="73.499115"
         y="61.802814"
         ry="10.690781" />
    </clipPath>
    <clipPath
       clipPathUnits="userSpaceOnUse"
       id="clipPath1562">
      <rect
         style="opacity:1;fill:#000000;fill-opacity:1;stroke-width:0.26458332"
         id="rect1564"
         width="127.35393"
         height="14.298919"
         x="40.892239"
         y="83.050743"
         ry="7.1494594" />
    </clipPath>
    <clipPath
       clipPathUnits="userSpaceOnUse"
       id="clipPath1639">
      <rect
         style="opacity:1;fill:#aaffee;fill-opacity:1;stroke-width:0.26458332"
         id="rect1641"
         width="69.490074"
         height="131.49661"
         x="71.049477"
         y="79.159599"
         ry="20.847023" />
    </clipPath>
    <clipPath
       clipPathUnits="userSpaceOnUse"
       id="clipPath1639-7">
      <rect
         style="opacity:1;fill:#aaffee;fill-opacity:1;stroke-width:0.26458332"
         id="rect1641-1"
         width="69.490074"
         height="131.49661"
         x="71.049477"
         y="79.159599"
         ry="20.847023" />
    </clipPath>
    <clipPath
       clipPathUnits="userSpaceOnUse"
       id="clipPath2378">
      <rect
         style="opacity:1;fill:#aaffee;fill-opacity:1;stroke-width:8.8148241;stroke-miterlimit:4;stroke-dasharray:none"
         id="rect2380"
         width="85.550301"
         height="150.83965"
         x="153.48204"
         y="-207.40446"
         transform="scale(1,-1)" />
    </clipPath>
    <clipPath
       clipPathUnits="userSpaceOnUse"
       id="clipPath2378-6">
      <rect
         style="opacity:1;fill:#aaffee;fill-opacity:1;stroke-width:8.8148241;stroke-miterlimit:4;stroke-dasharray:none"
         id="rect2380-5"
         width="85.550301"
         height="150.83965"
         x="153.48204"
         y="-207.40446"
         transform="scale(1,-1)" />
    </clipPath>
  </defs>
  <sodipodi:namedview
     id="base"
     pagecolor="#ffffff"
     bordercolor="#666666"
     borderopacity="1.0"
     inkscape:pageopacity="0.0"
     inkscape:pageshadow="2"
     inkscape:zoom="0.56925506"
     inkscape:cx="855.153"
     inkscape:cy="541.7414"
     inkscape:document-units="mm"
     inkscape:current-layer="layer1"
     showgrid="false"
     inkscape:snap-grids="false"
     inkscape:snap-to-guides="false"
     inkscape:snap-others="false"
     inkscape:snap-nodes="false"
     inkscape:window-width="1440"
     inkscape:window-height="838"
     inkscape:window-x="-8"
     inkscape:window-y="-8"
     inkscape:window-maximized="1"
     inkscape:snap-global="false" />
  <metadata
     id="metadata5">
    <rdf:RDF>
      <cc:Work
         rdf:about="">
        <dc:format>image/svg+xml</dc:format>
        <dc:type
           rdf:resource="http://purl.org/dc/dcmitype/StillImage" />
        <dc:title />
      </cc:Work>
    </rdf:RDF>
  </metadata>
  <g
     inkscape:label="Layer 1"
     inkscape:groupmode="layer"
     id="layer1">
    <g
       id="g2488"
       transform="matrix(1.0608301,0,0,1.0608282,-21.254783,-8.2059539)">
      <g
         transform="matrix(1.3871404,0,0,1,64.07701,-69.264054)"
         id="g1500">
        <rect
           style="opacity:1;fill:#000000;fill-opacity:1;stroke-width:0.17123693"
           id="rect1382-6"
           width="25.657877"
           height="91.406181"
           x="145.4538"
           y="-60.82214"
           ry="11.756954"
           transform="rotate(90)" />
        <rect
           style="opacity:1;fill:#aaffee;fill-opacity:1;stroke-width:0.14931756"
           id="rect1382-9-6"
           width="20.847025"
           height="85.541962"
           x="148.08618"
           y="-56.299839"
           ry="11.835518"
           transform="rotate(90)" />
      </g>
      <rect
         transform="rotate(-90)"
         y="99.34893"
         x="-99.641579"
         height="35.647381"
         width="20.867985"
         id="rect2426-1"
         style="opacity:1;fill:#ffcc00;fill-opacity:1;stroke-width:2.46431327;stroke-miterlimit:4;stroke-dasharray:none" />
      <rect
         y="77.962791"
         x="98.381729"
         height="22.773064"
         width="2.4434147"
         id="rect2481"
         style="opacity:1;fill:#000000;fill-opacity:1;stroke-width:2.64662242;stroke-miterlimit:4;stroke-dasharray:none" />
    </g>
    <rect
       style="opacity:1;fill:#000000;fill-opacity:1;stroke-width:0.33615562"
       id="rect10-5"
       width="79.226402"
       height="186.17583"
       x="106.77998"
       y="44.077919"
       ry="25.517437" />
    <rect
       style="opacity:1;fill:#aaffee;fill-opacity:1;stroke-width:0.28067771"
       id="rect10"
       width="73.717155"
       height="139.49533"
       x="109.73495"
       y="46.015141"
       ry="22.11511" />
    <path
       style="opacity:1;fill:#0000ff;fill-opacity:1;stroke-width:0.00626514"
       d="m 153.88279,49.791504 c 1.27442,-0.129422 2.26712,-0.254062 3.39047,-0.426012 0.14529,-0.02267 0.26592,-0.04028 0.26807,-0.04028 0.002,0 0.003,0.02745 0.002,0.06093 l -0.002,0.06093 -0.15977,0.02014 c -1.1272,0.138487 -2.19773,0.241974 -3.39142,0.328064 -0.33462,0.02518 -0.3682,0.02267 -0.10764,-0.0025 z"
       id="path1680"
       inkscape:connector-curvature="0" />
    <path
       style="opacity:1;fill:#ffcc00;fill-opacity:1;stroke-width:3.00502586;stroke-miterlimit:4;stroke-dasharray:none"
       d="m 127.40643,184.25721 c -6.46217,-1.06714 -12.87868,-6.09289 -16.13776,-12.63994 l -1.68156,-3.37802 -0.17352,-51.10237 c -0.19307,-56.858437 -0.28862,-55.246369 3.61974,-61.057951 2.3409,-3.480841 6.66001,-6.990462 10.27486,-8.349149 2.54242,-0.955612 2.69513,-0.947556 7.02405,0.369509 4.08555,1.243038 5.36888,1.346349 16.72421,1.346198 11.04857,-1.51e-4 12.78752,-0.131437 17.10295,-1.292162 l 4.80386,-1.292011 3.19755,1.539677 c 4.14564,1.996181 8.0032,5.834143 10.11129,10.059894 l 1.68161,3.370833 v 53.485262 53.48526 l -1.53777,3.22927 c -3.0138,6.32888 -9.46797,11.0939 -16.56083,12.22662 -4.23052,0.6756 -34.35629,0.67489 -38.44867,-0.001 z m 23.36758,-25.36605 c 3.03952,-0.75327 6.7883,-3.78987 8.31522,-6.73557 1.08519,-2.0935 1.12437,-3.50426 1.12437,-40.48554 V 73.353585 l -14.15825,0.150574 -14.15826,0.150574 -0.16064,36.595197 c -0.10991,25.03707 0.0365,37.39536 0.4637,39.12868 1.91723,7.77997 9.62863,11.72933 18.57385,9.51253 z"
       id="path2195"
       inkscape:connector-curvature="0" />
    <path
       style="fill:none;stroke:#000000;stroke-width:4.34796333;stroke-linecap:butt;stroke-linejoin:miter;stroke-miterlimit:4;stroke-dasharray:none;stroke-opacity:1"
       d="m 108.91412,173.03331 c 24.60597,-0.3442 51.19338,-0.0798 74.77883,-0.44238"
       id="path2203"
       inkscape:connector-curvature="0" />
    <rect
       style="opacity:1;fill:#000000;fill-opacity:1;stroke-width:3.40661311;stroke-miterlimit:4;stroke-dasharray:none"
       id="rect2235"
       width="79.192787"
       height="29.699457"
       x="106.81109"
       y="200.92726"
       ry="0" />
    <rect
       style="opacity:1;fill:#000080;fill-opacity:1;stroke-width:1.48622167;stroke-miterlimit:4;stroke-dasharray:none"
       id="rect2199"
       width="74.379662"
       height="57.137913"
       x="108.95477"
       y="170.763"
       ry="0" />
    <path
       style="opacity:1;fill:#000000;fill-opacity:1;stroke-width:3.38820481;stroke-miterlimit:4;stroke-dasharray:none"
       id="path2244"
       sodipodi:type="arc"
       sodipodi:cx="121.96036"
       sodipodi:cy="258.27911"
       sodipodi:rx="52.523479"
       sodipodi:ry="18.712786"
       sodipodi:start="0"
       sodipodi:end="6.2763219"
       d="m 174.48384,258.27911 a 52.523479,18.712786 0 0 1 -52.43336,18.71276 52.523479,18.712786 0 0 1 -52.613293,-18.64854 52.523479,18.712786 0 0 1 52.252803,-18.77675 52.523479,18.712786 0 0 1 52.79261,18.5841"
       sodipodi:open="true" />
    <rect
       style="opacity:1;fill:#000000;fill-opacity:1;stroke-width:2.16029358;stroke-miterlimit:4;stroke-dasharray:none"
       id="rect2276"
       width="53.270924"
       height="47.712463"
       x="121.66891"
       y="229.24092" />
    <path
       style="opacity:1;fill:#800000;fill-opacity:1;stroke-width:2.84519792;stroke-miterlimit:4;stroke-dasharray:none"
       id="path2244-9"
       sodipodi:type="arc"
       sodipodi:cx="118.8762"
       sodipodi:cy="258.53452"
       sodipodi:rx="46.034599"
       sodipodi:ry="15.055429"
       sodipodi:start="0"
       sodipodi:end="6.2763219"
       d="m 164.9108,258.53452 a 46.034599,15.055429 0 0 1 -45.95561,15.0554 46.034599,15.055429 0 0 1 -46.11332,-15.00374 46.034599,15.055429 0 0 1 45.79736,-15.10689 46.034599,15.055429 0 0 1 46.27048,14.95189"
       sodipodi:open="true" />
    <rect
       style="opacity:1;fill:#800000;fill-opacity:1;stroke-width:1.92175865;stroke-miterlimit:4;stroke-dasharray:none"
       id="rect2276-5"
       width="46.4296"
       height="43.321095"
       x="125.86565"
       y="230.28305" />
    <rect
       style="opacity:1;fill:#000000;fill-opacity:1;stroke-width:5.04883289;stroke-miterlimit:4;stroke-dasharray:none"
       id="rect2300"
       width="75.53244"
       height="1.904597"
       x="108.40345"
       y="169.12756" />
    <path
       style="fill:none;stroke:#000000;stroke-width:1.428321;stroke-linecap:butt;stroke-linejoin:miter;stroke-miterlimit:4;stroke-dasharray:none;stroke-opacity:1"
       d="m 125.00732,45.473066 c 8.34224,6.755538 34.16688,6.856205 43.25397,0.170466"
       id="path1670"
       inkscape:connector-curvature="0"
       sodipodi:nodetypes="cc" />
    <path
       style="opacity:1;fill:#aaffee;fill-opacity:1;stroke-width:0.77004832;stroke-miterlimit:4;stroke-dasharray:none"
       d="m 144.19345,49.820511 c -1.43541,-0.05766 -4.20921,-0.266853 -4.84184,-0.365128 -0.0394,-0.005 3.22973,-0.01009 7.26481,-0.01009 7.7098,0 7.68741,-8.32e-4 5.31208,0.195645 -2.28952,0.189349 -5.59685,0.266549 -7.73505,0.180536 z"
       id="path2307"
       inkscape:connector-curvature="0" />
    <path
       style="opacity:1;fill:#ffcc00;fill-opacity:1;stroke-width:0.04812802;stroke-miterlimit:4;stroke-dasharray:none"
       d="m 166.64722,47.480981 c 8.4e-4,-8.3e-4 0.0276,-0.01511 0.0595,-0.03223 0.2778,-0.146545 0.59742,-0.326905 0.85505,-0.482313 l 0.0766,-0.04608 0.066,0.02014 c 0.15998,0.04759 0.4372,0.133955 0.441,0.137481 10e-4,0.0011 -0.33212,0.09191 -0.74085,0.201939 -0.79978,0.215033 -0.75952,0.204206 -0.75723,0.20194 z"
       id="path2409"
       inkscape:connector-curvature="0" />
    <rect
       style="opacity:1;fill:#ffcc00;fill-opacity:1;stroke-width:4.02268124;stroke-miterlimit:4;stroke-dasharray:none"
       id="rect2413"
       width="1.3159403"
       height="0.57145411"
       x="167.75093"
       y="46.416882"
       transform="matrix(0.99999571,0.002929,-0.00215045,0.99999769,0,0)" />
    <path
       style="opacity:1;fill:#ffcc00;fill-opacity:1;stroke-width:0.09625604;stroke-miterlimit:4;stroke-dasharray:none"
       d="m 123.21945,47.754834 c 0.001,-0.0014 0.0619,-0.02694 0.13418,-0.0569 0.67231,-0.279216 1.40435,-0.539194 2.12388,-0.754252 0.093,-0.0277 0.18748,-0.0554 0.20989,-0.06118 l 0.0408,-0.01009 0.14493,0.09014 0.14496,0.09014 -0.17313,0.005 c -0.54529,0.01259 -1.0165,0.119603 -1.871,0.424955 -0.15636,0.05589 -0.62339,0.228629 -0.69715,0.257838 -0.0404,0.01511 -0.0649,0.02266 -0.0573,0.01511 z"
       id="path2415"
       inkscape:connector-curvature="0" />
    <g
       id="g2312"
       transform="matrix(1.0608301,0,0,1.4166384,20.140242,-31.898465)">
      <rect
         ry="11.860085"
         y="66.587494"
         x="105.2422"
         height="92.207985"
         width="26.834801"
         id="rect1382"
         style="opacity:1;fill:#000000;fill-opacity:1;stroke-width:0.1758866" />
      <rect
         ry="10.423512"
         y="81.721619"
         x="108.15637"
         height="75.336601"
         width="20.847025"
         id="rect1382-9"
         style="opacity:1;fill:#aaffee;fill-opacity:1;stroke-width:0.14012781" />
      <rect
         ry="0"
         y="79.391205"
         x="108.23467"
         height="62.507664"
         width="20.833235"
         id="rect1382-9-47"
         style="opacity:1;fill:#aaffee;fill-opacity:1;stroke-width:0.12759812" />
    </g>
    <rect
       style="opacity:1;fill:#ffcc00;fill-opacity:1;stroke-width:2.62602615;stroke-miterlimit:4;stroke-dasharray:none"
       id="rect2426"
       width="22.33787"
       height="37.815746"
       x="134.89799"
       y="59.801323" />
    <path
       style="opacity:1;fill:#ffcc00;fill-opacity:1;stroke-width:0.27225313;stroke-miterlimit:4;stroke-dasharray:none"
       d="m 160.18615,78.327899 c -0.0699,-1.000029 -0.24956,-2.248556 -0.47552,-3.304861 -0.0752,-0.351809 -0.27804,-1.166365 -0.36613,-1.470811 l -0.0513,-0.177264 0.45181,-0.005 c 0.2485,-0.0021 0.45463,-0.0021 0.45809,0.001 0.003,0.0025 0.004,1.165837 0.002,2.583065 -0.002,1.500548 -0.0106,2.49169 -0.0189,2.373019 z"
       id="path2428"
       inkscape:connector-curvature="0" />
    <path
       style="opacity:1;fill:#ffcc00;fill-opacity:1;stroke-width:0.27225313;stroke-miterlimit:4;stroke-dasharray:none"
       d="m 131.8993,75.723884 c 0.004,-1.124668 0.009,-2.046792 0.0126,-2.049159 0.002,-0.0021 0.1734,-0.01009 0.37952,-0.01763 l 0.37473,-0.01259 -0.0342,0.121617 c -0.0646,0.23014 -0.20844,0.813197 -0.27916,1.131668 -0.1855,0.835355 -0.30293,1.557152 -0.444,2.728956 -0.0113,0.09442 -0.0146,-0.542921 -0.009,-1.903094 z"
       id="path2430"
       inkscape:connector-curvature="0" />
    <rect
       style="opacity:1;fill:#000000;fill-opacity:1;stroke-width:4.31227016;stroke-miterlimit:4;stroke-dasharray:none"
       id="rect2432"
       width="24.15835"
       height="1.8544761"
       x="134.22075"
       y="96.402061" />
    <path
       style="opacity:1;fill:#000000;fill-opacity:1;stroke-width:2.17802811;stroke-miterlimit:4;stroke-dasharray:none;paint-order:stroke fill markers"
       d="m 138.70533,26.529159 -3.2972,19.153479 h 22.03429 l -3.29718,-19.153479 z m -3.59127,19.128755 v 0.02467 h 0.13673 z"
       id="rect3947"
       inkscape:connector-curvature="0" />
    <path
       style="opacity:1;fill:#aaffee;fill-opacity:1;stroke-width:2.15557599;stroke-miterlimit:4;stroke-dasharray:none;paint-order:stroke fill markers"
       d="m 139.29867,27.528579 -3.08215,20.069505 h 20.59727 l -3.08215,-20.069505 z m -3.35706,20.0436 v 0.02596 h 0.12766 z"
       id="rect3947-7"
       inkscape:connector-curvature="0" />
  </g>
</svg>
