<?xml version="1.0" encoding="UTF-8" standalone="no"?>
<!-- Created with Inkscape (http://www.inkscape.org/) -->

<svg
   xmlns:dc="http://purl.org/dc/elements/1.1/"
   xmlns:cc="http://creativecommons.org/ns#"
   xmlns:rdf="http://www.w3.org/1999/02/22-rdf-syntax-ns#"
   xmlns:svg="http://www.w3.org/2000/svg"
   xmlns="http://www.w3.org/2000/svg"
   xmlns:sodipodi="http://sodipodi.sourceforge.net/DTD/sodipodi-0.dtd"
   xmlns:inkscape="http://www.inkscape.org/namespaces/inkscape"
   width="210mm"
   height="297mm"
   viewBox="0 0 210 297"
   version="1.1"
   id="svg383"
   inkscape:version="0.92.2 (5c3e80d, 2017-08-06)"
   sodipodi:docname="basketball_bg.svg">
  <defs
     id="defs377">
    <clipPath
       clipPathUnits="userSpaceOnUse"
       id="clipPath2134">
      <rect
         style="opacity:1;fill:#000000;fill-opacity:1;stroke-width:5.02080584;stroke-miterlimit:4;stroke-dasharray:none"
         id="rect2136"
         width="78.997017"
         height="155.34822"
         x="-210.91071"
         y="72.860123" />
    </clipPath>
    <clipPath
       clipPathUnits="userSpaceOnUse"
       id="clipPath1890-2-9">
      <rect
         style="opacity:1;fill:#800000;fill-opacity:1;stroke-width:5.24789238;stroke-miterlimit:4;stroke-dasharray:none"
         id="rect1892-2-1"
         width="29.293156"
         height="20.505209"
         x="48.286461"
         y="88.451637" />
    </clipPath>
    <clipPath
       clipPathUnits="userSpaceOnUse"
       id="clipPath1918-5">
      <rect
         style="opacity:1;fill:#0000ff;fill-opacity:1;stroke-width:4.06500006;stroke-miterlimit:4;stroke-dasharray:none"
         id="rect1920-9"
         width="18.804316"
         height="17.434153"
         x="-82.351562"
         y="91.191956"
         transform="scale(-1,1)" />
    </clipPath>
    <clipPath
       clipPathUnits="userSpaceOnUse"
       id="clipPath1890-6">
      <rect
         style="opacity:1;fill:#800000;fill-opacity:1;stroke-width:5.24789238;stroke-miterlimit:4;stroke-dasharray:none"
         id="rect1892-1"
         width="29.293156"
         height="20.505209"
         x="48.286461"
         y="88.451637" />
    </clipPath>
    <clipPath
       clipPathUnits="userSpaceOnUse"
       id="clipPath2378">
      <rect
         style="opacity:1;fill:#aaffee;fill-opacity:1;stroke-width:8.8148241;stroke-miterlimit:4;stroke-dasharray:none"
         id="rect2380"
         width="85.550301"
         height="150.83965"
         x="153.48204"
         y="-207.40446"
         transform="scale(1,-1)" />
    </clipPath>
    <clipPath
       clipPathUnits="userSpaceOnUse"
       id="clipPath2378-6">
      <rect
         style="opacity:1;fill:#aaffee;fill-opacity:1;stroke-width:8.8148241;stroke-miterlimit:4;stroke-dasharray:none"
         id="rect2380-5"
         width="85.550301"
         height="150.83965"
         x="153.48204"
         y="-207.40446"
         transform="scale(1,-1)" />
    </clipPath>
    <clipPath
       clipPathUnits="userSpaceOnUse"
       id="clipPath2845">
      <path
         style="opacity:1;fill:#000000;fill-opacity:1;stroke-width:3.82010794;stroke-miterlimit:4;stroke-dasharray:none"
         id="path2847"
         sodipodi:type="arc"
         sodipodi:cx="33.261906"
         sodipodi:cy="158.50172"
         sodipodi:rx="22.67857"
         sodipodi:ry="23.086535"
         sodipodi:start="0"
         sodipodi:end="6.1114916"
         d="M 55.940475,158.50172 A 22.67857,23.086535 0 0 1 34.235049,181.56699 22.67857,23.086535 0 0 1 10.666851,160.4812 22.67857,23.086535 0 0 1 30.349644,135.60633 22.67857,23.086535 0 0 1 55.607028,154.55736"
         sodipodi:open="true" />
    </clipPath>
    <clipPath
       clipPathUnits="userSpaceOnUse"
       id="clipPath4213">
      <path
         style="opacity:1;fill:#aaffee;fill-opacity:1;stroke-width:4.06500006;stroke-miterlimit:4;stroke-dasharray:none"
         id="path4215"
         sodipodi:type="arc"
         sodipodi:cx="91.382759"
         sodipodi:cy="79.270813"
         sodipodi:rx="40.065475"
         sodipodi:ry="30.616072"
         sodipodi:start="0"
         sodipodi:end="6.2295447"
         d="M 131.44823,79.270813 A 40.065475,30.616072 0 0 1 91.920027,109.88413 40.065475,30.616072 0 0 1 51.331693,80.091847 40.065475,30.616072 0 0 1 89.771342,48.679514 40.065475,30.616072 0 0 1 131.39061,77.629336 l -40.007851,1.641477 z" />
    </clipPath>
  </defs>
  <sodipodi:namedview
     id="base"
     pagecolor="#ffffff"
     bordercolor="#666666"
     borderopacity="1.0"
     inkscape:pageopacity="0.0"
     inkscape:pageshadow="2"
     inkscape:zoom="0.35"
     inkscape:cx="400"
     inkscape:cy="560"
     inkscape:document-units="mm"
     inkscape:current-layer="layer1"
     showgrid="false"
     inkscape:window-width="1440"
     inkscape:window-height="838"
     inkscape:window-x="-8"
     inkscape:window-y="-8"
     inkscape:window-maximized="1" />
  <metadata
     id="metadata380">
    <rdf:RDF>
      <cc:Work
         rdf:about="">
        <dc:format>image/svg+xml</dc:format>
        <dc:type
           rdf:resource="http://purl.org/dc/dcmitype/StillImage" />
        <dc:title></dc:title>
      </cc:Work>
    </rdf:RDF>
  </metadata>
  <g
     inkscape:label="Layer 1"
     inkscape:groupmode="layer"
     id="layer1">
    <rect
       style="display:inline;fill:#00ffff;fill-opacity:1;stroke:#000000;stroke-width:1.10431266;stroke-miterlimit:4;stroke-dasharray:none"
       id="rect105"
       width="211.76234"
       height="298.69696"
       x="0.56497192"
       y="-2.2491167" />
    <rect
       style="display:inline;fill:#008000;fill-opacity:1;stroke-width:0.94392627;stroke-miterlimit:4;stroke-dasharray:none"
       id="rect10"
       width="211.76234"
       height="194.27979"
       x="0.56497192"
       y="102.16802" />
    <g
       id="g1801"
       transform="matrix(1.1725941,0,0,1.424,287.69085,0.33584705)">
      <rect
         y="113.68154"
         x="-245.30656"
         height="94.494041"
         width="180.67262"
         id="rect1781-0"
         style="opacity:1;fill:#000000;fill-opacity:1;stroke-width:3.78563571;stroke-miterlimit:4;stroke-dasharray:none" />
      <rect
         y="116.66496"
         x="-242.37346"
         height="87.021065"
         width="174.09584"
         id="rect1781"
         style="opacity:1;fill:#808080;fill-opacity:1;stroke-width:3.5661273;stroke-miterlimit:4;stroke-dasharray:none" />
    </g>
    <rect
       style="opacity:1;fill:#000000;fill-opacity:1;stroke-width:5.56691551;stroke-miterlimit:4;stroke-dasharray:none"
       id="rect1805"
       width="212.32886"
       height="2.3651328"
       x="5.6843419e-014"
       y="101.05107" />
    <path
       style="opacity:1;fill:#000000;fill-opacity:1;stroke-width:5.88101959;stroke-miterlimit:4;stroke-dasharray:none"
       d="m -149.51584,107.04135 a 45.372444,32.293634 0 0 0 -4.52059,0.25422 45.372444,32.293634 0 0 0 -39.37907,34.79475 45.372444,32.293634 0 0 0 47.15172,29.49506 45.372444,32.293634 0 0 0 43.42594,-32.26342 l -0.6676,-5.51761 a 45.372444,32.293634 0 0 0 -46.0104,-26.763 z m 4.92765,8.26558 a 38.474564,27.384098 0 0 1 39.0159,22.69424 l 0.56585,4.67853 a 38.474564,27.384098 0 0 1 -36.8236,27.35873 38.474564,27.384098 0 0 1 -39.9844,-25.01088 38.474564,27.384098 0 0 1 33.39257,-29.50525 38.474564,27.384098 0 0 1 3.83368,-0.21537 z"
       id="path1813-0"
       inkscape:connector-curvature="0"
       clip-path="url(#clipPath2134)"
       transform="translate(209.45024,-18.189403)" />
    <path
       style="opacity:1;fill:#333333;fill-opacity:1;stroke-width:4.61679935;stroke-miterlimit:4;stroke-dasharray:none"
       d="m 50.980256,93.423351 a 34.475478,26.192413 0 0 0 -3.43489,0.206179 34.475478,26.192413 0 0 0 -29.92152,28.22101 34.475478,26.192413 0 0 0 35.82743,23.92257 34.475478,26.192413 0 0 0 32.99646,-26.16791 l -0.50727,-4.47517 A 34.475478,26.192413 0 0 0 50.980256,93.423351 Z m 3.74419,6.703969 a 29.234241,22.210434 0 0 1 29.64556,18.40663 l 0.42995,3.7946 a 29.234241,22.210434 0 0 1 -27.97978,22.18987 29.234241,22.210434 0 0 1 -30.38146,-20.28559 29.234241,22.210434 0 0 1 25.37277,-23.93084 29.234241,22.210434 0 0 1 2.91296,-0.17467 z"
       id="path1813"
       inkscape:connector-curvature="0" />
    <rect
       style="opacity:1;fill:#000000;fill-opacity:1;stroke-width:4.57339144;stroke-miterlimit:4;stroke-dasharray:none"
       id="rect1811-2"
       width="11.415302"
       height="124.95801"
       x="16.385468"
       y="119.67763" />
    <rect
       style="opacity:1;fill:#333333;fill-opacity:1;stroke-width:4.06500006;stroke-miterlimit:4;stroke-dasharray:none"
       id="rect1811"
       width="9.0871639"
       height="124.01306"
       x="17.496674"
       y="119.33778" />
    <rect
       style="display:inline;fill:#008000;fill-opacity:1;stroke-width:0.21996127;stroke-miterlimit:4;stroke-dasharray:none"
       id="rect10-2-8"
       width="80.415619"
       height="27.781279"
       x="46.583572"
       y="103.72655" />
    <rect
       style="opacity:1;fill:#000000;fill-opacity:1;stroke-width:4.74173164;stroke-miterlimit:4;stroke-dasharray:none"
       id="rect1865-8"
       width="45.154194"
       height="49.436604"
       x="35.861877"
       y="73.625084" />
    <rect
       style="opacity:1;fill:#0000ff;fill-opacity:1;stroke-width:4.51740694;stroke-miterlimit:4;stroke-dasharray:none"
       id="rect1865"
       width="42.711308"
       height="47.436012"
       x="37.27652"
       y="74.905891" />
    <rect
       style="opacity:1;fill:#800000;fill-opacity:1;stroke-width:4.06500006;stroke-miterlimit:4;stroke-dasharray:none"
       id="rect1867"
       width="38.364582"
       height="42.711308"
       x="39.166382"
       y="77.551712" />
    <path
       style="opacity:1;fill:#000000;fill-opacity:1;stroke-width:4.69701099;stroke-miterlimit:4;stroke-dasharray:none"
       id="path1871"
       sodipodi:type="arc"
       sodipodi:cx="72.114761"
       sodipodi:cy="96.214294"
       sodipodi:rx="24.902132"
       sodipodi:ry="5.6730003"
       sodipodi:start="0"
       sodipodi:end="6.1114973"
       sodipodi:open="true"
       d="m 97.016893,96.214294 a 24.902132,5.6730003 0 0 1 -23.83361,5.667776 24.902132,5.6730003 0 0 1 -25.878956,-5.18138 24.902132,5.6730003 0 0 1 21.61274,-6.11243 24.902132,5.6730003 0 0 1 27.73371,4.656826" />
    <path
       style="opacity:1;fill:#00ffff;fill-opacity:1;stroke-width:3.66945696;stroke-miterlimit:4;stroke-dasharray:none"
       id="path1871-8-1"
       sodipodi:type="arc"
       sodipodi:cx="71.679405"
       sodipodi:cy="99.034973"
       sodipodi:rx="21.219585"
       sodipodi:ry="4.0632443"
       sodipodi:start="0"
       sodipodi:end="6.1114973"
       sodipodi:open="true"
       d="M 92.898991,99.034973 A 21.219585,4.0632443 0 0 1 72.589913,103.09448 21.219585,4.0632443 0 0 1 50.537957,99.38335 21.219585,4.0632443 0 0 1 68.954588,95.005368 21.219585,4.0632443 0 0 1 92.587016,98.340785"
       clip-path="url(#clipPath1890-2-9)"
       transform="matrix(-1.0049276,0,0,0.99999996,143.89779,-2.7930129)" />
    <path
       transform="matrix(-1.0009422,0,0,1.0050872,143.61267,-3.2979229)"
       style="opacity:1;fill:#0000ff;fill-opacity:1;stroke-width:3.66945696;stroke-miterlimit:4;stroke-dasharray:none"
       id="path1871-8-9"
       sodipodi:type="arc"
       sodipodi:cx="71.679405"
       sodipodi:cy="99.034973"
       sodipodi:rx="21.219585"
       sodipodi:ry="4.0632443"
       sodipodi:start="0"
       sodipodi:end="6.1114973"
       sodipodi:open="true"
       d="M 92.898991,99.034973 A 21.219585,4.0632443 0 0 1 72.589913,103.09448 21.219585,4.0632443 0 0 1 50.537957,99.38335 21.219585,4.0632443 0 0 1 68.954588,95.005368 21.219585,4.0632443 0 0 1 92.587016,98.340785"
       clip-path="url(#clipPath1918-5)" />
    <path
       style="opacity:1;fill:#800000;fill-opacity:1;stroke-width:3.66945696;stroke-miterlimit:4;stroke-dasharray:none"
       id="path1871-8"
       sodipodi:type="arc"
       sodipodi:cx="71.679405"
       sodipodi:cy="99.034973"
       sodipodi:rx="21.219585"
       sodipodi:ry="4.0632443"
       sodipodi:start="0"
       sodipodi:end="6.1114973"
       sodipodi:open="true"
       d="M 92.898991,99.034973 A 21.219585,4.0632443 0 0 1 72.589913,103.09448 21.219585,4.0632443 0 0 1 50.537957,99.38335 21.219585,4.0632443 0 0 1 68.954588,95.005368 21.219585,4.0632443 0 0 1 92.587016,98.340785"
       clip-path="url(#clipPath1890-6)"
       transform="matrix(1.0049276,0,0,1.0164443,-0.39178407,-4.4296829)" />
    <rect
       style="opacity:1;fill:#000000;fill-opacity:1;stroke-width:4.19468737;stroke-miterlimit:4;stroke-dasharray:none"
       id="rect2052"
       width="1.1840419"
       height="8.1906853"
       x="79.98497"
       y="92.323074" />
    <rect
       style="display:inline;fill:#008000;fill-opacity:1;stroke-width:0.19477639;stroke-miterlimit:4;stroke-dasharray:none"
       id="rect10-2"
       width="63.168377"
       height="27.731482"
       x="27.801056"
       y="126.50589" />
    <rect
       style="display:inline;fill:#008000;fill-opacity:1;stroke-width:0.0686347;stroke-miterlimit:4;stroke-dasharray:none"
       id="rect10-2-3"
       width="7.8435845"
       height="27.731482"
       x="8.4967346"
       y="107.20932" />
    <g
       id="g4708"
       transform="translate(-124.60851,-244.13816)"
       clip-path="url(#clipPath4213)">
      <g
         id="g4635">
        <path
           d=""
           id="path3937"
           inkscape:connector-curvature="0"
           style="stroke-width:0.26726952" />
        <path
           d=""
           id="path3941"
           inkscape:connector-curvature="0"
           style="stroke-width:0.04724703" />
        <path
           d=""
           id="path3943"
           inkscape:connector-curvature="0"
           style="stroke-width:0.04724703" />
        <path
           d=""
           id="path3945"
           inkscape:connector-curvature="0"
           style="stroke-width:0.04724703" />
        <ellipse
           style="fill:#aaffee;fill-opacity:1;stroke-width:0.26458332"
           id="path4534"
           cx="54.735676"
           cy="120.56189"
           rx="2.5277159"
           ry="0.7027995" />
        <rect
           style="fill:#aaffee;fill-opacity:1;stroke-width:0.26458332"
           id="rect4536"
           width="5.5160904"
           height="3.3309152"
           x="124.27842"
           y="38.439629"
           transform="rotate(48.060375)" />
        <rect
           style="fill:#000000;fill-opacity:1;stroke-width:0.20345706"
           id="rect4547"
           width="25.119406"
           height="1.5489899"
           x="52.853168"
           y="121.38406" />
        <rect
           style="fill:#ffffff;fill-opacity:1;stroke-width:0.26379681"
           id="rect4555"
           width="189.22682"
           height="142.40602"
           x="2.6726952"
           y="139.09235" />
        <rect
           style="fill:#ffffff;fill-opacity:1;stroke-width:0.26458332"
           id="rect4559"
           width="19.087799"
           height="36.002232"
           x="172.52057"
           y="-72.220184"
           transform="rotate(67.085954)"
           inkscape:transform-center-x="-9.0296705"
           inkscape:transform-center-y="29.99448" />
        <rect
           style="fill:#ffffff;fill-opacity:1;stroke-width:0.26458332"
           id="rect4561"
           width="68.697174"
           height="19.749256"
           x="59.105671"
           y="155.77902"
           transform="rotate(-10.396403)" />
      </g>
    </g>
  </g>
</svg>
