<?xml version="1.0" encoding="UTF-8" standalone="no"?>
<!-- Created with Inkscape (http://www.inkscape.org/) -->

<svg
   xmlns:dc="http://purl.org/dc/elements/1.1/"
   xmlns:cc="http://creativecommons.org/ns#"
   xmlns:rdf="http://www.w3.org/1999/02/22-rdf-syntax-ns#"
   xmlns:svg="http://www.w3.org/2000/svg"
   xmlns="http://www.w3.org/2000/svg"
   xmlns:sodipodi="http://sodipodi.sourceforge.net/DTD/sodipodi-0.dtd"
   xmlns:inkscape="http://www.inkscape.org/namespaces/inkscape"
   width="210mm"
   height="297mm"
   viewBox="0 0 210 297"
   version="1.1"
   id="svg55"
   inkscape:version="0.92.2 (5c3e80d, 2017-08-06)"
   sodipodi:docname="basketball_instructions.svg">
  <defs
     id="defs49" />
  <sodipodi:namedview
     id="base"
     pagecolor="#ffffff"
     bordercolor="#666666"
     borderopacity="1.0"
     inkscape:pageopacity="0.0"
     inkscape:pageshadow="2"
     inkscape:zoom="0.35"
     inkscape:cx="400"
     inkscape:cy="365.11565"
     inkscape:document-units="mm"
     inkscape:current-layer="layer1"
     showgrid="false"
     inkscape:window-width="1440"
     inkscape:window-height="838"
     inkscape:window-x="-8"
     inkscape:window-y="-8"
     inkscape:window-maximized="1" />
  <metadata
     id="metadata52">
    <rdf:RDF>
      <cc:Work
         rdf:about="">
        <dc:format>image/svg+xml</dc:format>
        <dc:type
           rdf:resource="http://purl.org/dc/dcmitype/StillImage" />
        <dc:title />
      </cc:Work>
    </rdf:RDF>
  </metadata>
  <g
     inkscape:label="Layer 1"
     inkscape:groupmode="layer"
     id="layer1">
    <rect
       style="fill:#ffaaee;fill-opacity:1;stroke:#000000;stroke-width:1.66636813;stroke-miterlimit:4;stroke-dasharray:none;stroke-opacity:1"
       id="rect10"
       width="208.33363"
       height="298.33362"
       x="0.83318406"
       y="-2.1668091" />
    <g
       id="g885"
       transform="matrix(0.80177711,0,0,0.67054201,34.844088,55.332229)">
      <path
         sodipodi:open="true"
         d="M 129.26785,99.318451 A 41.199402,41.199402 0 0 1 88.947466,140.50847 41.199402,41.199402 0 0 1 46.906558,101.07608 41.199402,41.199402 0 0 1 85.433006,58.203428 41.199402,41.199402 0 0 1 129.11789,95.80639"
         sodipodi:end="6.1978363"
         sodipodi:start="0"
         sodipodi:ry="41.199402"
         sodipodi:rx="41.199402"
         sodipodi:cy="99.318451"
         sodipodi:cx="88.068451"
         sodipodi:type="arc"
         id="path45"
         style="opacity:1;fill:#000000;fill-opacity:1;stroke-width:4.06500006;stroke-miterlimit:4;stroke-dasharray:none;paint-order:stroke fill markers" />
      <path
         sodipodi:open="true"
         d="M 127.64916,99.232582 A 39.729424,39.729424 0 0 1 88.767391,138.95296 39.729424,39.729424 0 0 1 48.226486,100.9275 39.729424,39.729424 0 0 1 85.378325,59.584527 39.729424,39.729424 0 0 1 127.50455,95.845831"
         sodipodi:end="6.1978363"
         sodipodi:start="0"
         sodipodi:ry="39.729424"
         sodipodi:rx="39.729424"
         sodipodi:cy="99.232582"
         sodipodi:cx="87.919739"
         sodipodi:type="arc"
         id="path45-2"
         style="opacity:1;fill:#ff7200;fill-opacity:1;stroke-width:3.91996193;stroke-miterlimit:4;stroke-dasharray:none;paint-order:stroke fill markers" />
      <path
         inkscape:connector-curvature="0"
         id="path871"
         d="M 56.126599,73.829944 C 62.437226,89.45555 54.46587,106.50891 52.117558,118.46395"
         style="fill:none;stroke:#000000;stroke-width:0.86500001;stroke-linecap:butt;stroke-linejoin:miter;stroke-miterlimit:4;stroke-dasharray:none;stroke-opacity:1" />
      <path
         inkscape:connector-curvature="0"
         id="path873"
         d="m 48.108515,90.400655 c 29.86783,-3.821536 56.619035,2.998372 80.982665,12.561665"
         style="fill:none;stroke:#000000;stroke-width:0.86500001;stroke-linecap:butt;stroke-linejoin:miter;stroke-miterlimit:4;stroke-dasharray:none;stroke-opacity:1" />
      <path
         sodipodi:nodetypes="cc"
         inkscape:connector-curvature="0"
         id="path875"
         d="m 83.655362,59.931929 c -21.712983,25.301871 -9.002872,61.888101 0,79.111781"
         style="fill:none;stroke:#000000;stroke-width:0.86500001;stroke-linecap:butt;stroke-linejoin:miter;stroke-miterlimit:4;stroke-dasharray:none;stroke-opacity:1" />
      <path
         inkscape:connector-curvature="0"
         id="path877"
         d="M 118.4004,71.691787 C 67.991362,87.744145 90.78144,106.48296 118.13313,126.48204"
         style="fill:none;stroke:#000000;stroke-width:0.86500001;stroke-linecap:butt;stroke-linejoin:miter;stroke-miterlimit:4;stroke-dasharray:none;stroke-opacity:1" />
    </g>
    <g
       aria-label="Pronounce the first syllable of the word you see as the ball bounces off the ground."
       transform="matrix(0.26865498,0,0,0.54880938,-2.3817376,0.7551728)"
       style="font-style:normal;font-variant:normal;font-weight:normal;font-stretch:normal;font-size:44.05472946px;line-height:1.25;font-family:sans-serif;-inkscape-font-specification:'sans-serif, Normal';font-variant-ligatures:normal;font-variant-caps:normal;font-variant-numeric:normal;font-feature-settings:normal;text-align:center;letter-spacing:0px;word-spacing:0px;writing-mode:lr-tb;text-anchor:middle;fill:#000000;fill-opacity:1;stroke:none"
       id="flowRoot83">
      <path
         d="m 48.920918,20.361965 q 0,2.129599 -0.752889,3.958042 -0.731377,1.806933 -2.065065,3.140621 -1.656355,1.656354 -3.91502,2.495287 -2.258665,0.817422 -5.700441,0.817422 h -4.259198 v 11.93866 H 27.969108 V 10.681971 h 8.690484 q 2.882487,0 4.883019,0.494755 2.000532,0.473244 3.549331,1.505777 1.828444,1.226133 2.817954,3.054576 1.011022,1.828444 1.011022,4.624886 z m -4.431287,0.107556 q 0,-1.656355 -0.580799,-2.882487 -0.5808,-1.226133 -1.76391,-2.000533 -1.032533,-0.666844 -2.366221,-0.946488 -1.312177,-0.301155 -3.33422,-0.301155 h -4.216176 v 12.799103 h 3.592354 q 2.581332,0 4.194664,-0.451733 1.613332,-0.473244 2.624354,-1.484266 1.011022,-1.032532 1.419732,-2.17262 0.430222,-1.140089 0.430222,-2.559821 z"
         id="path483"
         inkscape:connector-curvature="0" />
      <path
         d="m 69.227394,23.093875 h -0.215111 q -0.903466,-0.215111 -1.76391,-0.301156 -0.838933,-0.107555 -2.000532,-0.107555 -1.871466,0 -3.613865,0.838933 -1.742399,0.817422 -3.355731,2.129599 V 42.711997 H 54.234158 V 18.6841 h 4.044087 v 3.549331 q 2.409243,-1.935999 4.237686,-2.73191 1.849955,-0.817421 3.764443,-0.817421 1.054043,0 1.527288,0.06453 0.473244,0.04302 1.419732,0.1936 z"
         id="path485"
         inkscape:connector-curvature="0" />
      <path
         d="m 93.556446,30.708804 q 0,5.872529 -3.011554,9.271283 -3.011554,3.398754 -8.066662,3.398754 -5.09813,0 -8.109684,-3.398754 -2.990043,-3.398754 -2.990043,-9.271283 0,-5.87253 2.990043,-9.271284 3.011554,-3.420264 8.109684,-3.420264 5.055108,0 8.066662,3.420264 3.011554,3.398754 3.011554,9.271284 z m -4.173154,0 q 0,-4.667909 -1.828443,-6.926574 -1.828443,-2.280176 -5.076619,-2.280176 -3.291198,0 -5.119642,2.280176 -1.806932,2.258665 -1.806932,6.926574 0,4.51733 1.828444,6.86204 1.828443,2.323199 5.09813,2.323199 3.226665,0 5.055108,-2.301688 1.849954,-2.323199 1.849954,-6.883551 z"
         id="path487"
         inkscape:connector-curvature="0" />
      <path
         d="m 119.92905,42.711997 h -4.04408 V 29.030938 q 0,-1.656355 -0.1936,-3.097598 -0.1936,-1.462755 -0.70987,-2.280177 -0.53778,-0.903466 -1.5488,-1.333688 -1.01102,-0.451733 -2.62435,-0.451733 -1.65636,0 -3.46329,0.817422 -1.80693,0.817422 -3.46329,2.086576 V 42.711997 H 99.837687 V 18.6841 h 4.044083 v 2.667376 q 1.89298,-1.57031 3.91502,-2.452265 2.02205,-0.881955 4.15165,-0.881955 3.8935,0 5.93706,2.344709 2.04355,2.34471 2.04355,6.754485 z"
         id="path489"
         inkscape:connector-curvature="0" />
      <path
         d="m 148.19463,30.708804 q 0,5.872529 -3.01155,9.271283 -3.01155,3.398754 -8.06666,3.398754 -5.09813,0 -8.10969,-3.398754 -2.99004,-3.398754 -2.99004,-9.271283 0,-5.87253 2.99004,-9.271284 3.01156,-3.420264 8.10969,-3.420264 5.05511,0 8.06666,3.420264 3.01155,3.398754 3.01155,9.271284 z m -4.17315,0 q 0,-4.667909 -1.82844,-6.926574 -1.82845,-2.280176 -5.07662,-2.280176 -3.2912,0 -5.11964,2.280176 -1.80694,2.258665 -1.80694,6.926574 0,4.51733 1.82845,6.86204 1.82844,2.323199 5.09813,2.323199 3.22666,0 5.05511,-2.301688 1.84995,-2.323199 1.84995,-6.883551 z"
         id="path491"
         inkscape:connector-curvature="0" />
      <path
         d="m 174.39516,42.711997 h -4.04409 V 40.04462 q -2.04356,1.613333 -3.91502,2.473777 -1.87147,0.860444 -4.13013,0.860444 -3.78595,0 -5.89404,-2.301688 -2.10809,-2.323199 -2.10809,-6.797507 V 18.6841 h 4.04409 v 13.681058 q 0,1.828444 0.17209,3.140621 0.17208,1.290665 0.73137,2.215643 0.5808,0.946488 1.50578,1.37671 0.92498,0.430222 2.68889,0.430222 1.57031,0 3.42026,-0.817422 1.87147,-0.817422 3.4848,-2.086576 V 18.6841 h 4.04409 z"
         id="path493"
         inkscape:connector-curvature="0" />
      <path
         d="m 202.44563,42.711997 h -4.04408 V 29.030938 q 0,-1.656355 -0.1936,-3.097598 -0.1936,-1.462755 -0.70987,-2.280177 -0.53778,-0.903466 -1.5488,-1.333688 -1.01102,-0.451733 -2.62435,-0.451733 -1.65636,0 -3.46329,0.817422 -1.80693,0.817422 -3.46329,2.086576 v 17.940257 h -4.04408 V 18.6841 h 4.04408 v 2.667376 q 1.89298,-1.57031 3.91502,-2.452265 2.02205,-0.881955 4.15164,-0.881955 3.89351,0 5.93707,2.344709 2.04355,2.34471 2.04355,6.754485 z"
         id="path495"
         inkscape:connector-curvature="0" />
      <path
         d="m 228.00081,41.20622 q -2.02205,0.967999 -3.85049,1.505777 -1.80693,0.537777 -3.85049,0.537777 -2.60284,0 -4.77546,-0.752888 -2.17262,-0.7744 -3.72142,-2.323199 -1.57031,-1.548799 -2.43076,-3.91502 -0.86044,-2.366221 -0.86044,-5.528352 0,-5.894041 3.22667,-9.249773 3.24817,-3.355731 8.56141,-3.355731 2.06507,0 4.04409,0.5808 2.00053,0.580799 3.65689,1.419732 v 4.49582 h -0.21512 q -1.84995,-1.441244 -3.82897,-2.215643 -1.95751,-0.7744 -3.82898,-0.7744 -3.44177,0 -5.4423,2.323199 -1.97903,2.301687 -1.97903,6.775996 0,4.345242 1.936,6.689951 1.95751,2.323199 5.48533,2.323199 1.22614,0 2.49529,-0.322667 1.26916,-0.322666 2.28018,-0.838932 0.88195,-0.451733 1.65635,-0.946489 0.7744,-0.516266 1.22613,-0.881955 h 0.21512 z"
         id="path497"
         inkscape:connector-curvature="0" />
      <path
         d="m 253.31938,31.117515 h -17.70364 q 0,2.215643 0.66685,3.871997 0.66684,1.634844 1.82844,2.688888 1.11858,1.032532 2.64587,1.548799 1.54879,0.516266 3.39875,0.516266 2.45226,0 4.92604,-0.967999 2.49529,-0.989511 3.54933,-1.935999 h 0.21511 v 4.409775 q -2.04355,0.860444 -4.17315,1.441243 -2.1296,0.5808 -4.47431,0.5808 -5.98008,0 -9.33582,-3.226665 -3.35573,-3.248176 -3.35573,-9.20675 0,-5.894041 3.20516,-9.357328 3.22666,-3.463286 8.47537,-3.463286 4.86151,0 7.48586,2.839465 2.64587,2.839465 2.64587,8.066661 z m -3.93653,-3.097599 q -0.0215,-3.183642 -1.61334,-4.926041 -1.57031,-1.742399 -4.79697,-1.742399 -3.24818,0 -5.18418,1.914488 -1.91448,1.914487 -2.17262,4.753952 z"
         id="path499"
         inkscape:connector-curvature="0" />
      <path
         d="m 287.41446,42.496886 q -1.14009,0.301155 -2.49529,0.494755 -1.33369,0.1936 -2.38773,0.1936 -3.6784,0 -5.59289,-1.979021 -1.91448,-1.979021 -1.91448,-6.345774 V 22.082853 h -2.73191 V 18.6841 h 2.73191 v -6.905063 h 4.04408 V 18.6841 h 8.34631 v 3.398753 h -8.34631 v 10.949149 q 0,1.892977 0.0861,2.968532 0.086,1.054044 0.60231,1.979021 0.47324,0.860444 1.29066,1.269155 0.83894,0.387199 2.53831,0.387199 0.98951,0 2.06507,-0.279644 1.07555,-0.301155 1.5488,-0.494755 h 0.21511 z"
         id="path501"
         inkscape:connector-curvature="0" />
      <path
         d="m 312.41035,42.711997 h -4.04408 V 29.030938 q 0,-1.656355 -0.1936,-3.097598 -0.1936,-1.462755 -0.70987,-2.280177 -0.53778,-0.903466 -1.5488,-1.333688 -1.01102,-0.451733 -2.62435,-0.451733 -1.65636,0 -3.46329,0.817422 -1.80693,0.817422 -3.46329,2.086576 v 17.940257 h -4.04408 V 9.2407275 h 4.04408 V 21.351476 q 1.89298,-1.57031 3.91502,-2.452265 2.02205,-0.881955 4.15165,-0.881955 3.8935,0 5.93706,2.344709 2.04355,2.34471 2.04355,6.754485 z"
         id="path503"
         inkscape:connector-curvature="0" />
      <path
         d="m 340.31025,31.117515 h -17.70363 q 0,2.215643 0.66684,3.871997 0.66685,1.634844 1.82845,2.688888 1.11857,1.032532 2.64586,1.548799 1.5488,0.516266 3.39875,0.516266 2.45227,0 4.92605,-0.967999 2.49528,-0.989511 3.54933,-1.935999 h 0.21511 v 4.409775 q -2.04356,0.860444 -4.17316,1.441243 -2.12959,0.5808 -4.4743,0.5808 -5.98009,0 -9.33582,-3.226665 -3.35573,-3.248176 -3.35573,-9.20675 0,-5.894041 3.20515,-9.357328 3.22667,-3.463286 8.47537,-3.463286 4.86151,0 7.48587,2.839465 2.64586,2.839465 2.64586,8.066661 z m -3.93653,-3.097599 q -0.0215,-3.183642 -1.61333,-4.926041 -1.57031,-1.742399 -4.79698,-1.742399 -3.24817,0 -5.18417,1.914488 -1.91449,1.914487 -2.17262,4.753952 z"
         id="path505"
         inkscape:connector-curvature="0" />
      <path
         d="m 374.85708,13.155747 h -0.21511 q -0.66684,-0.1936 -1.7424,-0.387199 -1.07555,-0.215111 -1.89297,-0.215111 -2.60285,0 -3.78596,1.161599 -1.1616,1.140088 -1.1616,4.151642 V 18.6841 h 7.29227 v 3.398753 h -7.1632 v 20.629144 h -4.04409 V 22.082853 h -2.73191 V 18.6841 h 2.73191 v -0.795911 q 0,-4.280709 2.1296,-6.560885 2.1296,-2.3016875 6.15218,-2.3016875 1.3552,0 2.43075,0.1290666 1.09707,0.1290666 2.00053,0.3011554 z"
         id="path507"
         inkscape:connector-curvature="0" />
      <path
         d="m 381.76213,14.661524 h -4.56035 V 10.46686 h 4.56035 z M 381.504,42.711997 h -4.04409 V 18.6841 h 4.04409 z"
         id="path509"
         inkscape:connector-curvature="0" />
      <path
         d="m 404.54239,23.093875 h -0.21511 q -0.90347,-0.215111 -1.76391,-0.301156 -0.83894,-0.107555 -2.00054,-0.107555 -1.87146,0 -3.61386,0.838933 -1.7424,0.817422 -3.35573,2.129599 v 17.058301 h -4.04409 V 18.6841 h 4.04409 v 3.549331 q 2.40924,-1.935999 4.23768,-2.73191 1.84996,-0.817421 3.76445,-0.817421 1.05404,0 1.52728,0.06453 0.47325,0.04302 1.41974,0.1936 z"
         id="path511"
         inkscape:connector-curvature="0" />
      <path
         d="m 425.55873,35.785423 q 0,3.291198 -2.73191,5.399286 -2.7104,2.108087 -7.42133,2.108087 -2.66738,0 -4.90453,-0.623822 -2.21564,-0.645333 -3.72142,-1.398221 v -4.538842 h 0.21511 q 1.91449,1.441244 4.2592,2.301688 2.34471,0.838933 4.49582,0.838933 2.66737,0 4.17315,-0.860444 1.50578,-0.860444 1.50578,-2.710399 0,-1.419732 -0.81743,-2.15111 -0.81742,-0.731377 -3.14062,-1.247643 -0.86044,-0.1936 -2.25866,-0.451733 -1.37671,-0.258134 -2.5168,-0.559289 -3.16213,-0.838933 -4.49582,-2.452265 -1.31218,-1.634844 -1.31218,-4.001064 0,-1.484266 0.60231,-2.796443 0.62383,-1.312177 1.87147,-2.34471 1.20462,-1.011022 3.05458,-1.591821 1.87146,-0.602311 4.17315,-0.602311 2.15111,0 4.34524,0.537777 2.21564,0.516267 3.6784,1.269155 v 4.323731 h -0.21511 q -1.5488,-1.140088 -3.76444,-1.914488 -2.21565,-0.79591 -4.34525,-0.79591 -2.21564,0 -3.74293,0.860444 -1.52729,0.838932 -1.52729,2.516798 0,1.484266 0.92498,2.237154 0.90347,0.752889 2.92551,1.226133 1.11858,0.258133 2.49529,0.516266 1.39822,0.258133 2.3232,0.473244 2.81795,0.645333 4.34524,2.215644 1.52729,1.591821 1.52729,4.216175 z"
         id="path513"
         inkscape:connector-curvature="0" />
      <path
         d="m 443.84315,42.496886 q -1.14008,0.301155 -2.49528,0.494755 -1.33369,0.1936 -2.38773,0.1936 -3.6784,0 -5.59289,-1.979021 -1.91449,-1.979021 -1.91449,-6.345774 V 22.082853 h -2.73191 V 18.6841 h 2.73191 v -6.905063 h 4.04409 V 18.6841 h 8.3463 v 3.398753 h -8.3463 v 10.949149 q 0,1.892977 0.086,2.968532 0.0861,1.054044 0.60231,1.979021 0.47325,0.860444 1.29067,1.269155 0.83893,0.387199 2.53831,0.387199 0.98951,0 2.06506,-0.279644 1.07556,-0.301155 1.5488,-0.494755 h 0.21511 z"
         id="path515"
         inkscape:connector-curvature="0" />
      <path
         d="m 481.40153,35.785423 q 0,3.291198 -2.73191,5.399286 -2.7104,2.108087 -7.42133,2.108087 -2.66737,0 -4.90453,-0.623822 -2.21564,-0.645333 -3.72142,-1.398221 v -4.538842 h 0.21511 q 1.91449,1.441244 4.2592,2.301688 2.34471,0.838933 4.49582,0.838933 2.66738,0 4.17315,-0.860444 1.50578,-0.860444 1.50578,-2.710399 0,-1.419732 -0.81742,-2.15111 -0.81742,-0.731377 -3.14062,-1.247643 -0.86045,-0.1936 -2.25867,-0.451733 -1.37671,-0.258134 -2.5168,-0.559289 -3.16213,-0.838933 -4.49582,-2.452265 -1.31217,-1.634844 -1.31217,-4.001064 0,-1.484266 0.60231,-2.796443 0.62382,-1.312177 1.87146,-2.34471 1.20463,-1.011022 3.05458,-1.591821 1.87147,-0.602311 4.17315,-0.602311 2.15111,0 4.34525,0.537777 2.21564,0.516267 3.67839,1.269155 v 4.323731 h -0.21511 q -1.5488,-1.140088 -3.76444,-1.914488 -2.21564,-0.79591 -4.34524,-0.79591 -2.21565,0 -3.74293,0.860444 -1.52729,0.838932 -1.52729,2.516798 0,1.484266 0.92498,2.237154 0.90346,0.752889 2.92551,1.226133 1.11857,0.258133 2.49528,0.516266 1.39822,0.258133 2.3232,0.473244 2.81796,0.645333 4.34524,2.215644 1.52729,1.591821 1.52729,4.216175 z"
         id="path517"
         inkscape:connector-curvature="0" />
      <path
         d="m 507.98927,18.6841 -14.02523,32.890469 h -4.32373 l 4.4743,-10.024172 -9.57243,-22.866297 h 4.38826 l 7.37831,17.811189 7.44284,-17.811189 z"
         id="path519"
         inkscape:connector-curvature="0" />
      <path
         d="m 517.3681,42.711997 h -4.04408 V 9.2407275 h 4.04408 z"
         id="path521"
         inkscape:connector-curvature="0" />
      <path
         d="m 529.50037,42.711997 h -4.04409 V 9.2407275 h 4.04409 z"
         id="path523"
         inkscape:connector-curvature="0" />
      <path
         d="m 556.21715,42.711997 h -4.02257 v -2.559821 q -0.53778,0.365689 -1.46276,1.032533 -0.90346,0.645333 -1.76391,1.032532 -1.01102,0.494756 -2.3232,0.817422 -1.31217,0.344178 -3.07608,0.344178 -3.24818,0 -5.50684,-2.15111 -2.25867,-2.15111 -2.25867,-5.48533 0,-2.73191 1.1616,-4.409776 1.18311,-1.699376 3.35573,-2.667376 2.19413,-0.967999 5.27022,-1.312177 3.07609,-0.344177 6.60391,-0.516266 v -0.623822 q 0,-1.37671 -0.49476,-2.280176 -0.47324,-0.903466 -1.37671,-1.419733 -0.86044,-0.494755 -2.06506,-0.666844 -1.20462,-0.172089 -2.5168,-0.172089 -1.59182,0 -3.54933,0.430222 -1.95751,0.408711 -4.04409,1.204622 h -0.21511 v -4.10862 q 1.18311,-0.322666 3.42026,-0.709866 2.23716,-0.3872 4.40978,-0.3872 2.53831,0 4.40977,0.430222 1.89298,0.408711 3.26969,1.419732 1.3552,0.989511 2.06507,2.559821 0.70986,1.57031 0.70986,3.893509 z m -4.02257,-5.915553 v -6.689951 q -1.84996,0.107555 -4.36676,0.322666 -2.49528,0.215111 -3.95804,0.623822 -1.7424,0.494755 -2.81795,1.548799 -1.07556,1.032533 -1.07556,2.860976 0,2.065066 1.24765,3.11911 1.24764,1.032532 3.80746,1.032532 2.1296,0 3.89351,-0.817421 1.76391,-0.838933 3.26969,-2.000533 z"
         id="path525"
         inkscape:connector-curvature="0" />
      <path
         d="m 585.19261,30.515204 q 0,3.011554 -0.86045,5.420797 -0.83893,2.409243 -2.28017,4.044086 -1.52729,1.699377 -3.35573,2.559821 -1.82845,0.838933 -4.02258,0.838933 -2.04355,0 -3.57084,-0.494756 -1.52729,-0.473244 -3.01156,-1.290666 l -0.25813,1.118578 H 564.0472 V 9.2407275 h 4.04408 V 21.200898 q 1.69938,-1.398221 3.61387,-2.280176 1.91449,-0.903466 4.30222,-0.903466 4.2592,0 6.71146,3.269687 2.47378,3.269687 2.47378,9.228261 z m -4.17316,0.107555 q 0,-4.302219 -1.41973,-6.517863 -1.41973,-2.237154 -4.58186,-2.237154 -1.76391,0 -3.57084,0.7744 -1.80694,0.752888 -3.35574,1.95751 v 13.767103 q 1.72089,0.774399 2.94703,1.075555 1.24764,0.301155 2.81795,0.301155 3.35573,0 5.24871,-2.194132 1.91448,-2.215643 1.91448,-6.926574 z"
         id="path527"
         inkscape:connector-curvature="0" />
      <path
         d="m 595.58243,42.711997 h -4.04409 V 9.2407275 h 4.04409 z"
         id="path529"
         inkscape:connector-curvature="0" />
      <path
         d="m 623.74046,31.117515 h -17.70364 q 0,2.215643 0.66685,3.871997 0.66684,1.634844 1.82844,2.688888 1.11858,1.032532 2.64587,1.548799 1.5488,0.516266 3.39875,0.516266 2.45227,0 4.92604,-0.967999 2.49529,-0.989511 3.54933,-1.935999 h 0.21511 v 4.409775 q -2.04355,0.860444 -4.17315,1.441243 -2.1296,0.5808 -4.47431,0.5808 -5.98008,0 -9.33581,-3.226665 -3.35574,-3.248176 -3.35574,-9.20675 0,-5.894041 3.20516,-9.357328 3.22666,-3.463286 8.47537,-3.463286 4.86151,0 7.48586,2.839465 2.64587,2.839465 2.64587,8.066661 z m -3.93653,-3.097599 q -0.0215,-3.183642 -1.61333,-4.926041 -1.57032,-1.742399 -4.79698,-1.742399 -3.24818,0 -5.18417,1.914488 -1.91449,1.914487 -2.17263,4.753952 z"
         id="path531"
         inkscape:connector-curvature="0" />
      <path
         d="m 665.83771,30.708804 q 0,5.872529 -3.01155,9.271283 -3.01155,3.398754 -8.06666,3.398754 -5.09813,0 -8.10969,-3.398754 -2.99004,-3.398754 -2.99004,-9.271283 0,-5.87253 2.99004,-9.271284 3.01156,-3.420264 8.10969,-3.420264 5.05511,0 8.06666,3.420264 3.01155,3.398754 3.01155,9.271284 z m -4.17315,0 q 0,-4.667909 -1.82844,-6.926574 -1.82845,-2.280176 -5.07662,-2.280176 -3.2912,0 -5.11964,2.280176 -1.80693,2.258665 -1.80693,6.926574 0,4.51733 1.82844,6.86204 1.82844,2.323199 5.09813,2.323199 3.22666,0 5.05511,-2.301688 1.84995,-2.323199 1.84995,-6.883551 z"
         id="path533"
         inkscape:connector-curvature="0" />
      <path
         d="m 685.04708,13.155747 h -0.21511 q -0.66684,-0.1936 -1.7424,-0.387199 -1.07555,-0.215111 -1.89297,-0.215111 -2.60284,0 -3.78596,1.161599 -1.16159,1.140088 -1.16159,4.151642 V 18.6841 h 7.29226 v 3.398753 h -7.1632 v 20.629144 h -4.04408 V 22.082853 h -2.73191 V 18.6841 h 2.73191 v -0.795911 q 0,-4.280709 2.12959,-6.560885 2.1296,-2.3016875 6.15218,-2.3016875 1.3552,0 2.43075,0.1290666 1.09707,0.1290666 2.00053,0.3011554 z"
         id="path535"
         inkscape:connector-curvature="0" />
      <path
         d="m 715.57136,42.496886 q -1.14008,0.301155 -2.49528,0.494755 -1.33369,0.1936 -2.38773,0.1936 -3.6784,0 -5.59289,-1.979021 -1.91449,-1.979021 -1.91449,-6.345774 V 22.082853 h -2.73191 V 18.6841 h 2.73191 v -6.905063 h 4.04409 V 18.6841 h 8.3463 v 3.398753 h -8.3463 v 10.949149 q 0,1.892977 0.086,2.968532 0.0861,1.054044 0.60231,1.979021 0.47325,0.860444 1.29067,1.269155 0.83893,0.387199 2.53831,0.387199 0.98951,0 2.06506,-0.279644 1.07556,-0.301155 1.5488,-0.494755 h 0.21511 z"
         id="path537"
         inkscape:connector-curvature="0" />
      <path
         d="m 740.56728,42.711997 h -4.04409 V 29.030938 q 0,-1.656355 -0.1936,-3.097598 -0.1936,-1.462755 -0.70987,-2.280177 -0.53778,-0.903466 -1.5488,-1.333688 -1.01102,-0.451733 -2.62435,-0.451733 -1.65636,0 -3.46329,0.817422 -1.80693,0.817422 -3.46328,2.086576 v 17.940257 h -4.04409 V 9.2407275 H 724.52 V 21.351476 q 1.89297,-1.57031 3.91502,-2.452265 2.02204,-0.881955 4.15164,-0.881955 3.89351,0 5.93706,2.344709 2.04356,2.34471 2.04356,6.754485 z"
         id="path539"
         inkscape:connector-curvature="0" />
      <path
         d="m 768.46714,31.117515 h -17.70363 q 0,2.215643 0.66684,3.871997 0.66685,1.634844 1.82845,2.688888 1.11857,1.032532 2.64586,1.548799 1.5488,0.516266 3.39876,0.516266 2.45226,0 4.92604,-0.967999 2.49528,-0.989511 3.54933,-1.935999 h 0.21511 v 4.409775 q -2.04356,0.860444 -4.17315,1.441243 -2.1296,0.5808 -4.47431,0.5808 -5.98009,0 -9.33582,-3.226665 -3.35573,-3.248176 -3.35573,-9.20675 0,-5.894041 3.20515,-9.357328 3.22667,-3.463286 8.47538,-3.463286 4.8615,0 7.48586,2.839465 2.64586,2.839465 2.64586,8.066661 z m -3.93653,-3.097599 q -0.0215,-3.183642 -1.61333,-4.926041 -1.57031,-1.742399 -4.79698,-1.742399 -3.24817,0 -5.18417,1.914488 -1.91449,1.914487 -2.17262,4.753952 z"
         id="path541"
         inkscape:connector-curvature="0" />
      <path
         d="m 61.569444,73.752512 -6.25973,24.027897 H 51.566783 L 45.393098,79.259354 39.262435,97.780409 h -3.72142 L 29.216752,73.752512 h 4.216175 l 4.409775,18.607101 6.001596,-18.607101 h 3.334221 l 6.152174,18.607101 4.173153,-18.607101 z"
         id="path543"
         inkscape:connector-curvature="0" />
      <path
         d="m 87.877517,85.777216 q 0,5.87253 -3.011554,9.271284 -3.011554,3.398753 -8.066662,3.398753 -5.09813,0 -8.109684,-3.398753 -2.990043,-3.398754 -2.990043,-9.271284 0,-5.872529 2.990043,-9.271283 3.011554,-3.420265 8.109684,-3.420265 5.055108,0 8.066662,3.420265 3.011554,3.398754 3.011554,9.271283 z m -4.173153,0 q 0,-4.667908 -1.828444,-6.926573 -1.828443,-2.280177 -5.076619,-2.280177 -3.291198,0 -5.119641,2.280177 -1.806932,2.258665 -1.806932,6.926573 0,4.517331 1.828443,6.862041 1.828443,2.323198 5.09813,2.323198 3.226665,0 5.055108,-2.301687 1.849955,-2.323199 1.849955,-6.883552 z"
         id="path545"
         inkscape:connector-curvature="0" />
      <path
         d="m 109.15199,78.162288 h -0.21511 q -0.90346,-0.215111 -1.76391,-0.301156 -0.83893,-0.107555 -2.00053,-0.107555 -1.87146,0 -3.61386,0.838933 -1.742402,0.817421 -3.355735,2.129598 V 97.780409 H 94.158759 V 73.752512 h 4.044086 v 3.549332 q 2.409245,-1.935999 4.237685,-2.73191 1.84996,-0.817422 3.76444,-0.817422 1.05405,0 1.52729,0.06453 0.47325,0.04302 1.41973,0.1936 z"
         id="path547"
         inkscape:connector-curvature="0" />
      <path
         d="m 132.49153,97.780409 h -4.04408 v -2.516798 q -1.7424,1.505777 -3.63538,2.34471 -1.89298,0.838932 -4.10862,0.838932 -4.30222,0 -6.84053,-3.312709 -2.5168,-3.312709 -2.5168,-9.185239 0,-3.054576 0.86045,-5.442308 0.88195,-2.387732 2.36622,-4.065597 1.46275,-1.634844 3.39875,-2.495288 1.95751,-0.860444 4.04409,-0.860444 1.89298,0 3.35573,0.408711 1.46275,0.3872 3.07609,1.226133 V 64.30914 h 4.04408 z m -4.04408,-5.915552 V 78.076243 q -1.63485,-0.731377 -2.92551,-1.011021 -1.29067,-0.279645 -2.81796,-0.279645 -3.39875,0 -5.29173,2.366221 -1.89297,2.366221 -1.89297,6.711463 0,4.280708 1.46275,6.517863 1.46276,2.215643 4.68942,2.215643 1.72089,0 3.4848,-0.752889 1.76391,-0.774399 3.2912,-1.979021 z"
         id="path549"
         inkscape:connector-curvature="0" />
      <path
         d="m 176.71835,73.752512 -14.02524,32.890468 h -4.32373 l 4.47431,-10.02417 -9.57244,-22.866298 h 4.38827 l 7.3783,17.81119 7.44284,-17.81119 z"
         id="path551"
         inkscape:connector-curvature="0" />
      <path
         d="m 202.48864,85.777216 q 0,5.87253 -3.01155,9.271284 -3.01155,3.398753 -8.06666,3.398753 -5.09813,0 -8.10969,-3.398753 -2.99004,-3.398754 -2.99004,-9.271284 0,-5.872529 2.99004,-9.271283 3.01156,-3.420265 8.10969,-3.420265 5.05511,0 8.06666,3.420265 3.01155,3.398754 3.01155,9.271283 z m -4.17315,0 q 0,-4.667908 -1.82844,-6.926573 -1.82845,-2.280177 -5.07662,-2.280177 -3.2912,0 -5.11964,2.280177 -1.80694,2.258665 -1.80694,6.926573 0,4.517331 1.82845,6.862041 1.82844,2.323198 5.09813,2.323198 3.22666,0 5.05511,-2.301687 1.84995,-2.323199 1.84995,-6.883552 z"
         id="path553"
         inkscape:connector-curvature="0" />
      <path
         d="m 228.68917,97.780409 h -4.04409 v -2.667376 q -2.04356,1.613332 -3.91502,2.473776 -1.87147,0.860444 -4.13013,0.860444 -3.78595,0 -5.89404,-2.301687 -2.10809,-2.323199 -2.10809,-6.797507 V 73.752512 h 4.04409 v 13.681059 q 0,1.828443 0.17209,3.14062 0.17208,1.290666 0.73137,2.215643 0.5808,0.946489 1.50578,1.376711 0.92498,0.430222 2.68889,0.430222 1.57031,0 3.42026,-0.817422 1.87147,-0.817422 3.4848,-2.086577 V 73.752512 h 4.04409 z"
         id="path555"
         inkscape:connector-curvature="0" />
      <path
         d="m 269.30212,90.853836 q 0,3.291198 -2.73191,5.399285 -2.71039,2.108088 -7.42132,2.108088 -2.66738,0 -4.90454,-0.623822 -2.21564,-0.645333 -3.72142,-1.398221 v -4.538842 h 0.21512 q 1.91448,1.441244 4.25919,2.301687 2.34471,0.838933 4.49582,0.838933 2.66738,0 4.17316,-0.860444 1.50577,-0.860444 1.50577,-2.710398 0,-1.419732 -0.81742,-2.15111 -0.81742,-0.731377 -3.14062,-1.247644 -0.86044,-0.193599 -2.25866,-0.451733 -1.37671,-0.258133 -2.5168,-0.559288 -3.16213,-0.838933 -4.49582,-2.452265 -1.31218,-1.634844 -1.31218,-4.001065 0,-1.484265 0.60231,-2.796442 0.62382,-1.312177 1.87147,-2.34471 1.20462,-1.011022 3.05457,-1.591821 1.87147,-0.602311 4.17316,-0.602311 2.15111,0 4.34524,0.537777 2.21564,0.516267 3.6784,1.269155 v 4.323731 h -0.21512 q -1.54879,-1.140088 -3.76444,-1.914488 -2.21564,-0.795911 -4.34524,-0.795911 -2.21564,0 -3.74293,0.860444 -1.52729,0.838933 -1.52729,2.516799 0,1.484266 0.92498,2.237154 0.90346,0.752889 2.92551,1.226133 1.11858,0.258133 2.49529,0.516266 1.39822,0.258133 2.32319,0.473244 2.81796,0.645333 4.34525,2.215643 1.52728,1.591822 1.52728,4.216176 z"
         id="path557"
         inkscape:connector-curvature="0" />
      <path
         d="m 295.22299,86.185927 h -17.70363 q 0,2.215643 0.66684,3.871998 0.66684,1.634843 1.82844,2.688887 1.11858,1.032533 2.64587,1.548799 1.5488,0.516267 3.39875,0.516267 2.45227,0 4.92604,-0.968 2.49529,-0.98951 3.54934,-1.935999 h 0.21511 v 4.409776 q -2.04356,0.860444 -4.17316,1.441243 -2.1296,0.5808 -4.4743,0.5808 -5.98009,0 -9.33582,-3.226665 -3.35573,-3.248176 -3.35573,-9.20675 0,-5.894041 3.20515,-9.357328 3.22667,-3.463287 8.47537,-3.463287 4.86151,0 7.48587,2.839465 2.64586,2.839465 2.64586,8.066662 z m -3.93653,-3.097598 q -0.0215,-3.183642 -1.61333,-4.926041 -1.57031,-1.742399 -4.79698,-1.742399 -3.24817,0 -5.18417,1.914487 -1.91449,1.914488 -2.17262,4.753953 z"
         id="path559"
         inkscape:connector-curvature="0" />
      <path
         d="m 321.46652,86.185927 h -17.70363 q 0,2.215643 0.66684,3.871998 0.66685,1.634843 1.82844,2.688887 1.11858,1.032533 2.64587,1.548799 1.5488,0.516267 3.39875,0.516267 2.45227,0 4.92604,-0.968 2.49529,-0.98951 3.54934,-1.935999 h 0.21511 v 4.409776 q -2.04356,0.860444 -4.17316,1.441243 -2.12959,0.5808 -4.4743,0.5808 -5.98009,0 -9.33582,-3.226665 -3.35573,-3.248176 -3.35573,-9.20675 0,-5.894041 3.20515,-9.357328 3.22667,-3.463287 8.47537,-3.463287 4.86151,0 7.48587,2.839465 2.64586,2.839465 2.64586,8.066662 z m -3.93653,-3.097598 q -0.0215,-3.183642 -1.61333,-4.926041 -1.57031,-1.742399 -4.79698,-1.742399 -3.24817,0 -5.18417,1.914487 -1.91449,1.914488 -2.17262,4.753953 z"
         id="path561"
         inkscape:connector-curvature="0" />
      <path
         d="m 361.75681,97.780409 h -4.02257 v -2.55982 q -0.53778,0.365688 -1.46276,1.032532 -0.90346,0.645333 -1.76391,1.032533 -1.01102,0.494755 -2.32319,0.817422 -1.31218,0.344177 -3.07609,0.344177 -3.24818,0 -5.50684,-2.151109 -2.25867,-2.15111 -2.25867,-5.485331 0,-2.731909 1.1616,-4.409775 1.18311,-1.699376 3.35573,-2.667376 2.19413,-0.967999 5.27022,-1.312177 3.07609,-0.344177 6.60391,-0.516266 v -0.623822 q 0,-1.37671 -0.49476,-2.280177 -0.47324,-0.903466 -1.37671,-1.419732 -0.86044,-0.494755 -2.06506,-0.666844 -1.20462,-0.172089 -2.5168,-0.172089 -1.59182,0 -3.54933,0.430222 -1.95751,0.408711 -4.04409,1.204622 h -0.21511 v -4.10862 q 1.18311,-0.322667 3.42027,-0.709866 2.23715,-0.3872 4.40977,-0.3872 2.53831,0 4.40978,0.430222 1.89297,0.408711 3.26968,1.419732 1.3552,0.989511 2.06507,2.559821 0.70986,1.57031 0.70986,3.893509 z m -4.02257,-5.915552 v -6.689951 q -1.84996,0.107555 -4.36675,0.322666 -2.49529,0.215111 -3.95805,0.623822 -1.7424,0.494755 -2.81795,1.548799 -1.07555,1.032533 -1.07555,2.860976 0,2.065066 1.24764,3.119109 1.24764,1.032533 3.80746,1.032533 2.1296,0 3.89351,-0.817422 1.76391,-0.838932 3.26969,-2.000532 z"
         id="path563"
         inkscape:connector-curvature="0" />
      <path
         d="m 386.75272,90.853836 q 0,3.291198 -2.73191,5.399285 -2.7104,2.108088 -7.42133,2.108088 -2.66738,0 -4.90453,-0.623822 -2.21565,-0.645333 -3.72142,-1.398221 v -4.538842 h 0.21511 q 1.91449,1.441244 4.2592,2.301687 2.34471,0.838933 4.49582,0.838933 2.66737,0 4.17315,-0.860444 1.50577,-0.860444 1.50577,-2.710398 0,-1.419732 -0.81742,-2.15111 -0.81742,-0.731377 -3.14062,-1.247644 -0.86044,-0.193599 -2.25866,-0.451733 -1.37671,-0.258133 -2.5168,-0.559288 -3.16213,-0.838933 -4.49582,-2.452265 -1.31218,-1.634844 -1.31218,-4.001065 0,-1.484265 0.60231,-2.796442 0.62383,-1.312177 1.87147,-2.34471 1.20462,-1.011022 3.05457,-1.591821 1.87147,-0.602311 4.17316,-0.602311 2.15111,0 4.34524,0.537777 2.21564,0.516267 3.6784,1.269155 v 4.323731 h -0.21511 q -1.5488,-1.140088 -3.76445,-1.914488 -2.21564,-0.795911 -4.34524,-0.795911 -2.21564,0 -3.74293,0.860444 -1.52729,0.838933 -1.52729,2.516799 0,1.484266 0.92498,2.237154 0.90347,0.752889 2.92551,1.226133 1.11858,0.258133 2.49529,0.516266 1.39822,0.258133 2.3232,0.473244 2.81795,0.645333 4.34524,2.215643 1.52729,1.591822 1.52729,4.216176 z"
         id="path565"
         inkscape:connector-curvature="0" />
      <path
         d="m 420.52515,97.565298 q -1.14009,0.301156 -2.49529,0.494756 -1.33369,0.193599 -2.38773,0.193599 -3.6784,0 -5.59289,-1.979021 -1.91448,-1.979021 -1.91448,-6.345774 V 77.151266 h -2.73191 v -3.398754 h 2.73191 V 66.84745 h 4.04408 v 6.905062 h 8.34631 v 3.398754 h -8.34631 v 10.949149 q 0,1.892977 0.0861,2.968532 0.086,1.054043 0.60231,1.979021 0.47324,0.860444 1.29066,1.269154 0.83894,0.3872 2.53831,0.3872 0.98951,0 2.06507,-0.279644 1.07555,-0.301155 1.5488,-0.494755 h 0.21511 z"
         id="path567"
         inkscape:connector-curvature="0" />
      <path
         d="m 445.52103,97.780409 h -4.04409 V 84.099351 q 0,-1.656355 -0.1936,-3.097598 -0.1936,-1.462755 -0.70986,-2.280177 -0.53778,-0.903466 -1.5488,-1.333688 -1.01102,-0.451733 -2.62436,-0.451733 -1.65635,0 -3.46328,0.817422 -1.80694,0.817421 -3.46329,2.086576 v 17.940256 h -4.04409 V 64.30914 h 4.04409 v 12.110749 q 1.89298,-1.570311 3.91502,-2.452266 2.02204,-0.881955 4.15164,-0.881955 3.89351,0 5.93706,2.34471 2.04356,2.34471 2.04356,6.754485 z"
         id="path569"
         inkscape:connector-curvature="0" />
      <path
         d="m 473.42093,86.185927 h -17.70364 q 0,2.215643 0.66685,3.871998 0.66684,1.634843 1.82844,2.688887 1.11858,1.032533 2.64587,1.548799 1.5488,0.516267 3.39875,0.516267 2.45227,0 4.92604,-0.968 2.49529,-0.98951 3.54933,-1.935999 h 0.21511 v 4.409776 q -2.04355,0.860444 -4.17315,1.441243 -2.1296,0.5808 -4.47431,0.5808 -5.98008,0 -9.33581,-3.226665 -3.35574,-3.248176 -3.35574,-9.20675 0,-5.894041 3.20516,-9.357328 3.22666,-3.463287 8.47537,-3.463287 4.86151,0 7.48586,2.839465 2.64587,2.839465 2.64587,8.066662 z m -3.93653,-3.097598 q -0.0215,-3.183642 -1.61334,-4.926041 -1.57031,-1.742399 -4.79697,-1.742399 -3.24818,0 -5.18418,1.914487 -1.91448,1.914488 -2.17262,4.753953 z"
         id="path571"
         inkscape:connector-curvature="0" />
      <path
         d="m 516.185,85.583617 q 0,3.011553 -0.86045,5.420796 -0.83893,2.409243 -2.28017,4.044087 -1.52729,1.699377 -3.35573,2.559821 -1.82845,0.838932 -4.02258,0.838932 -2.04355,0 -3.57084,-0.494755 -1.52729,-0.473244 -3.01156,-1.290666 l -0.25813,1.118577 h -3.78595 V 64.30914 h 4.04408 v 11.960171 q 1.69938,-1.398221 3.61387,-2.280176 1.91449,-0.903467 4.30222,-0.903467 4.2592,0 6.71146,3.269687 2.47378,3.269687 2.47378,9.228262 z m -4.17316,0.107555 q 0,-4.30222 -1.41973,-6.517863 -1.41973,-2.237154 -4.58186,-2.237154 -1.76391,0 -3.57084,0.7744 -1.80694,0.752888 -3.35574,1.957509 v 13.767103 q 1.72089,0.7744 2.94702,1.075555 1.24765,0.301156 2.81796,0.301156 3.35573,0 5.24871,-2.194132 1.91448,-2.215643 1.91448,-6.926574 z"
         id="path573"
         inkscape:connector-curvature="0" />
      <path
         d="m 541.15937,97.780409 h -4.02257 v -2.55982 q -0.53778,0.365688 -1.46276,1.032532 -0.90346,0.645333 -1.76391,1.032533 -1.01102,0.494755 -2.3232,0.817422 -1.31217,0.344177 -3.07608,0.344177 -3.24818,0 -5.50685,-2.151109 -2.25866,-2.15111 -2.25866,-5.485331 0,-2.731909 1.1616,-4.409775 1.18311,-1.699376 3.35573,-2.667376 2.19413,-0.967999 5.27022,-1.312177 3.07609,-0.344177 6.60391,-0.516266 v -0.623822 q 0,-1.37671 -0.49476,-2.280177 -0.47324,-0.903466 -1.37671,-1.419732 -0.86044,-0.494755 -2.06506,-0.666844 -1.20463,-0.172089 -2.5168,-0.172089 -1.59182,0 -3.54933,0.430222 -1.95751,0.408711 -4.04409,1.204622 h -0.21511 v -4.10862 q 1.18311,-0.322667 3.42026,-0.709866 2.23716,-0.3872 4.40978,-0.3872 2.53831,0 4.40977,0.430222 1.89298,0.408711 3.26969,1.419732 1.3552,0.989511 2.06507,2.559821 0.70986,1.57031 0.70986,3.893509 z m -4.02257,-5.915552 v -6.689951 q -1.84996,0.107555 -4.36676,0.322666 -2.49528,0.215111 -3.95804,0.623822 -1.7424,0.494755 -2.81795,1.548799 -1.07556,1.032533 -1.07556,2.860976 0,2.065066 1.24765,3.119109 1.24764,1.032533 3.80746,1.032533 2.1296,0 3.89351,-0.817422 1.76391,-0.838932 3.26969,-2.000532 z"
         id="path575"
         inkscape:connector-curvature="0" />
      <path
         d="m 553.07653,97.780409 h -4.04409 V 64.30914 h 4.04409 z"
         id="path577"
         inkscape:connector-curvature="0" />
      <path
         d="M 565.20879,97.780409 H 561.1647 V 64.30914 h 4.04409 z"
         id="path579"
         inkscape:connector-curvature="0" />
      <path
         d="m 609.88733,85.583617 q 0,3.011553 -0.86045,5.420796 -0.83893,2.409243 -2.28017,4.044087 -1.52729,1.699377 -3.35573,2.559821 -1.82845,0.838932 -4.02258,0.838932 -2.04355,0 -3.57084,-0.494755 -1.52729,-0.473244 -3.01155,-1.290666 l -0.25814,1.118577 h -3.78595 V 64.30914 h 4.04409 v 11.960171 q 1.69937,-1.398221 3.61386,-2.280176 1.91449,-0.903467 4.30222,-0.903467 4.2592,0 6.71146,3.269687 2.47378,3.269687 2.47378,9.228262 z m -4.17315,0.107555 q 0,-4.30222 -1.41974,-6.517863 -1.41973,-2.237154 -4.58186,-2.237154 -1.76391,0 -3.57084,0.7744 -1.80694,0.752888 -3.35573,1.957509 v 13.767103 q 1.72088,0.7744 2.94702,1.075555 1.24764,0.301156 2.81795,0.301156 3.35573,0 5.24871,-2.194132 1.91449,-2.215643 1.91449,-6.926574 z"
         id="path581"
         inkscape:connector-curvature="0" />
      <path
         d="m 636.66867,85.777216 q 0,5.87253 -3.01156,9.271284 -3.01155,3.398753 -8.06666,3.398753 -5.09813,0 -8.10968,-3.398753 -2.99005,-3.398754 -2.99005,-9.271284 0,-5.872529 2.99005,-9.271283 3.01155,-3.420265 8.10968,-3.420265 5.05511,0 8.06666,3.420265 3.01156,3.398754 3.01156,9.271283 z m -4.17316,0 q 0,-4.667908 -1.82844,-6.926573 -1.82844,-2.280177 -5.07662,-2.280177 -3.2912,0 -5.11964,2.280177 -1.80693,2.258665 -1.80693,6.926573 0,4.517331 1.82844,6.862041 1.82844,2.323198 5.09813,2.323198 3.22667,0 5.05511,-2.301687 1.84995,-2.323199 1.84995,-6.883552 z"
         id="path583"
         inkscape:connector-curvature="0" />
      <path
         d="m 662.86914,97.780409 h -4.04408 v -2.667376 q -2.04356,1.613332 -3.91502,2.473776 -1.87147,0.860444 -4.13013,0.860444 -3.78596,0 -5.89405,-2.301687 -2.10808,-2.323199 -2.10808,-6.797507 V 73.752512 h 4.04408 v 13.681059 q 0,1.828443 0.17209,3.14062 0.17209,1.290666 0.73138,2.215643 0.5808,0.946489 1.50578,1.376711 0.92497,0.430222 2.68888,0.430222 1.57031,0 3.42027,-0.817422 1.87146,-0.817422 3.4848,-2.086577 V 73.752512 h 4.04408 z"
         id="path585"
         inkscape:connector-curvature="0" />
      <path
         d="m 690.91965,97.780409 h -4.04409 V 84.099351 q 0,-1.656355 -0.1936,-3.097598 -0.1936,-1.462755 -0.70986,-2.280177 -0.53778,-0.903466 -1.5488,-1.333688 -1.01102,-0.451733 -2.62436,-0.451733 -1.65635,0 -3.46328,0.817422 -1.80693,0.817421 -3.46329,2.086576 v 17.940256 h -4.04409 V 73.752512 h 4.04409 v 2.667377 q 1.89298,-1.570311 3.91502,-2.452266 2.02204,-0.881955 4.15164,-0.881955 3.89351,0 5.93707,2.34471 2.04355,2.34471 2.04355,6.754485 z"
         id="path587"
         inkscape:connector-curvature="0" />
      <path
         d="m 716.47481,96.274632 q -2.02205,0.968 -3.85049,1.505777 -1.80693,0.537778 -3.85049,0.537778 -2.60284,0 -4.77546,-0.752889 -2.17262,-0.774399 -3.72142,-2.323198 -1.57031,-1.548799 -2.43075,-3.91502 -0.86045,-2.366221 -0.86045,-5.528352 0,-5.894041 3.22667,-9.249773 3.24817,-3.355731 8.56141,-3.355731 2.06507,0 4.04409,0.5808 2.00053,0.580799 3.65689,1.419732 v 4.49582 h -0.21511 q -1.84996,-1.441244 -3.82898,-2.215644 -1.95751,-0.774399 -3.82897,-0.774399 -3.44178,0 -5.44231,2.323199 -1.97902,2.301687 -1.97902,6.775996 0,4.345241 1.936,6.689951 1.95751,2.323199 5.48533,2.323199 1.22613,0 2.49528,-0.322667 1.26916,-0.322666 2.28018,-0.838933 0.88195,-0.451733 1.65635,-0.946488 0.7744,-0.516266 1.22614,-0.881955 h 0.21511 z"
         id="path589"
         inkscape:connector-curvature="0" />
      <path
         d="m 741.79339,86.185927 h -17.70363 q 0,2.215643 0.66684,3.871998 0.66685,1.634843 1.82845,2.688887 1.11858,1.032533 2.64586,1.548799 1.5488,0.516267 3.39876,0.516267 2.45226,0 4.92604,-0.968 2.49529,-0.98951 3.54933,-1.935999 h 0.21511 v 4.409776 q -2.04355,0.860444 -4.17315,1.441243 -2.1296,0.5808 -4.47431,0.5808 -5.98009,0 -9.33582,-3.226665 -3.35573,-3.248176 -3.35573,-9.20675 0,-5.894041 3.20515,-9.357328 3.22667,-3.463287 8.47538,-3.463287 4.86151,0 7.48586,2.839465 2.64586,2.839465 2.64586,8.066662 z m -3.93653,-3.097598 q -0.0215,-3.183642 -1.61333,-4.926041 -1.57031,-1.742399 -4.79697,-1.742399 -3.24818,0 -5.18418,1.914487 -1.91449,1.914488 -2.17262,4.753953 z"
         id="path591"
         inkscape:connector-curvature="0" />
      <path
         d="m 765.0899,90.853836 q 0,3.291198 -2.7319,5.399285 -2.7104,2.108088 -7.42133,2.108088 -2.66738,0 -4.90453,-0.623822 -2.21565,-0.645333 -3.72142,-1.398221 v -4.538842 h 0.21511 q 1.91448,1.441244 4.25919,2.301687 2.34471,0.838933 4.49582,0.838933 2.66738,0 4.17316,-0.860444 1.50577,-0.860444 1.50577,-2.710398 0,-1.419732 -0.81742,-2.15111 -0.81742,-0.731377 -3.14062,-1.247644 -0.86044,-0.193599 -2.25866,-0.451733 -1.37671,-0.258133 -2.5168,-0.559288 -3.16213,-0.838933 -4.49582,-2.452265 -1.31218,-1.634844 -1.31218,-4.001065 0,-1.484265 0.60231,-2.796442 0.62382,-1.312177 1.87147,-2.34471 1.20462,-1.011022 3.05457,-1.591821 1.87147,-0.602311 4.17316,-0.602311 2.15111,0 4.34524,0.537777 2.21564,0.516267 3.6784,1.269155 v 4.323731 h -0.21511 q -1.5488,-1.140088 -3.76445,-1.914488 -2.21564,-0.795911 -4.34524,-0.795911 -2.21564,0 -3.74293,0.860444 -1.52729,0.838933 -1.52729,2.516799 0,1.484266 0.92498,2.237154 0.90347,0.752889 2.92551,1.226133 1.11858,0.258133 2.49529,0.516266 1.39822,0.258133 2.32319,0.473244 2.81796,0.645333 4.34525,2.215643 1.52728,1.591822 1.52728,4.216176 z"
         id="path593"
         inkscape:connector-curvature="0" />
      <path
         d="m 255.36293,140.84563 q 0,5.87253 -3.01156,9.27128 -3.01155,3.39876 -8.06666,3.39876 -5.09813,0 -8.10968,-3.39876 -2.99004,-3.39875 -2.99004,-9.27128 0,-5.87253 2.99004,-9.27128 3.01155,-3.42027 8.10968,-3.42027 5.05511,0 8.06666,3.42027 3.01156,3.39875 3.01156,9.27128 z m -4.17315,0 q 0,-4.66791 -1.82845,-6.92657 -1.82844,-2.28018 -5.07662,-2.28018 -3.29119,0 -5.11964,2.28018 -1.80693,2.25866 -1.80693,6.92657 0,4.51733 1.82844,6.86204 1.82845,2.3232 5.09813,2.3232 3.22667,0 5.05511,-2.30169 1.84996,-2.3232 1.84996,-6.88355 z"
         id="path595"
         inkscape:connector-curvature="0" />
      <path
         d="m 274.57234,123.29257 h -0.21511 q -0.66685,-0.1936 -1.7424,-0.3872 -1.07556,-0.21511 -1.89298,-0.21511 -2.60284,0 -3.78595,1.1616 -1.1616,1.14009 -1.1616,4.15164 v 0.81743 h 7.29226 v 3.39875 h -7.16319 v 20.62914 h -4.04409 v -20.62914 h -2.73191 v -3.39875 h 2.73191 v -0.79592 q 0,-4.2807 2.1296,-6.56088 2.1296,-2.30169 6.15217,-2.30169 1.3552,0 2.43076,0.12907 1.09706,0.12907 2.00053,0.30115 z"
         id="path597"
         inkscape:connector-curvature="0" />
      <path
         d="m 290.06033,123.29257 h -0.21511 q -0.66685,-0.1936 -1.7424,-0.3872 -1.07556,-0.21511 -1.89298,-0.21511 -2.60284,0 -3.78595,1.1616 -1.1616,1.14009 -1.1616,4.15164 v 0.81743 h 7.29226 v 3.39875 h -7.16319 v 20.62914 h -4.04409 v -20.62914 h -2.73191 v -3.39875 h 2.73191 v -0.79592 q 0,-4.2807 2.1296,-6.56088 2.1296,-2.30169 6.15217,-2.30169 1.3552,0 2.43076,0.12907 1.09706,0.12907 2.00053,0.30115 z"
         id="path599"
         inkscape:connector-curvature="0" />
      <path
         d="m 320.58458,152.63371 q -1.14009,0.30116 -2.49529,0.49476 -1.33369,0.1936 -2.38773,0.1936 -3.6784,0 -5.59289,-1.97902 -1.91448,-1.97903 -1.91448,-6.34578 v -12.77759 h -2.73191 v -3.39875 h 2.73191 v -6.90507 h 4.04408 v 6.90507 h 8.34631 v 3.39875 h -8.34631 v 10.94915 q 0,1.89297 0.0861,2.96853 0.086,1.05404 0.60231,1.97902 0.47324,0.86044 1.29066,1.26916 0.83894,0.3872 2.53831,0.3872 0.98951,0 2.06507,-0.27965 1.07555,-0.30115 1.5488,-0.49475 h 0.21511 z"
         id="path601"
         inkscape:connector-curvature="0" />
      <path
         d="m 345.58047,152.84882 h -4.04408 v -13.68106 q 0,-1.65635 -0.1936,-3.09759 -0.1936,-1.46276 -0.70987,-2.28018 -0.53778,-0.90347 -1.5488,-1.33369 -1.01102,-0.45173 -2.62435,-0.45173 -1.65636,0 -3.46329,0.81742 -1.80693,0.81742 -3.46329,2.08658 v 17.94025 h -4.04408 v -33.47127 h 4.04408 v 12.11075 q 1.89298,-1.57031 3.91502,-2.45226 2.02205,-0.88196 4.15165,-0.88196 3.8935,0 5.93706,2.34471 2.04355,2.34471 2.04355,6.75449 z"
         id="path603"
         inkscape:connector-curvature="0" />
      <path
         d="m 373.48037,141.25434 h -17.70363 q 0,2.21564 0.66684,3.872 0.66685,1.63484 1.82844,2.68889 1.11858,1.03253 2.64587,1.54879 1.5488,0.51627 3.39875,0.51627 2.45227,0 4.92605,-0.968 2.49528,-0.98951 3.54933,-1.936 h 0.21511 v 4.40978 q -2.04356,0.86044 -4.17316,1.44124 -2.12959,0.5808 -4.4743,0.5808 -5.98009,0 -9.33582,-3.22666 -3.35573,-3.24818 -3.35573,-9.20675 0,-5.89405 3.20515,-9.35733 3.22667,-3.46329 8.47537,-3.46329 4.86151,0 7.48587,2.83947 2.64586,2.83946 2.64586,8.06666 z m -3.93653,-3.0976 q -0.0215,-3.18364 -1.61333,-4.92604 -1.57031,-1.7424 -4.79698,-1.7424 -3.24817,0 -5.18417,1.91449 -1.91449,1.91449 -2.17262,4.75395 z"
         id="path605"
         inkscape:connector-curvature="0" />
      <path
         d="m 414.58808,150.11691 q 0,6.10915 -2.77493,8.97013 -2.77493,2.86098 -8.53991,2.86098 -1.91449,0 -3.74293,-0.27965 -1.80693,-0.25813 -3.57084,-0.75289 v -4.13013 h 0.21511 q 0.98951,0.3872 3.14062,0.94649 2.15111,0.5808 4.30222,0.5808 2.06506,0 3.42026,-0.49475 1.3552,-0.49476 2.10809,-1.37671 0.75289,-0.83894 1.07556,-2.02205 0.32266,-1.18311 0.32266,-2.64586 v -2.19413 q -1.82844,1.46275 -3.50631,2.19413 -1.65635,0.70986 -4.23768,0.70986 -4.30222,0 -6.84053,-3.09759 -2.5168,-3.11911 -2.5168,-8.77653 0,-3.0976 0.86044,-5.33476 0.88196,-2.25866 2.38774,-3.8935 1.39822,-1.52729 3.39875,-2.36622 2.00053,-0.86045 3.97955,-0.86045 2.08658,0 3.4848,0.43022 1.41973,0.40871 2.99004,1.26916 l 0.25814,-1.03253 h 3.78595 z m -4.04409,-3.872 v -13.10025 q -1.61333,-0.73138 -3.01155,-1.03254 -1.37671,-0.32266 -2.75342,-0.32266 -3.33422,0 -5.24871,2.23715 -1.91449,2.23716 -1.91449,6.49635 0,4.04409 1.41973,6.13067 1.41974,2.08657 4.71094,2.08657 1.76391,0 3.52782,-0.66684 1.78542,-0.68836 3.26968,-1.82845 z"
         id="path607"
         inkscape:connector-curvature="0" />
      <path
         d="m 437.54043,133.2307 h -0.21512 q -0.90346,-0.21511 -1.76391,-0.30115 -0.83893,-0.10756 -2.00053,-0.10756 -1.87146,0 -3.61386,0.83893 -1.7424,0.81742 -3.35573,2.1296 v 17.0583 h -4.04409 v -24.02789 h 4.04409 v 3.54933 q 2.40924,-1.936 4.23768,-2.73191 1.84996,-0.81742 3.76444,-0.81742 1.05405,0 1.52729,0.0645 0.47325,0.043 1.41974,0.1936 z"
         id="path609"
         inkscape:connector-curvature="0" />
      <path
         d="m 461.86947,140.84563 q 0,5.87253 -3.01155,9.27128 -3.01155,3.39876 -8.06666,3.39876 -5.09813,0 -8.10968,-3.39876 -2.99005,-3.39875 -2.99005,-9.27128 0,-5.87253 2.99005,-9.27128 3.01155,-3.42027 8.10968,-3.42027 5.05511,0 8.06666,3.42027 3.01155,3.39875 3.01155,9.27128 z m -4.17315,0 q 0,-4.66791 -1.82844,-6.92657 -1.82845,-2.28018 -5.07662,-2.28018 -3.2912,0 -5.11964,2.28018 -1.80693,2.25866 -1.80693,6.92657 0,4.51733 1.82844,6.86204 1.82844,2.3232 5.09813,2.3232 3.22666,0 5.05511,-2.30169 1.84995,-2.3232 1.84995,-6.88355 z"
         id="path611"
         inkscape:connector-curvature="0" />
      <path
         d="m 488.06998,152.84882 h -4.04408 v -2.66737 q -2.04356,1.61333 -3.91502,2.47377 -1.87147,0.86045 -4.13013,0.86045 -3.78596,0 -5.89405,-2.30169 -2.10808,-2.3232 -2.10808,-6.79751 v -15.59554 h 4.04408 v 13.68105 q 0,1.82845 0.17209,3.14062 0.17209,1.29067 0.73138,2.21565 0.5808,0.94649 1.50578,1.37671 0.92497,0.43022 2.68888,0.43022 1.57031,0 3.42027,-0.81742 1.87146,-0.81742 3.4848,-2.08658 v -17.94025 h 4.04408 z"
         id="path613"
         inkscape:connector-curvature="0" />
      <path
         d="m 516.12047,152.84882 h -4.04408 v -13.68106 q 0,-1.65635 -0.1936,-3.09759 -0.1936,-1.46276 -0.70987,-2.28018 -0.53778,-0.90347 -1.5488,-1.33369 -1.01102,-0.45173 -2.62435,-0.45173 -1.65636,0 -3.46329,0.81742 -1.80693,0.81742 -3.46329,2.08658 v 17.94025 h -4.04408 v -24.02789 h 4.04408 v 2.66737 q 1.89298,-1.57031 3.91502,-2.45226 2.02205,-0.88196 4.15165,-0.88196 3.89351,0 5.93706,2.34471 2.04355,2.34471 2.04355,6.75449 z"
         id="path615"
         inkscape:connector-curvature="0" />
      <path
         d="m 543.39652,152.84882 h -4.04409 v -2.5168 q -1.7424,1.50578 -3.63537,2.34471 -1.89298,0.83894 -4.10862,0.83894 -4.30222,0 -6.84053,-3.31271 -2.5168,-3.31271 -2.5168,-9.18524 0,-3.05458 0.86044,-5.44231 0.88196,-2.38773 2.36623,-4.0656 1.46275,-1.63484 3.39875,-2.49528 1.95751,-0.86045 4.04409,-0.86045 1.89297,0 3.35573,0.40871 1.46275,0.3872 3.07608,1.22613 v -10.41137 h 4.04409 z m -4.04409,-5.91555 v -13.78861 q -1.63484,-0.73138 -2.92551,-1.01103 -1.29066,-0.27964 -2.81795,-0.27964 -3.39875,0 -5.29173,2.36622 -1.89298,2.36622 -1.89298,6.71146 0,4.28071 1.46276,6.51787 1.46275,2.21564 4.68942,2.21564 1.72089,0 3.4848,-0.75289 1.76391,-0.7744 3.29119,-1.97902 z"
         id="path617"
         inkscape:connector-curvature="0" />
      <path
         d="m 557.95955,152.84882 h -5.14115 v -6.13066 h 5.14115 z"
         id="path619"
         inkscape:connector-curvature="0" />
    </g>
    <g
       aria-label="Say the full word as the person takes a shot to score a basket!"
       transform="matrix(0.26458333,0,0,0.22127626,0,8.520986)"
       style="font-style:normal;font-weight:normal;font-size:74.66666412px;line-height:1.25;font-family:sans-serif;text-align:center;letter-spacing:0px;word-spacing:0px;text-anchor:middle;fill:#000000;fill-opacity:1;stroke:none"
       id="flowRoot99">
      <path
         d="m 63.303722,738.00282 q 0,3.17188 -1.494792,6.27084 -1.458333,3.09895 -4.119791,5.25 -2.916667,2.33333 -6.817708,3.64583 -3.864583,1.3125 -9.333333,1.3125 -5.869792,0 -10.572916,-1.09375 -4.666667,-1.09375 -9.515625,-3.24479 v -9.04167 h 0.510417 q 4.119791,3.42708 9.515624,5.28646 5.395833,1.85937 10.135417,1.85937 6.708333,0 10.427082,-2.51562 3.755209,-2.51563 3.755209,-6.70833 0,-3.60938 -1.786459,-5.32292 -1.75,-1.71354 -5.359374,-2.66146 -2.734375,-0.72916 -5.942709,-1.20312 -3.171874,-0.47396 -6.744791,-1.20313 -7.21875,-1.53125 -10.71875,-5.21354 -3.463541,-3.71875 -3.463541,-9.66146 0,-6.81771 5.760416,-11.15625 5.760417,-4.375 14.619792,-4.375 5.723958,0 10.499999,1.09375 4.776042,1.09375 8.458333,2.69792 v 8.53125 h -0.510416 q -3.098959,-2.625 -8.166667,-4.33854 -5.03125,-1.75 -10.317708,-1.75 -5.796875,0 -9.333333,2.40625 -3.5,2.40625 -3.5,6.19791 0,3.39063 1.75,5.32292 1.75,1.93229 6.161458,2.95313 2.333334,0.51041 6.635417,1.23958 4.302083,0.72917 7.291666,1.49479 6.052083,1.60417 9.114583,4.84896 3.0625,3.24479 3.0625,9.07812 z"
         id="path622"
         inkscape:connector-curvature="0" />
      <path
         d="m 105.99643,753.49761 h -6.81771 v -4.33854 q -0.911458,0.61979 -2.479166,1.75 -1.53125,1.09375 -2.989584,1.75 -1.713541,0.83854 -3.9375,1.38542 -2.223958,0.58333 -5.213541,0.58333 -5.505208,0 -9.333333,-3.64583 -3.828125,-3.64583 -3.828125,-9.29688 0,-4.6302 1.96875,-7.47395 2.005208,-2.88021 5.6875,-4.52084 3.71875,-1.64062 8.932291,-2.22395 5.213542,-0.58334 11.192708,-0.875 v -1.0573 q 0,-2.33333 -0.838542,-3.86458 -0.802083,-1.53125 -2.333333,-2.40625 -1.458333,-0.83854 -3.5,-1.13021 -2.041666,-0.29166 -4.265625,-0.29166 -2.697916,0 -6.015624,0.72916 -3.317709,0.69271 -6.854167,2.04167 h -0.364583 v -6.96354 q 2.005208,-0.54688 5.796875,-1.20313 3.791666,-0.65625 7.473958,-0.65625 4.302083,0 7.473958,0.72917 3.208333,0.69271 5.541663,2.40625 2.29688,1.67708 3.5,4.33854 1.20313,2.66146 1.20313,6.59896 z m -6.81771,-10.02604 v -11.33854 q -3.135416,0.18229 -7.401041,0.54688 -4.229167,0.36458 -6.708333,1.05729 -2.953125,0.83854 -4.776042,2.625 -1.822917,1.75 -1.822917,4.84896 0,3.5 2.114584,5.28645 2.114583,1.75 6.453125,1.75 3.609374,0 6.598958,-1.38541 2.989583,-1.42188 5.541666,-3.39063 z"
         id="path624"
         inkscape:connector-curvature="0" />
      <path
         d="m 154.48601,712.77366 -23.77083,55.74479 h -7.32813 l 7.58333,-16.98959 -16.22395,-38.7552 h 7.4375 l 12.5052,30.1875 12.61459,-30.1875 z"
         id="path626"
         inkscape:connector-curvature="0" />
      <path
         d="m 210.85059,753.13303 q -1.93229,0.51042 -4.22916,0.83854 -2.26042,0.32813 -4.04688,0.32813 -6.23437,0 -9.47917,-3.35417 -3.24479,-3.35417 -3.24479,-10.75521 v -21.65625 h -4.6302 v -5.76041 h 4.6302 v -11.70313 h 6.85417 v 11.70313 h 14.14583 v 5.76041 h -14.14583 v 18.5573 q 0,3.20833 0.14583,5.03124 0.14584,1.78646 1.02084,3.35417 0.80208,1.45833 2.1875,2.15104 1.42187,0.65625 4.30208,0.65625 1.67708,0 3.5,-0.47396 1.82292,-0.51041 2.625,-0.83854 h 0.36458 z"
         id="path628"
         inkscape:connector-curvature="0" />
      <path
         d="M 253.21517,753.49761 H 246.361 v -23.18749 q 0,-2.8073 -0.32812,-5.25 -0.32813,-2.47917 -1.20313,-3.86459 -0.91145,-1.53125 -2.625,-2.26041 -1.71354,-0.76563 -4.44791,-0.76563 -2.80729,0 -5.86979,1.38542 -3.0625,1.38541 -5.8698,3.53646 v 30.40624 h -6.85416 v -56.72916 h 6.85416 v 20.52604 q 3.20834,-2.66146 6.63542,-4.15625 3.42708,-1.49479 7.03646,-1.49479 6.59896,0 10.0625,3.97396 3.46354,3.97396 3.46354,11.44791 z"
         id="path630"
         inkscape:connector-curvature="0" />
      <path
         d="m 300.50163,733.84657 h -30.00521 q 0,3.75521 1.13021,6.5625 1.13021,2.77084 3.09896,4.55729 1.89583,1.75 4.48437,2.625 2.625,0.875 5.76042,0.875 4.15625,0 8.34896,-1.64062 4.22916,-1.67708 6.01562,-3.28125 h 0.36459 v 7.47396 q -3.46355,1.45833 -7.07292,2.44271 -3.60938,0.98437 -7.58333,0.98437 -10.13542,0 -15.82292,-5.46875 -5.6875,-5.50521 -5.6875,-15.60416 0,-9.98959 5.43229,-15.85938 5.46875,-5.86979 14.36458,-5.86979 8.23959,0 12.6875,4.8125 4.48438,4.8125 4.48438,13.67187 z m -6.67188,-5.25 q -0.0365,-5.39583 -2.73437,-8.34895 -2.66146,-2.95313 -8.13021,-2.95313 -5.50521,0 -8.78646,3.24479 -3.24479,3.24479 -3.68229,8.05729 z"
         id="path632"
         inkscape:connector-curvature="0" />
      <path
         d="m 359.0537,703.40387 h -0.36458 q -1.13021,-0.32813 -2.95313,-0.65625 -1.82291,-0.36459 -3.20833,-0.36459 -4.41146,0 -6.41667,1.96875 -1.96875,1.93229 -1.96875,7.03646 v 1.38542 h 12.35938 v 5.76041 h -12.14063 v 34.96354 h -6.85416 v -34.96354 h -4.63021 v -5.76041 h 4.63021 v -1.34896 q 0,-7.25521 3.60937,-11.11979 3.60938,-3.90104 10.42709,-3.90104 2.29687,0 4.11979,0.21875 1.85937,0.21875 3.39062,0.51041 z"
         id="path634"
         inkscape:connector-curvature="0" />
      <path
         d="m 397.15266,753.49761 h -6.85417 v -4.52083 q -3.46354,2.73438 -6.63541,4.19271 -3.17188,1.45833 -7,1.45833 -6.41667,0 -9.98959,-3.90104 -3.57291,-3.9375 -3.57291,-11.52083 v -26.43229 h 6.85416 v 23.1875 q 0,3.09895 0.29167,5.32291 0.29167,2.1875 1.23958,3.75521 0.98438,1.60417 2.55209,2.33333 1.56771,0.72917 4.55729,0.72917 2.66146,0 5.79687,-1.38542 3.17188,-1.38541 5.90625,-3.53645 v -30.40625 h 6.85417 z"
         id="path636"
         inkscape:connector-curvature="0" />
      <path
         d="m 417.56933,753.49761 h -6.85417 v -56.72916 h 6.85417 z"
         id="path638"
         inkscape:connector-curvature="0" />
      <path
         d="m 438.13183,753.49761 h -6.85417 v -56.72916 h 6.85417 z"
         id="path640"
         inkscape:connector-curvature="0" />
      <path
         d="m 529.2412,712.77366 -10.60937,40.72395 h -6.34375 l -10.46354,-31.39062 -10.39063,31.39062 h -6.30729 l -10.71875,-40.72395 h 7.14583 l 7.47396,31.53645 10.17188,-31.53645 h 5.65104 l 10.42708,31.53645 7.07292,-31.53645 z"
         id="path642"
         inkscape:connector-curvature="0" />
      <path
         d="m 573.82976,733.15387 q 0,9.95312 -5.10416,15.71354 -5.10417,5.76041 -13.67188,5.76041 -8.64062,0 -13.74479,-5.76041 -5.06771,-5.76042 -5.06771,-15.71354 0,-9.95313 5.06771,-15.71355 5.10417,-5.79687 13.74479,-5.79687 8.56771,0 13.67188,5.79687 5.10416,5.76042 5.10416,15.71355 z m -7.07291,0 q 0,-7.91146 -3.09896,-11.73959 -3.09896,-3.86458 -8.60417,-3.86458 -5.57812,0 -8.67708,3.86458 -3.0625,3.82813 -3.0625,11.73959 0,7.65624 3.09896,11.6302 3.09896,3.9375 8.64062,3.9375 5.46875,0 8.56771,-3.90104 3.13542,-3.9375 3.13542,-11.66666 z"
         id="path644"
         inkscape:connector-curvature="0" />
      <path
         d="m 609.88702,720.24762 h -0.36459 q -1.53125,-0.36459 -2.98958,-0.51042 -1.42188,-0.18229 -3.39063,-0.18229 -3.17187,0 -6.125,1.42187 -2.95312,1.38542 -5.6875,3.60938 v 28.91145 h -6.85416 v -40.72395 h 6.85416 v 6.01562 q 4.08334,-3.28125 7.1823,-4.63021 3.13541,-1.38541 6.3802,-1.38541 1.78646,0 2.58855,0.10937 0.80208,0.0729 2.40625,0.32813 z"
         id="path646"
         inkscape:connector-curvature="0" />
      <path
         d="m 649.44431,753.49761 h -6.85417 v -4.26562 q -2.95312,2.55208 -6.16146,3.97396 -3.20833,1.42187 -6.96354,1.42187 -7.29167,0 -11.59375,-5.61458 -4.26562,-5.61458 -4.26562,-15.56771 0,-5.17708 1.45833,-9.22396 1.49479,-4.04687 4.01042,-6.89062 2.47916,-2.77083 5.76041,-4.22917 3.31771,-1.45833 6.85417,-1.45833 3.20833,0 5.6875,0.69271 2.47917,0.65625 5.21354,2.07812 v -17.64583 h 6.85417 z m -6.85417,-10.02604 v -23.36979 q -2.77083,-1.23958 -4.95833,-1.71354 -2.1875,-0.47396 -4.77604,-0.47396 -5.76042,0 -8.96875,4.01042 -3.20834,4.01042 -3.20834,11.375 0,7.25521 2.47917,11.04687 2.47917,3.75521 7.94792,3.75521 2.91666,0 5.90625,-1.27604 2.98958,-1.3125 5.57812,-3.35417 z"
         id="path648"
         inkscape:connector-curvature="0" />
      <path
         d="m 720.82976,753.49761 h -6.8177 v -4.33854 q -0.91146,0.61979 -2.47917,1.75 -1.53125,1.09375 -2.98958,1.75 -1.71355,0.83854 -3.9375,1.38542 -2.22396,0.58333 -5.21355,0.58333 -5.5052,0 -9.33333,-3.64583 -3.82812,-3.64583 -3.82812,-9.29688 0,-4.6302 1.96875,-7.47395 2.00521,-2.88021 5.6875,-4.52084 3.71875,-1.64062 8.93229,-2.22395 5.21354,-0.58334 11.19271,-0.875 v -1.0573 q 0,-2.33333 -0.83855,-3.86458 -0.80208,-1.53125 -2.33333,-2.40625 -1.45833,-0.83854 -3.5,-1.13021 -2.04167,-0.29166 -4.26562,-0.29166 -2.69792,0 -6.01563,0.72916 -3.31771,0.69271 -6.85416,2.04167 h -0.36459 v -6.96354 q 2.00521,-0.54688 5.79688,-1.20313 3.79166,-0.65625 7.47395,-0.65625 4.30209,0 7.47396,0.72917 3.20834,0.69271 5.54167,2.40625 2.29687,1.67708 3.5,4.33854 1.20312,2.66146 1.20312,6.59896 z m -6.8177,-10.02604 v -11.33854 q -3.13542,0.18229 -7.40105,0.54688 -4.22916,0.36458 -6.70833,1.05729 -2.95312,0.83854 -4.77604,2.625 -1.82292,1.75 -1.82292,4.84896 0,3.5 2.11459,5.28645 2.11458,1.75 6.45312,1.75 3.60938,0 6.59896,-1.38541 2.98958,-1.42188 5.54167,-3.39063 z"
         id="path650"
         inkscape:connector-curvature="0" />
      <path
         d="m 763.19431,741.75803 q 0,5.57813 -4.63021,9.15104 -4.59375,3.57292 -12.57813,3.57292 -4.52083,0 -8.3125,-1.05729 -3.7552,-1.09375 -6.30729,-2.36979 v -7.69271 h 0.36459 q 3.24479,2.44271 7.21875,3.90104 3.97395,1.42187 7.61979,1.42187 4.52083,0 7.07291,-1.45833 2.55209,-1.45833 2.55209,-4.59375 0,-2.40625 -1.38542,-3.64583 -1.38542,-1.23959 -5.32292,-2.11458 -1.45833,-0.32813 -3.82812,-0.76563 -2.33333,-0.4375 -4.26563,-0.94792 -5.35937,-1.42187 -7.61979,-4.15625 -2.22396,-2.77083 -2.22396,-6.78125 0,-2.51562 1.02084,-4.73958 1.05729,-2.22396 3.17187,-3.97396 2.04167,-1.71354 5.17709,-2.69791 3.17187,-1.02084 7.07291,-1.02084 3.64584,0 7.36459,0.91146 3.7552,0.875 6.23437,2.15104 v 7.32813 h -0.36458 q -2.625,-1.93229 -6.38021,-3.24479 -3.75521,-1.34896 -7.36458,-1.34896 -3.75521,0 -6.34375,1.45833 -2.58855,1.42188 -2.58855,4.26563 0,2.51562 1.56771,3.79166 1.53125,1.27604 4.95834,2.07813 1.89583,0.4375 4.22916,0.875 2.36979,0.4375 3.9375,0.80208 4.77604,1.09375 7.36459,3.75521 2.58854,2.69792 2.58854,7.14583 z"
         id="path652"
         inkscape:connector-curvature="0" />
      <path
         d="m 68.663097,846.46634 q -1.932292,0.51042 -4.229167,0.83855 -2.260416,0.32812 -4.046874,0.32812 -6.234375,0 -9.479167,-3.35417 -3.244791,-3.35416 -3.244791,-10.7552 v -21.65625 h -4.630209 v -5.76042 h 4.630209 v -11.70312 h 6.854166 v 11.70312 h 14.145833 v 5.76042 H 54.517264 v 18.55729 q 0,3.20833 0.145833,5.03125 0.145834,1.78646 1.020834,3.35416 0.802083,1.45834 2.1875,2.15105 1.421875,0.65625 4.302083,0.65625 1.677083,0 3.5,-0.47396 1.822916,-0.51042 2.625,-0.83854 h 0.364583 z"
         id="path654"
         inkscape:connector-curvature="0" />
      <path
         d="m 111.02768,846.83093 h -6.85417 v -23.1875 q 0,-2.80729 -0.32812,-5.25 -0.32813,-2.47917 -1.20313,-3.86458 -0.91146,-1.53125 -2.625,-2.26042 -1.713539,-0.76563 -4.447914,-0.76563 -2.807292,0 -5.869792,1.38542 -3.0625,1.38542 -5.869791,3.53646 v 30.40625 h -6.854167 v -56.72917 h 6.854167 v 20.52604 q 3.208333,-2.66145 6.635416,-4.15625 3.427083,-1.49479 7.036458,-1.49479 6.598963,0 10.062503,3.97396 3.46354,3.97396 3.46354,11.44792 z"
         id="path656"
         inkscape:connector-curvature="0" />
      <path
         d="m 158.31413,827.17989 h -30.0052 q 0,3.7552 1.1302,6.5625 1.13021,2.77083 3.09896,4.55729 1.89584,1.75 4.48438,2.625 2.625,0.875 5.76041,0.875 4.15625,0 8.34896,-1.64063 4.22917,-1.67708 6.01563,-3.28125 h 0.36458 v 7.47396 q -3.46354,1.45833 -7.07292,2.44271 -3.60937,0.98437 -7.58333,0.98437 -10.13542,0 -15.82292,-5.46875 -5.6875,-5.5052 -5.6875,-15.60416 0,-9.98958 5.4323,-15.85938 5.46875,-5.86979 14.36458,-5.86979 8.23958,0 12.6875,4.8125 4.48437,4.8125 4.48437,13.67188 z m -6.67187,-5.25 q -0.0365,-5.39584 -2.73438,-8.34896 -2.66145,-2.95313 -8.1302,-2.95313 -5.50521,0 -8.78646,3.2448 -3.24479,3.24479 -3.68229,8.05729 z"
         id="path658"
         inkscape:connector-curvature="0" />
      <path
         d="m 230.7933,825.97676 q 0,4.95833 -1.42187,9.07813 -1.42188,4.08333 -4.01042,6.92708 -2.40625,2.69792 -5.6875,4.19271 -3.24479,1.45833 -6.89062,1.45833 -3.17188,0 -5.76042,-0.69271 -2.55208,-0.69271 -5.21354,-2.15104 v 17.0625 h -6.85417 v -55.74479 h 6.85417 v 4.26563 q 2.73438,-2.29688 6.125,-3.82813 3.42708,-1.56771 7.29167,-1.56771 7.36458,0 11.44791,5.57813 4.11979,5.54166 4.11979,15.42187 z m -7.07291,0.18229 q 0,-7.36458 -2.51563,-11.01041 -2.51562,-3.64584 -7.72916,-3.64584 -2.95313,0 -5.94271,1.27605 -2.98958,1.27604 -5.72396,3.35416 v 23.07813 q 2.91667,1.3125 4.99479,1.78645 2.11459,0.47396 4.77604,0.47396 5.72396,0 8.9323,-3.86458 3.20833,-3.86458 3.20833,-11.44792 z"
         id="path660"
         inkscape:connector-curvature="0" />
      <path
         d="m 275.56413,827.17989 h -30.0052 q 0,3.7552 1.1302,6.5625 1.13021,2.77083 3.09896,4.55729 1.89584,1.75 4.48438,2.625 2.625,0.875 5.76041,0.875 4.15625,0 8.34896,-1.64063 4.22917,-1.67708 6.01563,-3.28125 h 0.36458 v 7.47396 q -3.46354,1.45833 -7.07292,2.44271 -3.60937,0.98437 -7.58333,0.98437 -10.13542,0 -15.82292,-5.46875 -5.6875,-5.5052 -5.6875,-15.60416 0,-9.98958 5.4323,-15.85938 5.46875,-5.86979 14.36458,-5.86979 8.23958,0 12.6875,4.8125 4.48437,4.8125 4.48437,13.67188 z m -6.67187,-5.25 q -0.0365,-5.39584 -2.73438,-8.34896 -2.66145,-2.95313 -8.1302,-2.95313 -5.50521,0 -8.78646,3.2448 -3.24479,3.24479 -3.68229,8.05729 z"
         id="path662"
         inkscape:connector-curvature="0" />
      <path
         d="m 311.36622,813.58093 h -0.36458 q -1.53125,-0.36458 -2.98958,-0.51042 -1.42188,-0.18229 -3.39063,-0.18229 -3.17187,0 -6.125,1.42188 -2.95312,1.38541 -5.6875,3.60937 v 28.91146 h -6.85417 v -40.72396 h 6.85417 v 6.01563 q 4.08333,-3.28125 7.18229,-4.63021 3.13542,-1.38542 6.38021,-1.38542 1.78646,0 2.58854,0.10938 0.80209,0.0729 2.40625,0.32812 z"
         id="path664"
         inkscape:connector-curvature="0" />
      <path
         d="m 346.98601,835.09134 q 0,5.57813 -4.6302,9.15105 -4.59375,3.57291 -12.57813,3.57291 -4.52083,0 -8.3125,-1.05729 -3.75521,-1.09375 -6.30729,-2.36979 v -7.69271 h 0.36458 q 3.24479,2.44271 7.21875,3.90104 3.97396,1.42188 7.61979,1.42188 4.52084,0 7.07292,-1.45834 2.55208,-1.45833 2.55208,-4.59375 0,-2.40625 -1.38541,-3.64583 -1.38542,-1.23958 -5.32292,-2.11458 -1.45833,-0.32813 -3.82812,-0.76563 -2.33334,-0.4375 -4.26563,-0.94791 -5.35937,-1.42188 -7.61979,-4.15625 -2.22396,-2.77084 -2.22396,-6.78125 0,-2.51563 1.02083,-4.73959 1.0573,-2.22395 3.17188,-3.97395 2.04167,-1.71355 5.17708,-2.69792 3.17188,-1.02083 7.07292,-1.02083 3.64583,0 7.36458,0.91145 3.75521,0.875 6.23438,2.15105 v 7.32812 h -0.36459 q -2.625,-1.93229 -6.3802,-3.24479 -3.75521,-1.34896 -7.36459,-1.34896 -3.75521,0 -6.34375,1.45833 -2.58854,1.42188 -2.58854,4.26563 0,2.51562 1.56771,3.79167 1.53125,1.27604 4.95833,2.07812 1.89584,0.4375 4.22917,0.875 2.36979,0.4375 3.9375,0.80208 4.77604,1.09375 7.36458,3.75521 2.58854,2.69792 2.58854,7.14583 z"
         id="path666"
         inkscape:connector-curvature="0" />
      <path
         d="m 391.5381,826.48718 q 0,9.95312 -5.10417,15.71354 -5.10417,5.76042 -13.67187,5.76042 -8.64063,0 -13.7448,-5.76042 -5.0677,-5.76042 -5.0677,-15.71354 0,-9.95313 5.0677,-15.71354 5.10417,-5.79688 13.7448,-5.79688 8.5677,0 13.67187,5.79688 5.10417,5.76041 5.10417,15.71354 z m -7.07292,0 q 0,-7.91146 -3.09896,-11.73958 -3.09896,-3.86459 -8.60416,-3.86459 -5.57813,0 -8.67709,3.86459 -3.0625,3.82812 -3.0625,11.73958 0,7.65625 3.09896,11.63021 3.09896,3.9375 8.64063,3.9375 5.46875,0 8.5677,-3.90105 3.13542,-3.9375 3.13542,-11.66666 z"
         id="path668"
         inkscape:connector-curvature="0" />
      <path
         d="m 436.236,846.83093 h -6.85416 v -23.1875 q 0,-2.80729 -0.32813,-5.25 -0.32812,-2.47917 -1.20312,-3.86458 -0.91146,-1.53125 -2.625,-2.26042 -1.71354,-0.76563 -4.44792,-0.76563 -2.80729,0 -5.86979,1.38542 -3.0625,1.38542 -5.86979,3.53646 v 30.40625 h -6.85417 v -40.72396 h 6.85417 v 4.52083 q 3.20833,-2.66145 6.63541,-4.15625 3.42709,-1.49479 7.03646,-1.49479 6.59896,0 10.0625,3.97396 3.46354,3.97396 3.46354,11.44792 z"
         id="path670"
         inkscape:connector-curvature="0" />
      <path
         d="m 496.82975,846.46634 q -1.93229,0.51042 -4.22916,0.83855 -2.26042,0.32812 -4.04688,0.32812 -6.23437,0 -9.47916,-3.35417 -3.2448,-3.35416 -3.2448,-10.7552 v -21.65625 h -4.6302 v -5.76042 h 4.6302 v -11.70312 h 6.85417 v 11.70312 h 14.14583 v 5.76042 h -14.14583 v 18.55729 q 0,3.20833 0.14583,5.03125 0.14584,1.78646 1.02084,3.35416 0.80208,1.45834 2.1875,2.15105 1.42187,0.65625 4.30208,0.65625 1.67708,0 3.5,-0.47396 1.82292,-0.51042 2.625,-0.83854 h 0.36458 z"
         id="path672"
         inkscape:connector-curvature="0" />
      <path
         d="m 536.7881,846.83093 h -6.81771 v -4.33854 q -0.91146,0.61979 -2.47917,1.75 -1.53125,1.09375 -2.98958,1.75 -1.71354,0.83854 -3.9375,1.38541 -2.22396,0.58334 -5.21354,0.58334 -5.50521,0 -9.33334,-3.64584 -3.82812,-3.64583 -3.82812,-9.29687 0,-4.63021 1.96875,-7.47396 2.00521,-2.88021 5.6875,-4.52083 3.71875,-1.64063 8.93229,-2.22396 5.21354,-0.58333 11.19271,-0.875 v -1.05729 q 0,-2.33334 -0.83854,-3.86459 -0.80209,-1.53125 -2.33334,-2.40625 -1.45833,-0.83854 -3.5,-1.1302 -2.04166,-0.29167 -4.26562,-0.29167 -2.69792,0 -6.01563,0.72917 -3.3177,0.6927 -6.85416,2.04166 h -0.36459 v -6.96354 q 2.00521,-0.54687 5.79688,-1.20312 3.79167,-0.65625 7.47396,-0.65625 4.30208,0 7.47396,0.72916 3.20833,0.69271 5.54166,2.40625 2.29688,1.67709 3.5,4.33854 1.20313,2.66146 1.20313,6.59896 z m -6.81771,-10.02604 v -11.33855 q -3.13542,0.1823 -7.40104,0.54688 -4.22917,0.36458 -6.70834,1.05729 -2.95312,0.83854 -4.77604,2.625 -1.82291,1.75 -1.82291,4.84896 0,3.5 2.11458,5.28646 2.11458,1.75 6.45312,1.75 3.60938,0 6.59896,-1.38542 2.98959,-1.42187 5.54167,-3.39062 z"
         id="path674"
         inkscape:connector-curvature="0" />
      <path
         d="M 587.02767,846.83093 H 577.986 l -16.33333,-17.82813 -4.44792,4.22917 v 13.59896 h -6.85416 v -56.72917 h 6.85416 v 36.38542 l 19.79688,-20.38021 h 8.64062 l -18.92187,18.8125 z"
         id="path676"
         inkscape:connector-curvature="0" />
      <path
         d="m 628.33493,827.17989 h -30.00521 q 0,3.7552 1.13021,6.5625 1.13021,2.77083 3.09896,4.55729 1.89583,1.75 4.48437,2.625 2.625,0.875 5.76042,0.875 4.15625,0 8.34896,-1.64063 4.22917,-1.67708 6.01562,-3.28125 h 0.36459 v 7.47396 q -3.46354,1.45833 -7.07292,2.44271 -3.60937,0.98437 -7.58333,0.98437 -10.13542,0 -15.82292,-5.46875 -5.6875,-5.5052 -5.6875,-15.60416 0,-9.98958 5.43229,-15.85938 5.46875,-5.86979 14.36459,-5.86979 8.23958,0 12.6875,4.8125 4.48437,4.8125 4.48437,13.67188 z m -6.67187,-5.25 q -0.0365,-5.39584 -2.73438,-8.34896 -2.66146,-2.95313 -8.13021,-2.95313 -5.50521,0 -8.78645,3.2448 -3.2448,3.24479 -3.6823,8.05729 z"
         id="path678"
         inkscape:connector-curvature="0" />
      <path
         d="m 667.81933,835.09134 q 0,5.57813 -4.63021,9.15105 -4.59375,3.57291 -12.57813,3.57291 -4.52083,0 -8.3125,-1.05729 -3.7552,-1.09375 -6.30729,-2.36979 v -7.69271 h 0.36459 q 3.24479,2.44271 7.21875,3.90104 3.97395,1.42188 7.61979,1.42188 4.52083,0 7.07291,-1.45834 2.55209,-1.45833 2.55209,-4.59375 0,-2.40625 -1.38542,-3.64583 -1.38542,-1.23958 -5.32292,-2.11458 -1.45833,-0.32813 -3.82812,-0.76563 -2.33333,-0.4375 -4.26563,-0.94791 -5.35937,-1.42188 -7.61979,-4.15625 -2.22396,-2.77084 -2.22396,-6.78125 0,-2.51563 1.02084,-4.73959 1.05729,-2.22395 3.17187,-3.97395 2.04167,-1.71355 5.17709,-2.69792 3.17187,-1.02083 7.07291,-1.02083 3.64584,0 7.36458,0.91145 3.75521,0.875 6.23438,2.15105 v 7.32812 h -0.36458 q -2.625,-1.93229 -6.38021,-3.24479 -3.75521,-1.34896 -7.36458,-1.34896 -3.75521,0 -6.34375,1.45833 -2.58855,1.42188 -2.58855,4.26563 0,2.51562 1.56771,3.79167 1.53125,1.27604 4.95834,2.07812 1.89583,0.4375 4.22916,0.875 2.36979,0.4375 3.9375,0.80208 4.77604,1.09375 7.36458,3.75521 2.58855,2.69792 2.58855,7.14583 z"
         id="path680"
         inkscape:connector-curvature="0" />
      <path
         d="m 735.55891,846.83093 h -6.81771 v -4.33854 q -0.91146,0.61979 -2.47917,1.75 -1.53125,1.09375 -2.98958,1.75 -1.71354,0.83854 -3.9375,1.38541 -2.22396,0.58334 -5.21354,0.58334 -5.50521,0 -9.33333,-3.64584 -3.82813,-3.64583 -3.82813,-9.29687 0,-4.63021 1.96875,-7.47396 2.00521,-2.88021 5.6875,-4.52083 3.71875,-1.64063 8.93229,-2.22396 5.21354,-0.58333 11.19271,-0.875 v -1.05729 q 0,-2.33334 -0.83854,-3.86459 -0.80208,-1.53125 -2.33333,-2.40625 -1.45834,-0.83854 -3.5,-1.1302 -2.04167,-0.29167 -4.26563,-0.29167 -2.69791,0 -6.01562,0.72917 -3.31771,0.6927 -6.85417,2.04166 h -0.36458 v -6.96354 q 2.00521,-0.54687 5.79687,-1.20312 3.79167,-0.65625 7.47396,-0.65625 4.30208,0 7.47396,0.72916 3.20833,0.69271 5.54166,2.40625 2.29688,1.67709 3.5,4.33854 1.20313,2.66146 1.20313,6.59896 z m -6.81771,-10.02604 v -11.33855 q -3.13542,0.1823 -7.40104,0.54688 -4.22917,0.36458 -6.70833,1.05729 -2.95313,0.83854 -4.77604,2.625 -1.82292,1.75 -1.82292,4.84896 0,3.5 2.11458,5.28646 2.11459,1.75 6.45313,1.75 3.60937,0 6.59895,-1.38542 2.98959,-1.42187 5.54167,-3.39062 z"
         id="path682"
         inkscape:connector-curvature="0" />
      <path
         d="m 147.70476,928.42466 q 0,5.57812 -4.63021,9.15104 -4.59375,3.57292 -12.57812,3.57292 -4.52084,0 -8.3125,-1.0573 -3.75521,-1.09375 -6.30729,-2.36979 v -7.69271 h 0.36458 q 3.24479,2.44271 7.21875,3.90105 3.97396,1.42187 7.61979,1.42187 4.52083,0 7.07292,-1.45833 2.55208,-1.45834 2.55208,-4.59375 0,-2.40625 -1.38542,-3.64584 -1.38541,-1.23958 -5.32291,-2.11458 -1.45834,-0.32812 -3.82813,-0.76562 -2.33333,-0.4375 -4.26562,-0.94792 -5.35938,-1.42188 -7.61979,-4.15625 -2.22396,-2.77083 -2.22396,-6.78125 0,-2.51563 1.02083,-4.73958 1.05729,-2.22396 3.17188,-3.97396 2.04166,-1.71354 5.17708,-2.69792 3.17187,-1.02083 7.07292,-1.02083 3.64583,0 7.36458,0.91146 3.75521,0.875 6.23437,2.15104 v 7.32812 h -0.36458 q -2.625,-1.93229 -6.38021,-3.24479 -3.75521,-1.34896 -7.36458,-1.34896 -3.75521,0 -6.34375,1.45834 -2.58854,1.42187 -2.58854,4.26562 0,2.51563 1.56771,3.79167 1.53125,1.27604 4.95833,2.07812 1.89583,0.4375 4.22917,0.875 2.36979,0.4375 3.9375,0.80209 4.77604,1.09375 7.36458,3.7552 2.58854,2.69792 2.58854,7.14584 z"
         id="path684"
         inkscape:connector-curvature="0" />
      <path
         d="m 191.60059,940.16424 h -6.85416 v -23.1875 q 0,-2.80729 -0.32813,-5.25 -0.32812,-2.47917 -1.20312,-3.86458 -0.91146,-1.53125 -2.625,-2.26042 -1.71354,-0.76562 -4.44792,-0.76562 -2.80729,0 -5.86979,1.38541 -3.0625,1.38542 -5.86979,3.53646 v 30.40625 h -6.85417 v -56.72916 h 6.85417 v 20.52604 q 3.20833,-2.66146 6.63541,-4.15625 3.42709,-1.49479 7.03646,-1.49479 6.59896,0 10.0625,3.97395 3.46354,3.97396 3.46354,11.44792 z"
         id="path686"
         inkscape:connector-curvature="0" />
      <path
         d="m 239.50684,919.82049 q 0,9.95313 -5.10416,15.71354 -5.10417,5.76042 -13.67188,5.76042 -8.64062,0 -13.74479,-5.76042 -5.06771,-5.76041 -5.06771,-15.71354 0,-9.95312 5.06771,-15.71354 5.10417,-5.79687 13.74479,-5.79687 8.56771,0 13.67188,5.79687 5.10416,5.76042 5.10416,15.71354 z m -7.07291,0 q 0,-7.91146 -3.09896,-11.73958 -3.09896,-3.86459 -8.60417,-3.86459 -5.57812,0 -8.67708,3.86459 -3.0625,3.82812 -3.0625,11.73958 0,7.65625 3.09896,11.63021 3.09896,3.9375 8.64062,3.9375 5.46875,0 8.56771,-3.90104 3.13542,-3.9375 3.13542,-11.66667 z"
         id="path688"
         inkscape:connector-curvature="0" />
      <path
         d="m 271.2985,939.79966 q -1.93229,0.51041 -4.22917,0.83854 -2.26041,0.32812 -4.04687,0.32812 -6.23438,0 -9.47917,-3.35416 -3.24479,-3.35417 -3.24479,-10.75521 V 905.2007 h -4.63021 v -5.76042 h 4.63021 v -11.70312 h 6.85417 v 11.70312 h 14.14583 v 5.76042 h -14.14583 v 18.55729 q 0,3.20833 0.14583,5.03125 0.14583,1.78646 1.02083,3.35417 0.80209,1.45833 2.1875,2.15104 1.42188,0.65625 4.30209,0.65625 1.67708,0 3.5,-0.47396 1.82291,-0.51042 2.625,-0.83854 h 0.36458 z"
         id="path690"
         inkscape:connector-curvature="0" />
      <path
         d="m 327.00684,939.79966 q -1.93229,0.51041 -4.22916,0.83854 -2.26042,0.32812 -4.04688,0.32812 -6.23437,0 -9.47916,-3.35416 -3.24479,-3.35417 -3.24479,-10.75521 V 905.2007 h -4.63021 v -5.76042 h 4.63021 v -11.70312 h 6.85416 v 11.70312 h 14.14583 v 5.76042 h -14.14583 v 18.55729 q 0,3.20833 0.14583,5.03125 0.14584,1.78646 1.02084,3.35417 0.80208,1.45833 2.1875,2.15104 1.42187,0.65625 4.30208,0.65625 1.67708,0 3.5,-0.47396 1.82292,-0.51042 2.625,-0.83854 h 0.36458 z"
         id="path692"
         inkscape:connector-curvature="0" />
      <path
         d="m 370.02767,919.82049 q 0,9.95313 -5.10416,15.71354 -5.10417,5.76042 -13.67188,5.76042 -8.64062,0 -13.74479,-5.76042 -5.06771,-5.76041 -5.06771,-15.71354 0,-9.95312 5.06771,-15.71354 5.10417,-5.79687 13.74479,-5.79687 8.56771,0 13.67188,5.79687 5.10416,5.76042 5.10416,15.71354 z m -7.07291,0 q 0,-7.91146 -3.09896,-11.73958 -3.09896,-3.86459 -8.60417,-3.86459 -5.57812,0 -8.67708,3.86459 -3.0625,3.82812 -3.0625,11.73958 0,7.65625 3.09896,11.63021 3.09895,3.9375 8.64062,3.9375 5.46875,0 8.56771,-3.90104 3.13542,-3.9375 3.13542,-11.66667 z"
         id="path694"
         inkscape:connector-curvature="0" />
      <path
         d="m 436.01726,928.42466 q 0,5.57812 -4.63021,9.15104 -4.59375,3.57292 -12.57812,3.57292 -4.52084,0 -8.3125,-1.0573 -3.75521,-1.09375 -6.30729,-2.36979 v -7.69271 h 0.36458 q 3.24479,2.44271 7.21875,3.90105 3.97396,1.42187 7.61979,1.42187 4.52083,0 7.07292,-1.45833 2.55208,-1.45834 2.55208,-4.59375 0,-2.40625 -1.38542,-3.64584 -1.38541,-1.23958 -5.32291,-2.11458 -1.45834,-0.32812 -3.82813,-0.76562 -2.33333,-0.4375 -4.26562,-0.94792 -5.35938,-1.42188 -7.61979,-4.15625 -2.22396,-2.77083 -2.22396,-6.78125 0,-2.51563 1.02083,-4.73958 1.05729,-2.22396 3.17188,-3.97396 2.04166,-1.71354 5.17708,-2.69792 3.17187,-1.02083 7.07292,-1.02083 3.64583,0 7.36458,0.91146 3.75521,0.875 6.23437,2.15104 v 7.32812 h -0.36458 q -2.625,-1.93229 -6.38021,-3.24479 -3.75521,-1.34896 -7.36458,-1.34896 -3.75521,0 -6.34375,1.45834 -2.58854,1.42187 -2.58854,4.26562 0,2.51563 1.56771,3.79167 1.53125,1.27604 4.95833,2.07812 1.89583,0.4375 4.22917,0.875 2.36979,0.4375 3.9375,0.80209 4.77604,1.09375 7.36458,3.7552 2.58854,2.69792 2.58854,7.14584 z"
         id="path696"
         inkscape:connector-curvature="0" />
      <path
         d="m 475.97559,937.61216 q -3.42708,1.64062 -6.52604,2.55208 -3.0625,0.91146 -6.52604,0.91146 -4.41146,0 -8.09375,-1.27604 -3.68229,-1.3125 -6.30729,-3.9375 -2.66146,-2.625 -4.11979,-6.63542 -1.45833,-4.01042 -1.45833,-9.36979 0,-9.98958 5.46875,-15.67708 5.5052,-5.6875 14.51041,-5.6875 3.5,0 6.85417,0.98437 3.39062,0.98438 6.19791,2.40625 v 7.61979 h -0.36458 q -3.13542,-2.44271 -6.48958,-3.75521 -3.31771,-1.3125 -6.48959,-1.3125 -5.83333,0 -9.22395,3.9375 -3.35417,3.90105 -3.35417,11.48438 0,7.36458 3.28125,11.33854 3.31771,3.9375 9.29687,3.9375 2.07813,0 4.22917,-0.54687 2.15104,-0.54688 3.86458,-1.42188 1.4948,-0.76562 2.8073,-1.60417 1.3125,-0.875 2.07812,-1.49479 h 0.36458 z"
         id="path698"
         inkscape:connector-curvature="0" />
      <path
         d="m 519.50684,919.82049 q 0,9.95313 -5.10416,15.71354 -5.10417,5.76042 -13.67188,5.76042 -8.64062,0 -13.74479,-5.76042 -5.06771,-5.76041 -5.06771,-15.71354 0,-9.95312 5.06771,-15.71354 5.10417,-5.79687 13.74479,-5.79687 8.56771,0 13.67188,5.79687 5.10416,5.76042 5.10416,15.71354 z m -7.07291,0 q 0,-7.91146 -3.09896,-11.73958 -3.09896,-3.86459 -8.60417,-3.86459 -5.57812,0 -8.67708,3.86459 -3.0625,3.82812 -3.0625,11.73958 0,7.65625 3.09896,11.63021 3.09896,3.9375 8.64062,3.9375 5.46875,0 8.56771,-3.90104 3.13542,-3.9375 3.13542,-11.66667 z"
         id="path700"
         inkscape:connector-curvature="0" />
      <path
         d="m 555.56413,906.91424 h -0.36459 q -1.53125,-0.36458 -2.98958,-0.51042 -1.42188,-0.18229 -3.39063,-0.18229 -3.17187,0 -6.125,1.42188 -2.95312,1.38541 -5.6875,3.60937 v 28.91146 h -6.85416 v -40.72396 h 6.85416 v 6.01563 q 4.08334,-3.28125 7.1823,-4.63021 3.13541,-1.38542 6.3802,-1.38542 1.78646,0 2.58855,0.10938 0.80208,0.0729 2.40625,0.32812 z"
         id="path702"
         inkscape:connector-curvature="0" />
      <path
         d="M 596.17871,920.5132 H 566.1735 q 0,3.75521 1.13021,6.5625 1.13021,2.77083 3.09896,4.55729 1.89583,1.75 4.48437,2.625 2.625,0.875 5.76042,0.875 4.15625,0 8.34896,-1.64062 4.22916,-1.67709 6.01562,-3.28125 h 0.36459 v 7.47395 q -3.46355,1.45834 -7.07292,2.44271 -3.60938,0.98438 -7.58333,0.98438 -10.13542,0 -15.82292,-5.46875 -5.6875,-5.50521 -5.6875,-15.60417 0,-9.98958 5.43229,-15.85937 5.46875,-5.86979 14.36458,-5.86979 8.23959,0 12.6875,4.8125 4.48438,4.81249 4.48438,13.67187 z m -6.67188,-5.25 q -0.0365,-5.39583 -2.73437,-8.34896 -2.66146,-2.95312 -8.13021,-2.95312 -5.50521,0 -8.78646,3.24479 -3.24479,3.24479 -3.68229,8.05729 z"
         id="path704"
         inkscape:connector-curvature="0" />
      <path
         d="m 664.46516,940.16424 h -6.81771 v -4.33854 q -0.91146,0.61979 -2.47917,1.75 -1.53125,1.09375 -2.98958,1.75 -1.71354,0.83854 -3.9375,1.38542 -2.22396,0.58333 -5.21354,0.58333 -5.50521,0 -9.33334,-3.64583 -3.82812,-3.64584 -3.82812,-9.29688 0,-4.63021 1.96875,-7.47396 2.00521,-2.88021 5.6875,-4.52083 3.71875,-1.64063 8.93229,-2.22396 5.21354,-0.58333 11.19271,-0.875 v -1.05729 q 0,-2.33333 -0.83854,-3.86458 -0.80209,-1.53125 -2.33334,-2.40625 -1.45833,-0.83855 -3.5,-1.13021 -2.04166,-0.29167 -4.26562,-0.29167 -2.69792,0 -6.01563,0.72917 -3.3177,0.69271 -6.85416,2.04166 h -0.36459 v -6.96354 q 2.00521,-0.54687 5.79688,-1.20312 3.79167,-0.65625 7.47396,-0.65625 4.30208,0 7.47396,0.72917 3.20833,0.6927 5.54166,2.40625 2.29688,1.67708 3.5,4.33854 1.20313,2.66145 1.20313,6.59895 z m -6.81771,-10.02604 v -11.33854 q -3.13542,0.18229 -7.40104,0.54687 -4.22917,0.36459 -6.70834,1.05729 -2.95312,0.83855 -4.77604,2.625 -1.82291,1.75 -1.82291,4.84896 0,3.5 2.11458,5.28646 2.11458,1.75 6.45312,1.75 3.60938,0 6.59896,-1.38542 2.98959,-1.42187 5.54167,-3.39062 z"
         id="path706"
         inkscape:connector-curvature="0" />
      <path
         d="m 295.03288,1012.8257 q 0,5.1041 -1.45833,9.1875 -1.42188,4.0833 -3.86459,6.8541 -2.58854,2.8803 -5.6875,4.3386 -3.09895,1.4219 -6.8177,1.4219 -3.46355,0 -6.05209,-0.8386 -2.58854,-0.8021 -5.10416,-2.1875 l -0.4375,1.8959 h -6.41667 v -56.72921 h 6.85417 v 20.27083 q 2.88021,-2.36979 6.125,-3.86458 3.24479,-1.53125 7.29166,-1.53125 7.21875,0 11.375,5.54166 4.19271,5.54165 4.19271,15.64065 z m -7.07292,0.1823 q 0,-7.2917 -2.40625,-11.0469 -2.40625,-3.79167 -7.76562,-3.79167 -2.98958,0 -6.05208,1.3125 -3.0625,1.27607 -5.6875,3.31767 v 23.3334 q 2.91666,1.3125 4.99479,1.8229 2.11458,0.5104 4.77604,0.5104 5.6875,0 8.89583,-3.7187 3.24479,-3.7553 3.24479,-11.7396 z"
         id="path708"
         inkscape:connector-curvature="0" />
      <path
         d="m 337.361,1033.4976 h -6.8177 v -4.3386 q -0.91146,0.6198 -2.47917,1.75 -1.53125,1.0938 -2.98958,1.75 -1.71354,0.8386 -3.9375,1.3854 -2.22396,0.5834 -5.21354,0.5834 -5.50521,0 -9.33334,-3.6459 -3.82812,-3.6458 -3.82812,-9.2968 0,-4.6303 1.96875,-7.474 2.00521,-2.8802 5.6875,-4.5208 3.71875,-1.6407 8.93229,-2.224 5.21354,-0.5833 11.19271,-0.875 v -1.0573 q 0,-2.3333 -0.83854,-3.8646 -0.80209,-1.5312 -2.33334,-2.40622 -1.45833,-0.83854 -3.5,-1.13021 -2.04166,-0.29167 -4.26562,-0.29167 -2.69792,0 -6.01563,0.72917 -3.31771,0.69271 -6.85416,2.04163 h -0.36459 v -6.9635 q 2.00521,-0.54688 5.79688,-1.20313 3.79166,-0.65625 7.47396,-0.65625 4.30208,0 7.47395,0.72917 3.20834,0.69271 5.54167,2.40625 2.29687,1.67708 3.5,4.33854 1.20312,2.66142 1.20312,6.59892 z m -6.8177,-10.0261 v -11.3385 q -3.13542,0.1823 -7.40104,0.5468 -4.22917,0.3646 -6.70834,1.0573 -2.95312,0.8386 -4.77604,2.625 -1.82292,1.75 -1.82292,4.849 0,3.5 2.11459,5.2865 2.11458,1.75 6.45312,1.75 3.60938,0 6.59896,-1.3855 2.98958,-1.4218 5.54167,-3.3906 z"
         id="path710"
         inkscape:connector-curvature="0" />
      <path
         d="m 379.72559,1021.758 q 0,5.5781 -4.63021,9.151 -4.59375,3.5729 -12.57812,3.5729 -4.52084,0 -8.3125,-1.0573 -3.75521,-1.0937 -6.30729,-2.3698 v -7.6927 h 0.36458 q 3.24479,2.4427 7.21875,3.9011 3.97396,1.4219 7.61979,1.4219 4.52083,0 7.07292,-1.4584 2.55208,-1.4583 2.55208,-4.5937 0,-2.4063 -1.38542,-3.6459 -1.38541,-1.2395 -5.32291,-2.1145 -1.45834,-0.3282 -3.82813,-0.7657 -2.33333,-0.4375 -4.26562,-0.9479 -5.35938,-1.4219 -7.61979,-4.1562 -2.22396,-2.7709 -2.22396,-6.7813 0,-2.5156 1.02083,-4.73957 1.05729,-2.22396 3.17188,-3.97396 2.04166,-1.71354 5.17708,-2.69792 3.17187,-1.02083 7.07291,-1.02083 3.64584,0 7.36459,0.91146 3.75521,0.875 6.23437,2.15104 v 7.32808 h -0.36458 q -2.625,-1.9322 -6.38021,-3.24475 -3.75521,-1.34895 -7.36458,-1.34895 -3.75521,0 -6.34375,1.45833 -2.58854,1.42187 -2.58854,4.26567 0,2.5156 1.56771,3.7916 1.53125,1.2761 4.95833,2.0781 1.89583,0.4375 4.22916,0.875 2.3698,0.4375 3.9375,0.8021 4.77605,1.0938 7.36459,3.7552 2.58854,2.698 2.58854,7.1459 z"
         id="path712"
         inkscape:connector-curvature="0" />
      <path
         d="m 426.53809,1033.4976 h -9.04167 l -16.33333,-17.8282 -4.44792,4.2292 v 13.599 h -6.85416 v -56.72921 h 6.85416 v 36.38541 l 19.79688,-20.3802 h 8.64062 l -18.92187,18.8125 z"
         id="path714"
         inkscape:connector-curvature="0" />
      <path
         d="m 467.84538,1013.8465 h -30.00521 q 0,3.7552 1.13021,6.5625 1.13021,2.7708 3.09896,4.5573 1.89583,1.75 4.48438,2.625 2.62499,0.875 5.76041,0.875 4.15625,0 8.34896,-1.6406 4.22917,-1.6771 6.01562,-3.2813 h 0.36459 v 7.474 q -3.46354,1.4583 -7.07292,2.4427 -3.60937,0.9844 -7.58333,0.9844 -10.13542,0 -15.82292,-5.4688 -5.6875,-5.5052 -5.6875,-15.6041 0,-9.9896 5.43229,-15.85942 5.46875,-5.86979 14.36459,-5.86979 8.23958,0 12.6875,4.8125 4.48437,4.81251 4.48437,13.67191 z m -6.67187,-5.25 q -0.0365,-5.3958 -2.73438,-8.3489 -2.66146,-2.95317 -8.13021,-2.95317 -5.5052,0 -8.78645,3.24477 -3.2448,3.2448 -3.6823,8.0573 z"
         id="path716"
         inkscape:connector-curvature="0" />
      <path
         d="m 499.38183,1033.133 q -1.93229,0.5104 -4.22917,0.8385 -2.26041,0.3281 -4.04687,0.3281 -6.23438,0 -9.47917,-3.3541 -3.24479,-3.3542 -3.24479,-10.7552 v -21.65629 h -4.63021 v -5.76041 h 4.63021 v -11.70313 h 6.85417 v 11.70313 h 14.14583 v 5.76041 H 485.236 v 18.55729 q 0,3.2083 0.14583,5.0313 0.14583,1.7864 1.02083,3.3541 0.80209,1.4584 2.1875,2.1511 1.42188,0.6562 4.30209,0.6562 1.67708,0 3.5,-0.4739 1.82291,-0.5105 2.625,-0.8386 h 0.36458 z"
         id="path718"
         inkscape:connector-curvature="0" />
      <path
         d="m 519.72559,979.2111 -0.94792,39.3385 h -6.19791 l -1.02084,-39.3385 z m -0.36458,54.2865 h -7.4375 v -7.6928 h 7.4375 z"
         id="path720"
         inkscape:connector-curvature="0" />
    </g>
  </g>
</svg>
