<?xml version="1.0" encoding="UTF-8" standalone="no"?>
<!-- Created with Inkscape (http://www.inkscape.org/) -->

<svg
   xmlns:dc="http://purl.org/dc/elements/1.1/"
   xmlns:cc="http://creativecommons.org/ns#"
   xmlns:rdf="http://www.w3.org/1999/02/22-rdf-syntax-ns#"
   xmlns:svg="http://www.w3.org/2000/svg"
   xmlns="http://www.w3.org/2000/svg"
   xmlns:sodipodi="http://sodipodi.sourceforge.net/DTD/sodipodi-0.dtd"
   xmlns:inkscape="http://www.inkscape.org/namespaces/inkscape"
   width="210mm"
   height="297mm"
   viewBox="0 0 210 297"
   version="1.1"
   id="svg8"
   inkscape:version="0.92.1 r15371"
   sodipodi:docname="deep_breathe_splash.svg"
   inkscape:export-filename="C:\Users\Myself\Dropbox\Schoolwork\School\COSC3P99\Images\deep_breathe_splash.png"
   inkscape:export-xdpi="96"
   inkscape:export-ydpi="96">
  <defs
     id="defs2" />
  <sodipodi:namedview
     id="base"
     pagecolor="#ffffff"
     bordercolor="#666666"
     borderopacity="1.0"
     inkscape:pageopacity="0.0"
     inkscape:pageshadow="2"
     inkscape:zoom="0.35355339"
     inkscape:cx="261.85039"
     inkscape:cy="523.3711"
     inkscape:document-units="mm"
     inkscape:current-layer="layer1"
     showgrid="false"
     inkscape:window-width="1366"
     inkscape:window-height="705"
     inkscape:window-x="-8"
     inkscape:window-y="-8"
     inkscape:window-maximized="1" />
  <metadata
     id="metadata5">
    <rdf:RDF>
      <cc:Work
         rdf:about="">
        <dc:format>image/svg+xml</dc:format>
        <dc:type
           rdf:resource="http://purl.org/dc/dcmitype/StillImage" />
        <dc:title />
      </cc:Work>
    </rdf:RDF>
  </metadata>
  <g
     inkscape:label="Layer 1"
     inkscape:groupmode="layer"
     id="layer1"
     style="display:inline">
    <rect
       style="fill:#99ff55;stroke-width:1.2;stroke-miterlimit:4;stroke-dasharray:none"
       id="rect3697"
       width="214.29349"
       height="300.15897"
       x="-1.1149344"
       y="-1.6470467"
       ry="0"
       inkscape:export-xdpi="96"
       inkscape:export-ydpi="96" />
    <path
       style="display:inline;fill:#aaffee;stroke:#000000;stroke-width:1.20000005;stroke-miterlimit:4;stroke-dasharray:none"
       d="m 135.78319,131.91478 c 8.67428,-6.78885 8.2297,-23.5107 9.131,-32.155807 0,0 13.36555,-0.27116 25.16464,-0.27116 2.27573,-10.66405 2.92242,-36.822732 -16.4297,-62.698133 C 139.74351,18.196699 118.12869,8.1000762 103.81443,8.1000752 69.579354,8.1000732 41.826341,39.594861 41.826338,73.829942 c -2e-6,25.776771 15.733467,47.878788 38.120979,57.226638 l -1.102808,38.18858 h 10e-7 -25.390607 c -13.029924,0 -23.519718,10.48979 -23.519718,23.51971 v 82.31901 c 0,13.02993 10.489794,23.51972 23.519718,23.51972 H 168.3798 c 13.02992,0 23.51972,-10.48979 23.51972,-23.51972 v -82.31901 c 0,-13.02992 -10.4898,-23.51971 -23.51972,-23.51971 h -55.59206 l -1.28451,-33.2727 c 8.88063,0.21263 18.87851,0.16971 24.27996,-4.05768 z"
       id="path5008"
       inkscape:connector-curvature="0"
       sodipodi:nodetypes="sscssscccssssssssccs" />
    <path
       style="fill:#ffffff;stroke:#000000;stroke-width:1.20000005;stroke-miterlimit:4;stroke-dasharray:none"
       d="m 127.68674,64.637745 c 5.09253,3.476162 8.5717,9.413101 9.54945,13.311905 -3.30729,4.545933 -8.45137,6.330533 -18.06071,6.330533 -9.60934,0 -13.87552,-1.97834 -17.97656,-6.788853 1.17068,-3.118354 4.15244,-8.466481 8.57471,-12.032905"
       id="path611"
       inkscape:connector-curvature="0" />
    <path
       style="display:inline;fill:#000000;stroke:#000000;stroke-width:1.20000005;stroke-linecap:butt;stroke-linejoin:miter;stroke-miterlimit:4;stroke-dasharray:none;stroke-opacity:1"
       d="m 118.72468,84.292753 c 4.11154,-0.2962 5.18913,-2.1142 6.4415,-4.809929 1.36465,-2.937416 2.52556,-9.65945 2.52056,-14.845079 v 0 c -2.48683,-1.697508 -5.36548,-2.80086 -8.51835,-2.800859 -3.59643,10e-7 -6.75681,1.495746 -9.40185,3.628887 v 0 c -0.0889,5.250172 1.15199,11.404427 2.51664,14.218697 1.25237,2.582713 2.32996,4.324503 6.4415,4.608283"
       id="path56-0"
       inkscape:connector-curvature="0"
       sodipodi:nodetypes="csccsccsc" />
    <path
       style="fill:none;stroke:#000000;stroke-width:1.20000005;stroke-linecap:butt;stroke-linejoin:miter;stroke-miterlimit:4;stroke-dasharray:none;stroke-opacity:1"
       d="m 142.875,117.95363 c 0,0 -12.91475,0.63951 -19.18738,-1.22985 -2.25349,-0.67158 -2.73996,-6.57536 -2.73996,-6.57536"
       id="path79"
       inkscape:connector-curvature="0"
       sodipodi:nodetypes="csc" />
    <rect
       style="opacity:1;fill:#ff6600;stroke:#000000;stroke-width:1.10508931;stroke-miterlimit:4;stroke-dasharray:none"
       id="rect5088"
       width="215.42361"
       height="43.804306"
       x="-2.2450638"
       y="254.70763" />
    <g
       id="g4519">
      <g
         id="flowRoot5090"
         style="font-style:normal;font-variant:normal;font-weight:bold;font-stretch:normal;font-size:96px;line-height:1.25;font-family:'MS Sans Serif';-inkscape-font-specification:'MS Sans Serif Bold';letter-spacing:0px;word-spacing:0px;fill:#000000;fill-opacity:1;stroke:none"
         transform="scale(0.26458333)"
         aria-label="  DEEP BREATHE">
        <g
           aria-label="RELAX"
           style="font-style:normal;font-weight:normal;font-size:96px;line-height:1.25;font-family:sans-serif;letter-spacing:0px;word-spacing:0px;fill:#000000;fill-opacity:1;stroke:none"
           id="text4514">
          <path
             d="m 249.18909,857.5069 q -2.96875,0 -5.54688,-2.5 -25.85937,-25.54688 -57.5,-34.375 l 0.625,15.3125 0.39063,15.39062 q 0,3.4375 -2.26563,5.70313 -2.1875,2.34375 -5.54687,2.34375 -3.35938,0 -5.625,-2.34375 -2.1875,-2.26563 -2.1875,-5.70313 0,-6.17187 -0.625,-18.35937 -0.54688,-12.26563 -0.54688,-18.4375 0,-7.1875 1.5625,-21.40625 1.5625,-14.21875 1.5625,-21.32813 0,-3.98437 -0.78125,-11.79687 -0.70312,-7.8125 -0.70312,-11.79688 0,-4.45312 2.5,-7.8125 2.96875,-4.14062 8.20312,-3.75 l 18.82813,1.48438 q 10.70312,1.32812 18.04687,5.23437 31.64063,16.79688 31.64063,41.01563 0,11.875 -10.78125,21.01562 -8.67188,7.34375 -21.64063,11.17188 24.29688,13.04687 36.32813,27.5 2.03125,2.5 2.03125,5.3125 0,3.28125 -2.42188,5.70312 -2.34375,2.42188 -5.54687,2.42188 z m -49.76563,-103.28125 -11.5625,-0.9375 0.78125,9.45312 q 0.54688,5.78125 0.54688,9.45313 0,6.25 -1.01563,15.54687 l -1.64062,15.54688 q 1.09375,0 3.35937,0.0781 2.34375,0.0781 3.51563,0.0781 19.92187,0 29.84375,-5.3125 4.375,-2.42188 8.125,-6.32813 4.14062,-4.375 4.14062,-7.42187 0,-10.85938 -12.34375,-20.23438 -11.32812,-8.59375 -23.75,-9.92187 z"
             style="font-style:normal;font-variant:normal;font-weight:normal;font-stretch:normal;font-size:160px;font-family:'Comic Sans MS';-inkscape-font-specification:'Comic Sans MS'"
             id="path4521" />
          <path
             d="m 348.95471,751.49127 q -1.09375,0 -2.42187,-0.39062 -13.20313,-3.75 -25.46875,-3.75 -6.40625,0 -13.98438,1.17187 -7.57812,1.17188 -16.32812,3.59375 0.70312,5.07813 0.70312,8.125 0,10.85938 -1.32812,29.84375 l 34.21875,-3.28125 q 15.07812,-1.5625 18.51562,-1.5625 3.4375,0 5.78125,2.1875 2.34375,2.1875 2.34375,5.85938 0,7.10937 -7.1875,7.96875 l -18.59375,1.64062 -36.09375,3.28125 q -0.3125,5.54688 -0.54687,10.54688 -0.15625,4.92187 -0.15625,9.21875 0,17.26562 2.5,20.3125 1.875,2.1875 12.26562,2.1875 4.84375,0 14.53125,-0.23438 9.76563,-0.3125 14.6875,-0.3125 1.5625,0 4.60938,-0.46875 3.04687,-0.54687 4.53125,-0.54687 8.28125,0 8.28125,8.125 0,6.5625 -6.64063,7.89062 -7.34375,1.48438 -31.79687,1.48438 -24.21875,0 -31.09375,-6.40625 -7.5,-6.95313 -7.5,-32.03125 0,-5 0.23437,-10.9375 0.23438,-5.9375 0.625,-12.8125 -0.85937,-1.79688 -0.85937,-3.82813 0,-2.65625 1.48437,-4.76562 1.5625,-22.57813 1.5625,-33.35938 0,-2.89062 -0.78125,-8.4375 -0.78125,-5.625 -0.78125,-8.51562 0,-9.29688 7.8125,-9.29688 3.28125,0 5.625,2.26563 9.375,-2.5 17.65625,-3.75 8.35938,-1.25 15.70313,-1.25 18.98437,0 30.3125,4.53125 5.23437,2.10937 5.23437,7.5 0,3.125 -2.03125,5.54687 -2.26562,2.65625 -5.625,2.65625 z"
             style="font-style:normal;font-variant:normal;font-weight:normal;font-stretch:normal;font-size:160px;font-family:'Comic Sans MS';-inkscape-font-specification:'Comic Sans MS'"
             id="path4523" />
          <path
             d="m 441.92346,853.4444 q -8.82812,4.14062 -27.73437,7.42187 -17.42188,3.04688 -28.4375,3.04688 -7.89063,0 -11.32813,-2.42188 -4.6875,-3.28125 -4.6875,-12.03125 l 1.5625,-25.85937 q 2.03125,-35.78125 2.03125,-79.375 0,-3.35938 2.1875,-5.70313 2.26563,-2.34375 5.54688,-2.34375 3.35937,0 5.54687,2.34375 2.26563,2.34375 2.26563,5.70313 0,44.14062 -2.10938,80.3125 l -1.01562,11.875 q -0.625,6.48437 -0.46875,11.48437 20.39062,0.23438 51.5625,-9.60937 1.32812,-0.39063 2.5,-0.39063 3.35937,0 5.625,2.65625 1.95312,2.42188 1.95312,5.54688 0,5 -5,7.34375 z"
             style="font-style:normal;font-variant:normal;font-weight:normal;font-stretch:normal;font-size:160px;font-family:'Comic Sans MS';-inkscape-font-specification:'Comic Sans MS'"
             id="path4525" />
          <path
             d="m 547.62659,858.99127 q -7.1875,0 -12.5,-18.4375 -2.03125,-7.03125 -5.07813,-24.60937 -7.96875,1.09375 -20.85937,3.90625 l -20.78125,4.29687 q -3.90625,10.23438 -13.35938,29.92188 -2.5,4.375 -6.79687,4.375 -3.125,0 -5.625,-2.26563 -2.42188,-2.26562 -2.42188,-5.625 0,-3.75 11.79688,-28.51562 -1.32813,-2.03125 -1.32813,-4.6875 0,-6.32813 7.65625,-8.125 8.90625,-16.71875 22.5,-38.4375 18.51563,-29.60938 23.04688,-29.60938 6.17187,0 8.4375,8.59375 l 4.92187,26.25 11.64063,54.29688 4.45312,12.34375 q 2.26563,6.32812 2.26563,8.4375 0,3.35937 -2.42188,5.625 -2.42187,2.26562 -5.54687,2.26562 z m -27.57813,-89.29687 -22.34375,36.01562 q 9.45313,-2.42187 28.67188,-5.85937 z"
             style="font-style:normal;font-variant:normal;font-weight:normal;font-stretch:normal;font-size:160px;font-family:'Comic Sans MS';-inkscape-font-specification:'Comic Sans MS'"
             id="path4527" />
          <path
             d="m 674.89221,751.2569 q -10.46875,12.65625 -16.09375,20.85937 l -9.76562,14.375 q -5.70313,8.125 -10.70313,13.67188 l 17.1875,25.15625 q 10.23438,14.92187 18.20313,24.375 2.10937,2.57812 2.10937,5.39062 0,3.28125 -2.42187,5.70313 -2.34375,2.42187 -5.625,2.42187 -2.96875,0 -5.54688,-2.42187 -5.78125,-5.46875 -12.03125,-14.84375 l -10.46875,-16.09375 -12.26562,-17.57813 -26.875,31.09375 -14.375,16.09375 q -2.57813,2.57813 -5.70313,2.57813 -3.20312,0 -5.625,-2.42188 -2.42187,-2.42187 -2.42187,-5.70312 0,-2.8125 2.03125,-5.3125 l 14.0625,-15.70313 29.29687,-33.98437 q -8.59375,-11.48438 -18.28125,-23.04688 l -9.0625,-12.26562 q -5.46875,-7.34375 -10.15625,-11.25 -3.28125,-2.73438 -3.28125,-6.32813 0,-3.20312 2.26563,-5.70312 2.26562,-2.5 5.625,-2.5 6.64062,0 16.95312,14.14062 3.20313,4.76563 9.76563,13.51563 8.90625,10.625 16.95312,21.32812 l 17.8125,-24.84375 q 17.34375,-24.14062 22.5,-24.14062 3.20313,0 5.625,2.42187 2.42188,2.42188 2.42188,5.70313 0,2.73437 -2.10938,5.3125 z"
             style="font-style:normal;font-variant:normal;font-weight:normal;font-stretch:normal;font-size:160px;font-family:'Comic Sans MS';-inkscape-font-specification:'Comic Sans MS'"
             id="path4529" />
        </g>
      </g>
    </g>
  </g>
</svg>
