<?xml version="1.0" encoding="UTF-8" standalone="no"?>
<!-- Created with Inkscape (http://www.inkscape.org/) -->

<svg
   xmlns:dc="http://purl.org/dc/elements/1.1/"
   xmlns:cc="http://creativecommons.org/ns#"
   xmlns:rdf="http://www.w3.org/1999/02/22-rdf-syntax-ns#"
   xmlns:svg="http://www.w3.org/2000/svg"
   xmlns="http://www.w3.org/2000/svg"
   xmlns:sodipodi="http://sodipodi.sourceforge.net/DTD/sodipodi-0.dtd"
   xmlns:inkscape="http://www.inkscape.org/namespaces/inkscape"
   width="210mm"
   height="297mm"
   viewBox="0 0 210 297"
   version="1.1"
   id="svg8"
   inkscape:version="0.92.1 r15371"
   sodipodi:docname="deep_breathe_inhale.svg"
   inkscape:export-filename="C:\Users\Myself\Dropbox\Schoolwork\School\COSC3P99\Images\deep_breathe_splash.png"
   inkscape:export-xdpi="96"
   inkscape:export-ydpi="96">
  <defs
     id="defs2" />
  <sodipodi:namedview
     id="base"
     pagecolor="#ffffff"
     bordercolor="#666666"
     borderopacity="1.0"
     inkscape:pageopacity="0.0"
     inkscape:pageshadow="2"
     inkscape:zoom="0.25"
     inkscape:cx="386.78791"
     inkscape:cy="830.5415"
     inkscape:document-units="mm"
     inkscape:current-layer="layer1"
     showgrid="false"
     inkscape:window-width="1366"
     inkscape:window-height="705"
     inkscape:window-x="-8"
     inkscape:window-y="-8"
     inkscape:window-maximized="1" />
  <metadata
     id="metadata5">
    <rdf:RDF>
      <cc:Work
         rdf:about="">
        <dc:format>image/svg+xml</dc:format>
        <dc:type
           rdf:resource="http://purl.org/dc/dcmitype/StillImage" />
        <dc:title />
      </cc:Work>
    </rdf:RDF>
  </metadata>
  <g
     inkscape:label="Layer 1"
     inkscape:groupmode="layer"
     id="layer1"
     style="display:inline">
    <rect
       style="fill:#eeaaff;stroke-width:1.2;stroke-miterlimit:4;stroke-dasharray:none"
       id="rect3697"
       width="214.29349"
       height="300.15897"
       x="-1.1149344"
       y="-1.6470467"
       ry="0"
       inkscape:export-xdpi="96"
       inkscape:export-ydpi="96" />
    <path
       style="display:inline;fill:#aaffee;stroke:#000000;stroke-width:1.20000005;stroke-miterlimit:4;stroke-dasharray:none"
       d="M 191.89952,302.02465 V 192.76487 c 0,-13.02992 -10.4898,-23.51971 -23.51972,-23.51971 h -55.59206 l -1.28451,-33.2727 c 8.88063,0.21263 18.87851,0.16971 24.27996,-4.05768 8.67428,-6.78885 8.2297,-23.5107 9.131,-32.155807 0,0 13.36555,-0.27116 25.16464,-0.27116 2.27573,-10.66405 2.92242,-36.822732 -16.4297,-62.698133 C 139.74351,18.196699 118.12869,8.1000762 103.81443,8.1000752 69.579354,8.1000732 41.826341,39.594861 41.826338,73.829942 c -2e-6,25.776771 15.733467,47.878788 38.120979,57.226638 l -1.102808,38.18858 h 10e-7 -25.390607 c -13.029924,0 -23.564494,10.48987 -23.519718,23.51971 l 0.374177,108.8856"
       id="path5008"
       inkscape:connector-curvature="0"
       sodipodi:nodetypes="cssccsscssscccssc" />
    <path
       style="fill:#ffffff;stroke:#000000;stroke-width:1.20000005;stroke-miterlimit:4;stroke-dasharray:none"
       d="m 127.68674,64.637745 c 5.09253,3.476162 8.5717,9.413101 9.54945,13.311905 -3.30729,4.545933 -8.45137,6.330533 -18.06071,6.330533 -9.60934,0 -13.87552,-1.97834 -17.97656,-6.788853 1.17068,-3.118354 4.15244,-8.466481 8.57471,-12.032905"
       id="path611"
       inkscape:connector-curvature="0" />
    <path
       style="display:inline;fill:#000000;stroke:#000000;stroke-width:1.20000005;stroke-linecap:butt;stroke-linejoin:miter;stroke-miterlimit:4;stroke-dasharray:none;stroke-opacity:1"
       d="m 118.72468,84.292753 c 4.11154,-0.2962 5.18913,-2.1142 6.4415,-4.809929 1.36465,-2.937416 2.52556,-9.65945 2.52056,-14.845079 v 0 c -2.48683,-1.697508 -5.36548,-2.80086 -8.51835,-2.800859 -3.59643,10e-7 -6.75681,1.495746 -9.40185,3.628887 v 0 c -0.0889,5.250172 1.15199,11.404427 2.51664,14.218697 1.25237,2.582713 2.32996,4.324503 6.4415,4.608283"
       id="path56-0"
       inkscape:connector-curvature="0"
       sodipodi:nodetypes="csccsccsc" />
    <path
       style="fill:none;stroke:#000000;stroke-width:1.20000005;stroke-linecap:butt;stroke-linejoin:miter;stroke-miterlimit:4;stroke-dasharray:none;stroke-opacity:1"
       d="m 142.875,117.95363 c 0,0 -12.91475,0.63951 -19.18738,-1.22985 -2.25349,-0.67158 -2.73996,-6.57536 -2.73996,-6.57536"
       id="path79"
       inkscape:connector-curvature="0"
       sodipodi:nodetypes="csc" />
    <path
       style="fill:#000000;stroke:#000000;stroke-width:0.27681834px;stroke-linecap:butt;stroke-linejoin:miter;stroke-opacity:1"
       d="m 146.05893,99.748696 c 5.96456,-6.131316 12.18391,-7.686871 18.89593,-0.395289"
       id="path5282"
       inkscape:connector-curvature="0"
       sodipodi:nodetypes="cc" />
    <path
       style="fill:#00ff00;stroke:#000000;stroke-width:1.2;stroke-linecap:butt;stroke-linejoin:miter;stroke-opacity:1;stroke-miterlimit:4;stroke-dasharray:none"
       d="m 160.48998,119.09943 14.62501,10.08203 v 0 l -5.98683,4.49013 c 0,0 3.06919,4.93478 4.60378,7.40216 1.64592,2.64637 7.1867,6.02088 7.1867,6.02088 l -4.57313,5.35198 c 0,0 -7.93214,-5.67469 -9.31852,-8.47896 -1.35759,-2.74602 -4.07276,-8.23808 -4.07276,-8.23808 v 0 l -7.12072,0.21528 z"
       id="path5284"
       inkscape:connector-curvature="0"
       sodipodi:nodetypes="ccccsccscccc" />
  </g>
</svg>
