<?xml version="1.0" encoding="UTF-8" standalone="no"?>
<!-- Created with Inkscape (http://www.inkscape.org/) -->

<svg
   xmlns:dc="http://purl.org/dc/elements/1.1/"
   xmlns:cc="http://creativecommons.org/ns#"
   xmlns:rdf="http://www.w3.org/1999/02/22-rdf-syntax-ns#"
   xmlns:svg="http://www.w3.org/2000/svg"
   xmlns="http://www.w3.org/2000/svg"
   xmlns:sodipodi="http://sodipodi.sourceforge.net/DTD/sodipodi-0.dtd"
   xmlns:inkscape="http://www.inkscape.org/namespaces/inkscape"
   width="210mm"
   height="297mm"
   viewBox="0 0 210 297"
   version="1.1"
   id="svg8"
   inkscape:version="0.92.1 r15371"
   sodipodi:docname="deep_breathe_exhale.svg"
   inkscape:export-filename="C:\Users\Myself\Pictures\temp.png"
   inkscape:export-xdpi="96"
   inkscape:export-ydpi="96">
  <defs
     id="defs2" />
  <sodipodi:namedview
     id="base"
     pagecolor="#ffffff"
     bordercolor="#666666"
     borderopacity="1.0"
     inkscape:pageopacity="0.0"
     inkscape:pageshadow="2"
     inkscape:zoom="2"
     inkscape:cx="472.18766"
     inkscape:cy="639.40681"
     inkscape:document-units="mm"
     inkscape:current-layer="layer1"
     showgrid="false"
     inkscape:window-width="1366"
     inkscape:window-height="705"
     inkscape:window-x="-8"
     inkscape:window-y="-8"
     inkscape:window-maximized="1" />
  <metadata
     id="metadata5">
    <rdf:RDF>
      <cc:Work
         rdf:about="">
        <dc:format>image/svg+xml</dc:format>
        <dc:type
           rdf:resource="http://purl.org/dc/dcmitype/StillImage" />
        <dc:title />
      </cc:Work>
    </rdf:RDF>
  </metadata>
  <g
     inkscape:label="Layer 1"
     inkscape:groupmode="layer"
     id="layer1"
     style="display:inline">
    <rect
       style="fill:#0044aa;stroke-width:1.2;stroke-miterlimit:4;stroke-dasharray:none"
       id="rect3697"
       width="214.29349"
       height="300.15897"
       x="-1.1149344"
       y="-1.6470467"
       ry="0"
       inkscape:export-xdpi="96"
       inkscape:export-ydpi="96" />
    <path
       style="fill:#ff6600;stroke:#000000;stroke-width:1.20000005;stroke-linecap:butt;stroke-linejoin:miter;stroke-miterlimit:4;stroke-dasharray:none;stroke-opacity:1"
       d="m 177.42674,151.73967 -15.24038,-9.12518 v 0 l 5.68713,-4.86415 c 0,0 -3.37878,-4.72819 -5.06816,-7.09228 -1.81195,-2.53559 -7.55737,-5.5485 -7.55737,-5.5485 l 4.22116,-5.63374 c 0,0 8.27912,5.1553 9.84216,7.86508 1.53058,2.65349 4.59174,7.96048 4.59174,7.96048 v 0 l 7.09234,-0.67065 z"
       id="path5284"
       inkscape:connector-curvature="0"
       sodipodi:nodetypes="ccccsccscccc" />
    <path
       style="fill:#aaffee;fill-opacity:1;stroke:#000000;stroke-width:1.20000005;stroke-linecap:butt;stroke-linejoin:miter;stroke-miterlimit:4;stroke-dasharray:none;stroke-opacity:1"
       d="m 135.78319,131.91478 c -5.40145,4.22739 -15.39933,4.27031 -24.27996,4.05768 l 1.28451,33.2727 h 55.59206 c 13.02992,0 23.51972,10.48979 23.51972,23.51971 V 302.02465 L 30.308362,301.65048 29.934185,192.76487 c -0.04478,-13.02984 10.489794,-23.51971 23.519718,-23.51971 h 25.390607 -10e-7 l 1.102808,-38.18858 C 57.559805,121.70873 41.826336,99.606713 41.826338,73.829942 c 3e-6,-34.235081 27.753016,-65.7298688 61.988092,-65.7298668 14.31426,1e-6 35.92908,10.0966238 49.8347,28.6896048 19.35212,25.875401 18.70543,52.034083 16.4297,62.698133 -11.79909,0 -25.16464,0.27116 -25.16464,0.27116 -0.22909,2.197397 -0.37123,4.916597 -0.59826,7.861857 -4.13349,-1.46645 -8.41213,-2.69988 -12.61487,-4.01324 v 0 c -3.61754,-1.13048 -7.23508,-2.26097 -10.85262,-3.39145 0,0 -1.30368,17.82984 3.85912,24.13048 3.0971,3.77968 13.73806,5.11548 13.73806,5.11548 -0.79826,0.89715 -1.69535,1.6958 -2.66243,2.45268 z"
       id="path5837"
       inkscape:connector-curvature="0"
       sodipodi:nodetypes="sccssccsscccssscsccccacs" />
    <path
       style="fill:none;stroke:#000000;stroke-width:1.20000005;stroke-linecap:butt;stroke-linejoin:miter;stroke-miterlimit:4;stroke-dasharray:none;stroke-opacity:1"
       d="m 131.70106,103.60759 c 0,0 -1.67194,13.29005 0.57171,19.03692 1.21639,3.11566 6.17285,6.81759 6.17285,6.81759"
       id="path830"
       inkscape:connector-curvature="0"
       sodipodi:nodetypes="csc" />
  </g>
  <g
     inkscape:groupmode="layer"
     id="layer2"
     inkscape:label="Layer 2">
    <path
       style="display:inline;fill:none;stroke:#000000;stroke-width:1.20000005;stroke-miterlimit:4;stroke-dasharray:none"
       d="m 137.23619,77.94965 c -3.30729,4.545933 -8.45137,6.330533 -18.06071,6.330533 -9.60934,0 -13.87552,-1.97834 -17.97656,-6.788853"
       id="path611"
       inkscape:connector-curvature="0"
       sodipodi:nodetypes="csc" />
  </g>
</svg>
