<?xml version="1.0" encoding="UTF-8" standalone="no"?>
<!-- Created with Inkscape (http://www.inkscape.org/) -->

<svg
   xmlns:dc="http://purl.org/dc/elements/1.1/"
   xmlns:cc="http://creativecommons.org/ns#"
   xmlns:rdf="http://www.w3.org/1999/02/22-rdf-syntax-ns#"
   xmlns:svg="http://www.w3.org/2000/svg"
   xmlns="http://www.w3.org/2000/svg"
   xmlns:sodipodi="http://sodipodi.sourceforge.net/DTD/sodipodi-0.dtd"
   xmlns:inkscape="http://www.inkscape.org/namespaces/inkscape"
   width="210mm"
   height="297mm"
   viewBox="0 0 210 297"
   version="1.1"
   id="svg8"
   inkscape:version="0.92.1 r15371"
   sodipodi:docname="deep_breathe_splash.svg"
   inkscape:export-filename="C:\Users\Myself\Dropbox\Schoolwork\School\COSC3P99\Images\deep_breathe_splash.png"
   inkscape:export-xdpi="96"
   inkscape:export-ydpi="96">
  <defs
     id="defs2" />
  <sodipodi:namedview
     id="base"
     pagecolor="#ffffff"
     bordercolor="#666666"
     borderopacity="1.0"
     inkscape:pageopacity="0.0"
     inkscape:pageshadow="2"
     inkscape:zoom="0.35355339"
     inkscape:cx="261.85039"
     inkscape:cy="523.3711"
     inkscape:document-units="mm"
     inkscape:current-layer="layer1"
     showgrid="false"
     inkscape:window-width="1366"
     inkscape:window-height="705"
     inkscape:window-x="-8"
     inkscape:window-y="-8"
     inkscape:window-maximized="1" />
  <metadata
     id="metadata5">
    <rdf:RDF>
      <cc:Work
         rdf:about="">
        <dc:format>image/svg+xml</dc:format>
        <dc:type
           rdf:resource="http://purl.org/dc/dcmitype/StillImage" />
        <dc:title></dc:title>
      </cc:Work>
    </rdf:RDF>
  </metadata>
  <g
     inkscape:label="Layer 1"
     inkscape:groupmode="layer"
     id="layer1"
     style="display:inline">
    <rect
       style="fill:#99ff55;stroke-width:1.2;stroke-miterlimit:4;stroke-dasharray:none"
       id="rect3697"
       width="214.29349"
       height="300.15897"
       x="-1.1149344"
       y="-1.6470467"
       ry="0"
       inkscape:export-xdpi="96"
       inkscape:export-ydpi="96" />
    <path
       style="display:inline;fill:#aaffee;stroke:#000000;stroke-width:1.20000005;stroke-miterlimit:4;stroke-dasharray:none"
       d="m 135.78319,131.91478 c 8.67428,-6.78885 8.2297,-23.5107 9.131,-32.155807 0,0 13.36555,-0.27116 25.16464,-0.27116 2.27573,-10.66405 2.92242,-36.822732 -16.4297,-62.698133 C 139.74351,18.196699 118.12869,8.1000762 103.81443,8.1000752 69.579354,8.1000732 41.826341,39.594861 41.826338,73.829942 c -2e-6,25.776771 15.733467,47.878788 38.120979,57.226638 l -1.102808,38.18858 h 10e-7 -25.390607 c -13.029924,0 -23.519718,10.48979 -23.519718,23.51971 v 82.31901 c 0,13.02993 10.489794,23.51972 23.519718,23.51972 H 168.3798 c 13.02992,0 23.51972,-10.48979 23.51972,-23.51972 v -82.31901 c 0,-13.02992 -10.4898,-23.51971 -23.51972,-23.51971 h -55.59206 l -1.28451,-33.2727 c 8.88063,0.21263 18.87851,0.16971 24.27996,-4.05768 z"
       id="path5008"
       inkscape:connector-curvature="0"
       sodipodi:nodetypes="sscssscccssssssssccs" />
    <path
       style="fill:#ffffff;stroke:#000000;stroke-width:1.20000005;stroke-miterlimit:4;stroke-dasharray:none"
       d="m 127.68674,64.637745 c 5.09253,3.476162 8.5717,9.413101 9.54945,13.311905 -3.30729,4.545933 -8.45137,6.330533 -18.06071,6.330533 -9.60934,0 -13.87552,-1.97834 -17.97656,-6.788853 1.17068,-3.118354 4.15244,-8.466481 8.57471,-12.032905"
       id="path611"
       inkscape:connector-curvature="0" />
    <path
       style="display:inline;fill:#000000;stroke:#000000;stroke-width:1.20000005;stroke-linecap:butt;stroke-linejoin:miter;stroke-miterlimit:4;stroke-dasharray:none;stroke-opacity:1"
       d="m 118.72468,84.292753 c 4.11154,-0.2962 5.18913,-2.1142 6.4415,-4.809929 1.36465,-2.937416 2.52556,-9.65945 2.52056,-14.845079 v 0 c -2.48683,-1.697508 -5.36548,-2.80086 -8.51835,-2.800859 -3.59643,10e-7 -6.75681,1.495746 -9.40185,3.628887 v 0 c -0.0889,5.250172 1.15199,11.404427 2.51664,14.218697 1.25237,2.582713 2.32996,4.324503 6.4415,4.608283"
       id="path56-0"
       inkscape:connector-curvature="0"
       sodipodi:nodetypes="csccsccsc" />
    <path
       style="fill:none;stroke:#000000;stroke-width:1.20000005;stroke-linecap:butt;stroke-linejoin:miter;stroke-miterlimit:4;stroke-dasharray:none;stroke-opacity:1"
       d="m 142.875,117.95363 c 0,0 -12.91475,0.63951 -19.18738,-1.22985 -2.25349,-0.67158 -2.73996,-6.57536 -2.73996,-6.57536"
       id="path79"
       inkscape:connector-curvature="0"
       sodipodi:nodetypes="csc" />
    <rect
       style="opacity:1;fill:#ff6600;stroke:#000000;stroke-width:1.10508931;stroke-miterlimit:4;stroke-dasharray:none"
       id="rect5088"
       width="215.42361"
       height="43.804306"
       x="-2.2450638"
       y="254.70763" />
    <g
       aria-label="  DEEP
BREATHE"
       transform="scale(0.26458333)"
       style="font-style:normal;font-variant:normal;font-weight:bold;font-stretch:normal;font-size:96px;line-height:1.25;font-family:'MS Sans Serif';-inkscape-font-specification:'MS Sans Serif Bold';letter-spacing:0px;word-spacing:0px;fill:#000000;fill-opacity:1;stroke:none"
       id="flowRoot5090">
      <path
         d="m 260.60937,727.11328 v 42.70313 h 6.46875 q 11.0625,0 16.875,-5.48438 5.85938,-5.48437 5.85938,-15.9375 0,-10.40625 -5.8125,-15.84375 -5.8125,-5.4375 -16.92188,-5.4375 z M 242.5625,713.47266 h 19.03125 q 15.9375,0 23.71875,2.29687 7.82812,2.25 13.40625,7.6875 4.92187,4.73438 7.3125,10.92188 2.39062,6.1875 2.39062,14.01562 0,7.92188 -2.39062,14.15625 -2.39063,6.1875 -7.3125,10.92188 -5.625,5.4375 -13.5,7.73437 -7.875,2.25 -23.625,2.25 H 242.5625 Z"
         style=""
         id="path5100" />
      <path
         d="m 322.25,713.47266 h 48.70312 v 13.64062 h -30.65625 v 13.03125 H 369.125 v 13.64063 h -28.82813 v 16.03125 h 31.6875 v 13.64062 H 322.25 Z"
         style=""
         id="path5102" />
      <path
         d="m 387.875,713.47266 h 48.70312 v 13.64062 h -30.65625 v 13.03125 H 434.75 v 13.64063 h -28.82813 v 16.03125 h 31.6875 v 13.64062 H 387.875 Z"
         style=""
         id="path5104" />
      <path
         d="m 453.5,713.47266 h 29.95312 q 13.35938,0 20.48438,5.95312 7.17187,5.90625 7.17187,16.875 0,11.01563 -7.17187,16.96875 -7.125,5.90625 -20.48438,5.90625 h -11.90625 v 24.28125 H 453.5 Z m 18.04687,13.07812 v 19.54688 h 9.98438 q 5.25,0 8.10937,-2.53125 2.85938,-2.57813 2.85938,-7.26563 0,-4.6875 -2.85938,-7.21875 -2.85937,-2.53125 -8.10937,-2.53125 z"
         style=""
         id="path5106" />
      <path
         d="m 203.84375,860.56641 q 4.26562,0 6.46875,-1.875 2.20312,-1.875 2.20312,-5.53125 0,-3.60938 -2.20312,-5.48438 -2.20313,-1.92187 -6.46875,-1.92187 h -9.98438 v 14.8125 z m 0.60937,30.60937 q 5.4375,0 8.15625,-2.29687 2.76563,-2.29688 2.76563,-6.9375 0,-4.54688 -2.71875,-6.79688 -2.71875,-2.29687 -8.20313,-2.29687 h -10.59375 v 18.32812 z m 16.78125,-25.17187 q 5.8125,1.6875 9,6.23437 3.1875,4.54688 3.1875,11.15625 0,10.125 -6.84375,15.09375 -6.84375,4.96875 -20.8125,4.96875 H 175.8125 v -69.98437 h 27.09375 q 14.57812,0 21.09375,4.40625 6.5625,4.40625 6.5625,14.10937 0,5.10938 -2.39063,8.71875 -2.39062,3.5625 -6.9375,5.29688 z"
         style=""
         id="path5108" />
      <path
         d="m 274.57812,864.50391 q 5.67188,0 8.10938,-2.10938 2.48437,-2.10937 2.48437,-6.9375 0,-4.78125 -2.48437,-6.84375 -2.4375,-2.0625 -8.10938,-2.0625 h -7.59375 v 17.95313 z m -7.59375,12.46875 v 26.48437 H 248.9375 V 833.47266 H 276.5 q 13.82812,0 20.25,4.64062 6.46875,4.64063 6.46875,14.67188 0,6.9375 -3.375,11.39062 -3.32813,4.45313 -10.07813,6.5625 3.70313,0.84375 6.60938,3.84375 2.95312,2.95313 5.95312,9 l 9.79688,19.875 H 292.90625 L 284.375,886.06641 q -2.57813,-5.25 -5.25,-7.17188 -2.625,-1.92187 -7.03125,-1.92187 z"
         style=""
         id="path5110" />
      <path
         d="m 322.8125,833.47266 h 48.70312 v 13.64062 h -30.65625 v 13.03125 h 28.82813 v 13.64063 h -28.82813 v 16.03125 h 31.6875 v 13.64062 H 322.8125 Z"
         style=""
         id="path5112" />
      <path
         d="M 430.90625,890.70703 H 402.6875 l -4.45313,12.75 h -18.14062 l 25.92187,-69.98437 h 21.51563 l 25.92187,69.98437 H 435.3125 Z M 407.1875,877.72266 h 19.17187 l -9.5625,-27.84375 z"
         style=""
         id="path5114" />
      <path
         d="m 446.84375,833.47266 h 64.5 v 13.64062 h -23.20313 v 56.34375 h -18.04687 v -56.34375 h -23.25 z"
         style=""
         id="path5116" />
      <path
         d="m 520.625,833.47266 h 18.04687 v 26.67187 h 26.625 v -26.67187 h 18.04688 v 69.98437 h -18.04688 v -29.67187 h -26.625 v 29.67187 H 520.625 Z"
         style=""
         id="path5118" />
      <path
         d="m 601.0625,833.47266 h 48.70312 v 13.64062 h -30.65625 v 13.03125 h 28.82813 v 13.64063 h -28.82813 v 16.03125 h 31.6875 v 13.64062 H 601.0625 Z"
         style=""
         id="path5120" />
    </g>
  </g>
</svg>
