<?xml version="1.0" encoding="UTF-8" standalone="no"?>
<!-- Created with Inkscape (http://www.inkscape.org/) -->

<svg
   xmlns:dc="http://purl.org/dc/elements/1.1/"
   xmlns:cc="http://creativecommons.org/ns#"
   xmlns:rdf="http://www.w3.org/1999/02/22-rdf-syntax-ns#"
   xmlns:svg="http://www.w3.org/2000/svg"
   xmlns="http://www.w3.org/2000/svg"
   xmlns:sodipodi="http://sodipodi.sourceforge.net/DTD/sodipodi-0.dtd"
   xmlns:inkscape="http://www.inkscape.org/namespaces/inkscape"
   width="71.157829mm"
   height="50.269611mm"
   viewBox="0 0 71.157829 50.269611"
   version="1.1"
   id="svg4624"
   inkscape:version="0.92.1 r15371"
   sodipodi:docname="logo.svg">
  <defs
     id="defs4618" />
  <sodipodi:namedview
     id="base"
     pagecolor="#ffffff"
     bordercolor="#666666"
     borderopacity="1.0"
     inkscape:pageopacity="0.0"
     inkscape:pageshadow="2"
     inkscape:zoom="0.7"
     inkscape:cx="396.32958"
     inkscape:cy="-160.9557"
     inkscape:document-units="mm"
     inkscape:current-layer="layer1"
     showgrid="false"
     inkscape:window-width="1366"
     inkscape:window-height="705"
     inkscape:window-x="-8"
     inkscape:window-y="-8"
     inkscape:window-maximized="1" />
  <metadata
     id="metadata4621">
    <rdf:RDF>
      <cc:Work
         rdf:about="">
        <dc:format>image/svg+xml</dc:format>
        <dc:type
           rdf:resource="http://purl.org/dc/dcmitype/StillImage" />
        <dc:title />
      </cc:Work>
    </rdf:RDF>
  </metadata>
  <g
     inkscape:label="Layer 1"
     inkscape:groupmode="layer"
     id="layer1"
     transform="translate(-2.0297113,-1.2342486)">
    <g
       id="g5302"
       transform="translate(-15.119048,-132.29166)">
      <path
         inkscape:connector-curvature="0"
         id="path4589"
         style="font-style:normal;font-variant:normal;font-weight:bold;font-stretch:normal;font-size:medium;line-height:1.25;font-family:sans-serif;-inkscape-font-specification:'sans-serif Bold';text-align:center;letter-spacing:0px;word-spacing:0px;text-anchor:middle;fill:#000000;fill-opacity:1;stroke:none;stroke-width:0.26458332"
         d="m 49.474737,147.7006 1.076191,3.58731 q -1.654157,0.0415 -3.144809,0.35694 -1.490652,0.31549 -2.730913,0.87847 -1.645732,0.74702 -2.303404,1.53568 -0.657675,0.78867 -0.38522,1.69685 0.20434,0.68113 0.844857,0.82893 0.649041,0.13103 2.12607,-0.22987 l 2.068182,-0.51315 q 3.139755,-0.78028 4.73932,-0.19074 1.599565,0.58954 2.239827,2.72376 0.841203,2.80401 -0.499771,4.97339 -1.332455,2.1526 -4.922055,3.78199 -1.693434,0.76868 -3.490746,1.23626 -1.797311,0.46758 -3.683169,0.64001 l -1.106842,-3.68948 q 1.964187,0.0887 3.683111,-0.18856 1.727444,-0.29399 3.206216,-0.96523 1.502621,-0.68207 2.1586,-1.52154 0.655976,-0.83949 0.390332,-1.72498 -0.238395,-0.79464 -0.916387,-0.97702 -0.66607,-0.18779 -2.390116,0.20784 l -1.8893,0.43195 q -2.834804,0.66766 -4.43266,0.0387 -1.585931,-0.63442 -2.192139,-2.65513 -0.759464,-2.53155 0.54914,-4.67333 1.308603,-2.14178 4.528511,-3.60336 1.466847,-0.66583 3.08188,-1.15386 1.611627,-0.49938 3.395294,-0.83178 z" />
      <g
         transform="translate(6.4255952,-15.119048)"
         id="g5270">
        <path
           style="fill:none;stroke:#ff2a7f;stroke-width:2;stroke-linecap:butt;stroke-linejoin:miter;stroke-miterlimit:4;stroke-dasharray:none;stroke-opacity:1"
           d="m 26.539038,165.38112 c -6.921455,14.89983 -0.515049,21.99508 8.303347,27.6779"
           id="path4520"
           inkscape:connector-curvature="0"
           sodipodi:nodetypes="cc" />
        <path
           style="fill:none;stroke:#000000;stroke-width:2;stroke-linecap:butt;stroke-linejoin:miter;stroke-miterlimit:4;stroke-dasharray:none;stroke-opacity:1"
           d="m 14.640805,170.39609 c -6.9214557,14.89984 -0.51505,21.99508 8.303347,27.6779"
           id="path4520-4"
           inkscape:connector-curvature="0"
           sodipodi:nodetypes="cc" />
        <path
           style="fill:none;stroke:#00ccff;stroke-width:2;stroke-linecap:butt;stroke-linejoin:miter;stroke-miterlimit:4;stroke-dasharray:none;stroke-opacity:1"
           d="m 21.079047,167.08056 c -6.921457,14.89984 -0.515051,21.99508 8.303346,27.6779"
           id="path4520-5"
           inkscape:connector-curvature="0"
           sodipodi:nodetypes="cc" />
      </g>
      <g
         transform="translate(-106.58929,38.553571)"
         id="g5275">
        <path
           style="fill:none;stroke:#ff2a7f;stroke-width:2;stroke-linecap:butt;stroke-linejoin:miter;stroke-miterlimit:4;stroke-dasharray:none;stroke-opacity:1"
           d="m 171.43019,101.58133 c 13.1307,5.79777 12.00688,16.31113 8.30334,27.6779"
           id="path4520-1"
           inkscape:connector-curvature="0"
           sodipodi:nodetypes="cc" />
        <path
           style="fill:none;stroke:#000000;stroke-width:2;stroke-linecap:butt;stroke-linejoin:miter;stroke-miterlimit:4;stroke-dasharray:none;stroke-opacity:1"
           d="m 183.12465,95.887132 c 13.13072,5.797758 12.00689,16.311128 8.30335,27.677888"
           id="path4520-4-1"
           inkscape:connector-curvature="0"
           sodipodi:nodetypes="cc" />
        <path
           style="fill:none;stroke:#00ccff;stroke-width:2;stroke-linecap:butt;stroke-linejoin:miter;stroke-miterlimit:4;stroke-dasharray:none;stroke-opacity:1"
           d="m 176.47883,98.510702 c 13.13072,5.797768 12.00688,16.311138 8.30335,27.677898"
           id="path4520-5-3"
           inkscape:connector-curvature="0"
           sodipodi:nodetypes="cc" />
      </g>
      <path
         inkscape:connector-curvature="0"
         id="path4589-2"
         style="font-style:normal;font-variant:normal;font-weight:bold;font-stretch:normal;font-size:medium;line-height:1.25;font-family:sans-serif;-inkscape-font-specification:'sans-serif Bold';text-align:center;letter-spacing:0px;word-spacing:0px;text-anchor:middle;fill:#000000;fill-opacity:1;stroke:none;stroke-width:0.26458332"
         d="m 65.477771,145.73994 1.076191,3.58731 q -1.654157,0.0415 -3.144809,0.35694 -1.490652,0.31549 -2.730913,0.87847 -1.645732,0.74702 -2.303404,1.53568 -0.657675,0.78867 -0.38522,1.69685 0.20434,0.68113 0.844857,0.82893 0.649041,0.13103 2.12607,-0.22987 l 2.068182,-0.51315 q 3.139755,-0.78028 4.73932,-0.19074 1.599565,0.58954 2.239827,2.72376 0.841203,2.80401 -0.499771,4.97339 -1.332455,2.1526 -4.922055,3.78199 -1.693434,0.76868 -3.490746,1.23626 -1.797311,0.46758 -3.683169,0.64001 l -1.106842,-3.68948 q 1.964187,0.0887 3.683111,-0.18856 1.727444,-0.29399 3.206216,-0.96523 1.502621,-0.68207 2.1586,-1.52154 0.655976,-0.83949 0.390332,-1.72498 -0.238395,-0.79464 -0.916387,-0.97702 -0.66607,-0.18779 -2.390116,0.20784 l -1.8893,0.43195 q -2.834804,0.66766 -4.43266,0.0387 -1.585931,-0.63442 -2.192139,-2.65513 -0.759464,-2.53155 0.54914,-4.67333 1.308603,-2.14178 4.528511,-3.60336 1.466847,-0.66583 3.08188,-1.15386 1.611627,-0.49938 3.395294,-0.83178 z" />
    </g>
  </g>
</svg>
