<?xml version="1.0" encoding="UTF-8" standalone="no"?>
<!-- Created with Inkscape (http://www.inkscape.org/) -->

<svg
   xmlns:dc="http://purl.org/dc/elements/1.1/"
   xmlns:cc="http://creativecommons.org/ns#"
   xmlns:rdf="http://www.w3.org/1999/02/22-rdf-syntax-ns#"
   xmlns:svg="http://www.w3.org/2000/svg"
   xmlns="http://www.w3.org/2000/svg"
   xmlns:sodipodi="http://sodipodi.sourceforge.net/DTD/sodipodi-0.dtd"
   xmlns:inkscape="http://www.inkscape.org/namespaces/inkscape"
   width="310mm"
   height="297mm"
   viewBox="0 0 310 297"
   version="1.1"
   id="svg1821"
   inkscape:version="0.92.2 (5c3e80d, 2017-08-06)"
   sodipodi:docname="q_mark.svg">
  <defs
     id="defs1815" />
  <sodipodi:namedview
     id="base"
     pagecolor="#ffffff"
     bordercolor="#666666"
     borderopacity="1.0"
     inkscape:pageopacity="0.0"
     inkscape:pageshadow="2"
     inkscape:zoom="0.35"
     inkscape:cx="-64.285714"
     inkscape:cy="560"
     inkscape:document-units="mm"
     inkscape:current-layer="layer1"
     showgrid="false"
     inkscape:window-width="1440"
     inkscape:window-height="838"
     inkscape:window-x="-8"
     inkscape:window-y="-8"
     inkscape:window-maximized="1" />
  <metadata
     id="metadata1818">
    <rdf:RDF>
      <cc:Work
         rdf:about="">
        <dc:format>image/svg+xml</dc:format>
        <dc:type
           rdf:resource="http://purl.org/dc/dcmitype/StillImage" />
        <dc:title></dc:title>
      </cc:Work>
    </rdf:RDF>
  </metadata>
  <g
     inkscape:label="Layer 1"
     inkscape:groupmode="layer"
     id="layer1">
    <path
       inkscape:connector-curvature="0"
       id="path1827-7-1"
       style="font-style:normal;font-weight:normal;font-size:50.79999924px;line-height:17.25;font-family:sans-serif;letter-spacing:0px;word-spacing:0px;fill:#e20000;fill-opacity:1;stroke:#000000;stroke-width:1.92598259;stroke-miterlimit:4;stroke-dasharray:none;stroke-opacity:1"
       d="M 142.60161,139.92468 H 156.278 v 17.11233 h -13.67639 z m 13.27216,-9.9036 h -12.86794 v -10.37519 q 0,-6.80451 1.8864,-11.18364 1.88641,-4.37915 7.94982,-10.173091 l 6.06343,-5.99605 q 3.84017,-3.57068 5.52446,-6.73714 1.75166,-3.16646 1.75166,-6.46766 0,-5.99605 -4.44652,-9.70146 -4.37914,-3.70543 -11.65524,-3.70543 -5.32235,0 -11.38578,2.358 -5.99605,2.358 -12.53107,6.87186 v -12.6658 q 6.33291,-3.84016 12.80057,-5.72656 6.53503,-1.8864 13.47426,-1.8864 12.39635,0 19.87456,6.53503 7.5456,6.53503 7.5456,17.24705 0,5.12023 -2.42536,9.76886 -2.42538,4.58125 -8.48879,10.37518 l -5.92868,5.793951 q -3.16647,3.16646 -4.5139,4.9855 -1.28006,1.75164 -1.81902,3.43593 -0.40423,1.4148 -0.60634,3.43594 -0.20211,2.02114 -0.20211,5.52445 z" />
  </g>
</svg>
