<?xml version="1.0" encoding="UTF-8" standalone="no"?>
<!-- Created with Inkscape (http://www.inkscape.org/) -->

<svg
   xmlns:dc="http://purl.org/dc/elements/1.1/"
   xmlns:cc="http://creativecommons.org/ns#"
   xmlns:rdf="http://www.w3.org/1999/02/22-rdf-syntax-ns#"
   xmlns:svg="http://www.w3.org/2000/svg"
   xmlns="http://www.w3.org/2000/svg"
   xmlns:sodipodi="http://sodipodi.sourceforge.net/DTD/sodipodi-0.dtd"
   xmlns:inkscape="http://www.inkscape.org/namespaces/inkscape"
   width="210mm"
   height="297mm"
   viewBox="0 0 210 297"
   version="1.1"
   id="svg1821"
   inkscape:version="0.92.1 r15371"
   sodipodi:docname="q_mark.svg">
  <defs
     id="defs1815" />
  <sodipodi:namedview
     id="base"
     pagecolor="#ffffff"
     bordercolor="#666666"
     borderopacity="1.0"
     inkscape:pageopacity="0.0"
     inkscape:pageshadow="2"
     inkscape:zoom="0.35"
     inkscape:cx="-64.285714"
     inkscape:cy="560"
     inkscape:document-units="mm"
     inkscape:current-layer="layer1"
     showgrid="false"
     inkscape:window-width="1366"
     inkscape:window-height="705"
     inkscape:window-x="-8"
     inkscape:window-y="-8"
     inkscape:window-maximized="1" />
  <metadata
     id="metadata1818">
    <rdf:RDF>
      <cc:Work
         rdf:about="">
        <dc:format>image/svg+xml</dc:format>
        <dc:type
           rdf:resource="http://purl.org/dc/dcmitype/StillImage" />
        <dc:title></dc:title>
      </cc:Work>
    </rdf:RDF>
  </metadata>
  <g
     inkscape:label="Layer 1"
     inkscape:groupmode="layer"
     id="layer1">
    <path
       inkscape:connector-curvature="0"
       id="path1827"
       style="font-style:normal;font-weight:normal;font-size:50.79999924px;line-height:17.25;font-family:sans-serif;letter-spacing:0px;word-spacing:0px;fill:#e20000;fill-opacity:1;stroke:#000000;stroke-width:2.074;stroke-opacity:1;stroke-miterlimit:4;stroke-dasharray:none"
       d="m 88.628019,173.49516 h 14.727461 v 18.42746 H 88.628019 Z M 102.92018,162.83045 H 89.063313 V 151.6579 q 0,-7.32747 2.031375,-12.04315 2.031373,-4.71569 8.560787,-10.95491 l 6.529415,-6.45686 q 4.13529,-3.8451 5.94902,-7.25491 1.88628,-3.4098 1.88628,-6.96471 0,-6.45686 -4.78824,-10.447053 -4.71569,-3.990198 -12.550985,-3.990198 -5.731377,0 -12.260791,2.539217 -6.456865,2.539216 -13.49412,7.399994 V 89.846108 q 6.819608,-4.135295 13.784317,-6.166667 7.037258,-2.031376 14.50981,-2.031376 13.349019,0 21.401969,7.037259 8.12549,7.037258 8.12549,18.572546 0,5.51373 -2.61176,10.51962 -2.61177,4.93333 -9.14118,11.17255 l -6.38432,6.23921 q -3.40981,3.40981 -4.86079,5.36864 -1.37843,1.88627 -1.95882,3.7 -0.43529,1.52354 -0.65294,3.70001 -0.21764,2.17647 -0.21764,5.94901 z" />
  </g>
</svg>
