<?xml version="1.0" encoding="UTF-8" standalone="no"?>
<!-- Created with Inkscape (http://www.inkscape.org/) -->

<svg
   xmlns:dc="http://purl.org/dc/elements/1.1/"
   xmlns:cc="http://creativecommons.org/ns#"
   xmlns:rdf="http://www.w3.org/1999/02/22-rdf-syntax-ns#"
   xmlns:svg="http://www.w3.org/2000/svg"
   xmlns="http://www.w3.org/2000/svg"
   xmlns:sodipodi="http://sodipodi.sourceforge.net/DTD/sodipodi-0.dtd"
   xmlns:inkscape="http://www.inkscape.org/namespaces/inkscape"
   width="210mm"
   height="297mm"
   viewBox="0 0 210 297"
   version="1.1"
   id="svg1821"
   inkscape:version="0.92.2 (5c3e80d, 2017-08-06)"
   sodipodi:docname="q_mark.svg">
  <defs
     id="defs1815" />
  <sodipodi:namedview
     id="base"
     pagecolor="#ffffff"
     bordercolor="#666666"
     borderopacity="1.0"
     inkscape:pageopacity="0.0"
     inkscape:pageshadow="2"
     inkscape:zoom="0.35"
     inkscape:cx="-64.285714"
     inkscape:cy="560"
     inkscape:document-units="mm"
     inkscape:current-layer="layer1"
     showgrid="false"
     inkscape:window-width="1440"
     inkscape:window-height="838"
     inkscape:window-x="-8"
     inkscape:window-y="-8"
     inkscape:window-maximized="1" />
  <metadata
     id="metadata1818">
    <rdf:RDF>
      <cc:Work
         rdf:about="">
        <dc:format>image/svg+xml</dc:format>
        <dc:type
           rdf:resource="http://purl.org/dc/dcmitype/StillImage" />
        <dc:title />
      </cc:Work>
    </rdf:RDF>
  </metadata>
  <g
     inkscape:label="Layer 1"
     inkscape:groupmode="layer"
     id="layer1">
    <path
       inkscape:connector-curvature="0"
       id="path1827-7"
       style="font-style:normal;font-weight:normal;font-size:50.79999924px;line-height:17.25;font-family:sans-serif;letter-spacing:0px;word-spacing:0px;fill:#e20000;fill-opacity:1;stroke:#000000;stroke-width:1.46219575;stroke-miterlimit:4;stroke-dasharray:none;stroke-opacity:1"
       d="M 98.211208,160.27731 H 108.59425 V 173.2689 H 98.211208 Z m 10.076152,-7.51876 h -9.769272 v -7.87679 q 0,-5.16595 1.43215,-8.49056 1.432142,-3.32462 6.035462,-7.72335 l 4.60332,-4.55217 q 2.91543,-2.71084 4.19413,-5.1148 1.32986,-2.40396 1.32986,-4.91021 0,-4.55217 -3.37577,-7.3653 -3.32462,-2.81314 -8.84861,-2.81314 -4.040692,0 -8.644012,1.79018 -4.55217,1.79018 -9.51352,5.21708 v -9.61581 q 4.80791,-2.915436 9.71812,-4.347576 4.961352,-1.43215 10.229592,-1.43215 9.41123,0 15.08866,4.961366 5.72857,4.96136 5.72857,13.09387 0,3.88725 -1.84132,7.41647 -1.84133,3.47806 -6.44465,7.87678 l -4.50102,4.39873 q -2.40396,2.40396 -3.42692,3.78496 -0.97181,1.32984 -1.38099,2.60854 -0.30689,1.07411 -0.46033,2.60855 -0.15344,1.53444 -0.15344,4.19413 z" />
  </g>
</svg>
