<?xml version="1.0" encoding="UTF-8" standalone="no"?>
<!-- Created with Inkscape (http://www.inkscape.org/) -->

<svg
   xmlns:dc="http://purl.org/dc/elements/1.1/"
   xmlns:cc="http://creativecommons.org/ns#"
   xmlns:rdf="http://www.w3.org/1999/02/22-rdf-syntax-ns#"
   xmlns:svg="http://www.w3.org/2000/svg"
   xmlns="http://www.w3.org/2000/svg"
   xmlns:sodipodi="http://sodipodi.sourceforge.net/DTD/sodipodi-0.dtd"
   xmlns:inkscape="http://www.inkscape.org/namespaces/inkscape"
   width="210mm"
   height="297mm"
   viewBox="0 0 210 297"
   version="1.1"
   id="svg4578"
   inkscape:version="0.92.1 r15371"
   sodipodi:docname="script_instructions.svg">
  <defs
     id="defs4572" />
  <sodipodi:namedview
     id="base"
     pagecolor="#ffffff"
     bordercolor="#666666"
     borderopacity="1.0"
     inkscape:pageopacity="0.0"
     inkscape:pageshadow="2"
     inkscape:zoom="0.35"
     inkscape:cx="-64.285714"
     inkscape:cy="560"
     inkscape:document-units="mm"
     inkscape:current-layer="layer2"
     showgrid="false"
     inkscape:window-width="1366"
     inkscape:window-height="705"
     inkscape:window-x="-8"
     inkscape:window-y="-8"
     inkscape:window-maximized="1" />
  <metadata
     id="metadata4575">
    <rdf:RDF>
      <cc:Work
         rdf:about="">
        <dc:format>image/svg+xml</dc:format>
        <dc:type
           rdf:resource="http://purl.org/dc/dcmitype/StillImage" />
        <dc:title></dc:title>
      </cc:Work>
    </rdf:RDF>
  </metadata>
  <g
     inkscape:label="Layer 1"
     inkscape:groupmode="layer"
     id="layer1">
    <rect
       style="opacity:1;fill:#ffdd55;fill-opacity:1;stroke:#000000;stroke-width:2;stroke-miterlimit:4;stroke-dasharray:none;stroke-opacity:1"
       id="rect5222"
       width="286.50595"
       height="124.73214"
       x="-34.017857"
       y="-31.839287" />
    <rect
       style="opacity:1;fill:#800000;fill-opacity:1;stroke:#000000;stroke-width:2;stroke-miterlimit:4;stroke-dasharray:none;stroke-opacity:1"
       id="rect5224"
       width="315.9881"
       height="241.1488"
       x="-49.136902"
       y="80.797615" />
  </g>
  <g
     inkscape:groupmode="layer"
     id="layer2"
     inkscape:label="Layer 2"
     style="display:inline">
    <rect
       style="fill:#ffffff;fill-opacity:1;stroke:#000000;stroke-width:2;stroke-miterlimit:4;stroke-dasharray:none;stroke-opacity:1"
       id="rect5875"
       width="187.47618"
       height="180.67261"
       x="10.583338"
       y="117.46131" />
    <rect
       style="fill:#87decd;fill-opacity:1;stroke:#87decd;stroke-width:1.99730265;stroke-miterlimit:4;stroke-dasharray:none;stroke-opacity:1"
       id="rect5889"
       width="2.267858"
       height="178.6778"
       x="30.994053"
       y="119.45614" />
    <rect
       style="fill:#87decd;fill-opacity:1;stroke:#87decd;stroke-width:1.9882853;stroke-miterlimit:4;stroke-dasharray:none;stroke-opacity:1"
       id="rect5891"
       width="183.53398"
       height="2.2710471"
       x="12.542751"
       y="156.48575" />
    <g
       aria-label="Read out the message
one word at a time"
       style="font-style:normal;font-variant:normal;font-weight:normal;font-stretch:normal;font-size:25.39999962px;line-height:1.25;font-family:'Freestyle Script';-inkscape-font-specification:'Freestyle Script';text-align:center;letter-spacing:0px;word-spacing:0px;text-anchor:middle;fill:#000000;fill-opacity:1;stroke:none;stroke-width:0.26458332"
       id="text5199">
      <path
         d="m 37.403694,26.748205 q -1.624707,3.150195 -2.257227,5.035351 -0.37207,1.091407 -0.508496,1.21543 -0.173633,0.173633 -0.533301,0.173633 -0.297656,0 -0.458886,-0.198438 -0.148829,-0.186035 -0.148829,-0.384472 0,-0.58291 1.116211,-3.100586 0.79375,-1.810742 2.108399,-4.117578 -0.173633,-0.570508 -0.173633,-0.868164 0,-0.42168 0.322461,-0.669727 0.16123,-0.124023 0.347265,-0.124023 0.173633,0 0.446485,0.124023 0.186035,-0.322461 1.37666,-2.368847 1.066602,-2.071192 1.178223,-2.43086 -0.334864,0.148828 -0.533301,0.260449 -0.21084,0.111622 -0.334863,0.111622 -0.161231,0 -0.272852,-0.173633 -0.08682,-0.136426 -0.08682,-0.310059 0,-0.620117 0.830957,-1.091406 0.58291,-0.334863 1.141015,-0.558106 0.161231,-0.58291 0.260449,-0.768945 0.173633,-0.334863 0.558106,-0.334863 0.42168,0 0.731738,0.471289 0.58291,-0.173633 1.103809,-0.260449 0.533301,-0.08682 1.00459,-0.08682 1.438671,0 2.182812,0.818555 0.706934,0.781348 0.706934,1.897559 0,1.823144 -1.42627,3.447851 -1.339453,1.513086 -3.571875,2.319238 -1.711523,0.620117 -3.373437,0.620117 -0.285254,0 -0.868164,-0.03721 0.198437,0.756543 0.5333,1.513086 0.582911,1.227832 1.661914,3.522266 0.310059,0.607715 1.016993,1.736328 0.186035,0.297656 0.186035,0.545703 0,0.235645 -0.272852,0.446484 -0.285254,0.198438 -0.483691,0.198438 -0.310059,0 -0.657324,-0.657324 Q 40.0826,32.354064 39.822151,31.895177 38.86717,30.32008 37.403694,26.748205 Z m 1.513086,-2.678906 q 0.471289,0.0248 0.706933,0.0248 2.567285,0 4.799707,-1.798339 0.979785,-0.79375 1.5875,-1.835547 0.384473,-0.644922 0.384473,-1.364258 0,-0.731738 -0.471289,-1.091406 -0.458887,-0.372071 -1.389063,-0.372071 -0.843359,0 -1.699121,0.322461 -0.334863,0.124024 -0.95498,0.409278 -0.434082,0.992187 -1.413868,2.877343 -0.979785,1.872754 -1.550292,2.827735 z"
         style="text-align:center;text-anchor:middle;stroke-width:0.26458332"
         id="path5274" />
      <path
         d="m 45.328791,29.823986 v 0.223242 q 0,0.272852 0.136426,0.471289 0.310059,0.458887 1.016992,0.458887 1.550293,0 3.584278,-2.38125 0.359668,-0.409277 0.607714,-0.409277 0.136426,0 0.248047,0.136426 0.07441,0.09922 0.07441,0.186035 0,0.483691 -1.190625,1.637109 -0.930175,0.905371 -1.984375,1.475879 -1.054199,0.570508 -1.95957,0.570508 -0.930176,0 -1.463476,-0.644922 -0.359668,-0.446485 -0.359668,-1.21543 0,-2.095996 1.971972,-4.105176 1.599903,-1.637109 2.790528,-1.637109 0.32246,0 0.58291,0.198438 0.322461,0.260449 0.322461,0.682129 0,0.657324 -0.607715,1.612304 -1.252637,1.984375 -3.770313,2.740918 z m 0.272852,-0.967383 q 0.868164,-0.297656 1.364258,-0.669726 0.868164,-0.669727 1.37666,-1.513086 0.186035,-0.297656 0.186035,-0.533301 0,-0.248047 -0.235645,-0.248047 -0.32246,0 -0.917773,0.483692 -1.066602,0.855761 -1.773535,2.480468 z"
         style="text-align:center;text-anchor:middle;stroke-width:0.26458332"
         id="path5276" />
      <path
         d="m 55.00262,30.158849 q -0.409277,0.719336 -0.806152,1.21543 -0.781348,0.967383 -1.550293,0.967383 -0.669727,0 -1.041797,-0.63252 -0.235644,-0.409277 -0.235644,-0.967382 0,-1.376661 0.868164,-3.038575 0.967382,-1.847949 2.33164,-2.840136 0.892969,-0.644922 1.723926,-0.644922 0.520898,0 0.868164,0.322461 0.297656,0.285254 0.297656,0.644922 0,0.272851 -0.21084,0.756543 0.186036,0.260449 0.186036,0.458886 0,0.260449 -0.347266,0.855762 -0.359668,0.607715 -0.719336,1.612305 -0.384473,1.066601 -0.384473,1.711523 0,0.520898 0.310059,0.855762 0.08682,0.08682 0.508496,0.285254 0.310059,0.148828 0.310059,0.520898 0,0.235645 -0.173633,0.384473 -0.186035,0.16123 -0.434082,0.16123 -0.669727,0 -1.153418,-0.595312 -0.396875,-0.483692 -0.396875,-1.21543 0,-0.248047 0.04961,-0.818555 z m 1.550293,-4.080371 q -0.148828,-0.272851 -0.322461,-0.396875 -0.173633,-0.136425 -0.37207,-0.136425 -0.942578,0 -2.046387,1.649511 -1.215429,1.823145 -1.215429,3.088184 0,0.310058 0.111621,0.471289 0.124023,0.16123 0.359668,0.16123 0.595312,0 1.389062,-1.265039 0.446484,-0.694531 1.103809,-2.046386 0.434082,-0.880567 0.632519,-1.165821 0.09922,-0.148828 0.359668,-0.359668 z"
         style="text-align:center;text-anchor:middle;stroke-width:0.26458332"
         id="path5278" />
      <path
         d="m 62.952521,24.962267 q 1.240234,-2.592089 2.344043,-4.514453 1.066601,-1.860351 1.451074,-2.344043 0.42168,-0.5333 0.79375,-0.5333 0.198438,0 0.359668,0.16123 0.148828,0.161231 0.148828,0.347266 0,0.285254 -0.421679,0.95498 -1.79834,2.902149 -3.299024,5.891113 -1.736328,3.485059 -1.736328,5.221387 0,0.706934 0.272852,1.116211 0.04961,0.08682 0.446484,0.396875 0.07441,0.06201 0.07441,0.248047 0,0.248047 -0.198437,0.458887 -0.186036,0.198437 -0.42168,0.198437 -0.285254,0 -0.63252,-0.347266 -0.496093,-0.496093 -0.595312,-1.141015 -0.03721,-0.272852 -0.08682,-1.016992 -1.302246,2.344043 -2.480468,2.344043 -0.682129,0 -1.091407,-0.768946 -0.272851,-0.508496 -0.272851,-1.153418 0,-1.934765 1.413867,-3.894336 1.401465,-1.934765 3.01377,-1.934765 0.446484,0 0.917773,0.310058 z m -0.42168,1.016993 q -0.334863,-0.223243 -0.58291,-0.223243 -1.041797,0 -1.971972,1.277442 -1.227832,1.661914 -1.227832,3.212207 0,0.186035 0.07441,0.347265 0.148828,0.310059 0.446484,0.310059 0.434082,0 1.054199,-0.843359 0.830957,-1.116211 1.537891,-2.6417 0.248047,-0.520898 0.483691,-1.041796 0,0 0.111621,-0.235645 z"
         style="text-align:center;text-anchor:middle;stroke-width:0.26458332"
         id="path5280" />
      <path
         d="m 75.689729,24.205724 q 1.016992,0 1.016992,1.240235 0,1.649512 -1.525488,4.17959 -1.661914,2.740918 -3.212207,2.740918 -0.719336,0 -1.054199,-0.669727 -0.173633,-0.334863 -0.173633,-0.806152 0,-1.5875 1.091406,-3.447852 1.016992,-1.723926 2.393652,-2.678906 0.806153,-0.558106 1.463477,-0.558106 z m -1.289844,4.688086 q -0.310059,-0.248047 -0.310059,-0.384472 0,-0.09922 0.396875,-0.545703 1.116211,-1.252637 1.116211,-2.021582 0,-0.09922 -0.06201,-0.198438 -0.09922,-0.186035 -0.310059,-0.186035 -0.396875,0 -1.16582,0.768945 -0.992188,0.992188 -1.513086,2.046387 -0.607715,1.203027 -0.607715,1.996777 0,0.21084 0.111621,0.372071 0.161231,0.223242 0.409277,0.223242 0.595313,0 1.277442,-0.892969 0.297656,-0.37207 0.483691,-0.768945 0.186035,-0.396875 0.173633,-0.409278 z"
         style="text-align:center;text-anchor:middle;stroke-width:0.26458332"
         id="path5282" />
      <path
         d="m 80.216583,30.307678 q -0.533301,0.74414 -0.942578,1.190624 -0.719336,0.79375 -1.42627,0.79375 -0.607715,0 -0.942578,-0.545703 -0.235645,-0.384472 -0.235645,-0.917773 0,-1.599902 1.364258,-3.671094 0.63252,-0.967383 1.252637,-1.475879 0.483691,-0.409277 0.79375,-0.409277 0.173633,0 0.322461,0.148828 0.124023,0.136426 0.124023,0.272852 0,0.235644 -0.458886,0.768945 -1.029395,1.227832 -1.562696,2.257227 -0.620117,1.203027 -0.620117,1.885156 0,0.173633 0.07441,0.272851 0.08682,0.08682 0.235645,0.08682 0.632519,0 1.761133,-1.810742 0.58291,-0.942579 1.004589,-2.083594 0.223243,-0.620117 0.582911,-1.103809 0.347265,-0.434082 0.682128,-0.434082 0.186036,0 0.334864,0.161231 0.16123,0.173633 0.16123,0.384472 0,0.446485 -0.855762,2.00918 -0.58291,1.079004 -0.58291,1.79834 0,0.768945 0.409278,1.314648 0.111621,0.148828 0.682129,0.471289 0.272851,0.161231 0.272851,0.520899 0,0.223242 -0.198437,0.384472 -0.186036,0.161231 -0.458887,0.161231 -0.620117,0 -1.128613,-0.496094 -0.458887,-0.446484 -0.582911,-1.289844 -0.0248,-0.111621 -0.06201,-0.644921 z"
         style="text-align:center;text-anchor:middle;stroke-width:0.26458332"
         id="path5284" />
      <path
         d="m 87.943242,24.218127 q -0.806152,1.252637 -1.488281,2.802929 -0.979785,2.207618 -0.979785,3.299024 0,0.310058 0.124023,0.471289 0.136426,0.16123 0.396875,0.16123 0.620117,0 1.500684,-1.16582 0.558105,-0.719336 0.992187,-1.438672 0.235645,-0.409277 0.508496,-0.409277 0.161231,0 0.272852,0.111621 0.09922,0.111621 0.09922,0.223242 0,0.458887 -1.203028,2.046387 -1.438672,1.909961 -2.629297,1.909961 -0.632519,0 -1.054199,-0.58291 -0.260449,-0.372071 -0.260449,-1.0542 0,-1.500683 0.868164,-3.49746 0.21084,-0.496094 1.16582,-2.393653 -0.334863,0.08682 -0.508496,0.08682 -0.260449,0 -0.458886,-0.124024 -0.272852,-0.173633 -0.272852,-0.434082 0,-0.310058 0.359668,-0.496094 0.09922,-0.04961 0.917773,-0.16123 0.297657,-0.04961 0.868164,-0.235645 0.434082,-0.781347 1.413868,-2.1208 0.545703,-0.744141 0.756543,-0.967383 0.297656,-0.310059 0.520898,-0.310059 0.16123,0 0.322461,0.173633 0.148828,0.161231 0.148828,0.322461 0,0.322461 -0.694531,1.277441 -0.458887,0.620118 -0.682129,1.00459 1.37666,-0.37207 1.971973,-0.37207 0.682128,0 0.682128,0.570508 0,0.285254 -0.235644,0.421679 -0.124023,0.07441 -0.644922,0.124024 -0.21084,-0.0124 -1.872754,0.471289 -0.458887,0.136426 -0.905371,0.285254 z"
         style="text-align:center;text-anchor:middle;stroke-width:0.26458332"
         id="path5286" />
      <path
         d="m 100.49442,24.218127 q -0.806156,1.252637 -1.488285,2.802929 -0.979785,2.207618 -0.979785,3.299024 0,0.310058 0.124023,0.471289 0.136426,0.16123 0.396875,0.16123 0.620118,0 1.500682,-1.16582 0.55811,-0.719336 0.99219,-1.438672 0.23564,-0.409277 0.5085,-0.409277 0.16123,0 0.27285,0.111621 0.0992,0.111621 0.0992,0.223242 0,0.458887 -1.20303,2.046387 -1.438673,1.909961 -2.629298,1.909961 -0.63252,0 -1.0542,-0.58291 -0.260449,-0.372071 -0.260449,-1.0542 0,-1.500683 0.868164,-3.49746 0.21084,-0.496094 1.165821,-2.393653 -0.334864,0.08682 -0.508497,0.08682 -0.260449,0 -0.458886,-0.124024 -0.272852,-0.173633 -0.272852,-0.434082 0,-0.310058 0.359668,-0.496094 0.09922,-0.04961 0.917774,-0.16123 0.297656,-0.04961 0.868164,-0.235645 0.434081,-0.781347 1.413871,-2.1208 0.5457,-0.744141 0.75654,-0.967383 0.29766,-0.310059 0.5209,-0.310059 0.16123,0 0.32246,0.173633 0.14883,0.161231 0.14883,0.322461 0,0.322461 -0.69453,1.277441 -0.45889,0.620118 -0.68213,1.00459 1.37666,-0.37207 1.97197,-0.37207 0.68213,0 0.68213,0.570508 0,0.285254 -0.23565,0.421679 -0.12402,0.07441 -0.64492,0.124024 -0.21084,-0.0124 -1.87275,0.471289 -0.45889,0.136426 -0.90537,0.285254 z"
         style="text-align:center;text-anchor:middle;stroke-width:0.26458332"
         id="path5288" />
      <path
         d="m 105.1701,27.132678 q 0.91777,-0.954981 1.83555,-1.599903 1.17822,-0.818554 1.68672,-0.818554 0.21084,0 0.40927,0.173632 0.22324,0.198438 0.22324,0.458887 0,0.334863 -0.5333,1.041797 -1.02939,1.364258 -1.56269,2.480469 -0.47129,0.967382 -0.47129,1.314648 0,0.334863 0.32246,0.334863 0.66973,0 2.25723,-2.38125 0.32246,-0.483691 0.58291,-0.483691 0.26045,0 0.26045,0.297656 0,0.483692 -0.94258,1.847949 -0.81856,1.190625 -1.71152,1.823145 -0.63252,0.434082 -1.14102,0.434082 -0.5333,0 -0.76895,-0.458887 -0.14882,-0.285254 -0.14882,-0.632519 0,-1.103809 0.78134,-2.517676 0.18604,-0.334863 1.11621,-1.909961 -2.53007,1.277441 -4.2788,5.519043 -0.16123,0.483691 -0.4961,0.483691 -0.23564,0 -0.38447,-0.16123 -0.14883,-0.173633 -0.14883,-0.42168 0,-0.409277 0.79375,-2.319238 1.47588,-3.54707 2.75332,-6.002734 1.27744,-2.480469 2.84014,-5.146973 0.37207,-0.644922 0.58291,-0.868164 0.21084,-0.223242 0.44648,-0.223242 0.22325,0 0.38448,0.235644 0.12402,0.173633 0.12402,0.396875 0,0.347266 -0.39688,0.930176 -1.33945,2.071192 -2.6665,4.55166 -1.42627,2.654102 -1.74873,3.621485 z"
         style="text-align:center;text-anchor:middle;stroke-width:0.26458332"
         id="path5290" />
      <path
         d="m 111.06121,29.823986 v 0.223242 q 0,0.272852 0.13643,0.471289 0.31006,0.458887 1.01699,0.458887 1.55029,0 3.58428,-2.38125 0.35967,-0.409277 0.60771,-0.409277 0.13643,0 0.24805,0.136426 0.0744,0.09922 0.0744,0.186035 0,0.483691 -1.19062,1.637109 -0.93018,0.905371 -1.98438,1.475879 -1.05419,0.570508 -1.95957,0.570508 -0.93017,0 -1.46347,-0.644922 -0.35967,-0.446485 -0.35967,-1.21543 0,-2.095996 1.97197,-4.105176 1.5999,-1.637109 2.79053,-1.637109 0.32246,0 0.58291,0.198438 0.32246,0.260449 0.32246,0.682129 0,0.657324 -0.60771,1.612304 -1.25264,1.984375 -3.77032,2.740918 z m 0.27285,-0.967383 q 0.86817,-0.297656 1.36426,-0.669726 0.86817,-0.669727 1.37666,-1.513086 0.18604,-0.297656 0.18604,-0.533301 0,-0.248047 -0.23565,-0.248047 -0.32246,0 -0.91777,0.483692 -1.0666,0.855761 -1.77354,2.480468 z"
         style="text-align:center;text-anchor:middle;stroke-width:0.26458332"
         id="path5292" />
      <path
         d="m 125.57195,28.075256 q 1.0418,-1.091407 1.83555,-1.711524 1.20302,-0.930176 1.6123,-0.930176 0.19844,0 0.34727,0.148829 0.13642,0.136425 0.13642,0.297656 0,0.235644 -0.43408,0.768945 -0.66972,0.84336 -0.93017,1.438672 2.90214,-2.914551 3.96875,-2.914551 0.22324,0 0.38447,0.136426 0.17363,0.148828 0.17363,0.37207 0,0.347266 -0.5333,0.892969 -2.34404,2.418457 -2.34404,3.96875 0,0.63252 0.22324,0.905371 l 0.32246,0.409277 q 0.0992,0.111622 0.0992,0.285254 0,0.198438 -0.16123,0.372071 -0.18604,0.198437 -0.42168,0.198437 -0.40928,0 -0.75654,-0.520898 -0.42168,-0.620117 -0.42168,-1.463477 0,-1.128613 0.64492,-2.282031 0.22324,-0.409277 0.74414,-1.091406 -1.0542,0.79375 -2.14561,2.182812 -0.74414,0.942578 -1.33945,2.108399 -0.28525,0.558105 -0.66973,0.558105 -0.42168,0 -0.42168,-0.471289 0,-0.508496 0.69454,-2.095996 0.39687,-0.905371 0.97978,-1.909961 -2.1208,1.637109 -3.1874,4.440039 -0.26045,0.620117 -0.69453,0.620117 -0.19844,0 -0.32246,-0.148828 -0.13643,-0.148828 -0.13643,-0.359668 0,-0.731738 0.81856,-2.641699 0.85576,-2.021582 1.93476,-3.633887 0.74414,-1.128613 1.15342,-1.128613 0.37207,0 0.37207,0.396875 0,0.173633 -0.45889,0.868164 -0.80615,1.302246 -1.0666,1.934766 z"
         style="text-align:center;text-anchor:middle;stroke-width:0.26458332"
         id="path5294" />
      <path
         d="m 133.43504,29.823986 v 0.223242 q 0,0.272852 0.13642,0.471289 0.31006,0.458887 1.017,0.458887 1.55029,0 3.58427,-2.38125 0.35967,-0.409277 0.60772,-0.409277 0.13642,0 0.24805,0.136426 0.0744,0.09922 0.0744,0.186035 0,0.483691 -1.19063,1.637109 -0.93017,0.905371 -1.98437,1.475879 -1.0542,0.570508 -1.95957,0.570508 -0.93018,0 -1.46348,-0.644922 -0.35967,-0.446485 -0.35967,-1.21543 0,-2.095996 1.97198,-4.105176 1.5999,-1.637109 2.79052,-1.637109 0.32247,0 0.58291,0.198438 0.32247,0.260449 0.32247,0.682129 0,0.657324 -0.60772,1.612304 -1.25264,1.984375 -3.77031,2.740918 z m 0.27285,-0.967383 q 0.86816,-0.297656 1.36426,-0.669726 0.86816,-0.669727 1.37666,-1.513086 0.18603,-0.297656 0.18603,-0.533301 0,-0.248047 -0.23564,-0.248047 -0.32246,0 -0.91778,0.483692 -1.0666,0.855761 -1.77353,2.480468 z"
         style="text-align:center;text-anchor:middle;stroke-width:0.26458332"
         id="path5296" />
      <path
         d="m 145.15526,23.97008 q 0.76894,0 1.15342,0.272852 0.38447,0.272851 0.38447,0.830957 0,0.731738 -0.5457,1.413867 -0.5209,0.644922 -1.5627,1.041797 -0.57051,0.210839 -0.95498,0.210839 -0.5209,0 -0.5209,-0.458886 0,-0.310059 0.29766,-0.471289 0.0744,-0.03721 0.84336,-0.21084 0.45888,-0.09922 0.84336,-0.434082 0.33486,-0.285254 0.33486,-0.620117 0,-0.26045 -0.14883,-0.384473 -0.14883,-0.124024 -0.44648,-0.124024 -0.71934,0 -1.5875,0.582911 -1.00459,0.657324 -1.00459,1.562695 0,0.644922 0.65732,1.612305 0.73174,1.054199 0.73174,1.785937 0,1.091406 -0.96738,1.711523 -0.59532,0.384473 -1.35186,0.384473 -1.19062,0 -1.81074,-0.855762 -0.43408,-0.607714 -0.43408,-1.438671 0,-0.967383 0.49609,-1.624707 0.32246,-0.434082 0.66973,-0.434082 0.31006,0 0.31006,0.248046 0,0.09922 -0.11163,0.297657 -0.28525,0.5333 -0.28525,1.252636 0,0.607715 0.43408,1.029395 0.38448,0.37207 0.88057,0.37207 0.48369,0 0.75654,-0.322461 0.22324,-0.272851 0.22324,-0.694531 0,-0.520898 -0.59531,-1.351855 -0.81855,-1.141016 -0.81855,-2.071192 0,-1.240234 1.35185,-2.195215 1.31465,-0.917773 2.77813,-0.917773 z"
         style="text-align:center;text-anchor:middle;stroke-width:0.26458332"
         id="path5298" />
      <path
         d="m 151.60448,23.97008 q 0.76894,0 1.15341,0.272852 0.38448,0.272851 0.38448,0.830957 0,0.731738 -0.54571,1.413867 -0.52089,0.644922 -1.56269,1.041797 -0.57051,0.210839 -0.95498,0.210839 -0.5209,0 -0.5209,-0.458886 0,-0.310059 0.29766,-0.471289 0.0744,-0.03721 0.84336,-0.21084 0.45888,-0.09922 0.84335,-0.434082 0.33487,-0.285254 0.33487,-0.620117 0,-0.26045 -0.14883,-0.384473 -0.14883,-0.124024 -0.44648,-0.124024 -0.71934,0 -1.5875,0.582911 -1.00459,0.657324 -1.00459,1.562695 0,0.644922 0.65732,1.612305 0.73174,1.054199 0.73174,1.785937 0,1.091406 -0.96738,1.711523 -0.59532,0.384473 -1.35186,0.384473 -1.19063,0 -1.81074,-0.855762 -0.43408,-0.607714 -0.43408,-1.438671 0,-0.967383 0.49609,-1.624707 0.32246,-0.434082 0.66973,-0.434082 0.31005,0 0.31005,0.248046 0,0.09922 -0.11162,0.297657 -0.28525,0.5333 -0.28525,1.252636 0,0.607715 0.43408,1.029395 0.38447,0.37207 0.88057,0.37207 0.48369,0 0.75654,-0.322461 0.22324,-0.272851 0.22324,-0.694531 0,-0.520898 -0.59531,-1.351855 -0.81855,-1.141016 -0.81855,-2.071192 0,-1.240234 1.35185,-2.195215 1.31465,-0.917773 2.77813,-0.917773 z"
         style="text-align:center;text-anchor:middle;stroke-width:0.26458332"
         id="path5300" />
      <path
         d="m 156.00731,30.158849 q -0.40928,0.719336 -0.80615,1.21543 -0.78135,0.967383 -1.5503,0.967383 -0.66972,0 -1.04179,-0.63252 -0.23565,-0.409277 -0.23565,-0.967382 0,-1.376661 0.86817,-3.038575 0.96738,-1.847949 2.33164,-2.840136 0.89297,-0.644922 1.72392,-0.644922 0.5209,0 0.86817,0.322461 0.29765,0.285254 0.29765,0.644922 0,0.272851 -0.21084,0.756543 0.18604,0.260449 0.18604,0.458886 0,0.260449 -0.34727,0.855762 -0.35967,0.607715 -0.71933,1.612305 -0.38448,1.066601 -0.38448,1.711523 0,0.520898 0.31006,0.855762 0.0868,0.08682 0.5085,0.285254 0.31006,0.148828 0.31006,0.520898 0,0.235645 -0.17364,0.384473 -0.18603,0.16123 -0.43408,0.16123 -0.66972,0 -1.15342,-0.595312 -0.39687,-0.483692 -0.39687,-1.21543 0,-0.248047 0.0496,-0.818555 z m 1.55029,-4.080371 q -0.14883,-0.272851 -0.32246,-0.396875 -0.17363,-0.136425 -0.37207,-0.136425 -0.94258,0 -2.04639,1.649511 -1.21543,1.823145 -1.21543,3.088184 0,0.310058 0.11162,0.471289 0.12403,0.16123 0.35967,0.16123 0.59532,0 1.38907,-1.265039 0.44648,-0.694531 1.1038,-2.046386 0.43409,-0.880567 0.63252,-1.165821 0.0992,-0.148828 0.35967,-0.359668 z"
         style="text-align:center;text-anchor:middle;stroke-width:0.26458332"
         id="path5302" />
      <path
         d="m 162.66737,31.138635 q 1.32705,-0.967383 1.97197,-1.761133 0.95498,-1.153418 1.35185,-1.872754 0.19844,-0.322461 0.40928,-0.322461 0.29766,0 0.29766,0.285254 0,0.334863 -0.47129,1.116211 -1.46348,2.38125 -4.39043,4.154785 -1.36426,2.852539 -2.00918,3.869531 -1.71152,2.678906 -3.22461,2.678906 -0.79375,0 -1.14102,-0.620117 -0.19843,-0.359668 -0.19843,-0.818555 0,-1.947168 2.50527,-3.733105 0.39687,-0.297656 3.21221,-1.860352 0.5457,-1.153418 0.84336,-1.810742 -1.30225,1.364258 -2.15801,1.364258 -0.5333,0 -0.83096,-0.545703 -0.18603,-0.359668 -0.18603,-0.744141 0,-0.892968 0.73173,-2.294433 1.0418,-2.021582 2.50528,-3.199805 1.22783,-0.979785 2.17041,-0.979785 0.48369,0 0.83096,0.359668 0.23564,0.235644 0.23564,0.694531 0,0.570508 -0.38447,1.413867 0.28525,0.272852 0.28525,0.409278 0,0.08682 -0.12402,0.248047 -0.33487,0.458886 -1.07901,1.723925 -0.65732,1.103809 -1.15341,2.244825 z m -0.0868,-2.864942 q -0.17363,-0.186035 -0.17363,-0.260449 0,-0.111621 0.18603,-0.285254 0.62012,-0.595312 1.00459,-1.240234 0.31006,-0.508496 0.31006,-0.79375 0,-0.334864 -0.31006,-0.334864 -0.5333,0 -1.52549,1.016993 -1.17822,1.203027 -1.83554,2.691308 -0.32246,0.744141 -0.32246,1.141016 0,0.223242 0.0992,0.334863 0.0992,0.111621 0.28526,0.111621 0.43408,0 1.21543,-0.892969 0.49609,-0.570507 0.84336,-1.116211 0.23564,-0.359667 0.22324,-0.37207 z m -2.34404,5.419824 q -1.63711,0.694532 -2.88975,2.108399 -0.58291,0.657324 -0.83096,1.389062 -0.0744,0.223242 -0.0744,0.37207 0,0.161231 0.0744,0.285254 0.13643,0.223243 0.38448,0.223243 0.76894,0 1.79834,-1.649512 0.89296,-1.42627 1.53789,-2.728516 z"
         style="text-align:center;text-anchor:middle;stroke-width:0.26458332"
         id="path5304" />
      <path
         d="m 167.76472,29.823986 v 0.223242 q 0,0.272852 0.13643,0.471289 0.31005,0.458887 1.01699,0.458887 1.55029,0 3.58427,-2.38125 0.35967,-0.409277 0.60772,-0.409277 0.13643,0 0.24805,0.136426 0.0744,0.09922 0.0744,0.186035 0,0.483691 -1.19062,1.637109 -0.93018,0.905371 -1.98438,1.475879 -1.0542,0.570508 -1.95957,0.570508 -0.93018,0 -1.46348,-0.644922 -0.35966,-0.446485 -0.35966,-1.21543 0,-2.095996 1.97197,-4.105176 1.5999,-1.637109 2.79053,-1.637109 0.32246,0 0.58291,0.198438 0.32246,0.260449 0.32246,0.682129 0,0.657324 -0.60772,1.612304 -1.25263,1.984375 -3.77031,2.740918 z m 0.27285,-0.967383 q 0.86817,-0.297656 1.36426,-0.669726 0.86816,-0.669727 1.37666,-1.513086 0.18603,-0.297656 0.18603,-0.533301 0,-0.248047 -0.23564,-0.248047 -0.32246,0 -0.91777,0.483692 -1.06661,0.855761 -1.77354,2.480468 z"
         style="text-align:center;text-anchor:middle;stroke-width:0.26458332"
         id="path5306" />
      <path
         d="m 48.454182,55.955724 q 1.016992,0 1.016992,1.240234 0,1.649512 -1.525488,4.17959 -1.661914,2.740918 -3.212207,2.740918 -0.719336,0 -1.0542,-0.669726 -0.173632,-0.334864 -0.173632,-0.806153 0,-1.5875 1.091406,-3.447851 1.016992,-1.723926 2.393652,-2.678907 0.806153,-0.558105 1.463477,-0.558105 z m -1.289844,4.688086 q -0.310059,-0.248047 -0.310059,-0.384473 0,-0.09922 0.396875,-0.545703 1.116211,-1.252637 1.116211,-2.021582 0,-0.09922 -0.06201,-0.198437 -0.09922,-0.186036 -0.310059,-0.186036 -0.396875,0 -1.16582,0.768946 -0.992188,0.992187 -1.513086,2.046386 -0.607715,1.203028 -0.607715,1.996778 0,0.21084 0.111621,0.37207 0.161231,0.223242 0.409277,0.223242 0.595313,0 1.277442,-0.892969 0.297656,-0.37207 0.483691,-0.768945 0.186035,-0.396875 0.173633,-0.409277 z"
         style="text-align:center;text-anchor:middle;stroke-width:0.26458332"
         id="path5308" />
      <path
         d="m 51.815217,59.701232 q 0.16123,-0.148828 0.310058,-0.297656 2.59209,-2.530079 3.472657,-2.530079 0.483691,0 0.483691,0.533301 0,0.37207 -0.434082,0.880567 -2.368848,2.765722 -2.368848,4.874121 0,0.682128 0.372071,1.302246 0.173633,0.285254 0.173633,0.446484 0,0.148828 -0.148829,0.285254 -0.16123,0.173633 -0.384472,0.173633 -0.508496,0 -0.855762,-0.644922 -0.334863,-0.607715 -0.334863,-1.475879 0,-1.674316 1.265039,-3.708301 -1.686719,1.079004 -3.137793,3.819922 -0.37207,0.657324 -0.79375,0.657324 -0.21084,0 -0.347266,-0.148828 -0.173633,-0.173633 -0.173633,-0.446484 0,-0.669727 1.525489,-3.509863 0.818554,-1.537891 1.289843,-2.232422 0.471289,-0.682129 0.806153,-0.682129 0.16123,0 0.310058,0.148828 0.173633,0.173633 0.173633,0.396875 0,0.272852 -0.359668,0.781348 -0.520898,0.756543 -0.843359,1.37666 z"
         style="text-align:center;text-anchor:middle;stroke-width:0.26458332"
         id="path5310" />
      <path
         d="m 57.086213,61.573986 v 0.223242 q 0,0.272851 0.136426,0.471289 0.310058,0.458887 1.016992,0.458887 1.550293,0 3.584277,-2.38125 0.359668,-0.409278 0.607715,-0.409278 0.136426,0 0.248047,0.136426 0.07441,0.09922 0.07441,0.186035 0,0.483692 -1.190625,1.63711 -0.930176,0.905371 -1.984375,1.475878 -1.054199,0.570508 -1.95957,0.570508 -0.930176,0 -1.463477,-0.644922 -0.359668,-0.446484 -0.359668,-1.215429 0,-2.095996 1.971973,-4.105176 1.599902,-1.637109 2.790527,-1.637109 0.322461,0 0.58291,0.198437 0.322461,0.260449 0.322461,0.682129 0,0.657324 -0.607715,1.612305 -1.252636,1.984375 -3.770312,2.740918 z m 0.272851,-0.967383 q 0.868164,-0.297656 1.364258,-0.669727 0.868164,-0.669726 1.37666,-1.513086 0.186036,-0.297656 0.186036,-0.5333 0,-0.248047 -0.235645,-0.248047 -0.322461,0 -0.917773,0.483691 -1.066602,0.855762 -1.773536,2.480469 z"
         style="text-align:center;text-anchor:middle;stroke-width:0.26458332"
         id="path5312" />
      <path
         d="m 73.779768,60.494982 q -1.066602,1.438672 -1.575098,1.984375 -0.632519,0.682129 -1.091406,1.041797 -0.520899,0.384472 -0.967383,0.384472 -0.434082,0 -0.669727,-0.434082 -0.186035,-0.334863 -0.186035,-0.74414 0,-1.351856 1.612305,-3.720703 1.463477,-2.145606 2.17041,-2.145606 0.173633,0 0.334863,0.161231 0.148829,0.148828 0.148829,0.347265 0,0.272852 -0.483692,0.756543 -1.029394,1.016992 -1.785937,2.294434 -0.644922,1.091406 -0.644922,1.426269 0,0.248047 0.223242,0.248047 0.744141,0 3.224609,-3.224609 0.806153,-1.041797 0.979785,-1.203028 0.322461,-0.297656 0.657325,-0.297656 0.223242,0 0.384472,0.124024 0.136426,0.124023 0.136426,0.260449 0,0.148828 -0.595312,1.252637 -1.351856,2.381249 -1.351856,3.212206 0,0.322461 0.260449,0.322461 0.446485,0 1.227832,-1.029394 0.744141,-0.967383 1.37666,-2.455664 0.272852,-0.644922 0.483692,-1.699121 0.248047,-1.203028 0.992187,-1.203028 0.42168,0 0.42168,0.47129 0,1.624707 -1.810742,4.464843 -1.885156,2.96416 -3.175,2.96416 -0.954981,0 -0.954981,-1.178222 0,-0.967383 0.657325,-2.38125 z"
         style="text-align:center;text-anchor:middle;stroke-width:0.26458332"
         id="path5314" />
      <path
         d="m 83.875275,55.955724 q 1.016992,0 1.016992,1.240234 0,1.649512 -1.525488,4.17959 -1.661914,2.740918 -3.212207,2.740918 -0.719336,0 -1.0542,-0.669726 -0.173632,-0.334864 -0.173632,-0.806153 0,-1.5875 1.091406,-3.447851 1.016992,-1.723926 2.393652,-2.678907 0.806153,-0.558105 1.463477,-0.558105 z m -1.289844,4.688086 q -0.310059,-0.248047 -0.310059,-0.384473 0,-0.09922 0.396875,-0.545703 1.116211,-1.252637 1.116211,-2.021582 0,-0.09922 -0.06201,-0.198437 -0.09922,-0.186036 -0.310059,-0.186036 -0.396875,0 -1.16582,0.768946 -0.992188,0.992187 -1.513086,2.046386 -0.607715,1.203028 -0.607715,1.996778 0,0.21084 0.111621,0.37207 0.161231,0.223242 0.409277,0.223242 0.595313,0 1.277442,-0.892969 0.297656,-0.37207 0.483691,-0.768945 0.186035,-0.396875 0.173633,-0.409277 z"
         style="text-align:center;text-anchor:middle;stroke-width:0.26458332"
         id="path5316" />
      <path
         d="m 87.199105,59.874865 q 1.21543,-1.302247 2.80293,-2.542481 0.570508,-0.446484 1.215429,-0.830957 0.322461,-0.186035 0.409278,-0.186035 0.186035,0 0.37207,0.272852 0.111621,0.148828 0.111621,0.272851 0,0.223242 -0.471289,0.607715 -1.265039,1.00459 -1.265039,1.513086 0,0.285254 0.322461,0.285254 0.533301,0 1.835547,-0.880567 0.223242,-0.148828 0.37207,-0.148828 0.09922,0 0.198438,0.09922 0.111621,0.111621 0.111621,0.235644 0,0.372071 -1.041797,1.141016 -1.091406,0.818555 -2.071191,0.818555 -0.396875,0 -0.731739,-0.21084 -0.285254,-0.173633 -0.285254,-0.620117 0,-0.310059 0.26045,-0.706934 -0.979786,0.694531 -2.306836,2.38125 -0.768946,1.041797 -1.525489,2.567285 -0.285253,0.570508 -0.706933,0.570508 -0.458887,0 -0.458887,-0.434082 0,-0.42168 0.719336,-2.257227 1.066602,-2.728515 2.232422,-4.229199 0.719336,-0.930175 1.203027,-0.930175 0.161231,0 0.297657,0.09922 0.16123,0.124024 0.16123,0.310059 0,0.186035 -0.248047,0.520898 -0.04961,0.06201 -0.657324,0.830957 -0.558106,0.731739 -0.855762,1.451075 z"
         style="text-align:center;text-anchor:middle;stroke-width:0.26458332"
         id="path5318" />
      <path
         d="m 97.679083,56.712267 q 1.240234,-2.59209 2.344047,-4.514453 1.0666,-1.860352 1.45107,-2.344043 0.42168,-0.533301 0.79375,-0.533301 0.19844,0 0.35967,0.161231 0.14883,0.16123 0.14883,0.347265 0,0.285254 -0.42168,0.954981 -1.79834,2.902148 -3.299027,5.891113 -1.736328,3.485058 -1.736328,5.221387 0,0.706933 0.272851,1.11621 0.04961,0.08682 0.446485,0.396875 0.07441,0.06201 0.07441,0.248047 0,0.248047 -0.198438,0.458887 -0.186035,0.198438 -0.42168,0.198438 -0.285253,0 -0.632519,-0.347266 -0.496094,-0.496094 -0.595313,-1.141016 -0.03721,-0.272851 -0.08682,-1.016992 -1.302246,2.344043 -2.480469,2.344043 -0.682129,0 -1.091406,-0.768945 -0.272852,-0.508496 -0.272852,-1.153418 0,-1.934766 1.413868,-3.894336 1.401464,-1.934766 3.013769,-1.934766 0.446485,0 0.917774,0.310059 z m -0.42168,1.016992 q -0.334863,-0.223242 -0.58291,-0.223242 -1.041797,0 -1.971973,1.277441 -1.227832,1.661914 -1.227832,3.212207 0,0.186035 0.07441,0.347266 0.148828,0.310059 0.446485,0.310059 0.434082,0 1.054199,-0.84336 0.830957,-1.116211 1.53789,-2.641699 0.248047,-0.520898 0.483692,-1.041797 0,0 0.111621,-0.235644 z"
         style="text-align:center;text-anchor:middle;stroke-width:0.26458332"
         id="path5320" />
      <path
         d="m 109.27527,61.908849 q -0.40927,0.719336 -0.80615,1.21543 -0.78135,0.967382 -1.55029,0.967382 -0.66973,0 -1.0418,-0.632519 -0.23564,-0.409277 -0.23564,-0.967383 0,-1.37666 0.86816,-3.038574 0.96738,-1.847949 2.33164,-2.840137 0.89297,-0.644922 1.72393,-0.644922 0.5209,0 0.86816,0.322461 0.29766,0.285254 0.29766,0.644922 0,0.272852 -0.21084,0.756543 0.18603,0.260449 0.18603,0.458887 0,0.260449 -0.34726,0.855762 -0.35967,0.607714 -0.71934,1.612304 -0.38447,1.066602 -0.38447,1.711524 0,0.520898 0.31006,0.855761 0.0868,0.08682 0.50849,0.285254 0.31006,0.148828 0.31006,0.520899 0,0.235644 -0.17363,0.384472 -0.18603,0.161231 -0.43408,0.161231 -0.66973,0 -1.15342,-0.595313 -0.39687,-0.483691 -0.39687,-1.215429 0,-0.248047 0.0496,-0.818555 z m 1.5503,-4.080371 q -0.14883,-0.272852 -0.32246,-0.396875 -0.17364,-0.136426 -0.37207,-0.136426 -0.94258,0 -2.04639,1.649512 -1.21543,1.823144 -1.21543,3.088183 0,0.310059 0.11162,0.471289 0.12402,0.161231 0.35967,0.161231 0.59531,0 1.38906,-1.265039 0.44649,-0.694531 1.10381,-2.046387 0.43408,-0.880566 0.63252,-1.16582 0.0992,-0.148828 0.35967,-0.359668 z"
         style="text-align:center;text-anchor:middle;stroke-width:0.26458332"
         id="path5322" />
      <path
         d="m 116.76629,55.968126 q -0.80615,1.252637 -1.48828,2.80293 -0.97978,2.207617 -0.97978,3.299023 0,0.310059 0.12402,0.471289 0.13643,0.161231 0.39687,0.161231 0.62012,0 1.50069,-1.16582 0.5581,-0.719336 0.99219,-1.438672 0.23564,-0.409278 0.50849,-0.409278 0.16123,0 0.27285,0.111621 0.0992,0.111622 0.0992,0.223243 0,0.458886 -1.20303,2.046386 -1.43867,1.909961 -2.62929,1.909961 -0.63252,0 -1.0542,-0.58291 -0.26045,-0.37207 -0.26045,-1.054199 0,-1.500684 0.86816,-3.497461 0.21084,-0.496094 1.16582,-2.393652 -0.33486,0.08682 -0.50849,0.08682 -0.26045,0 -0.45889,-0.124023 -0.27285,-0.173633 -0.27285,-0.434082 0,-0.310059 0.35967,-0.496094 0.0992,-0.04961 0.91777,-0.161231 0.29766,-0.04961 0.86817,-0.235644 0.43408,-0.781348 1.41386,-2.120801 0.54571,-0.74414 0.75655,-0.967383 0.29765,-0.310058 0.52089,-0.310058 0.16123,0 0.32246,0.173633 0.14883,0.16123 0.14883,0.322461 0,0.32246 -0.69453,1.277441 -0.45889,0.620117 -0.68213,1.00459 1.37666,-0.372071 1.97198,-0.372071 0.68212,0 0.68212,0.570508 0,0.285254 -0.23564,0.42168 -0.12402,0.07441 -0.64492,0.124023 -0.21084,-0.0124 -1.87276,0.471289 -0.45888,0.136426 -0.90537,0.285254 z"
         style="text-align:center;text-anchor:middle;stroke-width:0.26458332"
         id="path5324" />
      <path
         d="m 128.42449,61.908849 q -0.40927,0.719336 -0.80615,1.21543 -0.78135,0.967382 -1.55029,0.967382 -0.66973,0 -1.0418,-0.632519 -0.23564,-0.409277 -0.23564,-0.967383 0,-1.37666 0.86816,-3.038574 0.96738,-1.847949 2.33164,-2.840137 0.89297,-0.644922 1.72393,-0.644922 0.5209,0 0.86816,0.322461 0.29766,0.285254 0.29766,0.644922 0,0.272852 -0.21084,0.756543 0.18603,0.260449 0.18603,0.458887 0,0.260449 -0.34726,0.855762 -0.35967,0.607714 -0.71934,1.612304 -0.38447,1.066602 -0.38447,1.711524 0,0.520898 0.31006,0.855761 0.0868,0.08682 0.50849,0.285254 0.31006,0.148828 0.31006,0.520899 0,0.235644 -0.17363,0.384472 -0.18604,0.161231 -0.43408,0.161231 -0.66973,0 -1.15342,-0.595313 -0.39688,-0.483691 -0.39688,-1.215429 0,-0.248047 0.0496,-0.818555 z m 1.5503,-4.080371 q -0.14883,-0.272852 -0.32246,-0.396875 -0.17364,-0.136426 -0.37207,-0.136426 -0.94258,0 -2.04639,1.649512 -1.21543,1.823144 -1.21543,3.088183 0,0.310059 0.11162,0.471289 0.12402,0.161231 0.35967,0.161231 0.59531,0 1.38906,-1.265039 0.44649,-0.694531 1.10381,-2.046387 0.43408,-0.880566 0.63252,-1.16582 0.0992,-0.148828 0.35967,-0.359668 z"
         style="text-align:center;text-anchor:middle;stroke-width:0.26458332"
         id="path5326" />
      <path
         d="m 142.26551,55.968126 q -0.80616,1.252637 -1.48828,2.80293 -0.97979,2.207617 -0.97979,3.299023 0,0.310059 0.12402,0.471289 0.13643,0.161231 0.39688,0.161231 0.62012,0 1.50068,-1.16582 0.55811,-0.719336 0.99219,-1.438672 0.23564,-0.409278 0.5085,-0.409278 0.16123,0 0.27285,0.111621 0.0992,0.111622 0.0992,0.223243 0,0.458886 -1.20303,2.046386 -1.43867,1.909961 -2.6293,1.909961 -0.63252,0 -1.0542,-0.58291 -0.26045,-0.37207 -0.26045,-1.054199 0,-1.500684 0.86817,-3.497461 0.21084,-0.496094 1.16582,-2.393652 -0.33487,0.08682 -0.5085,0.08682 -0.26045,0 -0.45888,-0.124023 -0.27286,-0.173633 -0.27286,-0.434082 0,-0.310059 0.35967,-0.496094 0.0992,-0.04961 0.91778,-0.161231 0.29765,-0.04961 0.86816,-0.235644 0.43408,-0.781348 1.41387,-2.120801 0.5457,-0.74414 0.75654,-0.967383 0.29766,-0.310058 0.5209,-0.310058 0.16123,0 0.32246,0.173633 0.14883,0.16123 0.14883,0.322461 0,0.32246 -0.69453,1.277441 -0.45889,0.620117 -0.68213,1.00459 1.37666,-0.372071 1.97197,-0.372071 0.68213,0 0.68213,0.570508 0,0.285254 -0.23565,0.42168 -0.12402,0.07441 -0.64492,0.124023 -0.21084,-0.0124 -1.87275,0.471289 -0.45889,0.136426 -0.90537,0.285254 z"
         style="text-align:center;text-anchor:middle;stroke-width:0.26458332"
         id="path5328" />
      <path
         d="m 147.17683,56.526232 q 0.21084,0 0.34727,0.16123 0.0992,0.136426 0.0992,0.272852 0,0.223242 -0.35967,0.74414 -1.28984,1.996778 -1.83555,3.286621 -0.58291,1.327051 -1.02939,2.728516 -0.19844,0.620117 -0.62012,0.620117 -0.24804,0 -0.39687,-0.198437 -0.13643,-0.161231 -0.13643,-0.347266 0,-0.37207 0.79375,-2.480469 0.62012,-1.661914 2.00918,-3.671093 0.44649,-0.657324 0.66973,-0.880567 0.22324,-0.235644 0.45888,-0.235644 z m 2.35645,-4.60127 q 0.55811,0 0.55811,0.570508 0,0.520899 -0.54571,1.153418 -0.5209,0.607715 -1.00459,0.607715 -0.23564,0 -0.38447,-0.173633 -0.14883,-0.16123 -0.14883,-0.396875 0,-0.595312 0.65733,-1.265039 0.48369,-0.496094 0.86816,-0.496094 z"
         style="text-align:center;text-anchor:middle;stroke-width:0.26458332"
         id="path5330" />
      <path
         d="m 149.43406,59.825255 q 1.0418,-1.091406 1.83555,-1.711523 1.20302,-0.930176 1.6123,-0.930176 0.19844,0 0.34727,0.148828 0.13642,0.136426 0.13642,0.297656 0,0.235645 -0.43408,0.768946 -0.66973,0.843359 -0.93017,1.438672 2.90214,-2.914551 3.96875,-2.914551 0.22324,0 0.38447,0.136426 0.17363,0.148828 0.17363,0.37207 0,0.347265 -0.5333,0.892969 -2.34404,2.418457 -2.34404,3.96875 0,0.632519 0.22324,0.905371 l 0.32246,0.409277 q 0.0992,0.111621 0.0992,0.285254 0,0.198437 -0.16123,0.37207 -0.18604,0.198438 -0.42168,0.198438 -0.40928,0 -0.75654,-0.520899 -0.42168,-0.620117 -0.42168,-1.463476 0,-1.128614 0.64492,-2.282032 0.22324,-0.409277 0.74414,-1.091406 -1.0542,0.79375 -2.14561,2.182813 -0.74414,0.942578 -1.33945,2.108398 -0.28525,0.558106 -0.66973,0.558106 -0.42168,0 -0.42168,-0.471289 0,-0.508497 0.69453,-2.095997 0.39688,-0.905371 0.97979,-1.90996 -2.1208,1.637109 -3.1874,4.440039 -0.26045,0.620117 -0.69453,0.620117 -0.19844,0 -0.32246,-0.148828 -0.13643,-0.148829 -0.13643,-0.359668 0,-0.731739 0.81855,-2.6417 0.85577,-2.021582 1.93477,-3.633886 0.74414,-1.128613 1.15342,-1.128613 0.37207,0 0.37207,0.396875 0,0.173632 -0.45889,0.868164 -0.80615,1.302246 -1.0666,1.934765 z"
         style="text-align:center;text-anchor:middle;stroke-width:0.26458332"
         id="path5332" />
      <path
         d="m 157.29715,61.573986 v 0.223242 q 0,0.272851 0.13642,0.471289 0.31006,0.458887 1.017,0.458887 1.55029,0 3.58427,-2.38125 0.35967,-0.409278 0.60772,-0.409278 0.13642,0 0.24804,0.136426 0.0744,0.09922 0.0744,0.186035 0,0.483692 -1.19063,1.63711 -0.93017,0.905371 -1.98437,1.475878 -1.0542,0.570508 -1.95957,0.570508 -0.93018,0 -1.46348,-0.644922 -0.35967,-0.446484 -0.35967,-1.215429 0,-2.095996 1.97198,-4.105176 1.5999,-1.637109 2.79052,-1.637109 0.32246,0 0.58291,0.198437 0.32246,0.260449 0.32246,0.682129 0,0.657324 -0.60771,1.612305 -1.25264,1.984375 -3.77031,2.740918 z M 157.57,60.606603 q 0.86816,-0.297656 1.36426,-0.669727 0.86816,-0.669726 1.37666,-1.513086 0.18603,-0.297656 0.18603,-0.5333 0,-0.248047 -0.23564,-0.248047 -0.32246,0 -0.91778,0.483691 -1.0666,0.855762 -1.77353,2.480469 z"
         style="text-align:center;text-anchor:middle;stroke-width:0.26458332"
         id="path5334" />
    </g>
    <g
       aria-label="Don't rush!"
       style="font-style:normal;font-variant:normal;font-weight:normal;font-stretch:normal;font-size:25.39999962px;line-height:1.25;font-family:'Freestyle Script';-inkscape-font-specification:'Freestyle Script';letter-spacing:0px;word-spacing:0px;fill:#000000;fill-opacity:1;stroke:none;stroke-width:0.26458332"
       id="text5205">
      <path
         d="m 68.548346,132.43921 q -0.334863,0.18603 -0.63252,0.42168 -0.5333,0.44648 -0.79375,0.44648 -0.198437,0 -0.359668,-0.16123 -0.173632,-0.17363 -0.173632,-0.38447 0,-0.45889 1.203027,-1.36426 1.847949,-1.38906 4.067969,-1.38906 1.723925,0 2.740918,1.12861 0.917773,1.01699 0.917773,2.45566 0,2.38125 -1.761133,5.59346 -2.058789,3.75791 -5.357812,6.22598 -2.443262,1.83554 -4.340821,1.83554 -0.74414,0 -1.128613,-0.44648 -0.310058,-0.37207 -0.310058,-0.79375 0,-0.63252 0.818554,-2.85254 1.240235,-3.32383 3.075782,-6.93291 0.272851,-0.5457 2.033984,-3.78271 z m 1.16582,-0.57051 q 0.37207,0.18603 0.37207,0.40928 0,0.16123 -0.471289,1.01699 -2.319238,4.15478 -3.91914,7.9623 -1.451074,3.42305 -1.451074,4.2044 0,0.49609 0.471289,0.49609 0.79375,0 2.133203,-0.85576 1.674316,-1.0542 3.683496,-3.53467 1.823144,-2.23242 2.877344,-4.7501 0.818554,-1.93476 0.818554,-3.43545 0,-1.0666 -0.520898,-1.5875 -0.520899,-0.5333 -1.562696,-0.5333 -1.054199,0 -2.430859,0.60772 z"
         style="stroke-width:0.26458332"
         id="path5253" />
      <path
         d="m 78.470221,137.59858 q 1.016992,0 1.016992,1.24024 0,1.64951 -1.525488,4.17959 -1.661914,2.74091 -3.212207,2.74091 -0.719336,0 -1.054199,-0.66972 -0.173633,-0.33487 -0.173633,-0.80616 0,-1.5875 1.091406,-3.44785 1.016992,-1.72392 2.393652,-2.6789 0.806153,-0.55811 1.463477,-0.55811 z m -1.289844,4.68809 q -0.310058,-0.24805 -0.310058,-0.38448 0,-0.0992 0.396875,-0.5457 1.11621,-1.25264 1.11621,-2.02158 0,-0.0992 -0.06201,-0.19844 -0.09922,-0.18603 -0.310059,-0.18603 -0.396875,0 -1.16582,0.76894 -0.992188,0.99219 -1.513086,2.04639 -0.607715,1.20303 -0.607715,1.99678 0,0.21084 0.111621,0.37207 0.161231,0.22324 0.409278,0.22324 0.595312,0 1.277441,-0.89297 0.297656,-0.37207 0.483691,-0.76895 0.186035,-0.39687 0.173633,-0.40927 z"
         style="stroke-width:0.26458332"
         id="path5255" />
      <path
         d="m 81.831256,141.34409 q 0.161231,-0.14883 0.310059,-0.29766 2.59209,-2.53008 3.472656,-2.53008 0.483692,0 0.483692,0.53331 0,0.37207 -0.434082,0.88056 -2.368848,2.76572 -2.368848,4.87412 0,0.68213 0.37207,1.30225 0.173633,0.28525 0.173633,0.44648 0,0.14883 -0.148828,0.28526 -0.16123,0.17363 -0.384473,0.17363 -0.508496,0 -0.855761,-0.64492 -0.334864,-0.60772 -0.334864,-1.47588 0,-1.67432 1.265039,-3.7083 -1.686718,1.079 -3.137793,3.81992 -0.37207,0.65732 -0.79375,0.65732 -0.210839,0 -0.347265,-0.14882 -0.173633,-0.17364 -0.173633,-0.44649 0,-0.66972 1.525488,-3.50986 0.818555,-1.53789 1.289844,-2.23242 0.471289,-0.68213 0.806152,-0.68213 0.161231,0 0.310059,0.14883 0.173633,0.17363 0.173633,0.39687 0,0.27285 -0.359668,0.78135 -0.520899,0.75654 -0.84336,1.37666 z"
         style="stroke-width:0.26458332"
         id="path5257" />
      <path
         d="m 93.824323,129.43784 q 0.173633,0 0.310059,0.0992 0.21084,0.16123 0.21084,0.43408 0,0.5333 -1.475879,3.36103 -0.520899,0.99219 -0.79375,1.21543 -0.198438,0.16124 -0.384473,0.16124 -0.434082,0 -0.434082,-0.58292 0,-0.35966 0.446484,-1.21542 1.079004,-2.20762 1.165821,-2.44327 0.396875,-1.02939 0.95498,-1.02939 z"
         style="stroke-width:0.26458332"
         id="path5259" />
      <path
         d="m 93.849127,137.61098 q -0.806152,1.25264 -1.488281,2.80293 -0.979785,2.20762 -0.979785,3.29903 0,0.31006 0.124023,0.47129 0.136426,0.16123 0.396875,0.16123 0.620117,0 1.500684,-1.16582 0.558105,-0.71934 0.992187,-1.43868 0.235645,-0.40927 0.508496,-0.40927 0.161231,0 0.272852,0.11162 0.09922,0.11162 0.09922,0.22324 0,0.45889 -1.203028,2.04639 -1.438672,1.90996 -2.629297,1.90996 -0.632519,0 -1.054199,-0.58291 -0.260449,-0.37207 -0.260449,-1.0542 0,-1.50069 0.868164,-3.49746 0.21084,-0.4961 1.16582,-2.39366 -0.334863,0.0868 -0.508496,0.0868 -0.260449,0 -0.458886,-0.12402 -0.272852,-0.17364 -0.272852,-0.43408 0,-0.31006 0.359668,-0.4961 0.09922,-0.0496 0.917773,-0.16123 0.297657,-0.0496 0.868164,-0.23564 0.434083,-0.78135 1.413868,-2.1208 0.545703,-0.74414 0.756543,-0.96739 0.297656,-0.31006 0.520898,-0.31006 0.161231,0 0.322461,0.17364 0.148828,0.16123 0.148828,0.32246 0,0.32246 -0.694531,1.27744 -0.458887,0.62012 -0.682129,1.00459 1.37666,-0.37207 1.971973,-0.37207 0.682128,0 0.682128,0.57051 0,0.28525 -0.235644,0.42168 -0.124023,0.0744 -0.644922,0.12402 -0.21084,-0.0124 -1.872754,0.47129 -0.458886,0.13643 -0.905371,0.28525 z"
         style="stroke-width:0.26458332"
         id="path5261" />
      <path
         d="m 104.11827,141.51772 q 1.21543,-1.30224 2.80293,-2.54248 0.5705,-0.44648 1.21543,-0.83096 0.32246,-0.18603 0.40927,-0.18603 0.18604,0 0.37207,0.27285 0.11162,0.14883 0.11162,0.27285 0,0.22324 -0.47128,0.60772 -1.26504,1.00459 -1.26504,1.51308 0,0.28526 0.32246,0.28526 0.5333,0 1.83554,-0.88057 0.22325,-0.14883 0.37207,-0.14883 0.0992,0 0.19844,0.0992 0.11162,0.11162 0.11162,0.23565 0,0.37207 -1.04179,1.14101 -1.09141,0.81856 -2.0712,0.81856 -0.39687,0 -0.73173,-0.21084 -0.28526,-0.17364 -0.28526,-0.62012 0,-0.31006 0.26045,-0.70693 -0.97978,0.69453 -2.30683,2.38125 -0.76895,1.04179 -1.52549,2.56728 -0.28526,0.57051 -0.70694,0.57051 -0.45888,0 -0.45888,-0.43408 0,-0.42168 0.71933,-2.25723 1.0666,-2.72852 2.23243,-4.2292 0.71933,-0.93018 1.20302,-0.93018 0.16123,0 0.29766,0.0992 0.16123,0.12403 0.16123,0.31006 0,0.18604 -0.24805,0.5209 -0.0496,0.062 -0.65732,0.83096 -0.55811,0.73174 -0.85576,1.45107 z"
         style="stroke-width:0.26458332"
         id="path5263" />
      <path
         d="m 113.06036,143.70053 q -0.5333,0.74414 -0.94258,1.19063 -0.71934,0.79375 -1.42627,0.79375 -0.60772,0 -0.94258,-0.5457 -0.23564,-0.38448 -0.23564,-0.91778 0,-1.5999 1.36425,-3.67109 0.63252,-0.96738 1.25264,-1.47588 0.48369,-0.40928 0.79375,-0.40928 0.17363,0 0.32246,0.14883 0.12403,0.13643 0.12403,0.27285 0,0.23565 -0.45889,0.76895 -1.0294,1.22783 -1.5627,2.25722 -0.62011,1.20303 -0.62011,1.88516 0,0.17363 0.0744,0.27285 0.0868,0.0868 0.23564,0.0868 0.63252,0 1.76114,-1.81074 0.58291,-0.94258 1.00459,-2.0836 0.22324,-0.62011 0.58291,-1.10381 0.34726,-0.43408 0.68213,-0.43408 0.18603,0 0.33486,0.16123 0.16123,0.17364 0.16123,0.38447 0,0.44649 -0.85576,2.00918 -0.58291,1.07901 -0.58291,1.79834 0,0.76895 0.40928,1.31465 0.11162,0.14883 0.68212,0.47129 0.27286,0.16123 0.27286,0.5209 0,0.22324 -0.19844,0.38447 -0.18604,0.16123 -0.45889,0.16123 -0.62012,0 -1.12861,-0.49609 -0.45889,-0.44648 -0.58291,-1.28984 -0.0248,-0.11163 -0.062,-0.64493 z"
         style="stroke-width:0.26458332"
         id="path5265" />
      <path
         d="m 121.94043,137.36294 q 0.76895,0 1.15342,0.27285 0.38447,0.27285 0.38447,0.83096 0,0.73173 -0.5457,1.41386 -0.5209,0.64492 -1.56269,1.0418 -0.57051,0.21084 -0.95498,0.21084 -0.5209,0 -0.5209,-0.45889 0,-0.31006 0.29765,-0.47129 0.0744,-0.0372 0.84336,-0.21084 0.45889,-0.0992 0.84336,-0.43408 0.33487,-0.28525 0.33487,-0.62012 0,-0.26045 -0.14883,-0.38447 -0.14883,-0.12402 -0.44649,-0.12402 -0.71933,0 -1.5875,0.58291 -1.00459,0.65732 -1.00459,1.56269 0,0.64493 0.65733,1.61231 0.73174,1.0542 0.73174,1.78594 0,1.0914 -0.96739,1.71152 -0.59531,0.38447 -1.35185,0.38447 -1.19063,0 -1.81074,-0.85576 -0.43409,-0.60771 -0.43409,-1.43867 0,-0.96738 0.4961,-1.62471 0.32246,-0.43408 0.66972,-0.43408 0.31006,0 0.31006,0.24805 0,0.0992 -0.11162,0.29765 -0.28525,0.5333 -0.28525,1.25264 0,0.60771 0.43408,1.02939 0.38447,0.37207 0.88057,0.37207 0.48369,0 0.75654,-0.32246 0.22324,-0.27285 0.22324,-0.69453 0,-0.5209 -0.59531,-1.35185 -0.81856,-1.14102 -0.81856,-2.0712 0,-1.24023 1.35186,-2.19521 1.31465,-0.91777 2.77812,-0.91777 z"
         style="stroke-width:0.26458332"
         id="path5267" />
      <path
         d="m 125.71075,140.52553 q 0.91777,-0.95498 1.83554,-1.5999 1.17823,-0.81855 1.68672,-0.81855 0.21084,0 0.40928,0.17363 0.22324,0.19844 0.22324,0.45889 0,0.33486 -0.5333,1.04179 -1.02939,1.36426 -1.56269,2.48047 -0.47129,0.96739 -0.47129,1.31465 0,0.33486 0.32246,0.33486 0.66972,0 2.25722,-2.38125 0.32247,-0.48369 0.58291,-0.48369 0.26045,0 0.26045,0.29766 0,0.48369 -0.94257,1.84795 -0.81856,1.19062 -1.71153,1.82314 -0.63252,0.43408 -1.14101,0.43408 -0.5333,0 -0.76895,-0.45888 -0.14883,-0.28526 -0.14883,-0.63252 0,-1.10381 0.78135,-2.51768 0.18604,-0.33486 1.11621,-1.90996 -2.53008,1.27744 -4.27881,5.51904 -0.16123,0.4837 -0.49609,0.4837 -0.23565,0 -0.38447,-0.16123 -0.14883,-0.17364 -0.14883,-0.42168 0,-0.40928 0.79375,-2.31924 1.47588,-3.54707 2.75332,-6.00274 1.27744,-2.48047 2.84014,-5.14697 0.37207,-0.64492 0.58291,-0.86816 0.21084,-0.22325 0.44648,-0.22325 0.22324,0 0.38447,0.23565 0.12403,0.17363 0.12403,0.39687 0,0.34727 -0.39688,0.93018 -1.33945,2.07119 -2.6665,4.55166 -1.42627,2.6541 -1.74873,3.62148 z"
         style="stroke-width:0.26458332"
         id="path5269" />
      <path
         d="m 139.99825,129.95874 q 0.27285,0 0.42168,0.22324 0.12402,0.18603 0.12402,0.42168 0,0.5085 -0.74414,1.90996 -3.05098,5.71748 -5.50664,9.5498 -0.39688,0.63252 -0.4961,0.84336 -0.32246,0.60772 -0.66972,0.60772 -0.24805,0 -0.43408,-0.28525 -0.16123,-0.23565 -0.16123,-0.5085 0,-0.34727 0.35966,-0.96738 0.0992,-0.17364 0.86817,-1.35186 0.97978,-1.64951 1.94717,-3.26182 0.32246,-0.5581 1.93476,-3.52226 0.57051,-1.0418 0.90537,-1.63711 0.39688,-0.70693 0.75655,-1.46348 0.27285,-0.5581 0.69453,-0.5581 z m -8.06153,14.73398 q 0.27285,0 0.45889,0.24805 0.12402,0.16123 0.12402,0.40928 0,0.58291 -0.32246,1.22783 -0.33486,0.68213 -0.88056,0.68213 -0.57051,0 -0.57051,-0.64493 0,-0.64492 0.39687,-1.31464 0.35967,-0.60772 0.79375,-0.60772 z"
         style="stroke-width:0.26458332"
         id="path5271" />
    </g>
    <g
       aria-label="Take your time."
       style="font-style:normal;font-variant:normal;font-weight:normal;font-stretch:normal;font-size:25.39999962px;line-height:1.25;font-family:'Freestyle Script';-inkscape-font-specification:'Freestyle Script';letter-spacing:0px;word-spacing:0px;fill:#000000;fill-opacity:1;stroke:none;stroke-width:0.26458332"
       id="text5209">
      <path
         d="m 62.800744,174.57352 q -2.480469,0.38447 -4.60127,0.97979 -0.446484,0.16123 -0.694531,0.16123 -0.285254,0 -0.483691,-0.26045 -0.124024,-0.14883 -0.124024,-0.34727 0,-0.5333 0.768945,-0.78135 2.05879,-0.62011 4.849317,-1.14101 3.497461,-0.63252 6.72207,-0.63252 1.091406,0 1.463477,0.13642 0.347265,0.12403 0.347265,0.47129 0,0.58291 -0.855762,0.68213 -0.74414,0.0744 -2.244824,0.11162 -2.988964,0.0992 -4.092773,0.37207 0.310059,0.12403 0.310059,0.38448 0,0.27285 -0.396875,0.85576 -2.356446,3.44785 -4.502051,7.82588 -1.63711,3.32382 -2.393652,5.90351 -0.173633,0.78135 -0.595313,0.78135 -0.384473,0 -0.644922,-0.39688 -0.173633,-0.26044 -0.173633,-0.5457 0,-1.14101 2.17041,-5.55625 1.389063,-2.84014 2.567286,-4.7873 0.471289,-0.79375 2.269628,-3.6835 z"
         style="stroke-width:0.26458332"
         id="path5226" />
      <path
         d="m 68.059337,186.641 q -0.409277,0.71934 -0.806152,1.21543 -0.781348,0.96738 -1.550293,0.96738 -0.669726,0 -1.041797,-0.63252 -0.235644,-0.40927 -0.235644,-0.96738 0,-1.37666 0.868164,-3.03857 0.967383,-1.84795 2.33164,-2.84014 0.892969,-0.64492 1.723926,-0.64492 0.520899,0 0.868164,0.32246 0.297656,0.28525 0.297656,0.64492 0,0.27285 -0.210839,0.75654 0.186035,0.26045 0.186035,0.45889 0,0.26045 -0.347266,0.85576 -0.359668,0.60772 -0.719336,1.61231 -0.384472,1.0666 -0.384472,1.71152 0,0.5209 0.310058,0.85576 0.08682,0.0868 0.508496,0.28526 0.310059,0.14882 0.310059,0.52089 0,0.23565 -0.173633,0.38448 -0.186035,0.16123 -0.434082,0.16123 -0.669727,0 -1.153418,-0.59532 -0.396875,-0.48369 -0.396875,-1.21542 0,-0.24805 0.04961,-0.81856 z m 1.550293,-4.08037 q -0.148828,-0.27285 -0.322461,-0.39688 -0.173632,-0.13642 -0.37207,-0.13642 -0.942578,0 -2.046387,1.64951 -1.215429,1.82314 -1.215429,3.08818 0,0.31006 0.111621,0.47129 0.124023,0.16123 0.359668,0.16123 0.595312,0 1.389062,-1.26504 0.446485,-0.69453 1.103809,-2.04638 0.434082,-0.88057 0.632519,-1.16582 0.09922,-0.14883 0.359668,-0.35967 z"
         style="stroke-width:0.26458332"
         id="path5228" />
      <path
         d="m 76.096056,183.37918 q -0.806153,1.99678 -0.806153,3.03858 0,0.50849 0.198438,0.84336 0.248047,0.42168 0.657324,0.42168 0.843359,0 1.947168,-1.12862 0.731738,-0.71933 1.227832,-1.46347 0.322461,-0.4961 0.607715,-0.4961 0.285254,0 0.285254,0.28526 0,0.47129 -1.141016,1.93476 -1.686719,2.17041 -3.274219,2.17041 -0.95498,0 -1.351855,-0.93017 -0.297656,-0.68213 -0.297656,-1.43867 0,-0.63252 0.297656,-1.87276 -0.806152,0.66973 -2.443262,3.27422 -0.434082,0.70693 -0.79375,0.70693 -0.186035,0 -0.322461,-0.16123 -0.136426,-0.17363 -0.136426,-0.34726 0,-0.4961 1.302247,-3.31143 2.294433,-4.92373 4.911328,-8.28476 1.413867,-1.83555 2.54248,-2.67891 1.016992,-0.76894 1.624707,-0.76894 0.272852,0 0.483691,0.22324 0.272852,0.27285 0.272852,0.66972 0,1.0542 -1.103809,2.70371 -1.153418,1.69913 -3.91914,4.10518 -1.550293,1.33945 -2.790527,2.1084 -0.161231,0.32246 -0.905372,1.88516 1.550293,-1.67432 2.455664,-2.30684 0.582911,-0.39688 1.575098,-0.83096 0.669727,-0.28525 0.967383,-0.28525 0.16123,0 0.285254,0.12402 0.136426,0.11162 0.136426,0.29766 0,0.40928 -0.558106,0.57051 -0.942578,0.28525 -1.934765,0.94257 z m -1.066602,-2.1332 q 2.033984,-1.33945 3.795117,-3.41064 0.880567,-1.0294 1.413867,-1.98438 0.372071,-0.66973 0.372071,-0.95498 0,-0.28525 -0.26045,-0.28525 -0.694531,0 -2.393652,2.1332 -1.401465,1.77354 -2.926953,4.50205 z"
         style="stroke-width:0.26458332"
         id="path5230" />
      <path
         d="m 81.007383,186.30614 v 0.22324 q 0,0.27285 0.136426,0.47129 0.310059,0.45889 1.016992,0.45889 1.550293,0 3.584278,-2.38125 0.359668,-0.40928 0.607714,-0.40928 0.136426,0 0.248047,0.13642 0.07441,0.0992 0.07441,0.18604 0,0.48369 -1.190625,1.63711 -0.930175,0.90537 -1.984375,1.47588 -1.054199,0.5705 -1.95957,0.5705 -0.930176,0 -1.463476,-0.64492 -0.359668,-0.44648 -0.359668,-1.21543 0,-2.09599 1.971972,-4.10517 1.599903,-1.63711 2.790528,-1.63711 0.32246,0 0.58291,0.19844 0.322461,0.26044 0.322461,0.68212 0,0.65733 -0.607715,1.61231 -1.252637,1.98437 -3.770313,2.74092 z m 0.272852,-0.96739 q 0.868164,-0.29765 1.364258,-0.66972 0.868164,-0.66973 1.37666,-1.51309 0.186035,-0.29765 0.186035,-0.5333 0,-0.24805 -0.235645,-0.24805 -0.32246,0 -0.917773,0.4837 -1.066602,0.85576 -1.773535,2.48046 z"
         style="stroke-width:0.26458332"
         id="path5232" />
      <path
         d="m 97.837365,185.21473 q -1.103809,1.30225 -1.761133,1.93477 -1.302246,1.24023 -2.17041,1.24023 -0.42168,0 -0.669727,-0.31006 -0.186035,-0.24804 -0.186035,-0.62011 0,-1.33946 1.5875,-3.55948 1.612305,-2.25722 2.331641,-2.25722 0.198437,0 0.347265,0.17363 0.136426,0.13642 0.136426,0.32246 0,0.27285 -0.148828,0.48369 -0.136426,0.19844 -0.806152,0.90537 -0.706934,0.73174 -1.302246,1.5875 -0.682129,0.96738 -0.682129,1.41387 0,0.26045 0.248047,0.26045 0.496093,0 1.860351,-1.35186 0.855762,-0.85576 1.339453,-1.43867 0.09922,-0.12402 0.868164,-1.17822 0.694532,-0.93018 0.855762,-1.10381 0.372066,-0.43408 0.694536,-0.43408 0.19843,0 0.35966,0.17363 0.14883,0.16123 0.14883,0.37207 0,0.35967 -0.49609,1.20303 -0.595315,1.02939 -1.091409,1.92236 -0.781347,1.38906 -1.203027,2.48047 0.79375,-0.45889 1.451074,-1.12861 1.116212,-1.11621 1.364262,-1.66192 0.23564,-0.49609 0.48369,-0.49609 0.34726,0 0.34726,0.34726 0,0.65733 -1.11621,1.95958 -1.339451,1.56269 -3.299021,2.6541 -1.041797,2.50527 -1.971973,4.15478 -1.736328,3.03858 -3.584277,3.03858 -0.756543,0 -1.21543,-0.58291 -0.359668,-0.44649 -0.359668,-1.12862 0,-1.93476 2.716114,-3.95634 0.793749,-0.59532 2.356445,-1.48829 0.632519,-0.35966 0.992187,-0.58291 0.223242,-0.5705 0.682129,-1.51308 0.508496,-1.01699 0.892969,-1.83555 z m -2.282031,4.87412 q -1.314649,0.66973 -2.691309,1.90996 -1.389062,1.27744 -1.389062,2.38125 0,0.23565 0.136425,0.39688 0.186036,0.22324 0.483692,0.22324 0.930176,0 2.058789,-1.94717 0.186035,-0.32246 1.016992,-2.1456 0.173633,-0.37207 0.384473,-0.81856 z"
         style="stroke-width:0.26458332"
         id="path5234" />
      <path
         d="m 106.75465,180.68788 q 1.01699,0 1.01699,1.24023 0,1.64951 -1.52549,4.17959 -1.66191,2.74092 -3.2122,2.74092 -0.71934,0 -1.0542,-0.66973 -0.17364,-0.33486 -0.17364,-0.80615 0,-1.5875 1.09141,-3.44785 1.01699,-1.72393 2.39365,-2.67891 0.80615,-0.5581 1.46348,-0.5581 z m -1.28985,4.68808 q -0.31005,-0.24805 -0.31005,-0.38447 0,-0.0992 0.39687,-0.5457 1.11621,-1.25264 1.11621,-2.02159 0,-0.0992 -0.062,-0.19843 -0.0992,-0.18604 -0.31006,-0.18604 -0.39687,0 -1.16582,0.76895 -0.99219,0.99218 -1.51308,2.04638 -0.60772,1.20303 -0.60772,1.99678 0,0.21084 0.11162,0.37207 0.16123,0.22324 0.40928,0.22324 0.59531,0 1.27744,-0.89297 0.29766,-0.37207 0.48369,-0.76894 0.18604,-0.39688 0.17363,-0.40928 z"
         style="stroke-width:0.26458332"
         id="path5236" />
      <path
         d="m 111.2815,186.78983 q -0.5333,0.74414 -0.94258,1.19062 -0.71933,0.79375 -1.42627,0.79375 -0.60771,0 -0.94257,-0.5457 -0.23565,-0.38447 -0.23565,-0.91777 0,-1.59991 1.36426,-3.6711 0.63252,-0.96738 1.25264,-1.47588 0.48369,-0.40927 0.79375,-0.40927 0.17363,0 0.32246,0.14883 0.12402,0.13642 0.12402,0.27285 0,0.23564 -0.45889,0.76894 -1.02939,1.22783 -1.56269,2.25723 -0.62012,1.20303 -0.62012,1.88515 0,0.17364 0.0744,0.27286 0.0868,0.0868 0.23564,0.0868 0.63252,0 1.76113,-1.81074 0.58291,-0.94258 1.00459,-2.08359 0.22325,-0.62012 0.58291,-1.10381 0.34727,-0.43408 0.68213,-0.43408 0.18604,0 0.33487,0.16123 0.16123,0.17363 0.16123,0.38447 0,0.44648 -0.85577,2.00918 -0.58291,1.079 -0.58291,1.79834 0,0.76894 0.40928,1.31465 0.11162,0.14883 0.68213,0.47129 0.27285,0.16123 0.27285,0.52089 0,0.22325 -0.19844,0.38448 -0.18603,0.16123 -0.45888,0.16123 -0.62012,0 -1.12862,-0.4961 -0.45888,-0.44648 -0.58291,-1.28984 -0.0248,-0.11162 -0.062,-0.64492 z"
         style="stroke-width:0.26458332"
         id="path5238" />
      <path
         d="m 116.72613,184.60702 q 1.21543,-1.30225 2.80293,-2.54248 0.57051,-0.44649 1.21543,-0.83096 0.32246,-0.18604 0.40928,-0.18604 0.18604,0 0.37207,0.27286 0.11162,0.14882 0.11162,0.27285 0,0.22324 -0.47129,0.60771 -1.26504,1.00459 -1.26504,1.51309 0,0.28525 0.32247,0.28525 0.5333,0 1.83554,-0.88057 0.22324,-0.14882 0.37207,-0.14882 0.0992,0 0.19844,0.0992 0.11162,0.11162 0.11162,0.23564 0,0.37207 -1.0418,1.14102 -1.0914,0.81855 -2.07119,0.81855 -0.39687,0 -0.73174,-0.21084 -0.28525,-0.17363 -0.28525,-0.62012 0,-0.31006 0.26045,-0.70693 -0.97979,0.69453 -2.30684,2.38125 -0.76894,1.0418 -1.52548,2.56728 -0.28526,0.57051 -0.70694,0.57051 -0.45888,0 -0.45888,-0.43408 0,-0.42168 0.71933,-2.25723 1.0666,-2.72851 2.23242,-4.2292 0.71934,-0.93017 1.20303,-0.93017 0.16123,0 0.29766,0.0992 0.16123,0.12402 0.16123,0.31006 0,0.18603 -0.24805,0.52089 -0.0496,0.062 -0.65732,0.83096 -0.55811,0.73174 -0.85577,1.45108 z"
         style="stroke-width:0.26458332"
         id="path5240" />
      <path
         d="m 133.09722,180.70028 q -0.80615,1.25263 -1.48828,2.80293 -0.97978,2.20761 -0.97978,3.29902 0,0.31006 0.12402,0.47129 0.13643,0.16123 0.39688,0.16123 0.62011,0 1.50068,-1.16582 0.5581,-0.71934 0.99219,-1.43867 0.23564,-0.40928 0.50849,-0.40928 0.16123,0 0.27285,0.11162 0.0992,0.11162 0.0992,0.22324 0,0.45889 -1.20302,2.04639 -1.43868,1.90996 -2.6293,1.90996 -0.63252,0 -1.0542,-0.58291 -0.26045,-0.37207 -0.26045,-1.0542 0,-1.50068 0.86816,-3.49746 0.21084,-0.49609 1.16582,-2.39365 -0.33486,0.0868 -0.50849,0.0868 -0.26045,0 -0.45889,-0.12403 -0.27285,-0.17363 -0.27285,-0.43408 0,-0.31006 0.35967,-0.49609 0.0992,-0.0496 0.91777,-0.16123 0.29766,-0.0496 0.86817,-0.23565 0.43408,-0.78135 1.41386,-2.1208 0.54571,-0.74414 0.75655,-0.96738 0.29765,-0.31006 0.52089,-0.31006 0.16123,0 0.32247,0.17363 0.14882,0.16123 0.14882,0.32246 0,0.32246 -0.69453,1.27744 -0.45888,0.62012 -0.68213,1.00459 1.37666,-0.37207 1.97198,-0.37207 0.68212,0 0.68212,0.57051 0,0.28526 -0.23564,0.42168 -0.12402,0.0744 -0.64492,0.12402 -0.21084,-0.0124 -1.87276,0.47129 -0.45888,0.13643 -0.90537,0.28526 z"
         style="stroke-width:0.26458332"
         id="path5242" />
      <path
         d="m 138.00855,181.25838 q 0.21084,0 0.34727,0.16123 0.0992,0.13643 0.0992,0.27286 0,0.22324 -0.35967,0.74414 -1.28985,1.99677 -1.83555,3.28662 -0.58291,1.32705 -1.02939,2.72851 -0.19844,0.62012 -0.62012,0.62012 -0.24805,0 -0.39688,-0.19844 -0.13642,-0.16123 -0.13642,-0.34726 0,-0.37207 0.79375,-2.48047 0.62012,-1.66192 2.00918,-3.6711 0.44648,-0.65732 0.66973,-0.88056 0.22324,-0.23565 0.45888,-0.23565 z m 2.35645,-4.60127 q 0.5581,0 0.5581,0.57051 0,0.5209 -0.5457,1.15342 -0.5209,0.60771 -1.00459,0.60771 -0.23564,0 -0.38447,-0.17363 -0.14883,-0.16123 -0.14883,-0.39687 0,-0.59532 0.65732,-1.26504 0.48369,-0.4961 0.86817,-0.4961 z"
         style="stroke-width:0.26458332"
         id="path5244" />
      <path
         d="m 140.26578,184.55741 q 1.04179,-1.09141 1.83554,-1.71153 1.20303,-0.93017 1.61231,-0.93017 0.19844,0 0.34726,0.14883 0.13643,0.13642 0.13643,0.29765 0,0.23565 -0.43408,0.76895 -0.66973,0.84336 -0.93018,1.43867 2.90215,-2.91455 3.96875,-2.91455 0.22324,0 0.38447,0.13642 0.17364,0.14883 0.17364,0.37207 0,0.34727 -0.5333,0.89297 -2.34405,2.41846 -2.34405,3.96875 0,0.63252 0.22325,0.90537 l 0.32246,0.40928 q 0.0992,0.11162 0.0992,0.28526 0,0.19843 -0.16123,0.37207 -0.18604,0.19843 -0.42168,0.19843 -0.40928,0 -0.75655,-0.5209 -0.42168,-0.62011 -0.42168,-1.46347 0,-1.12862 0.64492,-2.28203 0.22325,-0.40928 0.74415,-1.09141 -1.0542,0.79375 -2.14561,2.18281 -0.74414,0.94258 -1.33945,2.1084 -0.28526,0.55811 -0.66973,0.55811 -0.42168,0 -0.42168,-0.47129 0,-0.5085 0.69453,-2.096 0.39688,-0.90537 0.97979,-1.90996 -2.1208,1.63711 -3.18741,4.44004 -0.26044,0.62012 -0.69453,0.62012 -0.19843,0 -0.32246,-0.14883 -0.13642,-0.14883 -0.13642,-0.35967 0,-0.73174 0.81855,-2.6417 0.85576,-2.02158 1.93477,-3.63388 0.74414,-1.12862 1.15341,-1.12862 0.37208,0 0.37208,0.39688 0,0.17363 -0.45889,0.86816 -0.80615,1.30225 -1.0666,1.93477 z"
         style="stroke-width:0.26458332"
         id="path5246" />
      <path
         d="m 148.12886,186.30614 v 0.22324 q 0,0.27285 0.13643,0.47129 0.31006,0.45889 1.01699,0.45889 1.5503,0 3.58428,-2.38125 0.35967,-0.40928 0.60771,-0.40928 0.13643,0 0.24805,0.13642 0.0744,0.0992 0.0744,0.18604 0,0.48369 -1.19063,1.63711 -0.93018,0.90537 -1.98437,1.47588 -1.0542,0.5705 -1.95957,0.5705 -0.93018,0 -1.46348,-0.64492 -0.35967,-0.44648 -0.35967,-1.21543 0,-2.09599 1.97197,-4.10517 1.59991,-1.63711 2.79053,-1.63711 0.32246,0 0.58291,0.19844 0.32246,0.26044 0.32246,0.68212 0,0.65733 -0.60771,1.61231 -1.25264,1.98437 -3.77032,2.74092 z m 0.27286,-0.96739 q 0.86816,-0.29765 1.36425,-0.66972 0.86817,-0.66973 1.37666,-1.51309 0.18604,-0.29765 0.18604,-0.5333 0,-0.24805 -0.23565,-0.24805 -0.32246,0 -0.91777,0.4837 -1.0666,0.85576 -1.77353,2.48046 z"
         style="stroke-width:0.26458332"
         id="path5248" />
      <path
         d="m 155.32223,187.78202 q 0.27285,0 0.45888,0.24804 0.12403,0.16123 0.12403,0.40928 0,0.58291 -0.32246,1.22783 -0.33487,0.68213 -0.88057,0.68213 -0.57051,0 -0.57051,-0.64492 0,-0.64492 0.39688,-1.31465 0.35967,-0.60771 0.79375,-0.60771 z"
         style="stroke-width:0.26458332"
         id="path5250" />
    </g>
  </g>
</svg>
