<?xml version="1.0" encoding="UTF-8" standalone="no"?>
<!-- Created with Inkscape (http://www.inkscape.org/) -->

<svg
   xmlns:dc="http://purl.org/dc/elements/1.1/"
   xmlns:cc="http://creativecommons.org/ns#"
   xmlns:rdf="http://www.w3.org/1999/02/22-rdf-syntax-ns#"
   xmlns:svg="http://www.w3.org/2000/svg"
   xmlns="http://www.w3.org/2000/svg"
   xmlns:sodipodi="http://sodipodi.sourceforge.net/DTD/sodipodi-0.dtd"
   xmlns:inkscape="http://www.inkscape.org/namespaces/inkscape"
   width="210mm"
   height="297mm"
   viewBox="0 0 210 297"
   version="1.1"
   id="svg5166"
   inkscape:version="0.92.1 r15371"
   sodipodi:docname="script_splash.svg">
  <defs
     id="defs5160" />
  <sodipodi:namedview
     id="base"
     pagecolor="#ffffff"
     bordercolor="#666666"
     borderopacity="1.0"
     inkscape:pageopacity="0.0"
     inkscape:pageshadow="2"
     inkscape:zoom="0.49497475"
     inkscape:cx="476.47175"
     inkscape:cy="403.2218"
     inkscape:document-units="mm"
     inkscape:current-layer="layer2"
     showgrid="false"
     inkscape:window-width="1366"
     inkscape:window-height="705"
     inkscape:window-x="-8"
     inkscape:window-y="-8"
     inkscape:window-maximized="1"
     showguides="false" />
  <metadata
     id="metadata5163">
    <rdf:RDF>
      <cc:Work
         rdf:about="">
        <dc:format>image/svg+xml</dc:format>
        <dc:type
           rdf:resource="http://purl.org/dc/dcmitype/StillImage" />
        <dc:title />
      </cc:Work>
    </rdf:RDF>
  </metadata>
  <g
     inkscape:label="Layer 1"
     inkscape:groupmode="layer"
     id="layer1"
     style="display:inline">
    <rect
       style="fill:#ffdd55;fill-opacity:1;stroke:#000000;stroke-width:2;stroke-miterlimit:4;stroke-dasharray:none;stroke-opacity:1"
       id="rect5871"
       width="264.58334"
       height="231.32143"
       x="-24.190477"
       y="-33.351189" />
    <rect
       style="fill:#800000;fill-opacity:1;stroke:#000000;stroke-width:2;stroke-miterlimit:4;stroke-dasharray:none;stroke-opacity:1"
       id="rect5873"
       width="327.32736"
       height="189.74405"
       x="-55.184521"
       y="130.69048" />
  </g>
  <g
     inkscape:groupmode="layer"
     id="layer2"
     inkscape:label="Layer 2"
     style="display:inline">
    <g
       id="g5851">
      <path
         sodipodi:nodetypes="sssccssscs"
         inkscape:connector-curvature="0"
         id="path5713-9"
         d="m 192.57887,99.920633 c 0,9.185027 -13.53805,16.630957 -30.23809,16.630957 -16.70004,0 -30.2381,-7.44593 -30.2381,-16.630957 0,-5.530331 4.90793,-10.430192 12.4589,-13.453899 L 71.485399,85.96203 c 8.02079,2.825635 13.181268,8.029617 13.181268,13.734393 0,9.185027 -13.538054,16.630957 -30.238094,16.630957 -16.700041,0 -30.238095,-7.44593 -30.238095,-16.630957 0,-5.53033 6.419832,-39.723346 85.344922,-42.775196 79.3949,2.797492 83.04347,37.294629 83.04347,42.999406 z"
         style="fill:#ff0000;fill-opacity:1;stroke:#000000;stroke-width:2;stroke-miterlimit:4;stroke-dasharray:none;stroke-opacity:1" />
      <path
         sodipodi:nodetypes="ssscs"
         inkscape:connector-curvature="0"
         id="path5746"
         d="m 66.52381,147.51042 c 3e-6,-24.52818 18.868667,-44.4122 42.14434,-44.4122 23.27568,0 42.14435,19.88402 42.14435,44.4122 0,24.52818 -12.82105,21.35565 -41.76637,21.16666 -28.945319,-0.18899 -42.522317,3.36152 -42.52232,-21.16666 z"
         style="fill:#ff0000;fill-opacity:1;stroke:#000000;stroke-width:2;stroke-miterlimit:4;stroke-dasharray:none;stroke-opacity:1" />
      <rect
         y="86.278275"
         x="99.21875"
         height="23.056549"
         width="17.575893"
         id="rect5749"
         style="fill:#000000;fill-opacity:1;stroke:#000000;stroke-width:2;stroke-miterlimit:4;stroke-dasharray:none;stroke-opacity:1" />
      <path
         sodipodi:nodetypes="ccsccsc"
         inkscape:connector-curvature="0"
         id="rect5753"
         d="m 106.21131,70.214283 15.875,-0.377976 c 0,0 0.60834,6.118851 -1.13392,10.016371 -1.05531,2.360772 -4.34673,6.425594 -4.34673,6.425594 H 99.21875 c 0,0 5.97592,-4.283095 6.4256,-7.559522 0.62274,-4.537445 0.56696,-8.504467 0.56696,-8.504467 z"
         style="fill:#000000;fill-opacity:1;stroke:#000000;stroke-width:2;stroke-miterlimit:4;stroke-dasharray:none;stroke-opacity:1" />
      <circle
         r="20.713387"
         cy="138.91006"
         cx="109.04596"
         id="path5756"
         style="fill:#ffeeaa;fill-opacity:1;stroke:#000000;stroke-width:2;stroke-miterlimit:4;stroke-dasharray:none;stroke-opacity:1" />
      <circle
         r="3.0735996"
         cy="124.21026"
         cx="107.97688"
         id="path5758"
         style="fill:#ffeeaa;fill-opacity:1;stroke:#000000;stroke-width:2;stroke-miterlimit:4;stroke-dasharray:none;stroke-opacity:1" />
      <circle
         r="3.0735996"
         cy="126.21476"
         cx="116.39587"
         id="path5758-0"
         style="fill:#ffeeaa;fill-opacity:1;stroke:#000000;stroke-width:2;stroke-miterlimit:4;stroke-dasharray:none;stroke-opacity:1" />
      <circle
         r="3.0735996"
         cy="141.18185"
         cx="123.47852"
         id="path5758-7"
         style="fill:#ffeeaa;fill-opacity:1;stroke:#000000;stroke-width:2;stroke-miterlimit:4;stroke-dasharray:none;stroke-opacity:1" />
      <circle
         r="3.0735996"
         cy="148.93266"
         cx="119.73674"
         id="path5758-6"
         style="fill:#ffeeaa;fill-opacity:1;stroke:#000000;stroke-width:2;stroke-miterlimit:4;stroke-dasharray:none;stroke-opacity:1" />
      <circle
         r="3.0735996"
         cy="153.07536"
         cx="111.18414"
         id="path5758-9"
         style="fill:#ffeeaa;fill-opacity:1;stroke:#000000;stroke-width:2;stroke-miterlimit:4;stroke-dasharray:none;stroke-opacity:1" />
      <circle
         r="3.0735996"
         cy="151.3381"
         cx="102.23059"
         id="path5758-60"
         style="fill:#ffeeaa;fill-opacity:1;stroke:#000000;stroke-width:2;stroke-miterlimit:4;stroke-dasharray:none;stroke-opacity:1" />
      <circle
         r="3.0735996"
         cy="144.65637"
         cx="96.083397"
         id="path5758-4"
         style="fill:#ffeeaa;fill-opacity:1;stroke:#000000;stroke-width:2;stroke-miterlimit:4;stroke-dasharray:none;stroke-opacity:1" />
      <circle
         r="3.0735996"
         cy="135.83647"
         cx="94.613419"
         id="path5758-48"
         style="fill:#ffeeaa;fill-opacity:1;stroke:#000000;stroke-width:2;stroke-miterlimit:4;stroke-dasharray:none;stroke-opacity:1" />
      <circle
         r="3.0735996"
         cy="128.08566"
         cx="98.756088"
         id="path5758-1"
         style="fill:#ffeeaa;fill-opacity:1;stroke:#000000;stroke-width:2;stroke-miterlimit:4;stroke-dasharray:none;stroke-opacity:1" />
      <circle
         r="3.0735996"
         cy="132.62924"
         cx="123.21125"
         id="path5758-10"
         style="fill:#ffeeaa;fill-opacity:1;stroke:#000000;stroke-width:2;stroke-miterlimit:4;stroke-dasharray:none;stroke-opacity:1" />
      <path
         sodipodi:nodetypes="ccccccc"
         inkscape:connector-curvature="0"
         id="rect5832"
         d="m 120.93946,136.23737 c 0,0 3.61922,2.27252 7.34991,2.80632 l 6.28084,-2.80632 v 0.53453 l -6.28084,2.27179 -7.34991,-2.27179 z"
         style="fill:#000000;fill-opacity:1;stroke:#000000;stroke-width:2;stroke-miterlimit:4;stroke-dasharray:none;stroke-opacity:1" />
    </g>
    <rect
       style="fill:#ffffff;fill-opacity:1;stroke:#000000;stroke-width:2;stroke-miterlimit:4;stroke-dasharray:none;stroke-opacity:1"
       id="rect5875"
       width="187.47618"
       height="180.67261"
       x="12.851191"
       y="177.55952" />
    <g
       aria-label="Leave A Message"
       style="font-style:normal;font-variant:normal;font-weight:normal;font-stretch:normal;font-size:25.39999962px;line-height:1.25;font-family:'Freestyle Script';-inkscape-font-specification:'Freestyle Script';letter-spacing:0px;word-spacing:0px;fill:#000000;fill-opacity:1;stroke:none;stroke-width:0.26458332"
       id="text5879">
      <path
         d="m 55.891458,207.30034 q 0.334863,-0.0992 0.496094,-0.14882 2.864941,-0.88057 4.105176,-0.88057 0.930175,0 0.930175,0.69453 0,0.27285 -0.210839,0.48369 -0.21084,0.21084 -0.47129,0.21084 -0.124023,0 -0.359668,-0.0372 -0.198437,-0.0372 -0.32246,-0.0372 -0.731739,0 -1.922364,0.33486 -0.434082,0.13643 -1.674316,0.69453 -0.830957,0.37207 -1.364258,0.37207 -0.384473,0 -0.632519,-0.35966 -0.235645,-0.33487 -0.235645,-0.70694 0,-0.45888 0.508496,-1.55029 1.550293,-3.37344 3.323828,-6.05234 2.542481,-3.84473 3.943945,-5.64307 0.384473,-0.48369 0.768946,-0.97979 0.607715,-0.81855 1.054199,-0.81855 0.223242,0 0.396875,0.17363 0.16123,0.17363 0.16123,0.35967 0,0.27285 -0.421679,0.84336 -0.08682,0.11162 -1.029395,1.35185 -1.761133,2.31924 -2.629297,3.54708 -0.855761,1.22783 -1.835546,2.84013 -1.922364,3.1626 -2.579688,5.3082 z"
         style="font-style:normal;font-variant:normal;font-weight:normal;font-stretch:normal;line-height:0;font-family:'Freestyle Script';-inkscape-font-specification:'Freestyle Script';stroke-width:0.26458332"
         id="path40" />
      <path
         d="m 63.320462,205.96089 v 0.22324 q 0,0.27286 0.136426,0.47129 0.310058,0.45889 1.016992,0.45889 1.550293,0 3.584277,-2.38125 0.359668,-0.40928 0.607715,-0.40928 0.136426,0 0.248047,0.13643 0.07441,0.0992 0.07441,0.18603 0,0.48369 -1.190625,1.63711 -0.930176,0.90537 -1.984375,1.47588 -1.054199,0.57051 -1.95957,0.57051 -0.930176,0 -1.463477,-0.64492 -0.359668,-0.44649 -0.359668,-1.21543 0,-2.096 1.971973,-4.10518 1.599902,-1.63711 2.790527,-1.63711 0.322461,0 0.58291,0.19844 0.322461,0.26045 0.322461,0.68213 0,0.65732 -0.607715,1.6123 -1.252637,1.98438 -3.770312,2.74092 z m 0.272851,-0.96738 q 0.868164,-0.29766 1.364258,-0.66973 0.868164,-0.66972 1.37666,-1.51308 0.186035,-0.29766 0.186035,-0.5333 0,-0.24805 -0.235644,-0.24805 -0.322461,0 -0.917774,0.48369 -1.066601,0.85576 -1.773535,2.48047 z"
         style="font-style:normal;font-variant:normal;font-weight:normal;font-stretch:normal;line-height:0;font-family:'Freestyle Script';-inkscape-font-specification:'Freestyle Script';stroke-width:0.26458332"
         id="path42" />
      <path
         d="m 72.99429,206.29576 q -0.409277,0.71933 -0.806152,1.21542 -0.781348,0.96739 -1.550293,0.96739 -0.669727,0 -1.041797,-0.63252 -0.235645,-0.40928 -0.235645,-0.96738 0,-1.37666 0.868165,-3.03858 0.967382,-1.84795 2.33164,-2.84014 0.892969,-0.64492 1.723926,-0.64492 0.520898,0 0.868164,0.32246 0.297656,0.28526 0.297656,0.64493 0,0.27285 -0.21084,0.75654 0.186035,0.26045 0.186035,0.45888 0,0.26045 -0.347265,0.85577 -0.359668,0.60771 -0.719336,1.6123 -0.384473,1.0666 -0.384473,1.71152 0,0.5209 0.310059,0.85577 0.08682,0.0868 0.508496,0.28525 0.310059,0.14883 0.310059,0.5209 0,0.23564 -0.173633,0.38447 -0.186035,0.16123 -0.434082,0.16123 -0.669727,0 -1.153418,-0.59531 -0.396875,-0.48369 -0.396875,-1.21543 0,-0.24805 0.04961,-0.81855 z m 1.550293,-4.08038 q -0.148828,-0.27285 -0.322461,-0.39687 -0.173633,-0.13643 -0.37207,-0.13643 -0.942578,0 -2.046387,1.64951 -1.21543,1.82315 -1.21543,3.08819 0,0.31006 0.111622,0.47129 0.124023,0.16123 0.359668,0.16123 0.595312,0 1.389062,-1.26504 0.446484,-0.69453 1.103809,-2.04639 0.434082,-0.88056 0.632519,-1.16582 0.09922,-0.14883 0.359668,-0.35967 z"
         style="font-style:normal;font-variant:normal;font-weight:normal;font-stretch:normal;line-height:0;font-family:'Freestyle Script';-inkscape-font-specification:'Freestyle Script';stroke-width:0.26458332"
         id="path44" />
      <path
         d="m 80.522511,204.9563 q -0.756543,1.30225 -1.302246,1.93477 -1.327051,1.56269 -2.207617,1.56269 -0.533301,0 -0.818555,-0.58291 -0.198437,-0.38447 -0.198437,-0.80615 0,-0.81855 0.706933,-2.36885 0.63252,-1.35185 1.066602,-2.1332 0.322461,-0.55811 0.384473,-0.73174 0.148828,-0.33486 0.260449,-0.50849 0.16123,-0.26045 0.446484,-0.26045 0.148828,0 0.260449,0.12402 0.124024,0.14883 0.124024,0.34727 0,0.5581 -1.00459,2.49287 -1.00459,1.90996 -1.00459,2.53007 0,0.39688 0.310059,0.39688 0.533301,0 1.513086,-1.38906 0.434082,-0.62012 0.905371,-1.5751 -0.0124,-0.31006 -0.0124,-0.47129 0,-0.93018 0.347266,-1.6123 0.446484,-0.88057 1.203027,-0.88057 0.434082,0 0.434082,0.5209 0,0.83095 -0.868164,2.44326 0.248047,0.0496 0.396875,0.0496 0.409278,0 1.066602,-0.5209 0.520898,-0.42168 0.682129,-0.42168 0.136426,0 0.285254,0.16123 0.111621,0.13643 0.111621,0.27285 0,0.44649 -0.620117,1.00459 -0.719336,0.63252 -1.63711,0.63252 -0.359668,0 -0.830957,-0.21084 z"
         style="font-style:normal;font-variant:normal;font-weight:normal;font-stretch:normal;line-height:0;font-family:'Freestyle Script';-inkscape-font-specification:'Freestyle Script';stroke-width:0.26458332"
         id="path46" />
      <path
         d="m 83.957962,205.96089 v 0.22324 q 0,0.27286 0.136426,0.47129 0.310058,0.45889 1.016992,0.45889 1.550293,0 3.584277,-2.38125 0.359668,-0.40928 0.607715,-0.40928 0.136426,0 0.248047,0.13643 0.07441,0.0992 0.07441,0.18603 0,0.48369 -1.190625,1.63711 -0.930176,0.90537 -1.984375,1.47588 -1.054199,0.57051 -1.95957,0.57051 -0.930176,0 -1.463477,-0.64492 -0.359668,-0.44649 -0.359668,-1.21543 0,-2.096 1.971973,-4.10518 1.599902,-1.63711 2.790527,-1.63711 0.322461,0 0.58291,0.19844 0.322461,0.26045 0.322461,0.68213 0,0.65732 -0.607715,1.6123 -1.252636,1.98438 -3.770312,2.74092 z m 0.272852,-0.96738 q 0.868164,-0.29766 1.364257,-0.66973 0.868164,-0.66972 1.376661,-1.51308 0.186035,-0.29766 0.186035,-0.5333 0,-0.24805 -0.235645,-0.24805 -0.322461,0 -0.917773,0.48369 -1.066602,0.85576 -1.773535,2.48047 z"
         style="font-style:normal;font-variant:normal;font-weight:normal;font-stretch:normal;line-height:0;font-family:'Freestyle Script';-inkscape-font-specification:'Freestyle Script';stroke-width:0.26458332"
         id="path48" />
      <path
         d="m 105.10396,201.49605 q -2.81533,0.5581 -4.71289,1.31465 -1.141019,1.67431 -2.505277,4.01836 l -0.657324,1.15341 q -0.173633,0.31006 -0.533301,0.89297 -0.396875,0.68213 -0.830957,0.68213 -0.235644,0 -0.396875,-0.18603 -0.16123,-0.16123 -0.16123,-0.35967 0,-0.34727 0.930176,-1.97197 0.508496,-0.88057 1.53789,-2.49288 0.396875,-0.62011 0.63252,-1.01699 -0.744141,0.21084 -1.364258,0.48369 -0.297656,0.13643 -0.496094,0.13643 -0.248047,0 -0.384472,-0.22324 -0.09922,-0.13643 -0.09922,-0.32246 0,-0.42168 0.297656,-0.59532 0.483691,-0.29765 1.736328,-0.68212 0.930176,-0.29766 1.475879,-0.54571 0.260449,-0.32246 1.364258,-1.89756 0.47129,-0.68213 2.67891,-3.22461 1.5875,-1.86035 3.27421,-3.46025 0.97979,-0.94258 1.50069,-0.94258 0.32246,0 0.5581,0.26045 0.19844,0.23565 0.19844,0.5209 0,0.34727 -0.34726,1.21543 -0.59532,1.52549 -1.14102,3.26182 -0.47129,1.53789 -0.63252,2.35644 0.22324,0 0.29766,-0.0124 0.35966,-0.0124 0.59531,-0.0124 0.71934,0 0.71934,0.5457 0,0.23564 -0.16124,0.47129 -0.14882,0.22324 -0.34726,0.27285 -0.0744,0.0248 -0.40928,0.0248 -0.70693,0 -1.0542,0.0868 -0.29765,0.88057 -0.94258,4.50205 -0.33486,2.40606 -0.32246,2.95176 0,0.89297 -0.5333,0.89297 -0.42168,0 -0.65732,-0.43408 -0.17363,-0.29766 -0.17363,-0.80616 0,-1.71152 0.60771,-4.61367 0.31006,-1.46347 0.45889,-2.24482 z m 0.34726,-1.33946 q 0.11162,-0.35966 0.57051,-1.92236 0.11162,-0.40928 0.57051,-1.62471 0.45889,-1.25263 0.73174,-2.00917 -0.80616,0.5333 -1.63711,1.41386 -2.92696,3.1502 -4.12998,5.14697 0.45888,-0.11162 1.97197,-0.5581 0.43408,-0.12402 1.92236,-0.44649 z"
         style="font-style:normal;font-variant:normal;font-weight:normal;font-stretch:normal;line-height:0;font-family:'Freestyle Script';-inkscape-font-specification:'Freestyle Script';stroke-width:0.26458332"
         id="path50" />
      <path
         d="m 120.80533,204.47261 q 0.39687,-0.58291 1.83554,-2.80293 1.22783,-1.89756 3.91914,-5.46943 1.5627,-2.07119 2.82774,-3.47266 0.75654,-0.84336 1.33945,-0.84336 0.33486,0 0.55811,0.23565 0.19843,0.18603 0.19843,0.47129 0,0.42168 -0.50849,1.32705 -0.0992,0.18603 -1.017,1.79834 -1.6371,2.90214 -2.22001,4.14238 -1.59991,3.39824 -2.34405,5.79189 -0.43408,1.42627 -0.43408,2.096 0,0.14883 0.0248,0.31006 0.062,0.48369 0.062,0.57051 0,0.35966 -0.27285,0.66972 -0.23565,0.28526 -0.53331,0.28526 -0.34726,0 -0.5705,-0.40928 -0.18604,-0.31006 -0.18604,-0.86817 0,-3.50986 5.85391,-13.7914 -3.06338,3.27422 -6.78408,9.37617 -0.81856,1.32705 -1.35186,1.79834 -0.5209,0.45889 -0.99219,0.45889 -0.47129,0 -0.69453,-0.40928 -0.14883,-0.27285 -0.14883,-0.63252 0,-3.10059 3.6835,-9.76064 -1.25264,1.27744 -2.40606,2.96416 -2.09599,3.11298 -3.7455,6.3872 -0.78135,1.5751 -1.89756,4.2044 -0.55811,1.33945 -1.28985,1.33945 -0.18603,0 -0.31005,-0.16123 -0.0992,-0.11162 -0.0992,-0.27285 0,-0.23565 0.45888,-1.28985 0.97979,-2.31923 1.50069,-3.33623 2.6665,-5.19658 6.31279,-9.77304 1.52549,-1.90996 2.1084,-2.48047 0.60771,-0.58291 1.00459,-0.58291 0.24805,0 0.48369,0.22324 0.28525,0.26045 0.28525,0.59531 0,0.37207 -0.52089,1.22784 -1.48829,2.43085 -2.74092,5.45703 -1.07901,2.72851 -1.38906,4.62607 z"
         style="font-style:normal;font-variant:normal;font-weight:normal;font-stretch:normal;line-height:0;font-family:'Freestyle Script';-inkscape-font-specification:'Freestyle Script';stroke-width:0.26458332"
         id="path52" />
      <path
         d="m 129.40015,205.96089 v 0.22324 q 0,0.27286 0.13642,0.47129 0.31006,0.45889 1.01699,0.45889 1.5503,0 3.58428,-2.38125 0.35967,-0.40928 0.60772,-0.40928 0.13642,0 0.24804,0.13643 0.0744,0.0992 0.0744,0.18603 0,0.48369 -1.19063,1.63711 -0.93017,0.90537 -1.98437,1.47588 -1.0542,0.57051 -1.95957,0.57051 -0.93018,0 -1.46348,-0.64492 -0.35967,-0.44649 -0.35967,-1.21543 0,-2.096 1.97198,-4.10518 1.5999,-1.63711 2.79052,-1.63711 0.32246,0 0.58291,0.19844 0.32246,0.26045 0.32246,0.68213 0,0.65732 -0.60771,1.6123 -1.25264,1.98438 -3.77031,2.74092 z m 0.27285,-0.96738 q 0.86816,-0.29766 1.36426,-0.66973 0.86816,-0.66972 1.37666,-1.51308 0.18603,-0.29766 0.18603,-0.5333 0,-0.24805 -0.23564,-0.24805 -0.32246,0 -0.91778,0.48369 -1.0666,0.85576 -1.77353,2.48047 z"
         style="font-style:normal;font-variant:normal;font-weight:normal;font-stretch:normal;line-height:0;font-family:'Freestyle Script';-inkscape-font-specification:'Freestyle Script';stroke-width:0.26458332"
         id="path54" />
      <path
         d="m 141.12037,200.10699 q 0.76894,0 1.15341,0.27285 0.38448,0.27285 0.38448,0.83095 0,0.73174 -0.54571,1.41387 -0.5209,0.64492 -1.56269,1.0418 -0.57051,0.21084 -0.95498,0.21084 -0.5209,0 -0.5209,-0.45889 0,-0.31006 0.29766,-0.47129 0.0744,-0.0372 0.84335,-0.21084 0.45889,-0.0992 0.84336,-0.43408 0.33487,-0.28525 0.33487,-0.62012 0,-0.26045 -0.14883,-0.38447 -0.14883,-0.12402 -0.44649,-0.12402 -0.71933,0 -1.5875,0.58291 -1.00458,0.65732 -1.00458,1.56269 0,0.64492 0.65732,1.61231 0.73174,1.0542 0.73174,1.78593 0,1.09141 -0.96739,1.71153 -0.59531,0.38447 -1.35185,0.38447 -1.19063,0 -1.81074,-0.85576 -0.43408,-0.60772 -0.43408,-1.43867 0,-0.96739 0.49609,-1.62471 0.32246,-0.43408 0.66973,-0.43408 0.31005,0 0.31005,0.24805 0,0.0992 -0.11162,0.29765 -0.28525,0.5333 -0.28525,1.25264 0,0.60771 0.43408,1.02939 0.38447,0.37207 0.88057,0.37207 0.48369,0 0.75654,-0.32246 0.22324,-0.27285 0.22324,-0.69453 0,-0.5209 -0.59531,-1.35185 -0.81855,-1.14102 -0.81855,-2.0712 0,-1.24023 1.35185,-2.19521 1.31465,-0.91777 2.77813,-0.91777 z"
         style="font-style:normal;font-variant:normal;font-weight:normal;font-stretch:normal;line-height:0;font-family:'Freestyle Script';-inkscape-font-specification:'Freestyle Script';stroke-width:0.26458332"
         id="path56" />
      <path
         d="m 147.56958,200.10699 q 0.76895,0 1.15342,0.27285 0.38448,0.27285 0.38448,0.83095 0,0.73174 -0.54571,1.41387 -0.5209,0.64492 -1.56269,1.0418 -0.57051,0.21084 -0.95498,0.21084 -0.5209,0 -0.5209,-0.45889 0,-0.31006 0.29765,-0.47129 0.0744,-0.0372 0.84336,-0.21084 0.45889,-0.0992 0.84336,-0.43408 0.33487,-0.28525 0.33487,-0.62012 0,-0.26045 -0.14883,-0.38447 -0.14883,-0.12402 -0.44649,-0.12402 -0.71933,0 -1.5875,0.58291 -1.00459,0.65732 -1.00459,1.56269 0,0.64492 0.65733,1.61231 0.73174,1.0542 0.73174,1.78593 0,1.09141 -0.96739,1.71153 -0.59531,0.38447 -1.35185,0.38447 -1.19063,0 -1.81074,-0.85576 -0.43409,-0.60772 -0.43409,-1.43867 0,-0.96739 0.4961,-1.62471 0.32246,-0.43408 0.66972,-0.43408 0.31006,0 0.31006,0.24805 0,0.0992 -0.11162,0.29765 -0.28525,0.5333 -0.28525,1.25264 0,0.60771 0.43408,1.02939 0.38447,0.37207 0.88057,0.37207 0.48369,0 0.75654,-0.32246 0.22324,-0.27285 0.22324,-0.69453 0,-0.5209 -0.59531,-1.35185 -0.81856,-1.14102 -0.81856,-2.0712 0,-1.24023 1.35186,-2.19521 1.31465,-0.91777 2.77812,-0.91777 z"
         style="font-style:normal;font-variant:normal;font-weight:normal;font-stretch:normal;line-height:0;font-family:'Freestyle Script';-inkscape-font-specification:'Freestyle Script';stroke-width:0.26458332"
         id="path58" />
      <path
         d="m 151.97242,206.29576 q -0.40928,0.71933 -0.80616,1.21542 -0.78134,0.96739 -1.55029,0.96739 -0.66973,0 -1.0418,-0.63252 -0.23564,-0.40928 -0.23564,-0.96738 0,-1.37666 0.86816,-3.03858 0.96739,-1.84795 2.33164,-2.84014 0.89297,-0.64492 1.72393,-0.64492 0.5209,0 0.86816,0.32246 0.29766,0.28526 0.29766,0.64493 0,0.27285 -0.21084,0.75654 0.18604,0.26045 0.18604,0.45888 0,0.26045 -0.34727,0.85577 -0.35967,0.60771 -0.71934,1.6123 -0.38447,1.0666 -0.38447,1.71152 0,0.5209 0.31006,0.85577 0.0868,0.0868 0.5085,0.28525 0.31006,0.14883 0.31006,0.5209 0,0.23564 -0.17364,0.38447 -0.18603,0.16123 -0.43408,0.16123 -0.66973,0 -1.15342,-0.59531 -0.39687,-0.48369 -0.39687,-1.21543 0,-0.24805 0.0496,-0.81855 z m 1.55029,-4.08038 q -0.14883,-0.27285 -0.32246,-0.39687 -0.17363,-0.13643 -0.37207,-0.13643 -0.94258,0 -2.04639,1.64951 -1.21543,1.82315 -1.21543,3.08819 0,0.31006 0.11162,0.47129 0.12403,0.16123 0.35967,0.16123 0.59531,0 1.38906,-1.26504 0.44649,-0.69453 1.10381,-2.04639 0.43408,-0.88056 0.63252,-1.16582 0.0992,-0.14883 0.35967,-0.35967 z"
         style="font-style:normal;font-variant:normal;font-weight:normal;font-stretch:normal;line-height:0;font-family:'Freestyle Script';-inkscape-font-specification:'Freestyle Script';stroke-width:0.26458332"
         id="path60" />
      <path
         d="m 158.63247,207.27554 q 1.32705,-0.96738 1.97198,-1.76113 0.95498,-1.15342 1.35185,-1.87276 0.19844,-0.32246 0.40928,-0.32246 0.29766,0 0.29766,0.28526 0,0.33486 -0.47129,1.11621 -1.46348,2.38125 -4.39043,4.15478 -1.36426,2.85254 -2.00918,3.86953 -1.71153,2.67891 -3.22461,2.67891 -0.79375,0 -1.14102,-0.62012 -0.19844,-0.35967 -0.19844,-0.81855 0,-1.94717 2.50528,-3.73311 0.39687,-0.29765 3.2122,-1.86035 0.54571,-1.15342 0.84336,-1.81074 -1.30224,1.36426 -2.158,1.36426 -0.5333,0 -0.83096,-0.54571 -0.18604,-0.35966 -0.18604,-0.74414 0,-0.89297 0.73174,-2.29443 1.0418,-2.02158 2.50528,-3.19981 1.22783,-0.97978 2.17041,-0.97978 0.48369,0 0.83095,0.35967 0.23565,0.23564 0.23565,0.69453 0,0.57051 -0.38447,1.41387 0.28525,0.27285 0.28525,0.40927 0,0.0868 -0.12402,0.24805 -0.33487,0.45889 -1.07901,1.72393 -0.65732,1.1038 -1.15342,2.24482 z m -0.0868,-2.86494 q -0.17364,-0.18604 -0.17364,-0.26045 0,-0.11162 0.18604,-0.28525 0.62012,-0.59532 1.00459,-1.24024 0.31006,-0.50849 0.31006,-0.79375 0,-0.33486 -0.31006,-0.33486 -0.5333,0 -1.52549,1.01699 -1.17822,1.20303 -1.83555,2.69131 -0.32246,0.74414 -0.32246,1.14101 0,0.22325 0.0992,0.33487 0.0992,0.11162 0.28526,0.11162 0.43408,0 1.21543,-0.89297 0.49609,-0.57051 0.84336,-1.11621 0.23564,-0.35967 0.22324,-0.37207 z m -2.34405,5.41982 q -1.6371,0.69453 -2.88974,2.1084 -0.58291,0.65733 -0.83096,1.38906 -0.0744,0.22325 -0.0744,0.37207 0,0.16123 0.0744,0.28526 0.13643,0.22324 0.38447,0.22324 0.76895,0 1.79834,-1.64951 0.89297,-1.42627 1.53789,-2.72852 z"
         style="font-style:normal;font-variant:normal;font-weight:normal;font-stretch:normal;line-height:0;font-family:'Freestyle Script';-inkscape-font-specification:'Freestyle Script';stroke-width:0.26458332"
         id="path62" />
      <path
         d="m 163.72984,205.96089 v 0.22324 q 0,0.27286 0.13642,0.47129 0.31006,0.45889 1.01699,0.45889 1.5503,0 3.58428,-2.38125 0.35967,-0.40928 0.60772,-0.40928 0.13642,0 0.24804,0.13643 0.0744,0.0992 0.0744,0.18603 0,0.48369 -1.19063,1.63711 -0.93017,0.90537 -1.98437,1.47588 -1.0542,0.57051 -1.95957,0.57051 -0.93018,0 -1.46348,-0.64492 -0.35967,-0.44649 -0.35967,-1.21543 0,-2.096 1.97197,-4.10518 1.59991,-1.63711 2.79053,-1.63711 0.32246,0 0.58291,0.19844 0.32246,0.26045 0.32246,0.68213 0,0.65732 -0.60771,1.6123 -1.25264,1.98438 -3.77031,2.74092 z m 0.27285,-0.96738 q 0.86816,-0.29766 1.36425,-0.66973 0.86817,-0.66972 1.37666,-1.51308 0.18604,-0.29766 0.18604,-0.5333 0,-0.24805 -0.23564,-0.24805 -0.32247,0 -0.91778,0.48369 -1.0666,0.85576 -1.77353,2.48047 z"
         style="font-style:normal;font-variant:normal;font-weight:normal;font-stretch:normal;line-height:0;font-family:'Freestyle Script';-inkscape-font-specification:'Freestyle Script';stroke-width:0.26458332"
         id="path64" />
    </g>
    <rect
       style="fill:#87decd;fill-opacity:1;stroke:#87decd;stroke-width:1.99730265;stroke-miterlimit:4;stroke-dasharray:none;stroke-opacity:1"
       id="rect5889"
       width="2.267858"
       height="178.6778"
       x="33.261906"
       y="179.55435" />
    <rect
       style="fill:#87decd;fill-opacity:1;stroke:#87decd;stroke-width:1.9882853;stroke-miterlimit:4;stroke-dasharray:none;stroke-opacity:1"
       id="rect5891"
       width="183.53398"
       height="2.2710471"
       x="14.810604"
       y="216.58395" />
  </g>
</svg>
