<?xml version="1.0" encoding="UTF-8" standalone="no"?>
<!-- Created with Inkscape (http://www.inkscape.org/) -->

<svg
   xmlns:dc="http://purl.org/dc/elements/1.1/"
   xmlns:cc="http://creativecommons.org/ns#"
   xmlns:rdf="http://www.w3.org/1999/02/22-rdf-syntax-ns#"
   xmlns:svg="http://www.w3.org/2000/svg"
   xmlns="http://www.w3.org/2000/svg"
   xmlns:sodipodi="http://sodipodi.sourceforge.net/DTD/sodipodi-0.dtd"
   xmlns:inkscape="http://www.inkscape.org/namespaces/inkscape"
   width="210mm"
   height="297mm"
   viewBox="0 0 210 297"
   version="1.1"
   id="svg8"
   inkscape:version="0.92.1 r15371"
   sodipodi:docname="splash.svg">
  <defs
     id="defs2" />
  <sodipodi:namedview
     id="base"
     pagecolor="#ffffff"
     bordercolor="#666666"
     borderopacity="1.0"
     inkscape:pageopacity="0.0"
     inkscape:pageshadow="2"
     inkscape:zoom="0.49497475"
     inkscape:cx="190.34524"
     inkscape:cy="537.69151"
     inkscape:document-units="mm"
     inkscape:current-layer="layer1"
     showgrid="false"
     inkscape:window-width="1366"
     inkscape:window-height="705"
     inkscape:window-x="-8"
     inkscape:window-y="-8"
     inkscape:window-maximized="1" />
  <metadata
     id="metadata5">
    <rdf:RDF>
      <cc:Work
         rdf:about="">
        <dc:format>image/svg+xml</dc:format>
        <dc:type
           rdf:resource="http://purl.org/dc/dcmitype/StillImage" />
        <dc:title></dc:title>
      </cc:Work>
    </rdf:RDF>
  </metadata>
  <g
     inkscape:label="Layer 1"
     inkscape:groupmode="layer"
     id="layer1">
    <g
       id="g4587"
       transform="matrix(0.96155886,-0.43646976,0.27459891,0.9153323,-27.439662,54.192983)">
      <g
         aria-label="STUTTER
SUPPORT"
         style="font-style:normal;font-variant:normal;font-weight:bold;font-stretch:normal;font-size:25.39999962px;line-height:1.25;font-family:sans-serif;-inkscape-font-specification:'sans-serif Bold';text-align:center;letter-spacing:0px;word-spacing:0px;text-anchor:middle;fill:#000000;fill-opacity:1;stroke:none;stroke-width:0.26458332"
         id="text4487">
        <path
           d="m 53.063123,89.682491 v 3.91914 q -1.525488,-0.682129 -2.976562,-1.029394 -1.451074,-0.347266 -2.740918,-0.347266 -1.711524,0 -2.530078,0.471289 -0.818555,0.471289 -0.818555,1.463477 0,0.74414 0.545703,1.16582 0.558106,0.409277 2.00918,0.706934 l 2.033984,0.409277 q 3.088184,0.620117 4.39043,1.885156 1.302246,1.265039 1.302246,3.596676 0,3.06338 -1.823145,4.56407 -1.810742,1.48828 -5.543847,1.48828 -1.761133,0 -3.534668,-0.33487 -1.773535,-0.33486 -3.54707,-0.99218 v -4.03076 q 1.773535,0.94257 3.423047,1.42626 1.661914,0.47129 3.199804,0.47129 1.562695,0 2.393652,-0.52089 0.830958,-0.5209 0.830958,-1.48829 0,-0.86816 -0.570508,-1.33945 -0.558106,-0.47129 -2.244824,-0.84336 l -1.84795,-0.409276 q -2.778125,-0.595312 -4.067968,-1.897558 -1.277442,-1.302246 -1.277442,-3.509864 0,-2.765722 1.785938,-4.254003 1.785937,-1.488282 5.13457,-1.488282 1.525488,0 3.137793,0.235645 1.612305,0.223242 3.33623,0.682129 z"
           style="font-style:normal;font-variant:normal;font-weight:bold;font-stretch:normal;font-family:sans-serif;-inkscape-font-specification:'sans-serif Bold';text-align:center;text-anchor:middle;stroke-width:0.26458332"
           id="path4589" />
        <path
           d="m 56.27533,89.099581 h 17.065625 v 3.609082 H 67.201794 V 107.61628 H 62.426892 V 92.708663 H 56.27533 Z"
           style="font-style:normal;font-variant:normal;font-weight:bold;font-stretch:normal;font-family:sans-serif;-inkscape-font-specification:'sans-serif Bold';text-align:center;text-anchor:middle;stroke-width:0.26458332"
           id="path4591" />
        <path
           d="m 75.796618,89.099581 h 4.774902 v 11.100099 q 0,2.29443 0.744141,3.28662 0.756543,0.97978 2.455664,0.97978 1.711523,0 2.455664,-0.97978 0.756543,-0.99219 0.756543,-3.28662 V 89.099581 h 4.774902 v 11.100099 q 0,3.93154 -1.971972,5.8539 -1.971973,1.92237 -6.015137,1.92237 -4.030762,0 -6.002734,-1.92237 -1.971973,-1.92236 -1.971973,-5.8539 z"
           style="font-style:normal;font-variant:normal;font-weight:bold;font-stretch:normal;font-family:sans-serif;-inkscape-font-specification:'sans-serif Bold';text-align:center;text-anchor:middle;stroke-width:0.26458332"
           id="path4593" />
        <path
           d="m 94.226498,89.099581 h 17.065622 v 3.609082 h -6.13916 v 14.907617 h -4.7749 V 92.708663 h -6.151562 z"
           style="font-style:normal;font-variant:normal;font-weight:bold;font-stretch:normal;font-family:sans-serif;-inkscape-font-specification:'sans-serif Bold';text-align:center;text-anchor:middle;stroke-width:0.26458332"
           id="path4595" />
        <path
           d="m 112.13549,89.099581 h 17.06562 v 3.609082 h -6.13916 v 14.907617 h -4.7749 V 92.708663 h -6.15156 z"
           style="font-style:normal;font-variant:normal;font-weight:bold;font-stretch:normal;font-family:sans-serif;-inkscape-font-specification:'sans-serif Bold';text-align:center;text-anchor:middle;stroke-width:0.26458332"
           id="path4597" />
        <path
           d="m 131.65677,89.099581 h 12.88604 v 3.609082 h -8.11114 v 3.447851 h 7.62744 v 3.609082 h -7.62744 v 4.241604 h 8.38399 v 3.60908 h -13.15889 z"
           style="font-style:normal;font-variant:normal;font-weight:bold;font-stretch:normal;font-family:sans-serif;-inkscape-font-specification:'sans-serif Bold';text-align:center;text-anchor:middle;stroke-width:0.26458332"
           id="path4599" />
        <path
           d="m 155.80413,97.309932 q 1.50069,0 2.14561,-0.558105 0.65732,-0.558106 0.65732,-1.835547 0,-1.265039 -0.65732,-1.810742 -0.64492,-0.545703 -2.14561,-0.545703 h -2.00918 v 4.750097 z m -2.00918,3.299028 v 7.00732 h -4.7749 V 89.099581 h 7.29258 q 3.65869,0 5.35781,1.227832 1.71153,1.227832 1.71153,3.881933 0,1.835547 -0.89297,3.01377 -0.88057,1.178222 -2.66651,1.736328 0.97979,0.223242 1.74873,1.016992 0.78135,0.781344 1.5751,2.381254 l 2.59209,5.25859 h -5.08496 l -2.25723,-4.60127 q -0.68212,-1.38906 -1.38906,-1.89756 -0.69453,-0.50849 -1.86035,-0.50849 z"
           style="font-style:normal;font-variant:normal;font-weight:bold;font-stretch:normal;font-family:sans-serif;-inkscape-font-specification:'sans-serif Bold';text-align:center;text-anchor:middle;stroke-width:0.26458332"
           id="path4601" />
        <path
           d="m 50.533045,121.43249 v 3.91914 q -1.525488,-0.68213 -2.976562,-1.02939 -1.451074,-0.34727 -2.740918,-0.34727 -1.711524,0 -2.530078,0.47129 -0.818555,0.47129 -0.818555,1.46348 0,0.74414 0.545703,1.16582 0.558106,0.40927 2.00918,0.70693 l 2.033984,0.40928 q 3.088184,0.62011 4.39043,1.88515 1.302246,1.26504 1.302246,3.59668 0,3.06338 -1.823145,4.56407 -1.810742,1.48828 -5.543847,1.48828 -1.761133,0 -3.534668,-0.33487 -1.773535,-0.33486 -3.54707,-0.99218 v -4.03077 q 1.773535,0.94258 3.423046,1.42627 1.661914,0.47129 3.199805,0.47129 1.562695,0 2.393652,-0.5209 0.830957,-0.52089 0.830957,-1.48828 0,-0.86816 -0.570507,-1.33945 -0.558106,-0.47129 -2.244825,-0.84336 l -1.847949,-0.40928 q -2.778125,-0.59531 -4.067968,-1.89755 -1.277442,-1.30225 -1.277442,-3.50987 0,-2.76572 1.785938,-4.254 1.785937,-1.48828 5.13457,-1.48828 1.525488,0 3.137793,0.23564 1.612304,0.22324 3.33623,0.68213 z"
           style="font-style:normal;font-variant:normal;font-weight:bold;font-stretch:normal;font-family:sans-serif;-inkscape-font-specification:'sans-serif Bold';text-align:center;text-anchor:middle;stroke-width:0.26458332"
           id="path4603" />
        <path
           d="m 55.952869,120.84958 h 4.774902 v 11.1001 q 0,2.29443 0.744141,3.28662 0.756543,0.97978 2.455664,0.97978 1.711523,0 2.455664,-0.97978 0.756543,-0.99219 0.756543,-3.28662 v -11.1001 h 4.774902 v 11.1001 q 0,3.93154 -1.971973,5.8539 -1.971972,1.92237 -6.015136,1.92237 -4.030762,0 -6.002735,-1.92237 -1.971972,-1.92236 -1.971972,-5.8539 z"
           style="font-style:normal;font-variant:normal;font-weight:bold;font-stretch:normal;font-family:sans-serif;-inkscape-font-specification:'sans-serif Bold';text-align:center;text-anchor:middle;stroke-width:0.26458332"
           id="path4605" />
        <path
           d="m 76.59037,120.84958 h 7.925097 q 3.534668,0 5.419824,1.5751 1.897559,1.56269 1.897559,4.46484 0,2.91455 -1.897559,4.48965 -1.885156,1.5627 -5.419824,1.5627 h -3.150195 v 6.42441 H 76.59037 Z m 4.774902,3.46025 v 5.17178 h 2.641699 q 1.389063,0 2.145606,-0.66973 0.756542,-0.68212 0.756542,-1.92236 0,-1.24023 -0.756542,-1.90996 -0.756543,-0.66973 -2.145606,-0.66973 z"
           style="font-style:normal;font-variant:normal;font-weight:bold;font-stretch:normal;font-family:sans-serif;-inkscape-font-specification:'sans-serif Bold';text-align:center;text-anchor:middle;stroke-width:0.26458332"
           id="path4607" />
        <path
           d="m 95.193885,120.84958 h 7.925095 q 3.53467,0 5.41983,1.5751 1.89756,1.56269 1.89756,4.46484 0,2.91455 -1.89756,4.48965 -1.88516,1.5627 -5.41983,1.5627 h -3.150192 v 6.42441 h -4.774903 z m 4.774903,3.46025 v 5.17178 h 2.641702 q 1.38906,0 2.1456,-0.66973 0.75655,-0.68212 0.75655,-1.92236 0,-1.24023 -0.75655,-1.90996 -0.75654,-0.66973 -2.1456,-0.66973 z"
           style="font-style:normal;font-variant:normal;font-weight:bold;font-stretch:normal;font-family:sans-serif;-inkscape-font-specification:'sans-serif Bold';text-align:center;text-anchor:middle;stroke-width:0.26458332"
           id="path4609" />
        <path
           d="m 122.2558,123.97497 q -2.18281,0 -3.38584,1.61231 -1.20303,1.6123 -1.20303,4.53925 0,2.91455 1.20303,4.52686 1.20303,1.6123 3.38584,1.6123 2.19521,0 3.39824,-1.6123 1.20303,-1.61231 1.20303,-4.52686 0,-2.92695 -1.20303,-4.53925 -1.20303,-1.61231 -3.39824,-1.61231 z m 0,-3.46025 q 4.46484,0 6.99492,2.55488 2.53008,2.55488 2.53008,7.05693 0,4.48965 -2.53008,7.04453 -2.53008,2.55489 -6.99492,2.55489 -4.45244,0 -6.99492,-2.55489 -2.53008,-2.55488 -2.53008,-7.04453 0,-4.50205 2.53008,-7.05693 2.54248,-2.55488 6.99492,-2.55488 z"
           style="font-style:normal;font-variant:normal;font-weight:bold;font-stretch:normal;font-family:sans-serif;-inkscape-font-specification:'sans-serif Bold';text-align:center;text-anchor:middle;stroke-width:0.26458332"
           id="path4611" />
        <path
           d="m 142.16156,129.05993 q 1.50068,0 2.14561,-0.5581 0.65732,-0.55811 0.65732,-1.83555 0,-1.26504 -0.65732,-1.81074 -0.64493,-0.54571 -2.14561,-0.54571 h -2.00918 v 4.7501 z m -2.00918,3.29903 v 7.00732 h -4.7749 v -18.5167 h 7.29258 q 3.65869,0 5.35781,1.22783 1.71152,1.22783 1.71152,3.88194 0,1.83554 -0.89297,3.01377 -0.88056,1.17822 -2.6665,1.73632 0.97979,0.22325 1.74873,1.017 0.78135,0.78134 1.5751,2.38125 l 2.59209,5.25859 h -5.08496 l -2.25723,-4.60127 q -0.68213,-1.38906 -1.38906,-1.89756 -0.69453,-0.50849 -1.86035,-0.50849 z"
           style="font-style:normal;font-variant:normal;font-weight:bold;font-stretch:normal;font-family:sans-serif;-inkscape-font-specification:'sans-serif Bold';text-align:center;text-anchor:middle;stroke-width:0.26458332"
           id="path4613" />
        <path
           d="m 151.57494,120.84958 h 17.06562 v 3.60908 h -6.13916 v 14.90762 h -4.7749 v -14.90762 h -6.15156 z"
           style="font-style:normal;font-variant:normal;font-weight:bold;font-stretch:normal;font-family:sans-serif;-inkscape-font-specification:'sans-serif Bold';text-align:center;text-anchor:middle;stroke-width:0.26458332"
           id="path4615" />
      </g>
      <path
         sodipodi:nodetypes="cc"
         inkscape:connector-curvature="0"
         id="path4520"
         d="m 27.214285,96.672618 c -10.42691,11.306062 -6.511267,20.924762 0,30.238092"
         style="fill:none;stroke:#ff2a7f;stroke-width:2;stroke-linecap:butt;stroke-linejoin:miter;stroke-miterlimit:4;stroke-dasharray:none;stroke-opacity:1" />
      <path
         sodipodi:nodetypes="cc"
         inkscape:connector-curvature="0"
         id="path4520-4"
         d="m 14.946342,96.301589 c -10.4269101,11.306061 -6.5112671,20.924761 0,30.238091"
         style="fill:none;stroke:#000000;stroke-width:2;stroke-linecap:butt;stroke-linejoin:miter;stroke-miterlimit:4;stroke-dasharray:none;stroke-opacity:1" />
      <path
         sodipodi:nodetypes="cc"
         inkscape:connector-curvature="0"
         id="path4520-5"
         d="m 21.749913,95.923612 c -10.42691,11.306058 -6.511267,20.924758 0,30.238088"
         style="fill:none;stroke:#00ccff;stroke-width:2;stroke-linecap:butt;stroke-linejoin:miter;stroke-miterlimit:4;stroke-dasharray:none;stroke-opacity:1" />
      <path
         sodipodi:nodetypes="cc"
         inkscape:connector-curvature="0"
         id="path4520-1"
         d="m 177.35719,98.565971 c 10.4269,11.306059 6.51126,20.924759 0,30.238089"
         style="fill:none;stroke:#ff2a7f;stroke-width:2;stroke-linecap:butt;stroke-linejoin:miter;stroke-miterlimit:4;stroke-dasharray:none;stroke-opacity:1" />
      <path
         sodipodi:nodetypes="cc"
         inkscape:connector-curvature="0"
         id="path4520-4-1"
         d="m 189.62513,98.194942 c 10.42691,11.306058 6.51127,20.924758 0,30.238088"
         style="fill:none;stroke:#000000;stroke-width:2;stroke-linecap:butt;stroke-linejoin:miter;stroke-miterlimit:4;stroke-dasharray:none;stroke-opacity:1" />
      <path
         sodipodi:nodetypes="cc"
         inkscape:connector-curvature="0"
         id="path4520-5-3"
         d="m 182.82156,97.816965 c 10.42691,11.306055 6.51126,20.924755 0,30.238085"
         style="fill:none;stroke:#00ccff;stroke-width:2;stroke-linecap:butt;stroke-linejoin:miter;stroke-miterlimit:4;stroke-dasharray:none;stroke-opacity:1" />
    </g>
  </g>
</svg>
