<?xml version="1.0" encoding="UTF-8" standalone="no"?>
<!-- Created with Inkscape (http://www.inkscape.org/) -->

<svg
   xmlns:dc="http://purl.org/dc/elements/1.1/"
   xmlns:cc="http://creativecommons.org/ns#"
   xmlns:rdf="http://www.w3.org/1999/02/22-rdf-syntax-ns#"
   xmlns:svg="http://www.w3.org/2000/svg"
   xmlns="http://www.w3.org/2000/svg"
   xmlns:sodipodi="http://sodipodi.sourceforge.net/DTD/sodipodi-0.dtd"
   xmlns:inkscape="http://www.inkscape.org/namespaces/inkscape"
   width="210mm"
   height="297mm"
   viewBox="0 0 210 297"
   version="1.1"
   id="svg5131"
   inkscape:version="0.92.1 r15371"
   sodipodi:docname="splash.svg">
  <defs
     id="defs5125" />
  <sodipodi:namedview
     id="base"
     pagecolor="#ffffff"
     bordercolor="#666666"
     borderopacity="1.0"
     inkscape:pageopacity="0.0"
     inkscape:pageshadow="2"
     inkscape:zoom="0.35"
     inkscape:cx="400"
     inkscape:cy="560"
     inkscape:document-units="mm"
     inkscape:current-layer="layer1"
     showgrid="false"
     inkscape:window-width="1366"
     inkscape:window-height="705"
     inkscape:window-x="-8"
     inkscape:window-y="-8"
     inkscape:window-maximized="1" />
  <metadata
     id="metadata5128">
    <rdf:RDF>
      <cc:Work
         rdf:about="">
        <dc:format>image/svg+xml</dc:format>
        <dc:type
           rdf:resource="http://purl.org/dc/dcmitype/StillImage" />
        <dc:title />
      </cc:Work>
    </rdf:RDF>
  </metadata>
  <g
     inkscape:label="Layer 1"
     inkscape:groupmode="layer"
     id="layer1">
    <g
       aria-label="TEMP
SPLASH
SCREEN


TAP TO START"
       transform="scale(0.26458333)"
       style="font-style:normal;font-weight:normal;font-size:40px;line-height:1.25;font-family:sans-serif;letter-spacing:0px;word-spacing:0px;fill:#000000;fill-opacity:1;stroke:none"
       id="flowRoot5133">
      <path
         d="M 97.025391,280.17969 H 121.69336 V 283.5 H 111.3418 v 25.83984 h -3.96485 V 283.5 H 97.025391 Z"
         style=""
         id="path5206" />
      <path
         d="m 125.52148,280.17969 h 18.4375 V 283.5 H 129.4668 v 8.63281 h 13.88672 v 3.32031 H 129.4668 v 10.56641 h 14.84375 v 3.32031 h -18.78907 z"
         style=""
         id="path5208" />
      <path
         d="m 150.83398,280.17969 h 5.87891 l 7.44141,19.84375 7.48047,-19.84375 h 5.8789 v 29.16015 h -3.84765 v -25.60547 l -7.51954,20 h -3.96484 l -7.51953,-20 v 25.60547 h -3.82813 z"
         style=""
         id="path5210" />
      <path
         d="m 189.31055,283.42187 v 10.95704 h 4.96093 q 2.75391,0 4.25782,-1.42579 1.5039,-1.42578 1.5039,-4.0625 0,-2.61718 -1.5039,-4.04296 -1.50391,-1.42579 -4.25782,-1.42579 z m -3.94532,-3.24218 h 8.90625 q 4.90235,0 7.40235,2.22656 2.51953,2.20703 2.51953,6.48437 0,4.31641 -2.51953,6.52344 -2.5,2.20703 -7.40235,2.20703 h -4.96093 v 11.71875 h -3.94532 z"
         style=""
         id="path5212" />
      <path
         d="m 118.54883,331.13672 v 3.84765 q -2.2461,-1.07421 -4.23828,-1.60156 -1.99219,-0.52734 -3.84766,-0.52734 -3.22266,0 -4.98047,1.25 -1.73828,1.25 -1.73828,3.55469 0,1.93359 1.15234,2.92968 1.17188,0.97657 4.41407,1.58203 l 2.38281,0.48829 q 4.41406,0.83984 6.50391,2.96875 2.10937,2.10937 2.10937,5.66406 0,4.23828 -2.85156,6.42578 -2.83203,2.1875 -8.32031,2.1875 -2.07032,0 -4.41407,-0.46875 -2.32422,-0.46875 -4.824216,-1.38672 v -4.0625 q 2.402346,1.34766 4.707036,2.03125 2.30468,0.68359 4.53125,0.68359 3.3789,0 5.21484,-1.32812 1.83594,-1.32813 1.83594,-3.78906 0,-2.14844 -1.32813,-3.35938 -1.30859,-1.21094 -4.3164,-1.8164 l -2.40235,-0.46875 q -4.41406,-0.87891 -6.38672,-2.75391 -1.972653,-1.875 -1.972653,-5.21484 0,-3.86719 2.714843,-6.09375 2.73438,-2.22657 7.51953,-2.22657 2.05078,0 4.17969,0.3711 2.12891,0.37109 4.35547,1.11328 z"
         style=""
         id="path5214" />
      <path
         d="m 130.4043,333.42187 v 10.95704 h 4.96093 q 2.75391,0 4.25782,-1.42579 1.5039,-1.42578 1.5039,-4.0625 0,-2.61718 -1.5039,-4.04296 -1.50391,-1.42579 -4.25782,-1.42579 z m -3.94532,-3.24218 h 8.90625 q 4.90235,0 7.40235,2.22656 2.51953,2.20703 2.51953,6.48437 0,4.31641 -2.51953,6.52344 -2.5,2.20703 -7.40235,2.20703 h -4.96093 v 11.71875 h -3.94532 z"
         style=""
         id="path5216" />
      <path
         d="m 150.59961,330.17969 h 3.94531 v 25.83984 h 14.19922 v 3.32031 h -18.14453 z"
         style=""
         id="path5218" />
      <path
         d="m 183.54883,334.06641 -5.35156,14.51171 h 10.72265 z m -2.22656,-3.88672 h 4.47265 l 11.11328,29.16015 h -4.10156 l -2.65625,-7.48047 h -13.14453 l -2.65625,7.48047 h -4.16016 z"
         style=""
         id="path5220" />
      <path
         d="m 218.62695,331.13672 v 3.84765 q -2.24609,-1.07421 -4.23828,-1.60156 -1.99219,-0.52734 -3.84765,-0.52734 -3.22266,0 -4.98047,1.25 -1.73828,1.25 -1.73828,3.55469 0,1.93359 1.15234,2.92968 1.17187,0.97657 4.41406,1.58203 l 2.38281,0.48829 q 4.41407,0.83984 6.50391,2.96875 2.10938,2.10937 2.10938,5.66406 0,4.23828 -2.85157,6.42578 -2.83203,2.1875 -8.32031,2.1875 -2.07031,0 -4.41406,-0.46875 -2.32422,-0.46875 -4.82422,-1.38672 v -4.0625 q 2.40234,1.34766 4.70703,2.03125 2.30469,0.68359 4.53125,0.68359 3.37891,0 5.21484,-1.32812 1.83594,-1.32813 1.83594,-3.78906 0,-2.14844 -1.32812,-3.35938 -1.3086,-1.21094 -4.31641,-1.8164 l -2.40234,-0.46875 q -4.41407,-0.87891 -6.38672,-2.75391 -1.97266,-1.875 -1.97266,-5.21484 0,-3.86719 2.71485,-6.09375 2.73437,-2.22657 7.51953,-2.22657 2.05078,0 4.17968,0.3711 2.12891,0.37109 4.35547,1.11328 z"
         style=""
         id="path5222" />
      <path
         d="m 226.53711,330.17969 h 3.94531 v 11.95312 h 14.33594 v -11.95312 h 3.94531 v 29.16015 h -3.94531 v -13.88672 h -14.33594 v 13.88672 h -3.94531 z"
         style=""
         id="path5224" />
      <path
         d="m 118.54883,381.13672 v 3.84765 q -2.2461,-1.07421 -4.23828,-1.60156 -1.99219,-0.52734 -3.84766,-0.52734 -3.22266,0 -4.98047,1.25 -1.73828,1.25 -1.73828,3.55469 0,1.93359 1.15234,2.92968 1.17188,0.97657 4.41407,1.58203 l 2.38281,0.48829 q 4.41406,0.83984 6.50391,2.96875 2.10937,2.10937 2.10937,5.66406 0,4.23828 -2.85156,6.42578 -2.83203,2.1875 -8.32031,2.1875 -2.07032,0 -4.41407,-0.46875 -2.32422,-0.46875 -4.824216,-1.38672 v -4.0625 q 2.402346,1.34766 4.707036,2.03125 2.30468,0.68359 4.53125,0.68359 3.3789,0 5.21484,-1.32812 1.83594,-1.32813 1.83594,-3.78906 0,-2.14844 -1.32813,-3.35938 -1.30859,-1.21094 -4.3164,-1.8164 l -2.40235,-0.46875 q -4.41406,-0.87891 -6.38672,-2.75391 -1.972653,-1.875 -1.972653,-5.21484 0,-3.86719 2.714843,-6.09375 2.73438,-2.22657 7.51953,-2.22657 2.05078,0 4.17969,0.3711 2.12891,0.37109 4.35547,1.11328 z"
         style=""
         id="path5226" />
      <path
         d="m 148.29492,382.42578 v 4.16016 q -1.99219,-1.85547 -4.25781,-2.77344 -2.24609,-0.91797 -4.78516,-0.91797 -5,0 -7.65625,3.06641 -2.65625,3.04687 -2.65625,8.82812 0,5.76172 2.65625,8.82813 2.65625,3.04687 7.65625,3.04687 2.53907,0 4.78516,-0.91797 2.26562,-0.91797 4.25781,-2.77343 v 4.12109 q -2.07031,1.40625 -4.39453,2.10937 -2.30469,0.70313 -4.88281,0.70313 -6.6211,0 -10.42969,-4.04297 -3.80859,-4.0625 -3.80859,-11.07422 0,-7.03125 3.80859,-11.07422 3.80859,-4.0625 10.42969,-4.0625 2.61719,0 4.92187,0.70313 2.32422,0.68359 4.35547,2.07031 z"
         style=""
         id="path5228" />
      <path
         d="m 168.25586,395.66797 q 1.26953,0.42969 2.46094,1.83594 1.21093,1.40625 2.42187,3.86718 l 4.00391,7.96875 h -4.23828 l -3.73047,-7.48047 q -1.44531,-2.92968 -2.8125,-3.88671 -1.34766,-0.95704 -3.69141,-0.95704 h -4.29687 v 12.32422 h -3.94532 v -29.16015 h 8.90625 q 5,0 7.46094,2.08984 2.46094,2.08984 2.46094,6.30859 0,2.75391 -1.28906,4.57032 -1.26953,1.8164 -3.71094,2.51953 z m -9.88281,-12.2461 v 10.35157 h 4.96093 q 2.85157,0 4.29688,-1.3086 1.46484,-1.32812 1.46484,-3.88672 0,-2.55859 -1.46484,-3.84765 -1.44531,-1.3086 -4.29688,-1.3086 z"
         style=""
         id="path5230" />
      <path
         d="m 182.24023,380.17969 h 18.4375 V 383.5 h -14.49218 v 8.63281 h 13.88672 v 3.32031 h -13.88672 v 10.56641 h 14.84375 v 3.32031 h -18.78907 z"
         style=""
         id="path5232" />
      <path
         d="m 207.55273,380.17969 h 18.4375 V 383.5 h -14.49218 v 8.63281 h 13.88672 v 3.32031 h -13.88672 v 10.56641 h 14.84375 v 3.32031 h -18.78907 z"
         style=""
         id="path5234" />
      <path
         d="m 232.86523,380.17969 h 5.3125 l 12.92969,24.39453 v -24.39453 h 3.82813 v 29.16015 h -5.3125 l -12.92969,-24.39453 v 24.39453 h -3.82813 z"
         style=""
         id="path5236" />
      <path
         d="M 97.025391,530.17969 H 121.69336 V 533.5 H 111.3418 v 25.83984 h -3.96485 V 533.5 H 97.025391 Z"
         style=""
         id="path5238" />
      <path
         d="m 132.14258,534.06641 -5.35156,14.51171 h 10.72265 z m -2.22656,-3.88672 h 4.47265 l 11.11328,29.16015 h -4.10156 l -2.65625,-7.48047 h -13.14453 l -2.65625,7.48047 h -4.16016 z"
         style=""
         id="path5240" />
      <path
         d="m 153.68555,533.42187 v 10.95704 h 4.96093 q 2.75391,0 4.25782,-1.42579 1.5039,-1.42578 1.5039,-4.0625 0,-2.61718 -1.5039,-4.04296 -1.50391,-1.42579 -4.25782,-1.42579 z m -3.94532,-3.24218 h 8.90625 q 4.90235,0 7.40235,2.22656 2.51953,2.20703 2.51953,6.48437 0,4.31641 -2.51953,6.52344 -2.5,2.20703 -7.40235,2.20703 h -4.96093 v 11.71875 h -3.94532 z"
         style=""
         id="path5242" />
      <path
         d="m 182.57227,530.17969 h 24.66796 V 533.5 h -10.35156 v 25.83984 h -3.96484 V 533.5 h -10.35156 z"
         style=""
         id="path5244" />
      <path
         d="m 222.9043,532.85547 q -4.29688,0 -6.83594,3.20312 -2.51953,3.20313 -2.51953,8.73047 0,5.50781 2.51953,8.71094 2.53906,3.20312 6.83594,3.20312 4.29687,0 6.79687,-3.20312 2.51953,-3.20313 2.51953,-8.71094 0,-5.52734 -2.51953,-8.73047 -2.5,-3.20312 -6.79687,-3.20312 z m 0,-3.20313 q 6.13281,0 9.80468,4.1211 3.67188,4.10156 3.67188,11.01562 0,6.89453 -3.67188,11.01563 -3.67187,4.10156 -9.80468,4.10156 -6.15235,0 -9.84375,-4.10156 -3.67188,-4.10157 -3.67188,-11.01563 0,-6.91406 3.67188,-11.01562 3.6914,-4.1211 9.84375,-4.1211 z"
         style=""
         id="path5246" />
      <path
         d="m 272.76758,531.13672 v 3.84765 q -2.2461,-1.07421 -4.23828,-1.60156 -1.99219,-0.52734 -3.84766,-0.52734 -3.22266,0 -4.98047,1.25 -1.73828,1.25 -1.73828,3.55469 0,1.93359 1.15234,2.92968 1.17188,0.97657 4.41407,1.58203 l 2.38281,0.48829 q 4.41406,0.83984 6.50391,2.96875 2.10937,2.10937 2.10937,5.66406 0,4.23828 -2.85156,6.42578 -2.83203,2.1875 -8.32031,2.1875 -2.07032,0 -4.41407,-0.46875 -2.32422,-0.46875 -4.82422,-1.38672 v -4.0625 q 2.40235,1.34766 4.70704,2.03125 2.30468,0.68359 4.53125,0.68359 3.3789,0 5.21484,-1.32812 1.83594,-1.32813 1.83594,-3.78906 0,-2.14844 -1.32813,-3.35938 -1.30859,-1.21094 -4.3164,-1.8164 l -2.40235,-0.46875 q -4.41406,-0.87891 -6.38672,-2.75391 -1.97265,-1.875 -1.97265,-5.21484 0,-3.86719 2.71484,-6.09375 2.73438,-2.22657 7.51953,-2.22657 2.05078,0 4.17969,0.3711 2.12891,0.37109 4.35547,1.11328 z"
         style=""
         id="path5248" />
      <path
         d="m 276.63477,530.17969 h 24.66796 V 533.5 h -10.35156 v 25.83984 h -3.96484 V 533.5 h -10.35156 z"
         style=""
         id="path5250" />
      <path
         d="m 311.75195,534.06641 -5.35156,14.51171 h 10.72266 z m -2.22656,-3.88672 h 4.47266 l 11.11328,29.16015 h -4.10156 l -2.65625,-7.48047 h -13.14454 l -2.65625,7.48047 h -4.16015 z"
         style=""
         id="path5252" />
      <path
         d="m 343.17773,545.66797 q 1.26954,0.42969 2.46094,1.83594 1.21094,1.40625 2.42188,3.86718 l 4.0039,7.96875 h -4.23828 l -3.73047,-7.48047 q -1.44531,-2.92968 -2.8125,-3.88671 -1.34765,-0.95704 -3.6914,-0.95704 h -4.29688 v 12.32422 h -3.94531 v -29.16015 h 8.90625 q 5,0 7.46094,2.08984 2.46093,2.08984 2.46093,6.30859 0,2.75391 -1.28906,4.57032 -1.26953,1.8164 -3.71094,2.51953 z m -9.88281,-12.2461 v 10.35157 h 4.96094 q 2.85156,0 4.29687,-1.3086 1.46485,-1.32812 1.46485,-3.88672 0,-2.55859 -1.46485,-3.84765 -1.44531,-1.3086 -4.29687,-1.3086 z"
         style=""
         id="path5254" />
      <path
         d="m 350.22852,530.17969 h 24.66796 V 533.5 h -10.35156 v 25.83984 h -3.96484 V 533.5 h -10.35156 z"
         style=""
         id="path5256" />
    </g>
  </g>
</svg>
