<?xml version="1.0" encoding="UTF-8" standalone="no"?>
<!-- Created with Inkscape (http://www.inkscape.org/) -->

<svg
   xmlns:dc="http://purl.org/dc/elements/1.1/"
   xmlns:cc="http://creativecommons.org/ns#"
   xmlns:rdf="http://www.w3.org/1999/02/22-rdf-syntax-ns#"
   xmlns:svg="http://www.w3.org/2000/svg"
   xmlns="http://www.w3.org/2000/svg"
   xmlns:sodipodi="http://sodipodi.sourceforge.net/DTD/sodipodi-0.dtd"
   xmlns:inkscape="http://www.inkscape.org/namespaces/inkscape"
   width="300mm"
   height="150mm"
   viewBox="0 0 300 150"
   version="1.1"
   id="svg8"
   inkscape:version="0.92.1 r15371"
   sodipodi:docname="start_button.svg">
  <defs
     id="defs2" />
  <sodipodi:namedview
     id="base"
     pagecolor="#ffffff"
     bordercolor="#666666"
     borderopacity="1.0"
     inkscape:pageopacity="0.0"
     inkscape:pageshadow="2"
     inkscape:zoom="0.49497475"
     inkscape:cx="111.32219"
     inkscape:cy="326.06339"
     inkscape:document-units="mm"
     inkscape:current-layer="layer1"
     showgrid="false"
     width="300mm"
     inkscape:window-width="1366"
     inkscape:window-height="705"
     inkscape:window-x="-8"
     inkscape:window-y="-8"
     inkscape:window-maximized="1" />
  <metadata
     id="metadata5">
    <rdf:RDF>
      <cc:Work
         rdf:about="">
        <dc:format>image/svg+xml</dc:format>
        <dc:type
           rdf:resource="http://purl.org/dc/dcmitype/StillImage" />
        <dc:title></dc:title>
      </cc:Work>
    </rdf:RDF>
  </metadata>
  <g
     inkscape:label="Layer 1"
     inkscape:groupmode="layer"
     id="layer1"
     transform="translate(0,-147)">
    <rect
       style="fill:#ffff00;fill-opacity:1;stroke-width:1.2580359;stroke-miterlimit:4;stroke-dasharray:none"
       id="rect5036"
       width="303.74176"
       height="162.82893"
       x="0"
       y="140.91284" />
    <g
       aria-label="START"
       transform="matrix(2.2807368,0,0,3.4183983,-135.66115,-168.00576)"
       style="font-style:normal;font-weight:normal;font-size:40px;line-height:1.25;font-family:sans-serif;letter-spacing:0px;word-spacing:0px;fill:#000000;fill-opacity:1;stroke:none"
       id="flowRoot5038">
      <path
         d="m 86.056641,101.36523 v 3.84766 q -2.246094,-1.07422 -4.238282,-1.60156 -1.992187,-0.52735 -3.847656,-0.52735 -3.222656,0 -4.980469,1.25 -1.738281,1.25 -1.738281,3.55469 0,1.9336 1.152344,2.92969 1.171875,0.97656 4.414062,1.58203 l 2.382813,0.48828 q 4.414062,0.83985 6.503906,2.96875 2.109375,2.10938 2.109375,5.66406 0,4.23829 -2.851562,6.42579 -2.832032,2.1875 -8.320313,2.1875 -2.070312,0 -4.414062,-0.46875 -2.324219,-0.46875 -4.824219,-1.38672 v -4.0625 q 2.402344,1.34765 4.707031,2.03125 2.304688,0.68359 4.53125,0.68359 3.378906,0 5.214844,-1.32812 1.835937,-1.32813 1.835937,-3.78907 0,-2.14843 -1.328125,-3.35937 -1.308593,-1.21094 -4.316406,-1.81641 l -2.402344,-0.46875 q -4.414062,-0.8789 -6.386718,-2.7539 -1.972657,-1.875 -1.972657,-5.21485 0,-3.86719 2.714844,-6.09375 2.734375,-2.226561 7.519531,-2.226561 2.050782,0 4.179688,0.371091 2.128906,0.3711 4.355469,1.11328 z"
         style=""
         id="path5046" />
      <path
         d="M 89.923828,100.4082 H 114.5918 v 3.32032 h -10.35157 v 25.83984 h -3.96484 V 103.72852 H 89.923828 Z"
         style=""
         id="path5048" />
      <path
         d="m 125.04102,104.29492 -5.35157,14.51172 h 10.72266 z m -2.22657,-3.88672 h 4.47266 l 11.11328,29.16016 h -4.10156 l -2.65625,-7.48047 h -13.14453 l -2.65625,7.48047 h -4.16016 z"
         style=""
         id="path5050" />
      <path
         d="m 156.4668,115.89648 q 1.26953,0.42969 2.46093,1.83594 1.21094,1.40625 2.42188,3.86719 l 4.00391,7.96875 h -4.23829 l -3.73046,-7.48047 q -1.44532,-2.92969 -2.8125,-3.88672 -1.34766,-0.95703 -3.69141,-0.95703 h -4.29688 v 12.32422 h -3.94531 V 100.4082 h 8.90625 q 5,0 7.46094,2.08985 2.46094,2.08984 2.46094,6.30859 0,2.75391 -1.28907,4.57031 -1.26953,1.81641 -3.71093,2.51953 z m -9.88282,-12.24609 v 10.35156 h 4.96094 q 2.85156,0 4.29688,-1.30859 1.46484,-1.32813 1.46484,-3.88672 0,-2.55859 -1.46484,-3.84766 -1.44532,-1.30859 -4.29688,-1.30859 z"
         style=""
         id="path5052" />
      <path
         d="m 163.51758,100.4082 h 24.66797 v 3.32032 h -10.35157 v 25.83984 h -3.96484 v -25.83984 h -10.35156 z"
         style=""
         id="path5054" />
    </g>
  </g>
</svg>
