<?xml version="1.0" encoding="UTF-8" standalone="no"?>
<!-- Created with Inkscape (http://www.inkscape.org/) -->

<svg
   xmlns:dc="http://purl.org/dc/elements/1.1/"
   xmlns:cc="http://creativecommons.org/ns#"
   xmlns:rdf="http://www.w3.org/1999/02/22-rdf-syntax-ns#"
   xmlns:svg="http://www.w3.org/2000/svg"
   xmlns="http://www.w3.org/2000/svg"
   xmlns:sodipodi="http://sodipodi.sourceforge.net/DTD/sodipodi-0.dtd"
   xmlns:inkscape="http://www.inkscape.org/namespaces/inkscape"
   width="210mm"
   height="297mm"
   viewBox="0 0 210 297"
   version="1.1"
   id="svg5131"
   sodipodi:docname="temp_menu.svg"
   inkscape:version="0.92.1 r15371">
  <defs
     id="defs5125" />
  <sodipodi:namedview
     id="base"
     pagecolor="#ffffff"
     bordercolor="#666666"
     borderopacity="1.0"
     inkscape:pageopacity="0.0"
     inkscape:pageshadow="2"
     inkscape:zoom="0.35"
     inkscape:cx="400"
     inkscape:cy="560"
     inkscape:document-units="mm"
     inkscape:current-layer="layer1"
     showgrid="false"
     inkscape:window-width="1366"
     inkscape:window-height="705"
     inkscape:window-x="-8"
     inkscape:window-y="-8"
     inkscape:window-maximized="1" />
  <metadata
     id="metadata5128">
    <rdf:RDF>
      <cc:Work
         rdf:about="">
        <dc:format>image/svg+xml</dc:format>
        <dc:type
           rdf:resource="http://purl.org/dc/dcmitype/StillImage" />
        <dc:title></dc:title>
      </cc:Work>
    </rdf:RDF>
  </metadata>
  <g
     inkscape:label="Layer 1"
     inkscape:groupmode="layer"
     id="layer1">
    <g
       aria-label="TEMP 
MENU
SCREEN"
       style="font-style:normal;font-weight:normal;font-size:10.58333302px;line-height:1.25;font-family:sans-serif;letter-spacing:0px;word-spacing:0px;fill:#000000;fill-opacity:1;stroke:none;stroke-width:0.26458332"
       id="text5153">
      <path
         d="m 79.343994,97.272799 h 6.526733 v 0.8785 h -2.73885 v 6.836791 h -1.049032 v -6.836791 h -2.738851 z"
         style="stroke-width:0.26458332"
         id="path5163" />
      <path
         d="m 86.883585,97.272799 h 4.878255 v 0.8785 h -3.834391 v 2.284101 h 3.674195 v 0.8785 h -3.674195 v 2.79569 h 3.927409 v 0.8785 h -4.971273 z"
         style="stroke-width:0.26458332"
         id="path5165" />
      <path
         d="m 93.580851,97.272799 h 1.55546 l 1.968872,5.250321 1.979207,-5.250321 h 1.55546 v 7.715291 h -1.018025 v -6.77478 l -1.989542,5.29167 h -1.049032 l -1.989542,-5.29167 v 6.77478 h -1.012858 z"
         style="stroke-width:0.26458332"
         id="path5167" />
      <path
         d="m 103.76111,98.130628 v 2.899052 h 1.31258 q 0.72864,0 1.12654,-0.37724 0.39791,-0.37724 0.39791,-1.074872 0,-0.692464 -0.39791,-1.069702 -0.3979,-0.377238 -1.12654,-0.377238 z m -1.04387,-0.857829 h 2.35645 q 1.29708,0 1.95854,0.589112 0.66662,0.583943 0.66662,1.715657 0,1.142052 -0.66662,1.725992 -0.66146,0.58394 -1.95854,0.58394 h -1.31258 v 3.10059 h -1.04387 z"
         style="stroke-width:0.26458332"
         id="path5169" />
      <path
         d="m 80.413696,110.50197 h 1.555461 l 1.968872,5.25032 1.979207,-5.25032 h 1.555461 v 7.71529 h -1.018026 v -6.77478 l -1.989543,5.29166 h -1.049031 l -1.989543,-5.29166 v 6.77478 h -1.012858 z"
         style="stroke-width:0.26458332"
         id="path5171" />
      <path
         d="m 89.550089,110.50197 h 4.878255 v 0.87849 h -3.834391 v 2.2841 h 3.674194 v 0.8785 h -3.674194 v 2.7957 h 3.927408 v 0.8785 h -4.971272 z"
         style="stroke-width:0.26458332"
         id="path5173" />
      <path
         d="m 96.247354,110.50197 h 1.405599 l 3.420977,6.45438 v -6.45438 h 1.01286 v 7.71529 h -1.4056 l -3.420977,-6.45439 v 6.45439 h -1.012859 z"
         style="stroke-width:0.26458332"
         id="path5175" />
      <path
         d="m 104.04533,110.50197 h 1.04903 v 4.68705 q 0,1.24023 0.44959,1.788 0.44958,0.5426 1.45727,0.5426 1.00252,0 1.45211,-0.5426 0.44958,-0.54777 0.44958,-1.788 v -4.68705 h 1.04903 v 4.81624 q 0,1.50895 -0.7493,2.27893 -0.74414,0.76998 -2.20142,0.76998 -1.46244,0 -2.21175,-0.76998 -0.74414,-0.76998 -0.74414,-2.27893 z"
         style="stroke-width:0.26458332"
         id="path5177" />
      <path
         d="m 85.038737,123.98435 v 1.01802 q -0.594279,-0.28422 -1.121379,-0.42374 -0.527099,-0.13953 -1.018025,-0.13953 -0.852662,0 -1.317749,0.33073 -0.459921,0.33073 -0.459921,0.94051 0,0.5116 0.304891,0.77515 0.310059,0.25838 1.167888,0.41857 l 0.630452,0.1292 q 1.167887,0.2222 1.720825,0.78548 0.558106,0.5581 0.558106,1.49861 0,1.12138 -0.754476,1.70016 -0.749308,0.57877 -2.201416,0.57877 -0.54777,0 -1.167887,-0.12402 -0.61495,-0.12402 -1.276408,-0.3669 v -1.07487 q 0.63562,0.35657 1.245402,0.53743 0.609782,0.18087 1.198893,0.18087 0.894002,0 1.379761,-0.3514 0.485758,-0.3514 0.485758,-1.00252 0,-0.56844 -0.3514,-0.88884 -0.346232,-0.32039 -1.142049,-0.48059 l -0.63562,-0.12402 q -1.167887,-0.23254 -1.689819,-0.72864 -0.521932,-0.49609 -0.521932,-1.37976 0,-1.02319 0.718302,-1.6123 0.72347,-0.58911 1.989543,-0.58911 0.542602,0 1.105875,0.0982 0.563273,0.0982 1.152385,0.29456 z"
         style="stroke-width:0.26458332"
         id="path5179" />
      <path
         d="m 92.909057,124.32541 v 1.10071 q -0.527099,-0.49093 -1.126546,-0.73381 -0.594279,-0.24288 -1.266072,-0.24288 -1.322917,0 -2.025717,0.81132 -0.702799,0.80616 -0.702799,2.33578 0,1.52445 0.702799,2.33577 0.7028,0.80616 2.025717,0.80616 0.671793,0 1.266072,-0.24288 0.599447,-0.24288 1.126546,-0.73381 v 1.09037 q -0.54777,0.37207 -1.162719,0.55811 -0.609782,0.18603 -1.291911,0.18603 -1.751831,0 -2.759522,-1.0697 -1.00769,-1.07487 -1.00769,-2.93005 0,-1.86035 1.00769,-2.93005 1.007691,-1.07487 2.759522,-1.07487 0.692464,0 1.302246,0.18603 0.614949,0.18087 1.152384,0.54777 z"
         style="stroke-width:0.26458332"
         id="path5181" />
      <path
         d="m 98.190389,127.82907 q 0.335896,0.11369 0.651123,0.48576 0.320393,0.37207 0.640787,1.02319 l 1.059371,2.1084 h -1.121382 l -0.98702,-1.9792 q -0.382406,-0.77515 -0.744141,-1.02837 -0.356567,-0.25321 -0.976684,-0.25321 h -1.136882 v 3.26078 h -1.043864 v -7.71529 h 2.356445 q 1.322917,0 1.97404,0.55294 0.651123,0.55294 0.651123,1.66915 0,0.72864 -0.341064,1.20923 -0.335897,0.48059 -0.981852,0.66662 z m -2.614828,-3.24011 v 2.73885 h 1.312581 q 0.754476,0 1.136882,-0.34623 0.387573,-0.3514 0.387573,-1.02836 0,-0.67696 -0.387573,-1.01803 -0.382406,-0.34623 -1.136882,-0.34623 z"
         style="stroke-width:0.26458332"
         id="path5183" />
      <path
         d="m 101.89042,123.73113 h 4.87826 v 0.8785 h -3.8344 v 2.2841 h 3.6742 v 0.8785 h -3.6742 v 2.79569 h 3.92741 v 0.8785 h -4.97127 z"
         style="stroke-width:0.26458332"
         id="path5185" />
      <path
         d="m 108.58769,123.73113 h 4.87825 v 0.8785 h -3.83439 v 2.2841 h 3.67419 v 0.8785 h -3.67419 v 2.79569 h 3.92741 v 0.8785 h -4.97127 z"
         style="stroke-width:0.26458332"
         id="path5187" />
      <path
         d="m 115.28495,123.73113 h 1.4056 l 3.42098,6.45439 v -6.45439 h 1.01286 v 7.71529 h -1.4056 l -3.42098,-6.45438 v 6.45438 h -1.01286 z"
         style="stroke-width:0.26458332"
         id="path5189" />
    </g>
  </g>
</svg>
