<?xml version="1.0" encoding="UTF-8" standalone="no"?>
<!-- Created with Inkscape (http://www.inkscape.org/) -->

<svg
   xmlns:dc="http://purl.org/dc/elements/1.1/"
   xmlns:cc="http://creativecommons.org/ns#"
   xmlns:rdf="http://www.w3.org/1999/02/22-rdf-syntax-ns#"
   xmlns:svg="http://www.w3.org/2000/svg"
   xmlns="http://www.w3.org/2000/svg"
   xmlns:sodipodi="http://sodipodi.sourceforge.net/DTD/sodipodi-0.dtd"
   xmlns:inkscape="http://www.inkscape.org/namespaces/inkscape"
   width="210mm"
   height="297mm"
   viewBox="0 0 210 297"
   version="1.1"
   id="svg8"
   inkscape:version="0.92.1 r15371"
   sodipodi:docname="train_game_1.svg">
  <defs
     id="defs2" />
  <sodipodi:namedview
     id="base"
     pagecolor="#ffffff"
     bordercolor="#666666"
     borderopacity="1.0"
     inkscape:pageopacity="0.0"
     inkscape:pageshadow="2"
     inkscape:zoom="0.35"
     inkscape:cx="8.0136745"
     inkscape:cy="579.60759"
     inkscape:document-units="mm"
     inkscape:current-layer="layer3"
     showgrid="false"
     inkscape:window-width="1366"
     inkscape:window-height="705"
     inkscape:window-x="-8"
     inkscape:window-y="-8"
     inkscape:window-maximized="1" />
  <metadata
     id="metadata5">
    <rdf:RDF>
      <cc:Work
         rdf:about="">
        <dc:format>image/svg+xml</dc:format>
        <dc:type
           rdf:resource="http://purl.org/dc/dcmitype/StillImage" />
        <dc:title></dc:title>
      </cc:Work>
    </rdf:RDF>
  </metadata>
  <g
     inkscape:label="BG"
     inkscape:groupmode="layer"
     id="layer1"
     style="display:inline">
    <rect
       style="fill:#00ffff;fill-opacity:1;stroke:#000000;stroke-width:1.20000005;stroke-miterlimit:4;stroke-dasharray:none"
       id="rect105"
       width="240.39285"
       height="310.69644"
       x="-25.702381"
       y="-7.6488094" />
    <rect
       style="fill:#008000;fill-opacity:1;stroke-width:1.00571394;stroke-miterlimit:4;stroke-dasharray:none"
       id="rect10"
       width="240.39285"
       height="194.27979"
       x="-25.702381"
       y="108.76786" />
  </g>
  <g
     inkscape:groupmode="layer"
     id="layer2"
     inkscape:label="Tracks">
    <rect
       style="fill:#d45500;fill-opacity:1;stroke:#000000;stroke-width:1.20000005;stroke-miterlimit:4;stroke-dasharray:none"
       id="rect18-7"
       width="57.452377"
       height="0"
       x="-177.27083"
       y="170" />
    <rect
       style="fill:#d45500;fill-opacity:1;stroke:#000000;stroke-width:1.51482451;stroke-miterlimit:4;stroke-dasharray:none"
       id="rect46"
       width="8.6461782"
       height="60.666546"
       x="79.301521"
       y="142.88521"
       transform="matrix(0.82945395,0.5585751,-0.44298563,0.89652871,0,0)" />
    <rect
       style="fill:#d45500;fill-opacity:1;stroke:#000000;stroke-width:1.51482451;stroke-miterlimit:4;stroke-dasharray:none"
       id="rect46-1"
       width="8.6461782"
       height="60.666546"
       x="100.54502"
       y="131.89371"
       transform="matrix(0.82945395,0.5585751,-0.44298563,0.89652871,0,0)" />
    <rect
       style="fill:#d45500;fill-opacity:1;stroke:#000000;stroke-width:1.51482451;stroke-miterlimit:4;stroke-dasharray:none"
       id="rect46-6"
       width="8.6461782"
       height="60.666546"
       x="125.1552"
       y="118.24693"
       transform="matrix(0.82945395,0.5585751,-0.44298563,0.89652871,0,0)" />
    <rect
       style="fill:#d45500;fill-opacity:1;stroke:#000000;stroke-width:1.51482451;stroke-miterlimit:4;stroke-dasharray:none"
       id="rect46-5"
       width="8.6461782"
       height="60.666546"
       x="149.76537"
       y="104.60014"
       transform="matrix(0.82945395,0.5585751,-0.44298563,0.89652871,0,0)" />
    <rect
       style="fill:#d45500;fill-opacity:1;stroke:#000000;stroke-width:1.51482451;stroke-miterlimit:4;stroke-dasharray:none"
       id="rect46-9"
       width="8.6461782"
       height="60.666546"
       x="174.72954"
       y="88.203217"
       transform="matrix(0.82945395,0.5585751,-0.44298563,0.89652871,0,0)" />
    <rect
       style="fill:#d45500;fill-opacity:1;stroke:#000000;stroke-width:1.51482451;stroke-miterlimit:4;stroke-dasharray:none"
       id="rect46-2"
       width="8.6461782"
       height="60.666546"
       x="199.00182"
       y="73.923759"
       transform="matrix(0.82945395,0.5585751,-0.44298563,0.89652871,0,0)" />
    <rect
       style="fill:#d45500;fill-opacity:1;stroke:#000000;stroke-width:1.51482451;stroke-miterlimit:4;stroke-dasharray:none"
       id="rect46-58"
       width="8.6461782"
       height="60.666546"
       x="223.95795"
       y="59.218246"
       transform="matrix(0.82945395,0.5585751,-0.44298563,0.89652871,0,0)" />
    <rect
       style="fill:#d45500;fill-opacity:1;stroke:#000000;stroke-width:1.51482451;stroke-miterlimit:4;stroke-dasharray:none"
       id="rect46-21"
       width="8.6461782"
       height="60.666546"
       x="248.04643"
       y="42.315079"
       transform="matrix(0.82945395,0.5585751,-0.44298563,0.89652871,0,0)" />
    <rect
       style="fill:#d45500;fill-opacity:1;stroke:#000000;stroke-width:1.51482451;stroke-miterlimit:4;stroke-dasharray:none"
       id="rect46-28"
       width="8.6461782"
       height="60.666546"
       x="272.85651"
       y="27.909197"
       transform="matrix(0.82945395,0.5585751,-0.44298563,0.89652871,0,0)" />
    <rect
       style="fill:#d45500;fill-opacity:1;stroke:#000000;stroke-width:1.20000005;stroke-miterlimit:4;stroke-dasharray:none"
       id="rect18-8"
       width="247.19643"
       height="4.5357141"
       x="-19.654758"
       y="190.03275" />
    <rect
       style="fill:#d45500;fill-opacity:1;stroke:#000000;stroke-width:1.20000005;stroke-miterlimit:4;stroke-dasharray:none"
       id="rect18"
       width="247.19643"
       height="4.5357141"
       x="-20.410715"
       y="212.33334" />
  </g>
  <g
     inkscape:groupmode="layer"
     id="layer3"
     inkscape:label="BGDude"
     style="display:inline">
    <g
       id="g1095"
       transform="matrix(0.80328922,0,0,0.80328922,41.087434,10.16943)">
      <ellipse
         transform="matrix(0.94304075,-0.33267725,0.26634167,0.96387868,0,0)"
         ry="7.1266341"
         rx="15.380799"
         cy="206.0016"
         cx="99.467453"
         id="path1003"
         style="fill:#800000;fill-opacity:1;stroke:#000000;stroke-width:1.24641383;stroke-miterlimit:4;stroke-dasharray:none" />
      <ellipse
         transform="matrix(-0.94304075,-0.33267724,-0.26634168,0.96387868,0,0)"
         ry="7.1266341"
         rx="15.380799"
         cy="96.874962"
         cx="-216.60895"
         id="path1003-8"
         style="display:inline;fill:#800000;fill-opacity:1;stroke:#000000;stroke-width:1.24641383;stroke-miterlimit:4;stroke-dasharray:none" />
      <g
         id="g145">
        <path
           sodipodi:nodetypes="sssssssss"
           inkscape:connector-curvature="0"
           id="path108"
           d="m 188.92324,62.438908 c 0,9.941751 -5.68634,18.555387 -13.98406,22.765927 -3.46282,1.757149 3.58089,11.629907 -0.56802,11.629906 -0.79237,0 -17.88399,1.081395 -18.74102,0.985783 -1.13071,-0.126144 -1.20358,-2.028068 -1.06576,-4.2621 0.19187,-3.110185 0.79211,-6.864055 -0.48508,-7.366143 -9.47545,-3.724978 -16.18284,-12.955878 -16.18284,-23.753373 0,-14.090657 11.42273,-25.513392 25.51339,-25.513394 14.09066,2e-6 25.51339,11.422737 25.51339,25.513394 z"
           style="fill:#80ffe6;fill-opacity:1;stroke:#000000;stroke-width:1.20000005;stroke-miterlimit:4;stroke-dasharray:none" />
      </g>
      <path
         sodipodi:nodetypes="ccccccccc"
         inkscape:connector-curvature="0"
         id="rect998"
         d="m 145.39461,129.68929 h 37.41776 v 0 l -0.0945,30.29435 v 0 l -19.43217,4.34673 -17.79661,-4.8192 v 0 z"
         style="fill:#000080;fill-opacity:1;stroke:#000000;stroke-width:1.20402706;stroke-miterlimit:4;stroke-dasharray:none" />
      <path
         sodipodi:nodetypes="cc"
         inkscape:connector-curvature="0"
         id="path1001"
         d="m 163.66369,164.33035 0.0945,-24.94642"
         style="fill:none;stroke:#000000;stroke-width:1.06500006;stroke-linecap:butt;stroke-linejoin:miter;stroke-miterlimit:4;stroke-dasharray:none;stroke-opacity:1" />
      <path
         sodipodi:nodetypes="ccsssc"
         inkscape:connector-curvature="0"
         id="rect1034"
         d="m 163.90967,46.249287 h 9.08716 c 0,0 -0.92002,16.621949 0,24.856065 0.21373,1.912832 -3.15178,3.577926 -5.32417,3.83976 -2.17739,0.262435 -3.08556,-2.180657 -3.76299,-3.83976 -3.13198,-7.670581 0,-24.856065 0,-24.856065 z"
         style="fill:#80ffe6;fill-opacity:1;stroke:#000000;stroke-width:1.06500006;stroke-miterlimit:4;stroke-dasharray:none"
         transform="rotate(22.214336)" />
      <path
         sodipodi:nodetypes="ccsssc"
         inkscape:connector-curvature="0"
         id="rect1034-0"
         d="m 193.94893,104.78621 -8.41268,3.4356 c 0,0 7.13603,15.04037 9.39739,23.01115 0.52533,1.85166 4.27056,2.12076 6.3807,1.54184 2.115,-0.58026 2.03209,-3.18537 2.03198,-4.97745 -5.2e-4,-8.28535 -9.39739,-23.01114 -9.39739,-23.01114 z"
         style="display:inline;fill:#80ffe6;fill-opacity:1;stroke:#000000;stroke-width:1.06500006;stroke-miterlimit:4;stroke-dasharray:none" />
      <path
         sodipodi:nodetypes="cccscssccccccc"
         inkscape:connector-curvature="0"
         id="rect979-5"
         d="m -210.35522,-55.537585 v -10.394346 l 15.96949,-10e-7 c 0,0 5.82868,2.997175 5.3801,5.529381 -0.4659,2.630047 4.47192,10.151558 4.47192,10.151558 0,0 5.40745,5.496409 11.35788,7.331687 0,0 3.94612,1.946495 4.88394,3.805244 2.39786,4.752509 -0.43697,15.963512 -0.43697,15.963512 l -10.39046,-0.284415 0.17337,-5.419537 -15.39758,15.08875 -26.09385,-26.817878 14.76366,-14.946754 c -0.56085,-0.03598 -2.81233,-0.01056 -4.6815,-0.0072 z"
         inkscape:transform-center-y="-0.18898653"
         inkscape:transform-center-x="0.28348023"
         style="display:inline;fill:#ffcc00;fill-opacity:1;stroke:#000000;stroke-width:1.20000005;stroke-miterlimit:4;stroke-dasharray:none"
         transform="matrix(-0.69736558,-0.7167156,-0.7167156,0.69736558,0,0)" />
    </g>
  </g>
</svg>
