<?xml version="1.0" encoding="UTF-8" standalone="no"?>
<!-- Created with Inkscape (http://www.inkscape.org/) -->

<svg
   xmlns:dc="http://purl.org/dc/elements/1.1/"
   xmlns:cc="http://creativecommons.org/ns#"
   xmlns:rdf="http://www.w3.org/1999/02/22-rdf-syntax-ns#"
   xmlns:svg="http://www.w3.org/2000/svg"
   xmlns="http://www.w3.org/2000/svg"
   xmlns:sodipodi="http://sodipodi.sourceforge.net/DTD/sodipodi-0.dtd"
   xmlns:inkscape="http://www.inkscape.org/namespaces/inkscape"
   width="210mm"
   height="297mm"
   viewBox="0 0 210 297"
   version="1.1"
   id="svg2388"
   inkscape:version="0.92.1 r15371"
   sodipodi:docname="train_game_splash.svg">
  <defs
     id="defs2382" />
  <sodipodi:namedview
     id="base"
     pagecolor="#ffffff"
     bordercolor="#666666"
     borderopacity="1.0"
     inkscape:pageopacity="0.0"
     inkscape:pageshadow="2"
     inkscape:zoom="0.49497475"
     inkscape:cx="144.90375"
     inkscape:cy="692.38128"
     inkscape:document-units="mm"
     inkscape:current-layer="layer1"
     showgrid="false"
     inkscape:window-width="1366"
     inkscape:window-height="705"
     inkscape:window-x="-8"
     inkscape:window-y="-8"
     inkscape:window-maximized="1" />
  <metadata
     id="metadata2385">
    <rdf:RDF>
      <cc:Work
         rdf:about="">
        <dc:format>image/svg+xml</dc:format>
        <dc:type
           rdf:resource="http://purl.org/dc/dcmitype/StillImage" />
        <dc:title />
      </cc:Work>
    </rdf:RDF>
  </metadata>
  <g
     inkscape:label="Layer 1"
     inkscape:groupmode="layer"
     id="layer1">
    <g
       id="g2448"
       transform="translate(0.37797333,5.6696366)">
      <g
         style="display:inline"
         id="layer1-1"
         inkscape:label="BG">
        <rect
           y="-7.6488094"
           x="-25.702381"
           height="310.69644"
           width="240.39285"
           id="rect105"
           style="fill:#00ffff;fill-opacity:1;stroke:#000000;stroke-width:1.20000005;stroke-miterlimit:4;stroke-dasharray:none" />
        <rect
           y="108.76786"
           x="-25.702381"
           height="194.27979"
           width="240.39285"
           id="rect10"
           style="fill:#008000;fill-opacity:1;stroke-width:1.00571394;stroke-miterlimit:4;stroke-dasharray:none" />
      </g>
      <g
         inkscape:label="Tracks"
         id="layer2">
        <rect
           y="170"
           x="-177.27083"
           height="0"
           width="57.452377"
           id="rect18-7"
           style="fill:#d45500;fill-opacity:1;stroke:#000000;stroke-width:1.20000005;stroke-miterlimit:4;stroke-dasharray:none" />
        <rect
           transform="matrix(0.82945395,0.5585751,-0.44298563,0.89652871,0,0)"
           y="142.88521"
           x="79.301521"
           height="60.666546"
           width="8.6461782"
           id="rect46"
           style="fill:#d45500;fill-opacity:1;stroke:#000000;stroke-width:1.51482451;stroke-miterlimit:4;stroke-dasharray:none" />
        <rect
           transform="matrix(0.82945395,0.5585751,-0.44298563,0.89652871,0,0)"
           y="131.89371"
           x="100.54502"
           height="60.666546"
           width="8.6461782"
           id="rect46-1"
           style="fill:#d45500;fill-opacity:1;stroke:#000000;stroke-width:1.51482451;stroke-miterlimit:4;stroke-dasharray:none" />
        <rect
           transform="matrix(0.82945395,0.5585751,-0.44298563,0.89652871,0,0)"
           y="118.24693"
           x="125.1552"
           height="60.666546"
           width="8.6461782"
           id="rect46-6"
           style="fill:#d45500;fill-opacity:1;stroke:#000000;stroke-width:1.51482451;stroke-miterlimit:4;stroke-dasharray:none" />
        <rect
           transform="matrix(0.82945395,0.5585751,-0.44298563,0.89652871,0,0)"
           y="104.60014"
           x="149.76537"
           height="60.666546"
           width="8.6461782"
           id="rect46-5"
           style="fill:#d45500;fill-opacity:1;stroke:#000000;stroke-width:1.51482451;stroke-miterlimit:4;stroke-dasharray:none" />
        <rect
           transform="matrix(0.82945395,0.5585751,-0.44298563,0.89652871,0,0)"
           y="88.203217"
           x="174.72954"
           height="60.666546"
           width="8.6461782"
           id="rect46-9"
           style="fill:#d45500;fill-opacity:1;stroke:#000000;stroke-width:1.51482451;stroke-miterlimit:4;stroke-dasharray:none" />
        <rect
           transform="matrix(0.82945395,0.5585751,-0.44298563,0.89652871,0,0)"
           y="73.923759"
           x="199.00182"
           height="60.666546"
           width="8.6461782"
           id="rect46-2"
           style="fill:#d45500;fill-opacity:1;stroke:#000000;stroke-width:1.51482451;stroke-miterlimit:4;stroke-dasharray:none" />
        <rect
           transform="matrix(0.82945395,0.5585751,-0.44298563,0.89652871,0,0)"
           y="59.218246"
           x="223.95795"
           height="60.666546"
           width="8.6461782"
           id="rect46-58"
           style="fill:#d45500;fill-opacity:1;stroke:#000000;stroke-width:1.51482451;stroke-miterlimit:4;stroke-dasharray:none" />
        <rect
           transform="matrix(0.82945395,0.5585751,-0.44298563,0.89652871,0,0)"
           y="42.315079"
           x="248.04643"
           height="60.666546"
           width="8.6461782"
           id="rect46-21"
           style="fill:#d45500;fill-opacity:1;stroke:#000000;stroke-width:1.51482451;stroke-miterlimit:4;stroke-dasharray:none" />
        <rect
           transform="matrix(0.82945395,0.5585751,-0.44298563,0.89652871,0,0)"
           y="27.909197"
           x="272.85651"
           height="60.666546"
           width="8.6461782"
           id="rect46-28"
           style="fill:#d45500;fill-opacity:1;stroke:#000000;stroke-width:1.51482451;stroke-miterlimit:4;stroke-dasharray:none" />
        <rect
           y="190.03275"
           x="-19.654758"
           height="4.5357141"
           width="247.19643"
           id="rect18-8"
           style="fill:#d45500;fill-opacity:1;stroke:#000000;stroke-width:1.20000005;stroke-miterlimit:4;stroke-dasharray:none" />
        <rect
           y="212.33334"
           x="-20.410715"
           height="4.5357141"
           width="247.19643"
           id="rect18"
           style="fill:#d45500;fill-opacity:1;stroke:#000000;stroke-width:1.20000005;stroke-miterlimit:4;stroke-dasharray:none" />
      </g>
      <g
         style="display:inline"
         inkscape:label="BGDude"
         id="layer3">
        <g
           transform="matrix(0.80328922,0,0,0.80328922,41.087434,10.16943)"
           id="g1095">
          <ellipse
             style="fill:#800000;fill-opacity:1;stroke:#000000;stroke-width:1.24641383;stroke-miterlimit:4;stroke-dasharray:none"
             id="path1003"
             cx="99.467453"
             cy="206.0016"
             rx="15.380799"
             ry="7.1266341"
             transform="matrix(0.94304075,-0.33267725,0.26634167,0.96387868,0,0)" />
          <ellipse
             style="display:inline;fill:#800000;fill-opacity:1;stroke:#000000;stroke-width:1.24641383;stroke-miterlimit:4;stroke-dasharray:none"
             id="path1003-8"
             cx="-216.60895"
             cy="96.874962"
             rx="15.380799"
             ry="7.1266341"
             transform="matrix(-0.94304075,-0.33267724,-0.26634168,0.96387868,0,0)" />
          <g
             id="g145">
            <path
               style="fill:#80ffe6;fill-opacity:1;stroke:#000000;stroke-width:1.20000005;stroke-miterlimit:4;stroke-dasharray:none"
               d="m 188.92324,62.438908 c 0,9.941751 -5.68634,18.555387 -13.98406,22.765927 -3.46282,1.757149 3.58089,11.629907 -0.56802,11.629906 -0.79237,0 -17.88399,1.081395 -18.74102,0.985783 -1.13071,-0.126144 -1.20358,-2.028068 -1.06576,-4.2621 0.19187,-3.110185 0.79211,-6.864055 -0.48508,-7.366143 -9.47545,-3.724978 -16.18284,-12.955878 -16.18284,-23.753373 0,-14.090657 11.42273,-25.513392 25.51339,-25.513394 14.09066,2e-6 25.51339,11.422737 25.51339,25.513394 z"
               id="path108"
               inkscape:connector-curvature="0"
               sodipodi:nodetypes="sssssssss" />
          </g>
          <path
             style="fill:#000080;fill-opacity:1;stroke:#000000;stroke-width:1.20402706;stroke-miterlimit:4;stroke-dasharray:none"
             d="m 145.39461,129.68929 h 37.41776 v 0 l -0.0945,30.29435 v 0 l -19.43217,4.34673 -17.79661,-4.8192 v 0 z"
             id="rect998"
             inkscape:connector-curvature="0"
             sodipodi:nodetypes="ccccccccc" />
          <path
             style="fill:none;stroke:#000000;stroke-width:1.06500006;stroke-linecap:butt;stroke-linejoin:miter;stroke-miterlimit:4;stroke-dasharray:none;stroke-opacity:1"
             d="m 163.66369,164.33035 0.0945,-24.94642"
             id="path1001"
             inkscape:connector-curvature="0"
             sodipodi:nodetypes="cc" />
          <path
             transform="rotate(22.214336)"
             style="fill:#80ffe6;fill-opacity:1;stroke:#000000;stroke-width:1.06500006;stroke-miterlimit:4;stroke-dasharray:none"
             d="m 163.90967,46.249287 h 9.08716 c 0,0 -0.92002,16.621949 0,24.856065 0.21373,1.912832 -3.15178,3.577926 -5.32417,3.83976 -2.17739,0.262435 -3.08556,-2.180657 -3.76299,-3.83976 -3.13198,-7.670581 0,-24.856065 0,-24.856065 z"
             id="rect1034"
             inkscape:connector-curvature="0"
             sodipodi:nodetypes="ccsssc" />
          <path
             style="display:inline;fill:#80ffe6;fill-opacity:1;stroke:#000000;stroke-width:1.06500006;stroke-miterlimit:4;stroke-dasharray:none"
             d="m 193.94893,104.78621 -8.41268,3.4356 c 0,0 7.13603,15.04037 9.39739,23.01115 0.52533,1.85166 4.27056,2.12076 6.3807,1.54184 2.115,-0.58026 2.03209,-3.18537 2.03198,-4.97745 -5.2e-4,-8.28535 -9.39739,-23.01114 -9.39739,-23.01114 z"
             id="rect1034-0"
             inkscape:connector-curvature="0"
             sodipodi:nodetypes="ccsssc" />
          <path
             transform="matrix(-0.69736558,-0.7167156,-0.7167156,0.69736558,0,0)"
             style="display:inline;fill:#ffcc00;fill-opacity:1;stroke:#000000;stroke-width:1.20000005;stroke-miterlimit:4;stroke-dasharray:none"
             inkscape:transform-center-x="0.28348023"
             inkscape:transform-center-y="-0.18898653"
             d="m -210.35522,-55.537585 v -10.394346 l 15.96949,-10e-7 c 0,0 5.82868,2.997175 5.3801,5.529381 -0.4659,2.630047 4.47192,10.151558 4.47192,10.151558 0,0 5.40745,5.496409 11.35788,7.331687 0,0 3.94612,1.946495 4.88394,3.805244 2.39786,4.752509 -0.43697,15.963512 -0.43697,15.963512 l -10.39046,-0.284415 0.17337,-5.419537 -15.39758,15.08875 -26.09385,-26.817878 14.76366,-14.946754 c -0.56085,-0.03598 -2.81233,-0.01056 -4.6815,-0.0072 z"
             id="rect979-5"
             inkscape:connector-curvature="0"
             sodipodi:nodetypes="cccscssccccccc" />
        </g>
      </g>
    </g>
    <g
       id="layer1-4"
       inkscape:label="Layer 1"
       transform="matrix(0.16863794,0,0,0.16863794,154.39284,41.536314)">
      <circle
         r="14.741072"
         cy="127.28869"
         cx="47.247025"
         id="path1120"
         style="fill:#000000;fill-opacity:1;stroke:#000000;stroke-width:1.06500006;stroke-miterlimit:4;stroke-dasharray:none" />
      <circle
         r="14.741072"
         cy="128.42262"
         cx="152.70238"
         id="path1120-9"
         style="fill:#000000;fill-opacity:1;stroke:#000000;stroke-width:1.06500006;stroke-miterlimit:4;stroke-dasharray:none" />
      <path
         sodipodi:nodetypes="cscc"
         inkscape:connector-curvature="0"
         id="path1139"
         d="m 145.79135,177.15659 c 0,22.7538 -17.91106,52.95927 -40.66486,52.95927 -22.753806,0 -41.733947,-30.20547 -41.733943,-52.95927 -3.014825,10.70576 82.459993,14.13079 82.398803,0 z"
         style="fill:#000000;fill-opacity:1;stroke:#000000;stroke-width:1.06500006;stroke-miterlimit:4;stroke-dasharray:none" />
    </g>
    <g
       id="layer1-7"
       inkscape:label="Layer 1"
       transform="translate(-31.464688,4.5654422)">
      <path
         sodipodi:nodetypes="csssccsssc"
         inkscape:connector-curvature="0"
         id="path1105"
         d="m 79.199311,259.61178 c -9.409611,20.41411 8.648229,45.59514 3.842983,40.49409 -2.489483,-2.64273 -28.231891,1.26743 -31.992579,1.26743 -3.632721,0 -32.921484,-3.81884 -35.102197,-1.06783 -5.570219,7.02694 13.080421,-23.32219 6.370759,-40.57626 m 0,0 C 3.1951443,249.57089 -9.8273803,229.44909 -9.8273811,206.28571 c -1.1e-6,-33.40008 27.0761101,-60.4762 60.4761921,-60.4762 33.400081,0 60.476189,27.07612 60.476189,60.4762 0,23.07446 -12.922731,43.13065 -31.925689,53.32607"
         style="fill:#80ffe6;fill-opacity:1;stroke:#000000;stroke-width:1.06500006;stroke-miterlimit:4;stroke-dasharray:none" />
      <rect
         ry="19.276785"
         y="284.52679"
         x="-16.252975"
         height="47.625"
         width="129.64583"
         id="rect1110"
         style="fill:#ff0000;fill-opacity:1;stroke:#000000;stroke-width:1.06500006;stroke-miterlimit:4;stroke-dasharray:none" />
    </g>
    <g
       id="layer1-5"
       inkscape:label="Layer 1"
       transform="matrix(0.77132869,0,0,0.77132869,-11.388468,-55.733909)">
      <path
         sodipodi:nodetypes="ssssssss"
         inkscape:connector-curvature="0"
         id="path1701"
         d="m 198.0595,135.60417 c 0,10.31725 -4.48729,19.98653 -12.32106,28.30253 -3.24479,3.44453 19.01664,26.31164 14.70464,29.24169 -4.88702,3.32078 -36.48775,-13.37581 -42.52344,-10.85321 -14.54271,6.07808 -32.07712,9.62744 -50.95239,9.62744 -50.308864,0 -91.092257,-25.21463 -91.092258,-56.31845 2e-6,-31.10382 40.783395,-56.31845 91.092258,-56.318449 50.30886,2e-6 91.09225,25.214629 91.09225,56.318449 z"
         style="fill:#ffffff;fill-opacity:1;stroke:#000000;stroke-width:2.56500006;stroke-miterlimit:4;stroke-dasharray:none" />
    </g>
    <g
       aria-label="No Need
to Shout"
       style="font-style:normal;font-weight:normal;font-size:25.39999962px;line-height:1.25;font-family:sans-serif;letter-spacing:0px;word-spacing:0px;fill:#000000;fill-opacity:1;stroke:none;stroke-width:0.26458332"
       id="text5129">
      <path
         d="m 39.857739,32.158677 0.374826,-1.841059 0.56224,-2.921441 0.253559,-1.333941 0.15434,-0.837848 q 0.121268,-0.595312 0.529167,-0.595312 0.242535,0 0.308681,0.143316 0.06614,0.132292 -0.01102,0.518142 l -0.03307,0.154341 q -0.05512,0.23151 -0.165364,0.760677 l -0.782726,3.715191 -0.71658,3.40651 -0.683507,3.582899 -0.672482,3.593924 Q 36.99142,39.081941 33.110864,36.579423 29.241333,34.065882 26.815986,32.632722 l -0.09922,0.540191 -1.025261,5.688542 -0.143316,0.760677 q -0.09922,0.474045 -0.540191,0.474045 -0.451996,0 -0.330729,-0.584288 l 0.165365,-0.771702 0.253559,-1.245746 1.179601,-5.655469 1.433159,-7.617795 q 3.913629,2.7671 12.148785,7.9375 z"
         style="font-style:italic;font-variant:normal;font-weight:normal;font-stretch:normal;font-size:22.57777786px;font-family:Broadway;-inkscape-font-specification:'Broadway Italic';stroke-width:0.26458332"
         id="path5133" />
      <path
         d="m 49.581176,27.550517 q 1.774913,0 3.163975,0.981163 1.289844,0.903993 1.741841,2.469445 0.407899,1.378038 0.09922,2.921441 -0.209462,1.058333 -0.826823,2.127691 -0.617361,1.069357 -1.477257,1.89618 -1.190625,1.135504 -2.711979,1.708768 -1.234722,0.474045 -2.480469,0.474045 -2.083593,0 -3.505729,-1.234723 -1.113455,-0.94809 -1.488281,-2.436371 -0.308681,-1.256771 -0.03307,-2.656858 0.551215,-2.734028 2.899392,-4.542014 2.193837,-1.675694 4.619185,-1.708767 z m -0.463021,0.71658 -2.259983,11.1125 q 0.341754,0.02205 0.474045,0.02205 1.532379,0 3.09783,-0.859895 1.521354,-0.837848 2.469445,-2.22691 0.749652,-1.102431 1.014236,-2.425347 0.529166,-2.656858 -1.102431,-4.310504 -1.322917,-1.333941 -3.186024,-1.333941 -0.154341,0 -0.507118,0.02205 z"
         style="font-style:italic;font-variant:normal;font-weight:normal;font-stretch:normal;font-size:22.57777786px;font-family:Broadway;-inkscape-font-specification:'Broadway Italic';stroke-width:0.26458332"
         id="path5135" />
      <path
         d="m 75.841073,32.158677 0.374826,-1.841059 0.56224,-2.921441 0.253559,-1.333941 0.15434,-0.837848 q 0.121267,-0.595312 0.529167,-0.595312 0.242534,0 0.30868,0.143316 0.06615,0.132292 -0.01102,0.518142 l -0.03307,0.154341 q -0.05512,0.23151 -0.165365,0.760677 l -0.782725,3.715191 -0.71658,3.40651 -0.683507,3.582899 -0.672483,3.593924 q -1.984375,-1.422135 -5.86493,-3.924653 -3.869532,-2.513541 -6.294879,-3.946701 l -0.09922,0.540191 -1.02526,5.688542 -0.143316,0.760677 q -0.09922,0.474045 -0.540191,0.474045 -0.451997,0 -0.330729,-0.584288 l 0.165364,-0.771702 0.253559,-1.245746 1.179601,-5.655469 1.43316,-7.617795 q 3.913628,2.7671 12.148785,7.9375 z"
         style="font-style:italic;font-variant:normal;font-weight:normal;font-stretch:normal;font-size:22.57777786px;font-family:Broadway;-inkscape-font-specification:'Broadway Italic';stroke-width:0.26458332"
         id="path5137" />
      <path
         d="m 83.117113,34.220222 -0.683507,3.417535 q -0.198437,0.992187 -0.132291,1.25677 0.132291,0.507118 0.992187,0.507118 1.27882,0 2.667882,-0.694531 1.389063,-0.705555 2.557639,-1.940278 0.374826,-0.407899 0.529167,-0.518142 0.15434,-0.110243 0.30868,-0.110243 0.187413,0 0.275608,0.143316 0.09922,0.132292 0.05512,0.341753 -0.08819,0.463021 -0.981163,1.245747 -1.1796,1.003212 -2.745052,1.631597 -1.554427,0.628386 -2.921441,0.628386 -2.348177,0 -3.836458,-1.576476 -0.859896,-0.926042 -1.146528,-2.282031 -0.264583,-1.190625 -0.02205,-2.38125 0.231511,-1.146528 0.892969,-2.293056 0.672483,-1.157552 1.620573,-1.995399 1.080382,-0.981163 2.414323,-1.521354 1.311892,-0.529167 2.623785,-0.529167 2.039496,0 3.450607,1.201649 2.204861,1.874132 1.466233,5.434983 h -2.568663 l -3.307292,0.01102 z m 2.965538,-0.727604 0.63941,-3.219098 q 0.187413,-1.036284 0.209462,-1.234722 0.02205,-0.209462 -0.07717,-0.38585 Q 86.633867,28.223 85.685776,28.223 q -0.970138,0 -1.311892,0.496093 -0.220486,0.297657 -0.474045,1.554427 l -0.63941,3.219098 1.333941,0.0441 z"
         style="font-style:italic;font-variant:normal;font-weight:normal;font-stretch:normal;font-size:22.57777786px;font-family:Broadway;-inkscape-font-specification:'Broadway Italic';stroke-width:0.26458332"
         id="path5139" />
      <path
         d="m 96.654959,34.220222 -0.683507,3.417535 q -0.198438,0.992187 -0.132292,1.25677 0.132292,0.507118 0.992188,0.507118 1.278819,0 2.667882,-0.694531 1.38906,-0.705555 2.55764,-1.940278 0.37483,-0.407899 0.52917,-0.518142 0.15434,-0.110243 0.30868,-0.110243 0.18741,0 0.2756,0.143316 0.0992,0.132292 0.0551,0.341753 -0.0882,0.463021 -0.98117,1.245747 -1.1796,1.003212 -2.74505,1.631597 -1.554427,0.628386 -2.921441,0.628386 -2.348177,0 -3.836459,-1.576476 -0.859895,-0.926042 -1.146527,-2.282031 -0.264584,-1.190625 -0.02205,-2.38125 0.23151,-1.146528 0.892969,-2.293056 0.672482,-1.157552 1.620573,-1.995399 1.080382,-0.981163 2.414323,-1.521354 1.311892,-0.529167 2.623784,-0.529167 2.039497,0 3.450607,1.201649 2.20486,1.874132 1.46623,5.434983 h -2.56866 l -3.307291,0.01102 z m 2.965538,-0.727604 0.639413,-3.219098 q 0.18741,-1.036284 0.20946,-1.234722 0.0221,-0.209462 -0.0772,-0.38585 Q 100.17171,28.223 99.223622,28.223 q -0.970139,0 -1.311892,0.496093 -0.220486,0.297657 -0.474045,1.554427 l -0.63941,3.219098 1.333941,0.0441 z"
         style="font-style:italic;font-variant:normal;font-weight:normal;font-stretch:normal;font-size:22.57777786px;font-family:Broadway;-inkscape-font-specification:'Broadway Italic';stroke-width:0.26458332"
         id="path5141" />
      <path
         d="m 121.95574,24.838538 -1.10243,5.390885 -0.7717,3.81441 -1.03628,5.346788 -0.0992,0.496094 h -5.63342 l 0.28663,-1.43316 q -1.08038,0.903993 -2.00642,1.289844 -0.91502,0.385851 -1.98438,0.385851 -2.09462,0 -3.41753,-1.543403 -1.64263,-1.907205 -1.05834,-4.83967 0.57327,-2.844271 2.87735,-4.619184 2.05052,-1.576476 4.21128,-1.576476 0.95912,0 1.78594,0.363802 0.82682,0.363802 1.51033,1.091406 l 0.79375,-4.167187 z m -6.61458,5.07118 q -0.70556,-0.782725 -1.32292,-1.168576 -0.60633,-0.385851 -1.1355,-0.385851 -0.41892,0 -0.62839,0.308681 -0.20946,0.297656 -0.37482,1.135503 l -0.0882,0.48507 -1.47725,7.408333 q -0.16537,0.892969 -0.14332,1.113455 0.0331,0.474045 0.54019,0.474045 0.55122,0 1.24575,-0.407899 0.70555,-0.418924 1.88515,-1.444184 z"
         style="font-style:italic;font-variant:normal;font-weight:normal;font-stretch:normal;font-size:22.57777786px;font-family:Broadway;-inkscape-font-specification:'Broadway Italic';stroke-width:0.26458332"
         id="path5143" />
      <path
         d="m 34.058954,57.903572 -0.837847,3.560851 -0.07717,0.341753 q 0.959115,0 1.752865,-0.07717 0.143316,-0.01102 0.242534,-0.01102 0.48507,0 0.396875,0.440972 -0.08819,0.407899 -0.595312,0.407899 -0.154341,0 -0.374827,-0.02205 -0.859895,-0.06615 -1.234722,-0.06615 h -0.319705 l -0.440972,2.138715 -0.815799,4.288455 -0.418923,2.293056 q -0.165365,0.804774 -0.110243,1.124479 0.05512,0.319705 0.352778,0.319705 0.396875,0 0.94809,-0.463021 0.529167,-0.463021 0.915017,-1.135504 0.363802,-0.639409 0.683507,-0.639409 0.374827,0 0.286632,0.418923 -0.07717,0.418924 -0.584288,1.047309 -0.496094,0.617361 -1.113455,1.080382 -1.532378,1.135504 -3.604948,1.135504 -1.951302,0 -2.778125,-1.179601 -0.440972,-0.595313 -0.507118,-1.322917 -0.05512,-0.738628 0.209462,-2.039496 l 0.165364,-0.826823 0.474046,-2.326129 0.782725,-3.946701 q -0.143316,-0.01102 -0.209462,-0.01102 -0.110243,0 -0.451996,0.02205 -0.275608,0.02205 -0.463021,0.02205 -0.540191,0 -0.463021,-0.407899 0.07717,-0.396875 0.595313,-0.396875 0.242534,0 0.341753,0.01102 l 0.79375,0.05512 0.253559,-1.245746 q 3.494705,-1.179601 6.206684,-2.590712 z"
         style="font-style:italic;font-variant:normal;font-weight:normal;font-stretch:normal;font-size:22.57777786px;font-family:Broadway;-inkscape-font-specification:'Broadway Italic';stroke-width:0.26458332"
         id="path5145" />
      <path
         d="m 42.746108,61.486471 q 1.774913,0 3.163975,0.981164 1.289844,0.903993 1.741841,2.469444 0.407899,1.378038 0.09922,2.921441 -0.209462,1.058333 -0.826823,2.127691 -0.617362,1.069358 -1.477257,1.89618 -1.190625,1.135504 -2.71198,1.708768 -1.234722,0.474045 -2.480468,0.474045 -2.083594,0 -3.505729,-1.234722 -1.113455,-0.948091 -1.488282,-2.436372 -0.30868,-1.256771 -0.03307,-2.656857 0.551216,-2.734028 2.899393,-4.542014 2.193837,-1.675695 4.619184,-1.708768 z m -0.463021,0.71658 -2.259983,11.1125 q 0.341754,0.02205 0.474045,0.02205 1.532379,0 3.09783,-0.859896 1.521354,-0.837847 2.469445,-2.22691 0.749653,-1.10243 1.014236,-2.425347 0.529167,-2.656858 -1.102431,-4.310503 -1.322916,-1.333941 -3.186024,-1.333941 -0.15434,0 -0.507118,0.02205 z"
         style="font-style:italic;font-variant:normal;font-weight:normal;font-stretch:normal;font-size:22.57777786px;font-family:Broadway;-inkscape-font-specification:'Broadway Italic';stroke-width:0.26458332"
         id="path5147" />
      <path
         d="m 54.310604,71.26503 q 0.198437,0 0.407899,0.297657 0.650434,0.903993 1.730816,1.455208 1.091406,0.540191 2.259983,0.540191 1.289843,0 1.444184,-0.782726 0.09922,-0.496094 -0.231511,-1.113455 -0.319705,-0.628385 -1.66467,-2.469444 -1.686719,-2.326129 -2.171788,-3.450608 -0.650434,-1.488281 -0.385851,-2.833246 0.407899,-2.028472 2.469445,-3.318316 2.028472,-1.267795 4.630208,-1.267795 1.81901,0 3.197049,0.738628 0.518142,0.286632 0.848871,0.661458 0.341754,0.374827 0.286632,0.628386 -0.02205,0.121267 -0.165365,0.23151 -0.132291,0.09922 -0.253559,0.09922 -0.187413,0 -0.474045,-0.341753 -0.485069,-0.56224 -1.389062,-0.926042 -0.892969,-0.374827 -1.785938,-0.374827 -0.551215,0 -0.94809,0.242535 -0.385851,0.231511 -0.463021,0.606337 -0.08819,0.451997 0.209462,1.102431 0.297656,0.650434 1.102431,1.730816 2.557638,3.450607 3.042708,4.652257 0.507118,1.267795 0.275608,2.447395 -0.209462,1.003212 -0.926042,1.896181 -0.71658,0.892969 -1.785938,1.466233 -2.050521,1.091406 -4.68533,1.091406 -2.425347,0 -4.012847,-1.256771 -1.113455,-0.881944 -1.014236,-1.378038 0.02205,-0.143316 0.15434,-0.253559 0.143316,-0.121268 0.297657,-0.121268 z"
         style="font-style:italic;font-variant:normal;font-weight:normal;font-stretch:normal;font-size:22.57777786px;font-family:Broadway;-inkscape-font-specification:'Broadway Italic';stroke-width:0.26458332"
         id="path5149" />
      <path
         d="m 75.168589,63.338555 q 1.20165,-0.71658 1.940278,-1.047309 1.819011,-0.804775 3.439584,-0.804775 1.168576,0 2.017447,0.418924 0.859896,0.418924 1.157553,1.146528 0.374826,0.87092 -0.09922,3.197048 l -0.341754,1.642622 -0.463021,2.171788 -0.672482,3.759288 h -5.655469 l 1.411111,-6.813021 0.63941,-3.48368 q 0,-0.573264 -0.705556,-0.573264 -0.518142,0 -1.223698,0.319705 -0.705555,0.30868 -1.620572,0.94809 l -0.573264,2.767101 -0.915018,4.795573 -0.374826,2.039496 h -5.677518 l 0.948091,-4.652257 1.069357,-5.302691 0.881945,-4.586111 0.110243,-0.507118 h 5.622396 l -0.06615,0.308681 -0.363802,1.885156 -0.242535,1.168576 z"
         style="font-style:italic;font-variant:normal;font-weight:normal;font-stretch:normal;font-size:22.57777786px;font-family:Broadway;-inkscape-font-specification:'Broadway Italic';stroke-width:0.26458332"
         id="path5151" />
      <path
         d="m 92.531871,61.486471 q 1.774913,0 3.163975,0.981164 1.289844,0.903993 1.741841,2.469444 0.407899,1.378038 0.09922,2.921441 -0.209462,1.058333 -0.826823,2.127691 -0.617361,1.069358 -1.477257,1.89618 -1.190625,1.135504 -2.711979,1.708768 -1.234722,0.474045 -2.480469,0.474045 -2.083593,0 -3.505729,-1.234722 -1.113455,-0.948091 -1.488281,-2.436372 -0.30868,-1.256771 -0.03307,-2.656857 0.551215,-2.734028 2.899393,-4.542014 2.193836,-1.675695 4.619184,-1.708768 z m -0.463021,0.71658 -2.259983,11.1125 q 0.341754,0.02205 0.474045,0.02205 1.532379,0 3.09783,-0.859896 1.521354,-0.837847 2.469445,-2.22691 0.749652,-1.10243 1.014236,-2.425347 0.529166,-2.656858 -1.102431,-4.310503 -1.322917,-1.333941 -3.186024,-1.333941 -0.15434,0 -0.507118,0.02205 z"
         style="font-style:italic;font-variant:normal;font-weight:normal;font-stretch:normal;font-size:22.57777786px;font-family:Broadway;-inkscape-font-specification:'Broadway Italic';stroke-width:0.26458332"
         id="path5153" />
      <path
         d="m 114.97736,61.784128 -1.76389,8.665104 -0.63941,3.373437 h -5.63342 l 0.30868,-1.554427 q -1.5875,0.959115 -2.82223,1.378038 -1.23472,0.418924 -2.49149,0.418924 -2.304078,0 -3.07578,-1.367014 -0.275607,-0.507118 -0.297656,-1.146528 -0.02205,-0.650434 0.220486,-1.841059 l 0.529167,-2.579687 0.363802,-1.719792 0.661461,-3.626996 h 5.63342 l -1.15755,5.534201 -0.4079,2.094618 -0.27561,1.411111 q -0.25356,1.267795 -0.14332,1.521354 0.13229,0.286632 0.65044,0.286632 0.52916,0 1.14652,-0.275607 0.62839,-0.275608 1.66467,-0.981164 l 0.30868,-1.444184 0.80478,-3.935677 0.70555,-3.869531 0.0661,-0.341753 z"
         style="font-style:italic;font-variant:normal;font-weight:normal;font-stretch:normal;font-size:22.57777786px;font-family:Broadway;-inkscape-font-specification:'Broadway Italic';stroke-width:0.26458332"
         id="path5155" />
      <path
         d="m 124.41416,57.903572 -0.83784,3.560851 -0.0772,0.341753 q 0.95911,0 1.75286,-0.07717 0.14332,-0.01102 0.24254,-0.01102 0.48507,0 0.39687,0.440972 -0.0882,0.407899 -0.59531,0.407899 -0.15434,0 -0.37483,-0.02205 -0.85989,-0.06615 -1.23472,-0.06615 h -0.31971 l -0.44097,2.138715 -0.8158,4.288455 -0.41892,2.293056 q -0.16536,0.804774 -0.11024,1.124479 0.0551,0.319705 0.35277,0.319705 0.39688,0 0.9481,-0.463021 0.52916,-0.463021 0.91501,-1.135504 0.3638,-0.639409 0.68351,-0.639409 0.37483,0 0.28663,0.418923 -0.0772,0.418924 -0.58429,1.047309 -0.49609,0.617361 -1.11345,1.080382 -1.53238,1.135504 -3.60495,1.135504 -1.9513,0 -2.77812,-1.179601 -0.44098,-0.595313 -0.50712,-1.322917 -0.0551,-0.738628 0.20946,-2.039496 l 0.16536,-0.826823 0.47405,-2.326129 0.78272,-3.946701 q -0.14331,-0.01102 -0.20946,-0.01102 -0.11024,0 -0.45199,0.02205 -0.27561,0.02205 -0.46302,0.02205 -0.5402,0 -0.46303,-0.407899 0.0772,-0.396875 0.59532,-0.396875 0.24253,0 0.34175,0.01102 l 0.79375,0.05512 0.25356,-1.245746 q 3.4947,-1.179601 6.20668,-2.590712 z"
         style="font-style:italic;font-variant:normal;font-weight:normal;font-stretch:normal;font-size:22.57777786px;font-family:Broadway;-inkscape-font-specification:'Broadway Italic';stroke-width:0.26458332"
         id="path5157" />
    </g>
  </g>
</svg>
